<?xml version="1.0" encoding="UTF-8" standalone="no"?>
<!DOCTYPE svg PUBLIC "-//W3C//DTD SVG 1.1//EN" "http://www.w3.org/Graphics/SVG/1.1/DTD/svg11.dtd">
<svg xmlns="http://www.w3.org/2000/svg" version="1.1" viewBox="0 0 245 67">
<g stroke-width="2.00" fill="none" stroke-linecap="butt">
<path stroke="#9f915f" stroke-opacity="0.639" vector-effect="non-scaling-stroke" d="
  M 5.00 11.79
  C 6.59 18.29 13.31 21.93 19.50 23.04"
/>
<path stroke="#938c5c" stroke-opacity="0.898" vector-effect="non-scaling-stroke" d="
  M 19.50 23.04
  L 21.00 23.46"
/>
<path stroke="#9f915f" stroke-opacity="0.639" vector-effect="non-scaling-stroke" d="
  M 21.00 23.46
  Q 23.81 24.31 26.75 23.71"
/>
<path stroke="#938c5c" stroke-opacity="0.898" vector-effect="non-scaling-stroke" d="
  M 26.75 23.71
  Q 33.20 23.49 26.25 23.29"
/>
<path stroke="#9f915f" stroke-opacity="0.639" vector-effect="non-scaling-stroke" d="
  M 26.25 23.29
  L 21.25 22.79"
/>
<path stroke="#938c5c" stroke-opacity="0.898" vector-effect="non-scaling-stroke" d="
  M 21.25 22.79
  L 19.50 22.54"
/>
<path stroke="#9f915f" stroke-opacity="0.639" vector-effect="non-scaling-stroke" d="
  M 19.50 22.54
  C 13.81 21.53 7.14 17.73 5.50 11.79"
/>
<path stroke="#938c5c" stroke-opacity="0.898" vector-effect="non-scaling-stroke" d="
  M 45.50 22.29
  Q 45.06 23.77 43.41 23.30
  Q 41.71 22.81 39.82 23.30
  C 39.16 23.48 39.18 23.90 39.79 23.96
  C 40.96 24.07 44.66 23.19 44.25 25.21"
/>
<path stroke="#9d9763" stroke-opacity="0.898" vector-effect="non-scaling-stroke" d="
  M 200.50 25.21
  L 199.21 22.75"
/>
<path stroke="#aca269" stroke-opacity="0.639" vector-effect="non-scaling-stroke" d="
  M 239.50 12.04
  Q 238.46 15.39 235.74 17.60
  C 234.71 18.43 234.95 19.40 236.18 18.29
  Q 239.05 15.69 240.21 12.00"
/>
<path stroke="#97834a" stroke-opacity="0.898" vector-effect="non-scaling-stroke" d="
  M 198.50 23.04
  L 200.04 25.25"
/>
<path stroke="#a48646" stroke-opacity="0.639" vector-effect="non-scaling-stroke" d="
  M 165.46 24.50
  Q 165.16 23.08 163.87 22.39
  Q 163.24 22.05 163.27 22.76
  C 163.29 23.56 164.94 23.14 165.00 24.46"
/>
<path stroke="#a89052" stroke-opacity="0.639" vector-effect="non-scaling-stroke" d="
  M 126.50 26.96
  C 126.46 26.88 124.63 23.41 124.52 24.55
  A 0.45 0.41 -58.9 0 0 124.57 24.79
  L 125.96 27.25"
/>
<path stroke="#caa55b" stroke-opacity="0.996" vector-effect="non-scaling-stroke" d="
  M 131.00 33.29
  Q 132.52 37.84 137.07 39.33"
/>
<path stroke="#cfb771" stroke-opacity="0.996" vector-effect="non-scaling-stroke" d="
  M 88.22 37.99
  Q 87.24 37.11 86.54 37.50"
/>
<path stroke="#a89052" stroke-opacity="0.639" vector-effect="non-scaling-stroke" d="
  M 86.54 37.50
  L 85.29 37.50"
/>
<path stroke="#cfb771" stroke-opacity="0.996" vector-effect="non-scaling-stroke" d="
  M 85.29 37.50
  Q 87.84 35.88 84.75 36.21"
/>
<path stroke="#9a8b52" stroke-opacity="0.898" vector-effect="non-scaling-stroke" d="
  M 84.75 36.21
  Q 83.66 35.65 82.79 36.50"
/>
<path stroke="#e1c97f" vector-effect="non-scaling-stroke" d="
  M 82.79 36.50
  C 85.17 30.75 76.74 32.69 74.50 33.46"
/>
<path stroke="#e1c97f" vector-effect="non-scaling-stroke" d="
  M 74.21 34.00
  L 75.25 37.25"
/>
<path stroke="#cfb771" stroke-opacity="0.996" vector-effect="non-scaling-stroke" d="
  M 67.29 32.95
  Q 66.85 33.05 66.50 32.96"
/>
<path stroke="#a89052" stroke-opacity="0.639" vector-effect="non-scaling-stroke" d="
  M 57.25 26.29
  Q 58.10 27.11 59.37 26.55
  A 0.80 0.79 -11.8 0 0 59.84 25.84
  Q 59.88 24.61 58.72 25.84
  A 0.53 0.51 -52.4 0 1 58.08 25.93
  L 57.79 25.75"
/>
<path stroke="#9d9763" stroke-opacity="0.898" vector-effect="non-scaling-stroke" d="
  M 80.03 37.30
  Q 82.70 37.89 84.75 36.21"
/>
<path stroke="#aca269" stroke-opacity="0.639" vector-effect="non-scaling-stroke" d="
  M 85.29 37.50
  Q 84.67 37.71 84.18 38.06
  Q 81.71 39.84 84.45 38.51
  L 86.54 37.50"
/>
<path stroke="#b1ac72" stroke-opacity="0.898" vector-effect="non-scaling-stroke" d="
  M 82.79 36.50
  L 80.03 37.30"
/>
<path stroke="#e3d58d" vector-effect="non-scaling-stroke" d="
  M 80.03 37.30
  Q 77.90 36.74 75.25 37.25"
/>
<path stroke="#aca269" stroke-opacity="0.639" vector-effect="non-scaling-stroke" d="
  M 224.50 22.96
  L 220.84 23.51
  Q 218.48 23.87 220.87 23.93
  Q 222.84 23.98 224.75 23.21"
/>
<path stroke="#9d9763" stroke-opacity="0.898" vector-effect="non-scaling-stroke" d="
  M 224.75 23.21
  Q 230.32 22.47 232.30 20.80
  Q 233.75 19.58 232.01 20.38
  Q 228.42 22.02 224.50 22.96"
/>
<path stroke="#a89052" stroke-opacity="0.639" vector-effect="non-scaling-stroke" d="
  M 92.50 31.50
  L 89.24 33.36
  A 0.21 0.15 69.0 0 0 89.19 33.57
  L 89.27 33.84
  A 0.21 0.20 72.0 0 0 89.54 33.98
  Q 91.51 33.26 92.50 31.50"
/>
<path stroke="#9a8b52" stroke-opacity="0.898" vector-effect="non-scaling-stroke" d="
  M 92.50 31.50
  Q 93.71 31.07 94.23 30.10
  Q 95.14 28.37 93.89 29.86
  L 92.50 31.50"
/>
<path stroke="#a89052" stroke-opacity="0.639" vector-effect="non-scaling-stroke" d="
  M 86.10 32.94
  L 85.32 33.26
  Q 83.44 34.04 85.47 34.05
  Q 86.13 34.05 86.56 33.59
  Q 87.81 32.23 86.10 32.94"
/>
<path stroke="#9a8b52" stroke-opacity="0.898" vector-effect="non-scaling-stroke" d="
  M 87.56 35.31
  C 88.66 34.13 83.01 36.30 87.00 35.62
  A 1.02 1.00 -73.4 0 0 87.56 35.31"
/>
<path stroke="#a89052" stroke-opacity="0.639" vector-effect="non-scaling-stroke" d="
  M 138.2821 43.6378
  A 1.16 0.33 51.5 0 0 137.8183 42.5246
  A 1.16 0.33 51.5 0 0 136.8379 41.8222
  A 1.16 0.33 51.5 0 0 137.3017 42.9354
  A 1.16 0.33 51.5 0 0 138.2821 43.6378"
/>
<path stroke="#a89052" stroke-opacity="0.639" vector-effect="non-scaling-stroke" d="
  M 130.49 48.17
  Q 130.53 48.81 131.00 49.16
  Q 132.40 50.23 131.61 48.65
  L 131.26 47.96
  Q 130.37 46.18 130.49 48.17"
/>
<path stroke="#a48646" stroke-opacity="0.639" vector-effect="non-scaling-stroke" d="
  M 198.69 29.91
  C 198.62 22.56 197.57 30.57 198.40 30.31
  A 0.42 0.41 81.6 0 0 198.69 29.91"
/>
<path stroke="#a48646" stroke-opacity="0.639" vector-effect="non-scaling-stroke" d="
  M 174.44 32.69
  Q 174.28 33.10 173.45 34.36
  Q 173.19 34.75 173.50 34.75
  L 173.75 34.75
  A 0.89 0.04 -50.0 0 0 174.33 34.12
  L 176.10 32.01
  Q 177.16 30.74 175.63 31.37
  Q 174.81 31.70 174.44 32.69"
/>
<path stroke="#a48646" stroke-opacity="0.639" vector-effect="non-scaling-stroke" d="
  M 161.46 36.25
  C 161.28 36.21 157.43 34.46 157.50 34.97
  A 0.51 0.50 -80.5 0 0 157.78 35.37
  L 161.25 37.04"
/>
<path stroke="#97834a" stroke-opacity="0.898" vector-effect="non-scaling-stroke" d="
  M 161.25 37.04
  L 163.00 37.46"
/>
<path stroke="#a48646" stroke-opacity="0.639" vector-effect="non-scaling-stroke" d="
  M 163.00 37.46
  Q 164.84 38.11 166.50 37.29"
/>
<path stroke="#97834a" stroke-opacity="0.898" vector-effect="non-scaling-stroke" d="
  M 166.50 37.29
  L 170.25 37.71"
/>
<path stroke="#97834a" stroke-opacity="0.898" vector-effect="non-scaling-stroke" d="
  M 170.50 37.29
  Q 168.84 37.57 167.50 36.71"
/>
<path stroke="#dec377" vector-effect="non-scaling-stroke" d="
  M 167.50 36.71
  C 172.58 34.55 167.94 30.78 164.59 33.20
  Q 164.38 33.36 164.12 33.39
  Q 161.81 33.66 161.46 36.25"
/>
<path stroke="#b1ac72" stroke-opacity="0.898" vector-effect="non-scaling-stroke" d="
  M 167.50 36.71
  L 161.75 36.54"
/>
<path stroke="#c8bf7f" stroke-opacity="0.639" vector-effect="non-scaling-stroke" d="
  M 161.75 36.54
  L 161.46 36.25"
/>
<path stroke="#a48646" stroke-opacity="0.639" vector-effect="non-scaling-stroke" d="
  M 176.32 35.56
  Q 176.58 35.30 176.79 34.95
  Q 177.63 33.52 176.31 34.52
  L 173.81 36.41
  Q 172.59 37.33 174.05 36.87
  Q 174.40 36.76 174.91 36.47
  Q 176.09 35.80 176.32 35.56"
/>
<path stroke="#dec377" vector-effect="non-scaling-stroke" d="
  M 170.3508 40.3708
  A 0.96 0.96 0.0 0 0 169.4128 39.3893
  L 165.0939 39.2913
  A 0.96 0.96 0.0 0 0 164.1124 40.2292
  L 164.1092 40.3692
  A 0.96 0.96 0.0 0 0 165.0472 41.3507
  L 169.3661 41.4487
  A 0.96 0.96 0.0 0 0 170.3476 40.5108
  L 170.3508 40.3708"
/>
<path stroke="#938c5c" stroke-opacity="0.898" vector-effect="non-scaling-stroke" d="
  M 123.85 41.89
  Q 125.40 40.22 124.50 37.96"
/>
<path stroke="#dbca87" vector-effect="non-scaling-stroke" d="
  M 124.50 37.96
  Q 124.55 35.11 122.15 35.25
  A 0.99 0.98 14.3 0 0 121.37 35.71
  Q 119.72 38.25 120.49 40.94
  C 120.96 42.59 122.61 42.97 123.85 41.89"
/>
<path stroke="#b1ac72" stroke-opacity="0.898" vector-effect="non-scaling-stroke" d="
  M 124.50 37.96
  L 123.85 41.89"
/>
<path stroke="#9a8b52" stroke-opacity="0.898" vector-effect="non-scaling-stroke" d="
  M 105.59 60.80
  C 104.47 60.88 107.54 63.93 106.08 61.08
  A 0.52 0.51 -14.8 0 0 105.59 60.80"
/>
<path stroke="#a89052" stroke-opacity="0.639" vector-effect="non-scaling-stroke" d="
  M 110.2799 62.5288
  A 1.25 0.39 7.3 0 0 109.0896 61.9832
  A 1.25 0.39 7.3 0 0 107.8001 62.2112
  A 1.25 0.39 7.3 0 0 108.9904 62.7568
  A 1.25 0.39 7.3 0 0 110.2799 62.5288"
/>
</g>
<path fill="#c0ad73" fill-opacity="0.996" d="
  M 5.00 11.79
  C 6.59 18.29 13.31 21.93 19.50 23.04
  L 21.00 23.46
  Q 23.81 24.31 26.75 23.71
  Q 33.20 23.49 26.25 23.29
  L 21.25 22.79
  L 19.50 22.54
  C 13.81 21.53 7.14 17.73 5.50 11.79
  Q 5.65 11.64 5.84 11.56
  A 0.52 0.51 -25.9 0 1 6.46 11.77
  Q 12.47 21.54 24.29 21.81
  Q 34.85 22.05 45.50 22.29
  Q 45.06 23.77 43.41 23.30
  Q 41.71 22.81 39.82 23.30
  C 39.16 23.48 39.18 23.90 39.79 23.96
  C 40.96 24.07 44.66 23.19 44.25 25.21
  L 25.56 25.49
  Q 21.85 25.55 21.82 28.06
  Q 21.78 30.65 24.59 29.93
  Q 25.88 29.60 24.58 29.29
  L 24.12 29.19
  Q 22.45 28.80 23.96 28.00
  Q 25.73 27.06 26.75 29.06
  A 1.02 1.02 0.0 0 1 26.78 29.91
  C 24.75 34.64 17.68 29.60 21.02 26.30
  Q 22.48 24.85 20.45 24.59
  Q 8.54 23.07 3.22 12.56
  A 0.80 0.80 0.0 0 1 3.88 11.40
  Q 4.44 11.37 5.00 11.79
  Z"
/>
<path fill="#d1c27f" fill-opacity="0.996" d="
  M 200.50 25.21
  L 199.21 22.75
  C 201.19 21.17 218.44 21.99 222.00 22.01
  Q 223.29 22.02 229.20 19.88
  Q 235.01 17.77 238.29 12.06
  Q 238.72 11.32 239.50 12.04
  Q 238.46 15.39 235.74 17.60
  C 234.71 18.43 234.95 19.40 236.18 18.29
  Q 239.05 15.69 240.21 12.00
  C 242.70 9.90 241.62 13.15 241.22 13.80
  Q 235.50 23.26 224.39 24.79
  Q 222.50 25.04 223.79 26.45
  Q 224.86 27.62 224.61 28.98
  C 224.08 31.85 220.82 32.91 218.56 30.72
  A 1.03 1.01 21.5 0 1 218.26 30.05
  C 218.12 27.26 222.00 26.37 221.63 29.22
  Q 221.48 30.35 222.52 29.89
  Q 223.50 29.46 223.52 27.36
  A 0.99 0.99 0.0 0 0 222.68 26.37
  Q 216.21 25.33 209.67 25.27
  C 207.39 25.25 203.67 25.81 200.50 25.21
  Z
  M 224.50 22.96
  L 220.84 23.51
  Q 218.48 23.87 220.87 23.93
  Q 222.84 23.98 224.75 23.21
  Q 230.32 22.47 232.30 20.80
  Q 233.75 19.58 232.01 20.38
  Q 228.42 22.02 224.50 22.96
  Z"
/>
<path fill="#282f19" fill-opacity="0.278" d="
  M 5.00 11.79
  L 5.50 11.79
  C 7.14 17.73 13.81 21.53 19.50 22.54
  L 19.50 23.04
  C 13.31 21.93 6.59 18.29 5.00 11.79
  Z"
/>
<path fill="#282f19" fill-opacity="0.278" d="
  M 239.50 12.04
  L 240.21 12.00
  Q 239.05 15.69 236.18 18.29
  C 234.95 19.40 234.71 18.43 235.74 17.60
  Q 238.46 15.39 239.50 12.04
  Z"
/>
<path fill="#ccab62" fill-opacity="0.996" d="
  M 126.50 26.96
  C 126.46 26.88 124.63 23.41 124.52 24.55
  A 0.45 0.41 -58.9 0 0 124.57 24.79
  L 125.96 27.25
  L 131.00 33.29
  Q 132.52 37.84 137.07 39.33
  C 142.41 45.14 144.93 58.14 133.98 59.84
  Q 130.65 60.35 127.71 58.80
  Q 125.16 57.44 123.32 55.06
  A 1.00 1.00 0.0 0 0 121.72 55.09
  Q 118.80 59.13 114.74 59.92
  Q 108.80 61.08 105.65 57.05
  C 101.42 51.65 103.50 44.07 108.16 39.48
  A 0.26 0.24 73.0 0 0 108.23 39.33
  C 108.28 38.92 107.74 38.91 107.51 39.04
  Q 104.33 40.77 100.73 41.50
  C 96.54 42.34 93.75 39.56 89.86 43.20
  C 87.30 45.59 87.88 49.01 91.24 50.23
  Q 93.62 51.10 94.01 47.76
  Q 94.04 47.46 93.89 47.26
  Q 93.37 46.52 93.16 47.40
  Q 92.58 49.89 91.05 47.63
  A 1.00 0.99 39.2 0 1 90.95 46.68
  Q 91.95 44.30 94.62 45.72
  A 1.05 1.04 -86.7 0 1 95.09 46.25
  C 97.97 53.76 84.43 53.28 87.53 44.00
  Q 88.20 41.99 91.08 40.65
  A 0.99 0.99 0.0 0 0 91.55 39.30
  Q 90.93 38.05 89.76 37.45
  Q 88.79 36.95 88.22 37.99
  Q 87.24 37.11 86.54 37.50
  L 85.29 37.50
  Q 87.84 35.88 84.75 36.21
  Q 83.66 35.65 82.79 36.50
  C 85.17 30.75 76.74 32.69 74.50 33.46
  C 77.27 30.14 82.53 31.92 85.17 31.70
  Q 87.04 31.55 86.88 30.24
  A 0.81 0.79 -3.2 0 0 86.08 29.54
  Q 76.36 29.59 68.41 24.23
  Q 66.10 22.66 66.89 25.34
  L 68.10 29.41
  A 1.01 0.99 -3.9 0 0 68.93 30.12
  Q 71.93 30.51 72.44 33.40
  C 72.57 34.14 73.58 36.27 74.21 34.00
  L 75.25 37.25
  Q 70.40 36.85 67.29 32.95
  Q 66.85 33.05 66.50 32.96
  Q 66.83 31.93 65.92 30.07
  Q 64.57 27.29 65.51 23.55
  A 1.00 0.99 -70.1 0 0 64.98 22.41
  C 61.52 20.71 55.04 20.57 57.25 26.29
  Q 58.10 27.11 59.37 26.55
  A 0.80 0.79 -11.8 0 0 59.84 25.84
  Q 59.88 24.61 58.72 25.84
  A 0.53 0.51 -52.4 0 1 58.08 25.93
  L 57.79 25.75
  Q 58.34 21.50 61.21 24.46
  A 1.01 0.99 28.3 0 1 61.48 25.33
  Q 60.89 28.71 57.33 28.08
  A 0.97 0.96 -14.7 0 1 56.74 27.74
  Q 53.69 24.15 56.71 21.49
  Q 58.65 19.78 56.08 20.10
  Q 53.68 20.39 51.60 21.71
  C 43.92 26.58 50.23 37.91 56.09 31.63
  Q 57.31 30.32 57.19 31.92
  A 1.03 0.97 -20.4 0 1 56.87 32.57
  C 47.39 41.42 39.35 26.56 49.33 20.95
  Q 56.70 16.81 65.39 21.14
  A 1.01 1.01 0.0 0 0 66.73 20.71
  Q 69.68 15.04 75.89 14.11
  A 1.02 1.01 -28.9 0 1 76.67 14.33
  Q 80.56 17.58 75.12 18.98
  Q 74.87 19.05 74.62 18.98
  Q 70.41 17.88 68.06 21.17
  A 1.00 1.00 0.0 0 0 68.33 22.59
  Q 72.46 25.26 77.02 27.07
  Q 78.85 27.80 78.35 25.89
  Q 77.53 22.74 80.75 20.98
  A 0.99 0.96 39.7 0 1 81.55 20.92
  Q 85.27 22.18 82.77 25.17
  A 1.00 0.99 24.3 0 1 81.85 25.51
  Q 78.99 25.07 81.15 23.42
  C 82.62 22.29 80.90 21.98 80.26 22.82
  C 77.00 27.10 83.05 28.99 86.39 27.97
  A 1.02 1.01 -3.1 0 0 87.08 27.21
  Q 88.30 21.10 93.66 18.60
  C 96.09 17.46 99.44 18.10 99.05 21.42
  C 98.78 23.68 96.70 25.36 96.75 28.47
  A 0.99 0.98 -25.6 0 1 96.51 29.14
  L 90.96 35.55
  A 1.01 1.01 0.0 0 0 91.01 36.92
  Q 93.51 39.40 96.72 40.10
  C 105.93 42.13 116.58 32.02 120.60 24.54
  Q 120.69 24.37 120.61 24.23
  Q 120.47 23.98 120.29 24.29
  C 117.15 29.78 108.06 35.87 101.51 34.52
  C 94.60 33.11 97.22 22.23 103.92 25.75
  C 108.15 27.97 100.93 33.56 102.05 28.04
  A 1.01 1.00 10.1 0 0 101.21 26.85
  Q 100.58 26.76 99.95 27.08
  Q 99.23 27.46 99.00 28.43
  C 97.58 34.48 106.37 33.67 109.68 32.00
  A 1.01 1.01 0.0 0 0 110.20 30.87
  L 109.99 30.00
  A 1.00 1.00 0.0 0 1 110.09 29.28
  C 111.93 26.05 114.31 26.11 116.89 24.53
  Q 120.07 22.57 121.53 19.07
  Q 122.36 17.06 123.34 19.00
  Q 125.77 23.75 130.61 25.71
  C 133.48 26.87 135.42 27.70 135.00 30.89
  A 1.00 0.99 -72.6 0 0 135.52 31.90
  C 139.14 33.82 148.88 34.45 145.53 27.46
  A 1.02 1.00 -4.0 0 0 144.92 26.94
  Q 141.82 25.99 143.17 28.80
  A 1.00 0.99 44.7 0 1 143.18 29.64
  C 141.70 33.01 136.91 25.98 142.76 25.17
  C 146.37 24.68 148.82 28.10 147.07 31.35
  C 142.62 39.56 130.59 31.22 126.50 26.96
  Z
  M 96.86 22.24
  L 97.08 22.46
  A 0.26 0.26 0.0 0 0 97.50 22.40
  C 98.77 19.92 96.82 18.78 94.77 19.66
  Q 90.76 21.39 89.07 25.41
  Q 88.18 27.51 90.33 26.74
  Q 93.52 25.59 95.28 22.56
  Q 95.67 21.91 96.38 21.99
  A 0.84 0.81 71.4 0 1 96.86 22.24
  Z
  M 122.12 22.15
  Q 122.58 22.57 122.97 21.81
  A 0.52 0.52 0.0 0 0 122.78 21.14
  Q 122.14 20.76 121.96 21.67
  A 0.54 0.53 27.2 0 0 122.12 22.15
  Z
  M 93.85 26.25
  Q 91.46 28.04 88.64 28.92
  A 0.99 0.99 0.0 0 0 87.94 29.84
  L 87.92 30.26
  A 0.64 0.64 0.0 0 0 88.82 30.87
  Q 92.27 29.37 94.53 27.02
  Q 98.90 22.48 93.85 26.25
  Z
  M 139.70 53.54
  C 142.77 43.30 125.10 40.79 126.89 31.35
  A 0.96 0.95 34.9 0 0 126.76 30.64
  L 123.30 24.99
  Q 122.31 23.36 121.54 25.10
  Q 120.40 27.68 118.53 29.80
  Q 117.59 30.86 118.40 32.28
  A 0.99 0.98 30.7 0 1 118.54 32.82
  C 118.37 37.08 114.24 39.81 110.74 42.52
  C 106.65 45.67 102.58 51.34 106.53 56.03
  C 113.04 63.78 128.35 52.65 118.68 46.32
  A 1.01 1.00 31.9 0 0 117.27 46.64
  L 114.57 51.17
  A 1.00 1.00 0.0 0 1 113.00 51.36
  C 109.09 47.38 117.25 42.72 121.99 47.51
  A 0.80 0.80 0.0 0 0 123.00 47.62
  Q 123.38 47.37 123.54 46.88
  A 1.05 1.04 85.1 0 1 124.00 46.33
  Q 128.97 43.58 132.71 47.59
  A 0.99 0.96 21.1 0 1 132.98 48.18
  Q 133.32 52.16 130.25 51.01
  A 1.00 1.00 0.0 0 1 129.62 50.25
  C 128.19 42.48 118.08 50.09 126.32 56.49
  C 130.81 59.98 137.92 59.48 139.70 53.54
  Z
  M 92.50 31.50
  L 89.24 33.36
  A 0.21 0.15 69.0 0 0 89.19 33.57
  L 89.27 33.84
  A 0.21 0.20 72.0 0 0 89.54 33.98
  Q 91.51 33.26 92.50 31.50
  Q 93.71 31.07 94.23 30.10
  Q 95.14 28.37 93.89 29.86
  L 92.50 31.50
  Z
  M 86.10 32.94
  L 85.32 33.26
  Q 83.44 34.04 85.47 34.05
  Q 86.13 34.05 86.56 33.59
  Q 87.81 32.23 86.10 32.94
  Z
  M 114.91 34.57
  Q 113.21 35.60 113.24 37.49
  A 0.26 0.26 0.0 0 0 113.50 37.75
  L 113.77 37.75
  A 0.32 0.32 0.0 0 0 114.05 37.61
  L 116.88 33.55
  A 0.65 0.63 59.0 0 0 116.99 33.08
  C 116.80 31.86 115.48 33.72 115.31 34.11
  A 1.02 0.95 88.0 0 1 114.91 34.57
  Z
  M 87.56 35.31
  C 88.66 34.13 83.01 36.30 87.00 35.62
  A 1.02 1.00 -73.4 0 0 87.56 35.31
  Z
  M 138.2821 43.6378
  A 1.16 0.33 51.5 0 0 137.8183 42.5246
  A 1.16 0.33 51.5 0 0 136.8379 41.8222
  A 1.16 0.33 51.5 0 0 137.3017 42.9354
  A 1.16 0.33 51.5 0 0 138.2821 43.6378
  Z
  M 130.49 48.17
  Q 130.53 48.81 131.00 49.16
  Q 132.40 50.23 131.61 48.65
  L 131.26 47.96
  Q 130.37 46.18 130.49 48.17
  Z"
/>
<path fill="#c79e53" fill-opacity="0.996" d="
  M 198.50 23.04
  L 200.04 25.25
  Q 202.12 35.41 192.14 35.05
  Q 189.90 34.97 187.92 32.25
  A 0.87 0.85 30.9 0 1 187.77 31.68
  Q 187.89 30.75 188.95 31.59
  C 193.61 35.29 197.47 32.03 196.77 27.02
  Q 195.92 21.00 189.52 20.48
  Q 187.55 20.32 188.85 21.80
  Q 191.51 24.83 187.91 28.02
  A 0.96 0.94 22.3 0 1 187.29 28.27
  Q 183.80 28.43 183.73 25.09
  A 0.98 0.98 0.0 0 1 183.98 24.41
  Q 186.17 21.92 187.28 24.64
  A 1.02 0.98 47.1 0 1 187.27 25.42
  C 186.56 27.05 185.19 24.36 185.23 25.59
  A 0.80 0.79 -72.7 0 0 185.55 26.21
  C 189.29 28.96 189.63 17.36 180.07 22.48
  A 1.01 1.00 71.1 0 0 179.56 23.53
  Q 180.25 27.67 178.53 31.50
  A 1.04 1.01 -44.3 0 0 178.51 32.28
  C 178.84 33.13 179.18 33.60 178.81 34.53
  C 174.95 44.27 163.24 43.90 156.50 37.58
  A 0.99 0.99 0.0 0 0 155.17 37.55
  L 153.49 39.00
  A 1.01 1.01 0.0 0 0 153.77 40.69
  Q 157.95 42.40 157.83 46.56
  C 157.71 50.49 153.92 53.52 150.46 50.25
  C 146.11 46.14 155.35 42.78 153.68 47.95
  A 0.99 0.99 0.0 0 1 153.21 48.52
  Q 151.75 49.33 152.04 47.27
  A 0.41 0.41 0.0 0 0 151.64 46.80
  L 151.27 46.80
  A 0.65 0.64 82.2 0 0 150.65 47.62
  L 151.12 49.25
  A 1.00 0.98 0.2 0 0 151.81 49.93
  C 159.27 52.04 157.78 40.21 149.59 41.21
  C 144.68 41.81 141.53 41.34 137.07 39.33
  Q 132.52 37.84 131.00 33.29
  Q 135.32 36.85 140.44 39.04
  Q 148.20 42.36 154.04 36.98
  A 1.00 0.99 48.5 0 0 154.12 35.59
  L 148.41 29.01
  A 0.96 0.93 24.1 0 1 148.17 28.41
  Q 148.05 26.04 146.97 23.99
  C 145.33 20.85 145.73 16.73 150.32 18.33
  Q 156.60 20.50 157.89 27.23
  A 1.00 0.99 3.6 0 0 158.57 27.99
  C 161.19 28.82 165.87 28.27 165.46 24.50
  Q 165.16 23.08 163.87 22.39
  Q 163.24 22.05 163.27 22.76
  C 163.29 23.56 164.94 23.14 165.00 24.46
  Q 164.42 25.47 163.39 25.67
  A 1.01 0.99 -26.6 0 1 162.48 25.38
  Q 159.55 22.34 163.71 20.81
  A 1.01 1.00 50.6 0 1 164.59 20.90
  Q 167.43 22.68 166.80 25.88
  Q 166.41 27.85 168.22 26.97
  L 176.52 22.92
  A 1.01 1.01 0.0 0 0 177.04 21.75
  C 176.20 18.69 172.42 18.90 169.94 18.63
  C 167.31 18.35 164.88 16.56 168.75 14.24
  A 1.01 0.99 35.8 0 1 169.48 14.13
  Q 175.42 15.40 178.26 20.54
  A 1.00 0.99 -22.2 0 0 179.41 21.02
  Q 181.71 20.35 184.02 19.68
  Q 192.36 17.27 198.50 23.04
  Z
  M 149.28 22.35
  C 150.27 23.47 159.12 31.34 155.77 24.75
  C 154.63 22.51 150.19 17.58 147.38 19.99
  A 1.03 0.99 74.1 0 0 147.04 20.63
  Q 146.80 22.54 148.21 22.07
  A 1.01 1.00 -30.1 0 1 149.28 22.35
  Z
  M 156.08 30.62
  Q 157.76 31.35 157.16 29.63
  Q 156.85 28.75 155.82 28.48
  Q 151.02 27.22 148.40 23.11
  C 147.86 22.26 147.50 22.59 147.84 23.21
  Q 150.58 28.23 156.08 30.62
  Z
  M 169.40 32.36
  Q 170.65 33.16 171.07 34.60
  A 0.55 0.51 4.6 0 0 171.36 34.92
  C 171.88 35.15 172.28 34.54 172.35 34.08
  Q 172.85 30.42 176.29 29.72
  A 1.02 0.99 4.8 0 0 177.02 29.12
  Q 177.71 27.44 178.14 25.67
  Q 178.24 25.26 178.23 24.93
  Q 178.21 22.96 176.64 24.14
  Q 168.86 29.93 159.14 29.45
  A 1.00 0.99 -81.0 0 0 158.13 30.19
  C 157.45 32.72 165.77 31.57 166.94 31.52
  A 4.70 2.24 44.3 0 1 169.40 32.36
  Z
  M 198.69 29.91
  C 198.62 22.56 197.57 30.57 198.40 30.31
  A 0.42 0.41 81.6 0 0 198.69 29.91
  Z
  M 174.44 32.69
  Q 174.28 33.10 173.45 34.36
  Q 173.19 34.75 173.50 34.75
  L 173.75 34.75
  A 0.89 0.04 -50.0 0 0 174.33 34.12
  L 176.10 32.01
  Q 177.16 30.74 175.63 31.37
  Q 174.81 31.70 174.44 32.69
  Z
  M 161.46 36.25
  C 161.28 36.21 157.43 34.46 157.50 34.97
  A 0.51 0.50 -80.5 0 0 157.78 35.37
  L 161.25 37.04
  L 163.00 37.46
  Q 164.84 38.11 166.50 37.29
  L 170.25 37.71
  Q 171.33 38.25 172.12 37.85
  Q 174.12 36.83 171.88 36.88
  Q 171.17 36.89 170.50 37.29
  Q 168.84 37.57 167.50 36.71
  C 172.58 34.55 167.94 30.78 164.59 33.20
  Q 164.38 33.36 164.12 33.39
  Q 161.81 33.66 161.46 36.25
  Z
  M 176.32 35.56
  Q 176.58 35.30 176.79 34.95
  Q 177.63 33.52 176.31 34.52
  L 173.81 36.41
  Q 172.59 37.33 174.05 36.87
  Q 174.40 36.76 174.91 36.47
  Q 176.09 35.80 176.32 35.56
  Z
  M 170.3508 40.3708
  A 0.96 0.96 0.0 0 0 169.4128 39.3893
  L 165.0939 39.2913
  A 0.96 0.96 0.0 0 0 164.1124 40.2292
  L 164.1092 40.3692
  A 0.96 0.96 0.0 0 0 165.0472 41.3507
  L 169.3661 41.4487
  A 0.96 0.96 0.0 0 0 170.3476 40.5108
  L 170.3508 40.3708
  Z"
/>
<path fill="#5b623f" fill-opacity="0.796" d="
  M 224.75 23.21
  L 224.50 22.96
  Q 228.42 22.02 232.01 20.38
  Q 233.75 19.58 232.30 20.80
  Q 230.32 22.47 224.75 23.21
  Z"
/>
<path fill="#5b623f" fill-opacity="0.796" d="
  M 45.50 22.29
  Q 45.90 22.35 45.98 22.70
  A 0.33 0.32 -18.8 0 1 45.79 23.08
  Q 44.41 23.63 44.25 25.21
  C 44.66 23.19 40.96 24.07 39.79 23.96
  C 39.18 23.90 39.16 23.48 39.82 23.30
  Q 41.71 22.81 43.41 23.30
  Q 45.06 23.77 45.50 22.29
  Z"
/>
<path fill="#282f19" fill-opacity="0.278" d="
  M 165.46 24.50
  L 165.00 24.46
  C 164.94 23.14 163.29 23.56 163.27 22.76
  Q 163.24 22.05 163.87 22.39
  Q 165.16 23.08 165.46 24.50
  Z"
/>
<path fill="#5b623f" fill-opacity="0.796" d="
  M 19.50 22.54
  L 21.25 22.79
  L 21.00 23.46
  L 19.50 23.04
  L 19.50 22.54
  Z"
/>
<path fill="#282f19" fill-opacity="0.278" d="
  M 21.25 22.79
  L 26.25 23.29
  L 26.75 23.71
  Q 23.81 24.31 21.00 23.46
  L 21.25 22.79
  Z"
/>
<path fill="#5b623f" fill-opacity="0.796" d="
  M 199.21 22.75
  L 200.50 25.21
  L 200.04 25.25
  L 198.50 23.04
  L 199.21 22.75
  Z"
/>
<path fill="#282f19" fill-opacity="0.278" d="
  M 224.50 22.96
  L 224.75 23.21
  Q 222.84 23.98 220.87 23.93
  Q 218.48 23.87 220.84 23.51
  L 224.50 22.96
  Z"
/>
<path fill="#5b623f" fill-opacity="0.796" d="
  M 26.25 23.29
  Q 33.20 23.49 26.75 23.71
  L 26.25 23.29
  Z"
/>
<path fill="#282f19" fill-opacity="0.278" d="
  M 126.50 26.96
  L 125.96 27.25
  L 124.57 24.79
  A 0.45 0.41 -58.9 0 1 124.52 24.55
  C 124.63 23.41 126.46 26.88 126.50 26.96
  Z"
/>
<path fill="#282f19" fill-opacity="0.278" d="
  M 57.25 26.29
  L 57.79 25.75
  L 58.08 25.93
  A 0.53 0.51 -52.4 0 0 58.72 25.84
  Q 59.88 24.61 59.84 25.84
  A 0.80 0.79 -11.8 0 1 59.37 26.55
  Q 58.10 27.11 57.25 26.29
  Z"
/>
<path fill="#282f19" fill-opacity="0.278" d="
  M 198.40 30.31
  C 197.57 30.57 198.62 22.56 198.69 29.91
  A 0.42 0.41 81.6 0 1 198.40 30.31
  Z"
/>
<path fill="#5b623f" fill-opacity="0.796" d="
  M 92.50 31.50
  L 93.89 29.86
  Q 95.14 28.37 94.23 30.10
  Q 93.71 31.07 92.50 31.50
  Z"
/>
<path fill="#282f19" fill-opacity="0.278" d="
  M 174.44 32.69
  Q 174.81 31.70 175.63 31.37
  Q 177.16 30.74 176.10 32.01
  L 174.33 34.12
  A 0.89 0.04 -50.0 0 1 173.75 34.75
  L 173.50 34.75
  Q 173.19 34.75 173.45 34.36
  Q 174.28 33.10 174.44 32.69
  Z"
/>
<path fill="#c0ad73" fill-opacity="0.996" d="
  M 121.97 45.01
  C 118.13 42.92 117.26 40.47 119.44 36.45
  Q 120.52 34.45 121.55 32.43
  Q 122.39 30.78 123.31 32.39
  Q 124.39 34.27 125.47 36.15
  C 128.01 40.58 127.39 42.76 122.90 45.02
  A 1.01 0.98 44.7 0 1 121.97 45.01
  Z
  M 123.85 41.89
  Q 125.40 40.22 124.50 37.96
  Q 124.55 35.11 122.15 35.25
  A 0.99 0.98 14.3 0 0 121.37 35.71
  Q 119.72 38.25 120.49 40.94
  C 120.96 42.59 122.61 42.97 123.85 41.89
  Z"
/>
<path fill="#282f19" fill-opacity="0.278" d="
  M 92.50 31.50
  Q 91.51 33.26 89.54 33.98
  A 0.21 0.20 72.0 0 1 89.27 33.84
  L 89.19 33.57
  A 0.21 0.15 69.0 0 1 89.24 33.36
  L 92.50 31.50
  Z"
/>
<path fill="#f5e79b" d="
  M 82.79 36.50
  L 80.03 37.30
  Q 77.90 36.74 75.25 37.25
  L 74.21 34.00
  L 74.50 33.46
  C 76.74 32.69 85.17 30.75 82.79 36.50
  Z"
/>
<path fill="#f5e79b" d="
  M 167.50 36.71
  L 161.75 36.54
  L 161.46 36.25
  Q 161.81 33.66 164.12 33.39
  Q 164.38 33.36 164.59 33.20
  C 167.94 30.78 172.58 34.55 167.50 36.71
  Z"
/>
<path fill="#282f19" fill-opacity="0.278" d="
  M 86.10 32.94
  Q 87.81 32.23 86.56 33.59
  Q 86.13 34.05 85.47 34.05
  Q 83.44 34.04 85.32 33.26
  L 86.10 32.94
  Z"
/>
<path fill="#d1c27f" fill-opacity="0.996" d="
  M 66.50 32.96
  Q 66.85 33.05 67.29 32.95
  Q 69.43 38.04 74.99 37.84
  Q 76.72 37.78 75.25 37.25
  Q 77.90 36.74 80.03 37.30
  Q 82.70 37.89 84.75 36.21
  Q 87.84 35.88 85.29 37.50
  Q 84.67 37.71 84.18 38.06
  Q 81.71 39.84 84.45 38.51
  L 86.54 37.50
  Q 87.24 37.11 88.22 37.99
  Q 74.32 48.14 66.16 34.41
  A 0.98 0.98 0.0 0 1 66.10 33.50
  Q 66.25 33.17 66.50 32.96
  Z"
/>
<path fill="#282f19" fill-opacity="0.278" d="
  M 176.32 35.56
  Q 176.09 35.80 174.91 36.47
  Q 174.40 36.76 174.05 36.87
  Q 172.59 37.33 173.81 36.41
  L 176.31 34.52
  Q 177.63 33.52 176.79 34.95
  Q 176.58 35.30 176.32 35.56
  Z"
/>
<path fill="#5b623f" fill-opacity="0.796" d="
  M 87.00 35.62
  C 83.01 36.30 88.66 34.13 87.56 35.31
  A 1.02 1.00 -73.4 0 1 87.00 35.62
  Z"
/>
<path fill="#282f19" fill-opacity="0.278" d="
  M 161.46 36.25
  L 161.75 36.54
  L 161.25 37.04
  L 157.78 35.37
  A 0.51 0.50 -80.5 0 1 157.50 34.97
  C 157.43 34.46 161.28 36.21 161.46 36.25
  Z"
/>
<path fill="#f5e79b" d="
  M 124.50 37.96
  L 123.85 41.89
  C 122.61 42.97 120.96 42.59 120.49 40.94
  Q 119.72 38.25 121.37 35.71
  A 0.99 0.98 14.3 0 1 122.15 35.25
  Q 124.55 35.11 124.50 37.96
  Z"
/>
<path fill="#5b623f" fill-opacity="0.796" d="
  M 84.75 36.21
  Q 82.70 37.89 80.03 37.30
  L 82.79 36.50
  Q 83.66 35.65 84.75 36.21
  Z"
/>
<path fill="#5b623f" fill-opacity="0.796" d="
  M 161.75 36.54
  L 167.50 36.71
  Q 168.84 37.57 170.50 37.29
  L 170.25 37.71
  L 166.50 37.29
  Q 164.62 36.80 163.00 37.46
  L 161.25 37.04
  L 161.75 36.54
  Z"
/>
<path fill="#282f19" fill-opacity="0.278" d="
  M 166.50 37.29
  Q 164.84 38.11 163.00 37.46
  Q 164.62 36.80 166.50 37.29
  Z"
/>
<path fill="#282f19" fill-opacity="0.278" d="
  M 86.54 37.50
  L 84.45 38.51
  Q 81.71 39.84 84.18 38.06
  Q 84.67 37.71 85.29 37.50
  L 86.54 37.50
  Z"
/>
<path fill="#5b623f" fill-opacity="0.796" d="
  M 124.50 37.96
  Q 125.40 40.22 123.85 41.89
  L 124.50 37.96
  Z"
/>
<rect fill="#f5e79b" x="-3.12" y="-1.03" transform="translate(167.23,40.37) rotate(1.3)" width="6.24" height="2.06" rx="0.96"/>
<path fill="#ccab62" fill-opacity="0.996" d="
  M 104.31 57.69
  Q 106.80 60.97 111.89 61.13
  A 1.00 1.00 0.0 0 1 112.75 62.58
  Q 112.17 63.75 110.78 64.13
  C 105.54 65.55 101.93 62.29 100.70 57.35
  Q 98.74 49.51 103.23 42.24
  C 104.14 40.77 105.03 41.71 104.21 42.97
  Q 99.12 50.83 104.31 57.69
  Z
  M 105.59 60.80
  C 104.47 60.88 107.54 63.93 106.08 61.08
  A 0.52 0.51 -14.8 0 0 105.59 60.80
  Z
  M 110.2799 62.5288
  A 1.25 0.39 7.3 0 0 109.0896 61.9832
  A 1.25 0.39 7.3 0 0 107.8001 62.2112
  A 1.25 0.39 7.3 0 0 108.9904 62.7568
  A 1.25 0.39 7.3 0 0 110.2799 62.5288
  Z"
/>
<ellipse fill="#282f19" fill-opacity="0.278" cx="0.00" cy="0.00" transform="translate(137.56,42.73) rotate(51.5)" rx="1.16" ry="0.33"/>
<path fill="#c0ad73" fill-opacity="0.996" d="
  M 133.82 63.64
  C 128.37 60.86 134.50 61.22 135.49 60.89
  C 142.69 58.50 145.33 49.77 141.10 43.58
  C 139.82 41.70 141.10 41.00 142.11 42.76
  Q 146.11 49.67 144.54 57.20
  C 143.54 62.01 138.88 66.22 133.82 63.64
  Z
  M 142.10 58.18
  A 0.95 0.94 -14.4 0 1 141.74 58.78
  Q 138.77 61.13 142.26 60.57
  A 1.00 1.00 0.0 0 0 143.10 59.45
  Q 142.57 55.59 142.10 58.18
  Z"
/>
<path fill="#282f19" fill-opacity="0.278" d="
  M 131.26 47.96
  L 131.61 48.65
  Q 132.40 50.23 131.00 49.16
  Q 130.53 48.81 130.49 48.17
  Q 130.37 46.18 131.26 47.96
  Z"
/>
<path fill="#5b623f" fill-opacity="0.796" d="
  M 106.08 61.08
  C 107.54 63.93 104.47 60.88 105.59 60.80
  A 0.52 0.51 -14.8 0 1 106.08 61.08
  Z"
/>
<ellipse fill="#282f19" fill-opacity="0.278" cx="0.00" cy="0.00" transform="translate(109.04,62.37) rotate(7.3)" rx="1.25" ry="0.39"/>
</svg>
