<?xml version="1.0" encoding="UTF-8" standalone="no"?>
<!DOCTYPE svg PUBLIC "-//W3C//DTD SVG 1.1//EN" "http://www.w3.org/Graphics/SVG/1.1/DTD/svg11.dtd">
<svg xmlns="http://www.w3.org/2000/svg" version="1.1" viewBox="0 0 245 83">
<g stroke-width="2.00" fill="none" stroke-linecap="butt">
<path stroke="#a19258" stroke-opacity="0.949" vector-effect="non-scaling-stroke" d="
  M 137.46 27.25
  Q 136.09 27.61 135.13 28.74"
/>
<path stroke="#c6a660" stroke-opacity="0.996" vector-effect="non-scaling-stroke" d="
  M 135.13 28.74
  Q 131.68 29.98 130.93 33.69"
/>
<path stroke="#cbaf71" stroke-opacity="0.996" vector-effect="non-scaling-stroke" d="
  M 164.33 25.37
  Q 165.06 28.75 169.50 27.63"
/>
<path stroke="#a98d4f" stroke-opacity="0.600" vector-effect="non-scaling-stroke" d="
  M 169.50 27.63
  Q 176.43 28.21 170.04 27.00"
/>
<path stroke="#cbaf71" stroke-opacity="0.996" vector-effect="non-scaling-stroke" d="
  M 170.04 27.00
  Q 171.51 26.84 171.75 25.54"
/>
<path stroke="#98844c" stroke-opacity="0.741" vector-effect="non-scaling-stroke" d="
  M 200.04 41.75
  L 198.75 43.96"
/>
<path stroke="#9d8b52" stroke-opacity="0.949" vector-effect="non-scaling-stroke" d="
  M 135.13 28.74
  Q 136.81 29.03 138.00 27.54"
/>
<path stroke="#b7a775" stroke-opacity="0.600" vector-effect="non-scaling-stroke" d="
  M 170.04 27.00
  L 169.50 27.63"
/>
<path stroke="#a39a6a" stroke-opacity="0.741" vector-effect="non-scaling-stroke" d="
  M 199.21 44.25
  Q 200.77 43.43 200.25 41.79"
/>
<path stroke="#a79062" stroke-opacity="0.600" vector-effect="non-scaling-stroke" d="
  M 5.50 55.21
  Q 7.15 50.38 11.50 47.71"
/>
<path stroke="#97875b" stroke-opacity="0.741" vector-effect="non-scaling-stroke" d="
  M 11.50 47.71
  L 18.75 44.46"
/>
<path stroke="#9b8d5e" stroke-opacity="0.945" vector-effect="non-scaling-stroke" d="
  M 18.75 44.46
  L 22.00 43.79"
/>
<path stroke="#a79062" stroke-opacity="0.600" vector-effect="non-scaling-stroke" d="
  M 22.00 43.79
  L 24.45 43.70
  Q 27.69 43.58 24.47 43.18
  Q 23.10 43.01 21.75 43.54"
/>
<path stroke="#9b8d5e" stroke-opacity="0.945" vector-effect="non-scaling-stroke" d="
  M 21.75 43.54
  L 18.50 44.04"
/>
<path stroke="#97875b" stroke-opacity="0.741" vector-effect="non-scaling-stroke" d="
  M 18.50 44.04
  Q 14.45 44.91 11.25 47.46"
/>
<path stroke="#a79062" stroke-opacity="0.600" vector-effect="non-scaling-stroke" d="
  M 11.25 47.46
  Q 6.39 49.96 4.75 55.21"
/>
<path stroke="#9d8d53" stroke-opacity="0.741" vector-effect="non-scaling-stroke" d="
  M 109.57 4.23
  Q 102.22 6.01 109.94 4.73
  Q 111.03 4.55 109.97 4.22
  Q 109.82 4.17 109.57 4.23"
/>
<path stroke="#af9758" stroke-opacity="0.600" vector-effect="non-scaling-stroke" d="
  M 137.13 24.15
  Q 137.00 24.39 136.88 24.63
  Q 135.59 27.02 137.41 25.00
  Q 138.03 24.31 138.50 23.48
  Q 139.37 21.93 138.00 23.07
  Q 137.45 23.53 137.13 24.15"
/>
<path stroke="#9d8d53" stroke-opacity="0.741" vector-effect="non-scaling-stroke" d="
  M 118.71 40.25
  Q 121.93 45.06 118.79 39.50"
/>
<path stroke="#9d8d53" stroke-opacity="0.741" vector-effect="non-scaling-stroke" d="
  M 82.75 28.21
  C 82.78 28.22 87.33 30.39 86.65 29.38
  C 86.28 28.83 83.53 28.11 82.79 28.00"
/>
<path stroke="#a19258" stroke-opacity="0.949" vector-effect="non-scaling-stroke" d="
  M 82.79 28.00
  Q 81.21 26.98 79.40 27.47
  Q 78.34 27.75 79.39 28.09
  Q 80.07 28.32 80.72 27.97
  Q 81.85 27.35 82.75 28.21"
/>
<path stroke="#d7b567" vector-effect="non-scaling-stroke" d="
  M 67.55 33.90
  Q 66.92 36.50 69.42 36.84"
/>
<path stroke="#d7b567" vector-effect="non-scaling-stroke" d="
  M 74.54 33.75
  L 75.29 33.25"
/>
<path stroke="#e0c97f" vector-effect="non-scaling-stroke" d="
  M 75.29 33.25
  Q 79.34 35.47 83.53 33.91
  A 1.00 1.00 0.0 0 0 84.09 32.57
  L 83.29 30.75"
/>
<path stroke="#9d8d53" stroke-opacity="0.741" vector-effect="non-scaling-stroke" d="
  M 83.29 30.75
  Q 84.88 31.01 86.33 31.69
  C 86.52 31.78 88.03 31.84 86.56 31.20
  Q 84.97 30.50 83.25 30.21"
/>
<path stroke="#a19258" stroke-opacity="0.949" vector-effect="non-scaling-stroke" d="
  M 83.25 30.21
  Q 80.34 28.66 77.25 29.71"
/>
<path stroke="#d7b567" vector-effect="non-scaling-stroke" d="
  M 77.25 29.71
  L 75.75 29.46"
/>
<path stroke="#ecd281" vector-effect="non-scaling-stroke" d="
  M 81.25 30.21
  Q 77.98 29.82 75.39 31.54
  A 1.00 1.00 0.0 0 0 75.07 32.86
  L 75.29 33.25"
/>
<path stroke="#bab476" stroke-opacity="0.745" vector-effect="non-scaling-stroke" d="
  M 83.00 30.46
  L 83.29 30.75"
/>
<path stroke="#b7b174" stroke-opacity="0.949" vector-effect="non-scaling-stroke" d="
  M 83.00 30.46
  L 81.25 30.21"
/>
<path stroke="#ae9b5a" stroke-opacity="0.949" vector-effect="non-scaling-stroke" d="
  M 81.25 30.21
  L 77.25 29.71"
/>
<path stroke="#a19258" stroke-opacity="0.949" vector-effect="non-scaling-stroke" d="
  M 86.71 34.00
  Q 87.59 35.03 88.32 34.66
  Q 89.29 34.17 88.21 34.16
  Q 87.37 34.16 86.75 33.54"
/>
<path stroke="#af9758" stroke-opacity="0.600" vector-effect="non-scaling-stroke" d="
  M 86.75 33.54
  Q 82.68 32.80 86.71 34.00"
/>
<path stroke="#9d8d53" stroke-opacity="0.741" vector-effect="non-scaling-stroke" d="
  M 94.1623 37.1925
  A 2.53 0.32 42.6 0 0 92.5166 35.2444
  A 2.53 0.32 42.6 0 0 90.4377 33.7675
  A 2.53 0.32 42.6 0 0 92.0834 35.7156
  A 2.53 0.32 42.6 0 0 94.1623 37.1925"
/>
<path stroke="#af9758" stroke-opacity="0.600" vector-effect="non-scaling-stroke" d="
  M 94.00 40.79
  Q 95.95 42.55 97.00 44.96"
/>
<path stroke="#af9758" stroke-opacity="0.600" vector-effect="non-scaling-stroke" d="
  M 97.29 44.75
  Q 96.64 42.07 94.54 40.25"
/>
<path stroke="#af9758" stroke-opacity="0.600" vector-effect="non-scaling-stroke" d="
  M 131.78 38.85
  C 136.13 34.59 129.66 39.35 131.22 39.13
  A 1.07 1.02 -70.3 0 0 131.78 38.85"
/>
<path stroke="#af9758" stroke-opacity="0.600" vector-effect="non-scaling-stroke" d="
  M 80.62 43.90
  Q 80.13 44.56 81.40 44.67
  Q 82.30 44.75 81.66 44.11
  L 81.40 43.84
  A 0.53 0.52 -49.1 0 0 80.62 43.90"
/>
<path stroke="#af9758" stroke-opacity="0.600" vector-effect="non-scaling-stroke" d="
  M 122.24 44.85
  Q 121.65 44.48 121.85 45.15
  Q 122.40 46.94 122.85 46.10
  A 0.81 0.80 30.0 0 0 122.56 45.04
  L 122.24 44.85"
/>
<path stroke="#c1a165" stroke-opacity="0.996" vector-effect="non-scaling-stroke" d="
  M 168.25 29.54
  L 166.25 29.54"
/>
<path stroke="#98844c" stroke-opacity="0.741" vector-effect="non-scaling-stroke" d="
  M 166.25 29.54
  L 163.25 29.54"
/>
<path stroke="#c1a165" stroke-opacity="0.996" vector-effect="non-scaling-stroke" d="
  M 163.25 29.54
  L 162.00 29.96"
/>
<path stroke="#a98d4f" stroke-opacity="0.600" vector-effect="non-scaling-stroke" d="
  M 162.00 29.96
  C 161.23 30.08 155.81 31.70 157.05 32.64
  A 0.33 0.32 -39.8 0 0 157.39 32.67
  L 162.75 30.21"
/>
<path stroke="#c1a165" stroke-opacity="0.996" vector-effect="non-scaling-stroke" d="
  M 162.75 30.21
  C 163.37 30.25 170.80 29.39 169.20 31.12
  Q 168.77 31.58 169.33 31.32
  L 169.63 31.18
  Q 169.97 31.02 169.93 31.40
  Q 169.51 34.73 166.57 34.09
  Q 162.43 33.18 159.95 35.03"
/>
<path stroke="#c1a165" stroke-opacity="0.996" vector-effect="non-scaling-stroke" d="
  M 175.89 36.85
  Q 178.40 35.56 176.71 33.00"
/>
<path stroke="#a98d4f" stroke-opacity="0.600" vector-effect="non-scaling-stroke" d="
  M 176.71 33.00
  Q 173.97 28.06 168.25 29.54"
/>
<path stroke="#a79062" stroke-opacity="0.600" vector-effect="non-scaling-stroke" d="
  M 176.71 33.00
  Q 173.33 29.43 168.25 29.54"
/>
<path stroke="#97875b" stroke-opacity="0.741" vector-effect="non-scaling-stroke" d="
  M 163.25 29.54
  Q 164.75 30.72 166.25 29.54"
/>
<path stroke="#a79062" stroke-opacity="0.600" vector-effect="non-scaling-stroke" d="
  M 162.75 30.21
  L 162.00 29.96"
/>
<path stroke="#a98d4f" stroke-opacity="0.600" vector-effect="non-scaling-stroke" d="
  M 156.0569 32.9815
  A 2.03 0.41 -34.8 0 0 154.1560 33.8033
  A 2.03 0.41 -34.8 0 0 152.7231 35.2985
  A 2.03 0.41 -34.8 0 0 154.6240 34.4767
  A 2.03 0.41 -34.8 0 0 156.0569 32.9815"
/>
<path stroke="#98844c" stroke-opacity="0.741" vector-effect="non-scaling-stroke" d="
  M 198.39 37.18
  Q 198.47 43.89 198.39 37.31
  Q 198.38 36.37 198.39 37.18"
/>
<path stroke="#a98d4f" stroke-opacity="0.600" vector-effect="non-scaling-stroke" d="
  M 163.09 44.47
  L 163.31 44.68
  A 0.64 0.64 0.0 0 0 164.30 44.55
  Q 165.03 43.33 163.21 43.92
  A 0.33 0.33 0.0 0 0 163.09 44.47"
/>
<path stroke="#dcc37a" vector-effect="non-scaling-stroke" d="
  M 172.9580 50.1351
  A 2.51 1.00 -5.6 0 0 170.3624 49.3848
  A 2.51 1.00 -5.6 0 0 167.9620 50.6249
  A 2.51 1.00 -5.6 0 0 170.5576 51.3752
  A 2.51 1.00 -5.6 0 0 172.9580 50.1351"
/>
<path stroke="#a19258" stroke-opacity="0.949" vector-effect="non-scaling-stroke" d="
  M 124.29 30.00
  Q 126.06 28.60 124.79 26.50"
/>
<path stroke="#9d8d53" stroke-opacity="0.741" vector-effect="non-scaling-stroke" d="
  M 124.79 26.50
  Q 124.86 25.23 124.04 25.50"
/>
<path stroke="#e0c97f" vector-effect="non-scaling-stroke" d="
  M 124.04 25.50
  Q 124.17 25.21 124.16 24.90
  A 0.81 0.80 -80.6 0 0 123.65 24.18
  Q 119.54 22.58 119.64 28.64
  A 0.96 0.96 0.0 0 0 119.78 29.14
  Q 123.21 34.79 124.29 30.00"
/>
<path stroke="#bab476" stroke-opacity="0.745" vector-effect="non-scaling-stroke" d="
  M 124.04 25.50
  L 124.54 27.25"
/>
<path stroke="#b7b174" stroke-opacity="0.949" vector-effect="non-scaling-stroke" d="
  M 124.54 27.25
  L 124.29 30.00"
/>
<path stroke="#a79062" stroke-opacity="0.600" vector-effect="non-scaling-stroke" d="
  M 174.51 33.27
  C 171.15 30.04 174.67 35.26 174.75 33.89
  A 0.76 0.76 0.0 0 0 174.51 33.27"
/>
<path stroke="#9b8d5e" stroke-opacity="0.945" vector-effect="non-scaling-stroke" d="
  M 40.75 43.46
  L 43.43 43.70
  A 0.26 0.25 -68.2 0 0 43.67 43.59
  C 44.22 42.80 40.91 43.04 40.75 43.04"
/>
<path stroke="#97875b" stroke-opacity="0.741" vector-effect="non-scaling-stroke" d="
  M 40.75 43.04
  L 38.02 43.17
  Q 36.41 43.24 37.96 43.68
  Q 39.32 44.06 40.75 43.46"
/>
<path stroke="#9b8d5e" stroke-opacity="0.945" vector-effect="non-scaling-stroke" d="
  M 36.7098 43.4228
  A 2.35 0.16 0.8 0 0 34.3622 43.2300
  A 2.35 0.16 0.8 0 0 32.0102 43.3572
  A 2.35 0.16 0.8 0 0 34.3578 43.5500
  A 2.35 0.16 0.8 0 0 36.7098 43.4228"
/>
<path stroke="#a59c6b" stroke-opacity="0.949" vector-effect="non-scaling-stroke" d="
  M 224.25 43.96
  Q 228.11 44.98 224.50 43.54"
/>
<path stroke="#b7a775" stroke-opacity="0.600" vector-effect="non-scaling-stroke" d="
  M 224.50 43.54
  Q 222.51 43.26 220.54 43.01
  C 220.38 42.99 217.90 43.25 219.77 43.64
  Q 221.99 44.10 224.25 43.96"
/>
<path stroke="#b7a775" stroke-opacity="0.600" vector-effect="non-scaling-stroke" d="
  M 237.8743 50.9741
  A 2.03 0.35 42.6 0 0 236.6169 49.3424
  A 2.03 0.35 42.6 0 0 234.8857 48.2259
  A 2.03 0.35 42.6 0 0 236.1431 49.8576
  A 2.03 0.35 42.6 0 0 237.8743 50.9741"
/>
</g>
<path fill="#caac65" fill-opacity="0.996" d="
  M 112.36 3.99
  Q 113.34 4.50 113.01 5.36
  A 1.00 1.00 0.0 0 1 112.06 6.00
  C 102.17 5.81 99.61 17.31 104.24 24.23
  Q 104.98 25.33 103.69 25.01
  Q 103.58 24.98 103.45 24.92
  Q 103.17 24.80 102.97 24.46
  C 99.14 17.71 97.93 4.56 107.74 2.48
  C 109.31 2.15 110.97 3.27 112.36 3.99
  Z
  M 109.57 4.23
  Q 102.22 6.01 109.94 4.73
  Q 111.03 4.55 109.97 4.22
  Q 109.82 4.17 109.57 4.23
  Z"
/>
<path fill="#c0a371" fill-opacity="0.992" d="
  M 140.62 24.23
  C 145.05 17.45 143.01 6.14 133.48 5.94
  C 132.11 5.91 130.83 5.12 132.72 3.92
  C 137.42 0.92 142.00 3.07 143.88 8.00
  C 145.84 13.12 145.09 20.27 141.62 25.06
  A 1.02 1.01 15.4 0 1 140.89 25.47
  C 139.96 25.54 140.35 24.64 140.62 24.23
  Z"
/>
<path fill="#424d2e" fill-opacity="0.486" d="
  M 109.57 4.23
  Q 109.82 4.17 109.97 4.22
  Q 111.03 4.55 109.94 4.73
  Q 102.22 6.01 109.57 4.23
  Z"
/>
<path fill="#caac65" fill-opacity="0.996" d="
  M 137.46 27.25
  Q 136.09 27.61 135.13 28.74
  Q 131.68 29.98 130.93 33.69
  C 130.48 34.15 122.81 43.04 124.48 42.99
  A 0.38 0.38 0.0 0 0 124.81 42.80
  C 128.31 37.14 137.55 30.24 144.46 33.04
  C 150.59 35.51 146.76 44.50 141.41 41.46
  Q 139.29 40.25 140.51 37.45
  A 1.02 1.01 4.9 0 1 141.19 36.88
  Q 143.74 36.26 142.95 38.94
  A 1.00 1.00 0.0 0 0 143.81 40.22
  L 144.34 40.27
  A 1.00 0.98 21.0 0 0 145.22 39.89
  Q 147.23 37.32 145.48 35.30
  C 143.18 32.67 138.36 33.59 135.64 35.04
  A 1.00 0.99 76.1 0 0 135.11 35.92
  C 135.12 38.41 134.19 39.89 131.70 40.79
  Q 126.01 42.86 123.17 48.12
  Q 122.41 49.53 121.74 48.08
  Q 120.83 46.11 119.34 44.58
  C 116.53 41.66 109.57 40.98 110.14 36.14
  A 1.01 1.01 0.0 0 0 109.65 35.16
  C 106.14 33.10 96.70 32.55 99.20 39.28
  A 1.00 1.00 0.0 0 0 99.61 39.78
  Q 102.46 41.55 102.09 38.26
  C 101.71 34.89 105.03 36.97 105.24 39.44
  A 1.00 0.99 -24.6 0 1 104.94 40.24
  Q 100.72 44.31 97.83 39.36
  A 0.64 0.64 0.0 0 0 96.73 39.36
  Q 96.44 39.85 96.78 40.49
  Q 97.85 42.52 98.98 44.54
  A 1.00 0.99 -57.1 0 1 99.10 45.12
  C 98.20 54.93 87.90 44.69 87.06 40.68
  Q 86.51 38.10 83.94 38.66
  Q 80.73 39.35 79.95 40.83
  Q 78.76 43.07 80.87 41.66
  Q 81.89 40.97 82.86 41.87
  C 84.43 43.33 83.86 45.21 82.05 46.10
  A 1.02 1.02 0.0 0 1 81.31 46.15
  Q 77.05 44.82 78.40 40.71
  Q 79.01 38.89 77.29 39.74
  L 68.11 44.30
  A 1.01 1.01 0.0 0 0 67.78 45.83
  C 71.24 50.14 76.24 46.41 78.30 50.03
  A 1.02 1.01 -47.2 0 1 78.33 50.95
  C 75.38 57.19 67.97 47.75 66.32 46.14
  A 0.99 0.99 0.0 0 0 65.16 45.97
  Q 57.88 49.75 50.85 46.84
  C 38.88 41.88 46.72 25.34 56.87 34.39
  C 57.22 34.69 57.63 35.66 56.84 35.72
  A 0.64 0.63 -28.5 0 1 56.41 35.60
  C 50.90 31.54 47.02 35.45 48.11 40.88
  C 49.01 45.33 57.91 48.26 57.66 46.43
  A 0.53 0.50 -80.7 0 0 57.41 46.06
  C 52.06 42.93 57.51 35.62 61.09 40.32
  A 1.04 0.98 28.6 0 1 61.30 40.96
  Q 61.17 44.98 58.15 43.18
  A 1.01 1.00 -70.8 0 1 57.67 42.18
  Q 57.91 40.45 59.44 41.39
  A 0.21 0.20 34.9 0 0 59.71 41.35
  C 60.33 40.61 56.69 38.89 56.72 42.26
  C 56.76 46.50 62.14 46.18 64.89 44.64
  A 1.01 1.00 70.3 0 0 65.39 43.58
  Q 64.59 39.46 66.61 35.68
  A 1.00 1.00 0.0 0 0 66.67 34.85
  C 64.96 30.32 70.66 26.06 74.31 25.33
  Q 82.44 23.69 88.68 29.48
  A 1.00 1.00 0.0 0 0 90.06 29.46
  L 91.49 28.06
  A 1.00 1.00 0.0 0 0 91.26 26.46
  Q 89.71 25.63 88.55 24.37
  C 81.58 16.75 97.43 11.20 95.26 20.42
  A 1.01 1.01 0.0 0 1 94.85 21.02
  Q 91.60 23.22 91.19 19.64
  A 1.02 1.00 -22.7 0 1 91.57 18.74
  Q 93.18 17.46 93.01 19.60
  Q 92.91 20.80 93.84 20.04
  Q 95.15 18.97 92.41 16.22
  A 1.00 0.99 48.4 0 0 91.08 16.14
  C 84.61 21.32 90.66 26.59 96.52 25.71
  Q 99.33 25.29 100.53 25.51
  Q 103.15 25.99 105.63 27.00
  Q 107.65 27.82 106.64 25.88
  Q 105.67 24.06 104.77 22.26
  C 101.58 15.90 104.33 6.48 112.69 6.97
  Q 118.36 7.30 121.70 11.86
  A 1.00 1.00 0.0 0 0 123.31 11.86
  Q 127.46 6.19 134.26 6.98
  Q 136.89 7.29 138.93 9.33
  C 143.85 14.25 141.69 22.63 137.46 27.25
  Z
  M 130.18 15.85
  C 133.04 13.96 133.70 18.66 132.43 19.94
  Q 128.80 23.63 123.79 20.58
  A 1.07 1.05 9.8 0 1 123.33 19.94
  Q 123.23 19.45 122.82 19.28
  A 0.64 0.64 0.0 0 0 122.12 19.43
  Q 117.30 24.47 111.84 19.08
  A 1.00 0.98 -57.6 0 1 111.61 18.02
  C 113.72 12.44 115.93 18.37 117.14 19.74
  A 0.98 0.97 66.0 0 0 117.99 20.07
  C 127.38 19.10 118.23 4.96 109.02 9.08
  C 105.22 10.79 104.19 14.88 105.67 18.65
  C 108.53 25.90 120.25 27.88 118.06 35.53
  A 1.01 1.00 36.8 0 0 118.18 36.34
  L 121.69 41.88
  A 1.00 1.00 0.0 0 0 123.38 41.88
  L 126.79 36.46
  A 1.04 1.02 -38.8 0 0 126.89 35.60
  C 124.43 28.44 138.49 24.53 139.71 17.19
  C 140.84 10.35 134.69 6.63 128.94 9.11
  C 125.12 10.75 119.25 17.47 126.20 20.19
  A 0.99 0.98 -49.3 0 0 127.07 20.12
  Q 129.14 18.90 129.76 16.44
  A 0.96 0.96 0.0 0 1 130.18 15.85
  Z
  M 137.13 24.15
  Q 137.00 24.39 136.88 24.63
  Q 135.59 27.02 137.41 25.00
  Q 138.03 24.31 138.50 23.48
  Q 139.37 21.93 138.00 23.07
  Q 137.45 23.53 137.13 24.15
  Z
  M 118.71 40.25
  Q 121.93 45.06 118.79 39.50
  C 113.59 31.65 104.02 24.76 94.24 27.51
  Q 93.12 27.82 91.00 30.09
  A 1.00 1.00 0.0 0 0 90.97 31.42
  L 95.72 36.99
  A 0.99 0.99 0.0 0 0 97.40 36.71
  Q 98.67 33.55 101.63 32.62
  C 107.04 30.90 115.09 36.59 118.71 40.25
  Z
  M 82.75 28.21
  C 82.78 28.22 87.33 30.39 86.65 29.38
  C 86.28 28.83 83.53 28.11 82.79 28.00
  Q 81.21 26.98 79.40 27.47
  Q 78.34 27.75 79.39 28.09
  Q 80.07 28.32 80.72 27.97
  Q 81.85 27.35 82.75 28.21
  Z
  M 67.55 33.90
  Q 66.92 36.50 69.42 36.84
  Q 66.96 38.67 66.80 41.98
  Q 66.71 44.01 68.37 42.85
  Q 76.26 37.35 85.97 37.48
  A 0.80 0.80 0.0 0 0 86.78 36.72
  C 86.91 33.91 77.05 36.96 74.54 33.75
  L 75.29 33.25
  Q 79.34 35.47 83.53 33.91
  A 1.00 1.00 0.0 0 0 84.09 32.57
  L 83.29 30.75
  Q 84.88 31.01 86.33 31.69
  C 86.52 31.78 88.03 31.84 86.56 31.20
  Q 84.97 30.50 83.25 30.21
  Q 80.34 28.66 77.25 29.71
  L 75.75 29.46
  C 73.55 26.73 68.31 31.92 67.55 33.90
  Z
  M 115.06 32.77
  Q 115.47 33.41 116.09 33.65
  Q 117.71 34.30 116.69 32.88
  L 114.64 29.99
  A 1.03 1.03 0.0 0 0 114.06 29.60
  C 110.98 28.85 113.81 31.95 114.70 32.44
  Q 114.92 32.56 115.06 32.77
  Z
  M 86.71 34.00
  Q 87.59 35.03 88.32 34.66
  Q 89.29 34.17 88.21 34.16
  Q 87.37 34.16 86.75 33.54
  Q 82.68 32.80 86.71 34.00
  Z
  M 94.1623 37.1925
  A 2.53 0.32 42.6 0 0 92.5166 35.2444
  A 2.53 0.32 42.6 0 0 90.4377 33.7675
  A 2.53 0.32 42.6 0 0 92.0834 35.7156
  A 2.53 0.32 42.6 0 0 94.1623 37.1925
  Z
  M 94.00 40.79
  Q 95.95 42.55 97.00 44.96
  L 96.46 45.00
  A 1.03 1.00 -19.0 0 1 95.58 44.59
  Q 93.46 41.67 90.20 40.15
  Q 87.74 38.99 88.87 41.47
  Q 90.90 45.91 95.60 47.94
  A 1.02 0.99 41.8 0 0 96.49 47.90
  Q 99.17 46.39 97.29 44.75
  Q 96.64 42.07 94.54 40.25
  Q 92.15 37.61 88.79 36.27
  A 0.51 0.51 0.0 0 0 88.10 36.67
  L 88.05 36.95
  A 1.02 1.01 -72.3 0 0 88.58 37.99
  L 94.00 40.79
  Z
  M 131.78 38.85
  C 136.13 34.59 129.66 39.35 131.22 39.13
  A 1.07 1.02 -70.3 0 0 131.78 38.85
  Z
  M 80.62 43.90
  Q 80.13 44.56 81.40 44.67
  Q 82.30 44.75 81.66 44.11
  L 81.40 43.84
  A 0.53 0.52 -49.1 0 0 80.62 43.90
  Z
  M 122.24 44.85
  Q 121.65 44.48 121.85 45.15
  Q 122.40 46.94 122.85 46.10
  A 0.81 0.80 30.0 0 0 122.56 45.04
  L 122.24 44.85
  Z"
/>
<path fill="#c29f5a" fill-opacity="0.996" d="
  M 164.33 25.37
  Q 165.06 28.75 169.50 27.63
  Q 176.43 28.21 170.04 27.00
  Q 171.51 26.84 171.75 25.54
  Q 177.12 27.46 178.90 32.84
  A 1.02 1.02 0.0 0 1 178.85 33.58
  C 177.82 35.80 180.17 39.12 179.75 42.02
  Q 179.60 42.98 179.71 43.94
  A 1.01 1.00 -84.8 0 0 180.42 44.80
  C 182.17 45.30 184.36 46.36 186.02 45.52
  C 188.66 44.19 189.41 39.36 185.28 40.81
  Q 184.43 41.11 185.12 41.69
  Q 185.62 42.11 186.04 41.38
  Q 186.80 40.08 187.21 41.52
  Q 187.58 42.81 186.22 43.53
  A 1.01 0.99 -47.1 0 1 185.37 43.57
  Q 182.26 42.30 184.57 39.46
  A 1.02 1.00 -75.4 0 1 185.15 39.11
  C 188.92 38.32 191.18 41.55 189.09 44.66
  Q 188.95 44.87 188.80 45.08
  Q 187.50 46.93 189.74 46.65
  Q 196.35 45.82 196.73 39.38
  C 197.04 33.90 192.46 31.67 188.35 35.94
  A 0.26 0.26 0.0 0 1 187.91 35.83
  L 187.82 35.56
  A 1.00 0.99 57.9 0 1 188.04 34.59
  Q 191.23 31.14 195.72 32.18
  C 200.73 33.35 200.38 37.26 200.04 41.75
  L 198.75 43.96
  C 192.89 49.24 186.32 48.86 179.54 46.01
  A 1.00 0.99 25.8 0 0 178.28 46.44
  Q 175.77 50.94 171.27 52.48
  Q 167.94 53.61 166.86 50.68
  A 1.00 0.99 62.1 0 1 167.21 49.53
  C 170.64 47.06 174.02 49.60 177.17 45.91
  A 1.00 0.99 -56.9 0 0 176.85 44.37
  L 167.87 39.94
  Q 165.98 39.01 166.78 40.96
  Q 167.63 43.04 166.12 44.77
  C 164.52 46.61 161.92 46.47 161.23 43.86
  A 1.05 0.97 -42.8 0 1 161.28 43.20
  Q 162.73 39.88 165.09 42.55
  A 0.33 0.33 0.0 0 0 165.56 42.56
  L 165.75 42.38
  A 0.27 0.26 -34.9 0 0 165.81 42.09
  Q 163.94 37.64 158.84 38.89
  A 1.00 0.99 -1.0 0 0 158.11 39.64
  Q 156.94 44.82 152.66 47.67
  C 149.82 49.56 145.83 50.06 145.96 45.10
  A 1.02 1.01 63.1 0 1 146.13 44.57
  Q 148.01 41.75 148.30 38.42
  A 1.04 0.98 -23.0 0 1 148.55 37.85
  L 154.12 31.50
  A 1.01 1.01 0.0 0 0 154.11 30.16
  Q 151.84 27.70 149.35 27.13
  C 143.02 25.70 136.28 29.31 130.93 33.69
  Q 131.68 29.98 135.13 28.74
  Q 136.81 29.03 138.00 27.54
  C 141.41 25.89 144.69 24.75 148.56 25.62
  Q 153.76 26.78 156.21 22.13
  C 158.68 17.44 149.95 13.96 151.27 20.02
  A 0.35 0.33 89.6 0 0 151.51 20.27
  C 152.49 20.52 151.52 17.04 153.29 18.51
  C 154.79 19.73 153.95 22.27 151.68 21.67
  C 146.27 20.23 151.08 13.44 155.31 15.89
  Q 159.78 18.48 157.20 23.70
  Q 156.58 24.96 153.80 26.52
  A 1.00 0.99 51.2 0 0 153.63 28.13
  L 155.08 29.44
  A 1.00 0.99 45.2 0 0 156.40 29.45
  Q 160.06 26.27 164.33 25.37
  Z
  M 168.25 29.54
  L 166.25 29.54
  L 163.25 29.54
  L 162.00 29.96
  C 161.23 30.08 155.81 31.70 157.05 32.64
  A 0.33 0.32 -39.8 0 0 157.39 32.67
  L 162.75 30.21
  C 163.37 30.25 170.80 29.39 169.20 31.12
  Q 168.77 31.58 169.33 31.32
  L 169.63 31.18
  Q 169.97 31.02 169.93 31.40
  Q 169.51 34.73 166.57 34.09
  Q 162.43 33.18 159.95 35.03
  Q 157.32 35.58 158.05 36.95
  A 1.01 1.00 -14.7 0 0 158.95 37.47
  Q 168.61 37.34 176.58 42.53
  Q 178.37 43.70 178.12 41.58
  Q 177.80 38.85 175.89 36.85
  Q 178.40 35.56 176.71 33.00
  Q 173.97 28.06 168.25 29.54
  Z
  M 156.0569 32.9815
  A 2.03 0.41 -34.8 0 0 154.1560 33.8033
  A 2.03 0.41 -34.8 0 0 152.7231 35.2985
  A 2.03 0.41 -34.8 0 0 154.6240 34.4767
  A 2.03 0.41 -34.8 0 0 156.0569 32.9815
  Z
  M 148.60 45.19
  Q 148.00 44.93 148.33 44.30
  Q 150.81 39.54 156.15 38.30
  A 1.00 0.94 -74.6 0 0 156.66 37.99
  C 158.31 36.18 156.29 35.97 155.20 36.58
  Q 149.54 39.74 146.90 45.89
  A 1.00 0.99 23.1 0 0 147.43 47.20
  Q 149.70 48.16 151.59 46.85
  Q 154.76 44.65 156.13 41.42
  Q 157.10 39.12 154.81 40.11
  Q 151.25 41.65 149.25 44.99
  A 0.52 0.51 -61.7 0 1 148.60 45.19
  Z
  M 198.39 37.18
  Q 198.47 43.89 198.39 37.31
  Q 198.38 36.37 198.39 37.18
  Z
  M 163.09 44.47
  L 163.31 44.68
  A 0.64 0.64 0.0 0 0 164.30 44.55
  Q 165.03 43.33 163.21 43.92
  A 0.33 0.33 0.0 0 0 163.09 44.47
  Z
  M 172.9580 50.1351
  A 2.51 1.00 -5.6 0 0 170.3624 49.3848
  A 2.51 1.00 -5.6 0 0 167.9620 50.6249
  A 2.51 1.00 -5.6 0 0 170.5576 51.3752
  A 2.51 1.00 -5.6 0 0 172.9580 50.1351
  Z"
/>
<path fill="#caac65" fill-opacity="0.996" d="
  M 123.50 21.87
  Q 127.56 24.89 126.58 28.59
  Q 126.15 30.22 123.41 34.61
  A 1.00 1.00 0.0 0 1 121.70 34.59
  Q 120.55 32.62 119.49 30.63
  C 117.49 26.87 118.12 22.71 122.69 21.69
  A 1.00 0.96 56.5 0 1 123.50 21.87
  Z
  M 124.29 30.00
  Q 126.06 28.60 124.79 26.50
  Q 124.86 25.23 124.04 25.50
  Q 124.17 25.21 124.16 24.90
  A 0.81 0.80 -80.6 0 0 123.65 24.18
  Q 119.54 22.58 119.64 28.64
  A 0.96 0.96 0.0 0 0 119.78 29.14
  Q 123.21 34.79 124.29 30.00
  Z"
/>
<path fill="#2d331b" fill-opacity="0.204" d="
  M 137.13 24.15
  Q 137.45 23.53 138.00 23.07
  Q 139.37 21.93 138.50 23.48
  Q 138.03 24.31 137.41 25.00
  Q 135.59 27.02 136.88 24.63
  Q 137.00 24.39 137.13 24.15
  Z"
/>
<path fill="#f5e699" d="
  M 124.04 25.50
  L 124.54 27.25
  L 124.29 30.00
  Q 123.21 34.79 119.78 29.14
  A 0.96 0.96 0.0 0 1 119.64 28.64
  Q 119.54 22.58 123.65 24.18
  A 0.81 0.80 -80.6 0 1 124.16 24.90
  Q 124.17 25.21 124.04 25.50
  Z"
/>
<path fill="#424d2e" fill-opacity="0.486" d="
  M 124.79 26.50
  L 124.54 27.25
  L 124.04 25.50
  Q 124.86 25.23 124.79 26.50
  Z"
/>
<path fill="#d3bf88" fill-opacity="0.996" d="
  M 164.33 25.37
  Q 168.28 24.95 171.75 25.54
  Q 171.51 26.84 170.04 27.00
  L 169.50 27.63
  Q 165.06 28.75 164.33 25.37
  Z"
/>
<path fill="#73754a" fill-opacity="0.898" d="
  M 124.79 26.50
  Q 126.06 28.60 124.29 30.00
  L 124.54 27.25
  L 124.79 26.50
  Z"
/>
<path fill="#2d331b" fill-opacity="0.204" d="
  M 170.04 27.00
  Q 176.43 28.21 169.50 27.63
  L 170.04 27.00
  Z"
/>
<path fill="#73754a" fill-opacity="0.898" d="
  M 82.79 28.00
  L 82.75 28.21
  Q 81.85 27.35 80.72 27.97
  Q 80.07 28.32 79.39 28.09
  Q 78.34 27.75 79.40 27.47
  Q 81.21 26.98 82.79 28.00
  Z"
/>
<path fill="#73754a" fill-opacity="0.898" d="
  M 137.46 27.25
  L 138.00 27.54
  Q 136.81 29.03 135.13 28.74
  Q 136.09 27.61 137.46 27.25
  Z"
/>
<path fill="#424d2e" fill-opacity="0.486" d="
  M 82.79 28.00
  C 83.53 28.11 86.28 28.83 86.65 29.38
  C 87.33 30.39 82.78 28.22 82.75 28.21
  L 82.79 28.00
  Z"
/>
<path fill="#73754a" fill-opacity="0.898" d="
  M 83.25 30.21
  L 83.00 30.46
  L 81.25 30.21
  L 77.25 29.71
  Q 80.34 28.66 83.25 30.21
  Z"
/>
<path fill="#2d331b" fill-opacity="0.204" d="
  M 176.71 33.00
  Q 173.33 29.43 168.25 29.54
  Q 173.97 28.06 176.71 33.00
  Z"
/>
<path fill="#e3be68" d="
  M 75.75 29.46
  L 77.25 29.71
  L 81.25 30.21
  Q 77.98 29.82 75.39 31.54
  A 1.00 1.00 0.0 0 0 75.07 32.86
  L 75.29 33.25
  L 74.54 33.75
  Q 74.38 32.20 73.48 32.17
  A 0.65 0.64 5.5 0 0 72.82 32.71
  Q 72.36 35.80 69.42 36.84
  Q 66.92 36.50 67.55 33.90
  Q 70.75 29.98 75.75 29.46
  Z"
/>
<path fill="#c0a371" fill-opacity="0.992" d="
  M 163.25 29.54
  Q 164.75 30.72 166.25 29.54
  L 168.25 29.54
  Q 173.33 29.43 176.71 33.00
  Q 178.40 35.56 175.89 36.85
  Q 173.85 37.03 173.17 35.31
  Q 172.81 34.42 172.43 33.53
  Q 171.64 31.71 170.64 33.43
  Q 169.72 35.01 167.73 35.49
  Q 164.96 36.17 159.95 35.03
  Q 162.43 33.18 166.57 34.09
  Q 169.51 34.73 169.93 31.40
  Q 169.97 31.02 169.63 31.18
  L 169.33 31.32
  Q 168.77 31.58 169.20 31.12
  C 170.80 29.39 163.37 30.25 162.75 30.21
  L 162.00 29.96
  L 163.25 29.54
  Z
  M 174.51 33.27
  C 171.15 30.04 174.67 35.26 174.75 33.89
  A 0.76 0.76 0.0 0 0 174.51 33.27
  Z"
/>
<path fill="#424d2e" fill-opacity="0.486" d="
  M 163.25 29.54
  L 166.25 29.54
  Q 164.75 30.72 163.25 29.54
  Z"
/>
<path fill="#2d331b" fill-opacity="0.204" d="
  M 162.00 29.96
  L 162.75 30.21
  L 157.39 32.67
  A 0.33 0.32 -39.8 0 1 157.05 32.64
  C 155.81 31.70 161.23 30.08 162.00 29.96
  Z"
/>
<path fill="#f5e699" d="
  M 81.25 30.21
  L 83.00 30.46
  L 83.29 30.75
  L 84.09 32.57
  A 1.00 1.00 0.0 0 1 83.53 33.91
  Q 79.34 35.47 75.29 33.25
  L 75.07 32.86
  A 1.00 1.00 0.0 0 1 75.39 31.54
  Q 77.98 29.82 81.25 30.21
  Z"
/>
<path fill="#424d2e" fill-opacity="0.486" d="
  M 83.25 30.21
  Q 84.97 30.50 86.56 31.20
  C 88.03 31.84 86.52 31.78 86.33 31.69
  Q 84.88 31.01 83.29 30.75
  L 83.00 30.46
  L 83.25 30.21
  Z"
/>
<path fill="#2d331b" fill-opacity="0.204" d="
  M 174.75 33.89
  C 174.67 35.26 171.15 30.04 174.51 33.27
  A 0.76 0.76 0.0 0 1 174.75 33.89
  Z"
/>
<path fill="#2d331b" fill-opacity="0.204" d="
  M 86.75 33.54
  L 86.71 34.00
  Q 82.68 32.80 86.75 33.54
  Z"
/>
<ellipse fill="#2d331b" fill-opacity="0.204" cx="0.00" cy="0.00" transform="translate(154.39,34.14) rotate(-34.8)" rx="2.03" ry="0.41"/>
<path fill="#73754a" fill-opacity="0.898" d="
  M 86.75 33.54
  Q 87.37 34.16 88.21 34.16
  Q 89.29 34.17 88.32 34.66
  Q 87.59 35.03 86.71 34.00
  L 86.75 33.54
  Z"
/>
<ellipse fill="#424d2e" fill-opacity="0.486" cx="0.00" cy="0.00" transform="translate(92.30,35.48) rotate(42.6)" rx="2.53" ry="0.32"/>
<path fill="#c0a371" fill-opacity="0.992" d="
  M 5.50 55.21
  Q 7.15 50.38 11.50 47.71
  L 18.75 44.46
  L 22.00 43.79
  L 24.45 43.70
  Q 27.69 43.58 24.47 43.18
  Q 23.10 43.01 21.75 43.54
  L 18.50 44.04
  Q 14.45 44.91 11.25 47.46
  Q 6.39 49.96 4.75 55.21
  C 0.98 57.00 5.56 50.59 5.98 50.03
  Q 7.36 48.19 9.35 46.78
  Q 14.23 43.33 20.23 42.17
  Q 21.94 41.84 20.79 40.53
  Q 18.95 38.45 21.43 35.92
  C 25.03 32.24 29.84 39.76 24.31 39.33
  A 0.98 0.98 0.0 0 1 23.60 38.95
  Q 22.79 37.92 24.36 38.00
  A 0.65 0.64 -66.0 0 0 24.87 37.80
  C 25.92 36.67 22.89 36.56 22.02 37.68
  A 0.98 0.98 0.0 0 0 21.84 38.53
  Q 22.53 41.29 26.19 41.38
  Q 34.94 41.58 43.70 41.79
  A 1.02 1.00 -10.4 0 1 44.60 42.40
  L 44.98 43.31
  A 1.00 1.00 0.0 0 1 44.06 44.70
  Q 33.76 44.67 23.51 44.99
  Q 22.58 45.02 18.98 45.84
  Q 10.83 47.69 6.69 55.17
  Q 6.28 55.93 5.50 55.21
  Z
  M 40.75 43.46
  L 43.43 43.70
  A 0.26 0.25 -68.2 0 0 43.67 43.59
  C 44.22 42.80 40.91 43.04 40.75 43.04
  L 38.02 43.17
  Q 36.41 43.24 37.96 43.68
  Q 39.32 44.06 40.75 43.46
  Z
  M 36.7098 43.4228
  A 2.35 0.16 0.8 0 0 34.3622 43.2300
  A 2.35 0.16 0.8 0 0 32.0102 43.3572
  A 2.35 0.16 0.8 0 0 34.3578 43.5500
  A 2.35 0.16 0.8 0 0 36.7098 43.4228
  Z"
/>
<path fill="#d3bf88" fill-opacity="0.996" d="
  M 199.21 44.25
  Q 200.77 43.43 200.25 41.79
  C 205.13 41.49 219.67 42.72 222.86 39.85
  A 0.99 0.98 73.3 0 0 223.18 39.25
  Q 223.61 36.42 220.75 37.20
  C 220.05 37.39 220.05 37.81 220.87 37.79
  A 0.63 0.63 0.0 0 1 221.45 38.14
  C 222.23 39.67 217.27 40.31 218.43 36.37
  A 1.01 1.01 0.0 0 1 218.81 35.84
  Q 221.10 34.21 223.16 35.84
  Q 225.94 38.05 223.83 40.62
  Q 222.68 42.02 224.48 42.24
  Q 236.28 43.75 241.70 54.19
  A 1.00 1.00 0.0 0 1 240.83 55.65
  L 239.01 55.67
  A 1.02 1.02 0.0 0 1 238.15 55.20
  C 237.33 53.90 236.76 52.12 235.61 51.12
  C 226.23 43.01 214.69 44.93 200.00 45.02
  Q 199.37 45.02 199.21 44.25
  Z
  M 224.25 43.96
  Q 228.11 44.98 224.50 43.54
  Q 222.51 43.26 220.54 43.01
  C 220.38 42.99 217.90 43.25 219.77 43.64
  Q 221.99 44.10 224.25 43.96
  Z
  M 237.8743 50.9741
  A 2.03 0.35 42.6 0 0 236.6169 49.3424
  A 2.03 0.35 42.6 0 0 234.8857 48.2259
  A 2.03 0.35 42.6 0 0 236.1431 49.8576
  A 2.03 0.35 42.6 0 0 237.8743 50.9741
  Z"
/>
<path fill="#424d2e" fill-opacity="0.486" d="
  M 198.39 37.18
  Q 198.38 36.37 198.39 37.31
  Q 198.47 43.89 198.39 37.18
  Z"
/>
<path fill="#2d331b" fill-opacity="0.204" d="
  M 131.22 39.13
  C 129.66 39.35 136.13 34.59 131.78 38.85
  A 1.07 1.02 -70.3 0 1 131.22 39.13
  Z"
/>
<path fill="#424d2e" fill-opacity="0.486" d="
  M 118.79 39.50
  Q 121.93 45.06 118.71 40.25
  L 118.79 39.50
  Z"
/>
<path fill="#2d331b" fill-opacity="0.204" d="
  M 94.54 40.25
  Q 96.64 42.07 97.29 44.75
  L 97.00 44.96
  Q 95.95 42.55 94.00 40.79
  L 94.54 40.25
  Z"
/>
<path fill="#424d2e" fill-opacity="0.486" d="
  M 200.04 41.75
  L 200.25 41.79
  Q 200.77 43.43 199.21 44.25
  L 198.75 43.96
  L 200.04 41.75
  Z"
/>
<path fill="#2d331b" fill-opacity="0.204" d="
  M 22.00 43.79
  L 21.75 43.54
  Q 23.10 43.01 24.47 43.18
  Q 27.69 43.58 24.45 43.70
  L 22.00 43.79
  Z"
/>
<path fill="#424d2e" fill-opacity="0.486" d="
  M 40.75 43.04
  L 40.75 43.46
  Q 39.32 44.06 37.96 43.68
  Q 36.41 43.24 38.02 43.17
  L 40.75 43.04
  Z"
/>
<path fill="#73754a" fill-opacity="0.898" d="
  M 40.75 43.04
  C 40.91 43.04 44.22 42.80 43.67 43.59
  A 0.26 0.25 -68.2 0 1 43.43 43.70
  L 40.75 43.46
  L 40.75 43.04
  Z"
/>
<path fill="#2d331b" fill-opacity="0.204" d="
  M 224.50 43.54
  L 224.25 43.96
  Q 221.99 44.10 219.77 43.64
  C 217.90 43.25 220.38 42.99 220.54 43.01
  Q 222.51 43.26 224.50 43.54
  Z"
/>
<ellipse fill="#73754a" fill-opacity="0.898" cx="0.00" cy="0.00" transform="translate(34.36,43.39) rotate(0.8)" rx="2.35" ry="0.16"/>
<path fill="#73754a" fill-opacity="0.898" d="
  M 21.75 43.54
  L 22.00 43.79
  L 18.75 44.46
  L 18.50 44.04
  L 21.75 43.54
  Z"
/>
<path fill="#2d331b" fill-opacity="0.204" d="
  M 81.40 43.84
  L 81.66 44.11
  Q 82.30 44.75 81.40 44.67
  Q 80.13 44.56 80.62 43.90
  A 0.53 0.52 -49.1 0 1 81.40 43.84
  Z"
/>
<path fill="#73754a" fill-opacity="0.898" d="
  M 224.50 43.54
  Q 228.11 44.98 224.25 43.96
  L 224.50 43.54
  Z"
/>
<path fill="#2d331b" fill-opacity="0.204" d="
  M 163.21 43.92
  Q 165.03 43.33 164.30 44.55
  A 0.64 0.64 0.0 0 1 163.31 44.68
  L 163.09 44.47
  A 0.33 0.33 0.0 0 1 163.21 43.92
  Z"
/>
<path fill="#424d2e" fill-opacity="0.486" d="
  M 18.50 44.04
  L 18.75 44.46
  L 11.50 47.71
  L 11.25 47.46
  Q 14.45 44.91 18.50 44.04
  Z"
/>
<path fill="#2d331b" fill-opacity="0.204" d="
  M 122.24 44.85
  L 122.56 45.04
  A 0.81 0.80 30.0 0 1 122.85 46.10
  Q 122.40 46.94 121.85 45.15
  Q 121.65 44.48 122.24 44.85
  Z"
/>
<path fill="#2d331b" fill-opacity="0.204" d="
  M 11.25 47.46
  L 11.50 47.71
  Q 7.15 50.38 5.50 55.21
  L 4.75 55.21
  Q 6.39 49.96 11.25 47.46
  Z"
/>
<ellipse fill="#2d331b" fill-opacity="0.204" cx="0.00" cy="0.00" transform="translate(236.38,49.60) rotate(42.6)" rx="2.03" ry="0.35"/>
<ellipse fill="#f5e699" cx="0.00" cy="0.00" transform="translate(170.46,50.38) rotate(-5.6)" rx="2.51" ry="1.00"/>
</svg>
