<?xml version="1.0" encoding="UTF-8" standalone="no"?>
<!DOCTYPE svg PUBLIC "-//W3C//DTD SVG 1.1//EN" "http://www.w3.org/Graphics/SVG/1.1/DTD/svg11.dtd">
<svg xmlns="http://www.w3.org/2000/svg" version="1.1" viewBox="0 0 256 256">
<path fill="#000000" d="
  M 183.35 47.64
  C 205.38 64.01 219.48 87.74 223.05 114.84
  Q 227.16 146.02 212.54 174.63
  A 1.00 1.00 0.0 0 1 210.94 174.88
  L 196.60 160.44
  A 1.01 0.99 -58.1 0 1 196.37 159.40
  Q 199.29 151.23 199.71 149.69
  C 210.87 108.89 189.90 68.26 150.17 54.61
  A 1.01 0.99 -80.7 0 1 149.50 53.66
  L 149.50 33.38
  A 1.00 0.99 -83.2 0 1 150.73 32.41
  Q 168.67 36.73 183.35 47.64
  Z"
/>
<path fill="#000000" d="
  M 205.76 193.89
  C 209.31 197.43 216.65 204.22 221.72 209.81
  A 1.01 1.00 -43.9 0 1 221.69 211.19
  L 211.20 221.67
  A 1.00 0.99 -44.8 0 1 209.79 221.67
  L 191.32 203.19
  A 1.00 1.00 0.0 0 0 189.96 203.15
  Q 172.79 218.03 150.75 223.69
  A 1.00 1.00 0.0 0 1 149.50 222.72
  L 149.50 202.27
  A 1.01 1.00 -9.3 0 1 150.19 201.32
  Q 163.62 196.89 174.61 188.06
  A 1.00 1.00 0.0 0 0 174.69 186.57
  L 129.37 141.23
  Q 128.00 139.86 128.00 141.80
  L 128.00 213.77
  Q 128.00 215.76 126.62 214.32
  L 74.99 160.31
  A 1.02 0.99 67.2 0 0 74.27 160.00
  L 33.00 160.00
  A 1.00 1.00 0.0 0 1 32.00 159.00
  L 32.00 97.00
  A 1.00 1.00 0.0 0 1 33.00 96.00
  L 74.23 96.00
  A 1.00 0.99 -71.1 0 0 75.02 95.61
  L 78.32 91.36
  A 1.00 1.00 0.0 0 0 78.23 90.04
  L 34.20 46.34
  A 1.00 1.00 0.0 0 1 34.20 44.92
  L 44.79 34.34
  A 1.00 0.99 -44.8 0 1 46.20 34.34
  Q 125.99 114.11 205.76 193.89
  Z"
/>
<path fill="#000000" d="
  M 127.48 91.39
  L 102.75 66.43
  A 0.33 0.33 0.0 0 1 102.75 65.97
  L 127.39 40.92
  A 0.33 0.33 0.0 0 1 127.96 41.15
  L 128.05 91.16
  A 0.33 0.33 0.0 0 1 127.48 91.39
  Z"
/>
<path fill="#000000" d="
  M 159.56 90.69
  Q 179.43 109.45 175.28 136.94
  Q 174.98 138.90 173.58 137.49
  L 149.79 113.65
  A 1.04 1.01 23.5 0 1 149.50 112.94
  L 149.50 85.45
  A 1.00 1.00 0.0 0 1 150.95 84.55
  Q 155.46 86.81 159.56 90.69
  Z"
/>
</svg>
