<?xml version="1.0" encoding="UTF-8" standalone="no"?>
<!DOCTYPE svg PUBLIC "-//W3C//DTD SVG 1.1//EN" "http://www.w3.org/Graphics/SVG/1.1/DTD/svg11.dtd">
<svg xmlns="http://www.w3.org/2000/svg" version="1.1" viewBox="0 0 619 403">
<path fill="#111111" d="
  M 332.09 260.95
  C 332.12 267.93 332.53 274.85 332.52 281.84
  A 1.00 0.99 -26.3 0 1 332.31 282.45
  C 330.74 284.51 332.08 286.21 332.15 288.04
  Q 332.94 311.33 332.76 334.61
  Q 332.72 339.87 331.34 342.65
  C 328.96 347.45 323.24 351.12 317.67 350.24
  C 313.59 349.59 310.96 346.52 308.13 344.09
  Q 264.59 306.78 221.06 269.18
  A 1.00 1.00 0.0 0 0 220.41 268.94
  Q 183.05 268.60 144.91 268.79
  Q 137.47 268.83 134.27 267.37
  C 127.35 264.23 126.30 258.22 126.28 250.66
  Q 126.14 204.32 126.36 157.99
  C 126.42 146.31 132.79 140.37 144.35 140.51
  Q 158.74 140.69 173.09 140.80
  C 175.99 140.82 179.87 142.13 183.37 141.34
  Q 186.71 140.59 188.16 140.58
  Q 205.04 140.40 221.88 140.53
  A 0.98 0.93 -62.8 0 0 222.51 140.31
  Q 240.46 125.84 257.76 110.63
  C 275.52 95.00 293.52 79.64 311.43 64.19
  C 317.84 58.66 327.89 60.93 331.16 68.55
  Q 332.43 71.50 332.40 78.73
  Q 332.31 99.18 332.22 119.63
  C 332.21 121.35 331.12 122.66 331.75 124.43
  Q 332.40 126.26 332.33 128.75
  C 331.24 166.13 332.82 205.33 332.25 243.65
  C 332.21 246.56 330.77 250.16 331.25 253.01
  Q 332.07 257.76 332.09 260.95
  Z"
/>
<path fill="#111111" d="
  M 436.59 348.80
  C 433.00 348.57 430.33 345.26 428.38 342.67
  C 426.48 340.15 427.24 335.09 427.27 332.32
  A 1.03 0.94 -29.8 0 1 427.45 331.76
  Q 432.41 324.58 437.30 317.37
  C 452.78 294.54 464.35 270.28 468.48 242.97
  C 469.02 239.38 470.00 235.94 470.31 232.39
  C 470.88 225.83 471.99 218.85 472.21 212.84
  Q 472.78 197.01 470.43 181.32
  C 470.15 179.46 470.39 177.70 469.94 175.92
  C 468.79 171.30 468.24 166.19 467.21 162.00
  C 463.90 148.53 461.21 138.64 456.25 128.71
  Q 453.45 123.12 450.71 117.49
  Q 442.28 100.23 430.60 85.02
  C 427.03 80.36 425.18 75.72 427.47 70.49
  C 431.34 61.68 442.36 58.87 448.78 66.75
  Q 462.82 83.98 471.18 100.01
  C 477.81 112.72 484.08 126.69 488.11 140.46
  C 493.19 157.81 496.28 173.11 497.63 189.96
  Q 498.86 205.32 497.74 222.00
  C 497.16 230.72 495.73 239.20 494.50 247.79
  C 493.27 256.44 490.11 264.80 487.55 273.42
  C 479.97 299.04 467.03 323.10 450.45 343.96
  Q 446.38 349.08 439.74 349.43
  C 438.86 349.48 437.76 348.87 436.59 348.80
  Z"
/>
<path fill="#111111" d="
  M 403.03 313.71
  C 398.60 313.37 395.72 310.99 393.45 307.63
  C 391.68 305.02 392.17 301.72 392.25 298.88
  Q 392.35 295.78 394.18 293.27
  C 408.94 273.04 418.69 249.48 421.56 224.59
  C 422.33 217.89 423.32 211.66 423.16 204.44
  C 423.02 198.62 422.10 192.07 421.46 185.88
  C 420.80 179.53 419.03 173.56 417.45 167.43
  C 413.08 150.50 405.42 134.59 395.24 120.41
  Q 392.57 116.70 391.90 113.94
  C 388.25 98.99 406.42 91.26 415.32 103.73
  C 444.35 144.43 455.18 193.61 444.94 242.48
  C 440.12 265.52 430.84 286.92 417.20 306.12
  C 413.10 311.89 410.04 314.25 403.03 313.71
  Z"
/>
<path fill="#111111" d="
  M 369.51 196.43
  C 369.30 184.23 364.09 170.76 358.40 160.10
  C 356.31 156.17 353.73 151.56 353.84 147.25
  C 354.08 138.71 364.13 132.78 371.46 136.54
  Q 374.88 138.29 378.76 144.24
  C 385.03 153.85 387.59 162.30 391.25 171.97
  Q 393.76 178.60 395.23 190.50
  Q 396.39 199.83 395.88 212.25
  C 395.06 232.66 389.03 252.18 378.24 269.46
  C 371.43 280.37 358.19 278.05 354.30 266.28
  C 353.20 262.97 354.21 260.00 355.89 257.15
  Q 364.69 242.12 368.34 225.17
  C 370.39 215.59 369.68 206.12 369.51 196.43
  Z"
/>
</svg>
