<?xml version="1.0" encoding="UTF-8" standalone="no"?>
<!DOCTYPE svg PUBLIC "-//W3C//DTD SVG 1.1//EN" "http://www.w3.org/Graphics/SVG/1.1/DTD/svg11.dtd">
<svg xmlns="http://www.w3.org/2000/svg" version="1.1" viewBox="0 0 568 439">
<path fill="#724e37" d="
  M 283.15 102.97
  Q 284.10 105.72 285.04 102.97
  Q 292.02 82.55 305.38 66.01
  C 329.44 36.21 368.55 21.75 406.02 31.88
  C 440.12 41.10 464.53 69.05 473.93 102.54
  Q 476.97 113.38 477.77 122.14
  C 480.81 155.24 462.67 188.83 445.22 215.22
  Q 426.48 243.56 396.93 275.19
  Q 344.85 330.94 284.60 377.77
  A 0.99 0.99 0.0 0 1 283.38 377.77
  Q 232.28 337.95 184.83 289.67
  C 152.12 256.37 121.19 219.16 101.85 177.46
  C 94.05 160.64 88.34 140.08 90.48 121.43
  C 93.33 96.67 104.13 72.37 121.99 54.88
  C 163.71 13.99 229.71 22.93 264.34 68.00
  Q 276.56 83.91 283.15 102.97
  Z
  M 265.41 86.96
  C 225.40 36.87 150.42 40.96 119.97 99.01
  C 113.19 111.95 108.39 127.72 108.15 142.30
  C 107.76 165.83 118.73 190.21 130.92 210.05
  Q 148.21 238.21 169.05 261.71
  Q 220.83 320.10 283.34 368.50
  A 0.99 0.99 0.0 0 0 284.56 368.50
  Q 342.06 323.89 391.08 270.33
  C 407.56 252.32 423.75 231.91 436.75 210.93
  C 448.13 192.58 457.70 170.94 459.65 149.25
  C 461.12 132.98 456.34 116.74 449.41 102.04
  C 422.57 45.12 349.00 35.07 307.18 81.43
  Q 291.87 98.40 284.74 119.92
  Q 283.98 122.21 283.22 119.92
  Q 277.19 101.70 265.41 86.96
  Z"
/>
</svg>
