<?xml version="1.0" encoding="UTF-8" standalone="no"?>
<!DOCTYPE svg PUBLIC "-//W3C//DTD SVG 1.1//EN" "http://www.w3.org/Graphics/SVG/1.1/DTD/svg11.dtd">
<svg xmlns="http://www.w3.org/2000/svg" version="1.1" viewBox="0 0 678 368">
<path fill="#cf9954" d="
  M 335.28 25.07
  Q 327.84 21.09 319.87 16.88
  C 310.97 12.18 295.86 6.78 287.00 10.75
  C 276.32 15.52 282.25 25.59 290.58 27.84
  Q 306.07 32.01 318.28 21.28
  Q 319.65 20.07 319.40 21.49
  A 1.02 0.98 74.4 0 1 319.11 22.03
  C 310.51 30.29 294.88 33.78 284.73 26.17
  C 275.71 19.40 280.39 10.35 290.07 8.35
  Q 293.98 7.55 300.23 8.60
  C 313.88 10.91 323.99 16.60 338.55 24.28
  A 1.01 1.00 -48.1 0 0 339.58 24.22
  C 355.54 13.45 371.99 1.76 392.51 7.44
  Q 401.72 9.99 407.53 17.46
  A 1.00 0.98 -61.0 0 1 407.73 18.19
  Q 407.57 19.53 406.38 18.37
  C 393.18 5.47 374.63 4.68 358.79 13.53
  Q 350.05 18.42 341.89 24.24
  Q 340.42 25.30 342.09 25.98
  L 350.39 29.38
  A 1.01 1.00 33.4 0 0 351.48 29.16
  C 359.08 21.43 377.16 7.77 388.67 14.83
  C 395.02 18.72 395.05 26.37 389.37 30.83
  C 379.78 38.34 363.16 35.63 352.43 32.13
  A 1.01 0.99 -59.0 0 0 351.39 32.40
  Q 343.62 40.75 334.35 47.38
  A 1.00 0.99 40.0 0 0 334.50 49.09
  Q 342.23 52.79 350.68 54.63
  C 353.06 55.15 358.29 54.99 360.67 53.70
  C 369.29 49.05 361.88 36.99 354.85 44.06
  Q 354.06 44.84 353.22 45.54
  Q 351.43 47.00 352.21 44.83
  Q 352.40 44.29 352.95 43.76
  Q 359.47 37.57 365.50 43.80
  C 369.89 48.34 362.80 55.72 358.24 56.51
  C 350.07 57.94 339.50 53.22 332.03 49.42
  A 1.02 0.99 42.4 0 0 331.08 49.45
  C 324.02 53.49 310.34 58.01 304.74 49.49
  A 1.00 0.99 38.1 0 1 304.63 48.62
  C 307.83 39.30 323.27 43.93 329.08 47.20
  A 1.01 1.00 43.3 0 0 330.12 47.17
  Q 339.90 40.66 348.11 32.31
  A 1.00 1.00 0.0 0 0 347.79 30.69
  L 338.56 26.69
  A 1.01 1.00 -50.6 0 0 337.59 26.79
  C 318.67 39.99 288.26 46.60 272.74 23.78
  Q 271.80 22.40 271.24 21.01
  Q 268.90 15.24 271.98 20.66
  Q 276.45 28.54 284.81 32.65
  C 301.83 41.02 320.03 36.87 335.35 26.79
  A 1.00 1.00 0.0 0 0 335.28 25.07
  Z
  M 388.88 29.97
  C 398.89 18.11 383.90 11.92 374.64 15.65
  Q 363.60 20.09 354.91 29.24
  A 1.00 1.00 0.0 0 0 355.36 30.89
  Q 365.09 33.74 375.25 33.84
  Q 382.50 33.92 388.63 30.18
  Q 388.77 30.10 388.88 29.97
  Z
  M 307.18 47.20
  Q 305.55 49.45 307.96 50.82
  Q 312.61 53.46 318.09 52.12
  Q 322.68 51.00 326.63 49.09
  Q 328.59 48.14 326.59 47.27
  Q 320.17 44.48 313.21 44.33
  Q 309.33 44.24 307.18 47.20
  Z"
/>
<path fill="#ca9d61" d="
  M 143.31 186.69
  Q 145.53 186.83 144.63 187.91
  A 1.02 1.00 19.8 0 1 143.86 188.26
  C 141.05 188.26 113.40 188.72 113.70 187.51
  A 0.80 0.79 4.6 0 1 114.40 186.92
  C 125.17 185.87 126.79 179.76 131.26 169.61
  Q 145.47 137.30 159.59 104.93
  A 1.03 1.01 -46.1 0 0 159.58 104.10
  C 153.50 91.06 145.59 79.41 128.98 84.15
  A 0.81 0.81 0.0 0 1 128.08 83.80
  Q 127.63 83.07 128.56 82.57
  C 155.18 68.16 174.38 85.83 184.20 109.50
  Q 195.81 137.47 207.27 165.53
  C 215.79 186.42 229.45 218.40 257.98 213.65
  A 0.63 0.63 0.0 0 1 258.68 214.07
  Q 258.95 214.82 258.14 215.19
  Q 238.49 224.45 219.92 214.83
  C 197.51 203.22 188.89 181.95 180.60 159.88
  A 0.99 0.99 0.0 0 0 179.67 159.23
  L 146.66 159.26
  A 1.00 0.99 11.8 0 0 145.75 159.85
  Q 142.05 168.03 138.78 176.32
  C 136.92 181.02 137.21 186.30 143.31 186.69
  Z
  M 148.70 152.06
  A 0.30 0.30 0.0 0 0 148.97 152.47
  L 177.63 153.02
  A 0.30 0.30 0.0 0 0 177.92 152.62
  L 164.28 116.14
  A 0.30 0.30 0.0 0 0 163.73 116.13
  L 148.70 152.06
  Z"
/>
<path fill="#ca9d61" d="
  M 329.44 186.34
  A 1.01 1.00 64.2 0 0 330.43 186.69
  Q 337.99 185.06 341.07 178.17
  Q 357.39 141.62 373.40 104.93
  A 1.04 1.00 45.5 0 0 373.39 104.12
  C 367.84 91.98 359.03 78.97 343.48 84.01
  C 342.76 84.25 341.46 84.49 341.83 83.20
  A 1.04 1.04 0.0 0 1 342.36 82.57
  C 375.79 66.42 391.82 92.64 402.09 118.50
  Q 410.87 140.62 419.77 162.71
  C 428.06 183.28 442.83 219.21 471.76 213.57
  A 0.66 0.65 -28.1 0 1 472.33 213.74
  C 472.80 214.20 472.45 214.88 471.90 215.16
  C 445.74 228.29 419.17 210.64 406.56 187.92
  Q 399.71 175.58 394.51 159.91
  A 1.00 1.00 0.0 0 0 393.56 159.23
  L 360.42 159.26
  A 1.00 1.00 0.0 0 0 359.50 159.87
  Q 356.30 167.37 353.15 174.79
  C 350.66 180.65 350.07 186.32 358.37 186.73
  A 0.52 0.51 -84.0 0 1 358.85 187.33
  L 358.81 187.58
  A 0.80 0.80 0.0 0 1 358.02 188.25
  L 333.56 188.25
  Q 331.33 188.25 332.82 189.92
  Q 340.13 198.12 349.33 204.15
  Q 359.17 210.60 372.59 211.40
  A 0.99 0.98 76.0 0 1 373.38 211.88
  Q 373.92 212.75 372.82 213.32
  C 344.23 228.31 320.53 208.63 303.51 187.94
  Q 284.13 164.38 264.98 140.61
  A 1.00 1.00 0.0 0 1 264.96 139.38
  Q 281.49 117.52 297.98 95.66
  C 300.65 92.13 301.63 87.80 295.44 87.49
  C 293.42 87.39 293.92 86.00 295.46 86.00
  Q 311.12 85.99 326.76 86.01
  A 1.02 1.00 -20.3 0 1 327.52 86.35
  Q 328.53 87.52 326.75 87.55
  Q 316.55 87.72 310.38 95.14
  Q 296.80 111.45 283.27 127.65
  A 0.99 0.99 0.0 0 0 283.25 128.91
  L 329.44 186.34
  Z
  M 378.22 116.19
  A 0.34 0.34 0.0 0 0 377.59 116.17
  L 362.50 152.28
  A 0.34 0.34 0.0 0 0 362.81 152.75
  L 391.35 152.75
  A 0.34 0.34 0.0 0 0 391.67 152.29
  L 378.22 116.19
  Z"
/>
<path fill="#ca9d61" d="
  M 497.06 86.19
  C 523.45 86.59 547.32 97.15 552.82 125.22
  C 557.07 146.88 550.18 170.11 529.92 180.94
  C 516.92 187.90 505.08 188.09 488.06 188.20
  Q 466.99 188.35 445.91 188.21
  A 0.64 0.62 78.8 0 1 445.33 187.81
  Q 444.93 186.87 446.77 186.78
  C 455.46 186.31 456.48 179.99 456.49 172.32
  Q 456.52 133.06 456.49 93.78
  A 1.00 0.99 88.1 0 0 455.43 92.78
  Q 449.61 93.19 444.03 94.69
  C 433.74 97.48 426.33 103.70 422.03 113.41
  A 1.00 1.00 0.0 0 1 421.01 113.99
  L 420.65 113.96
  A 0.41 0.41 0.0 0 1 420.29 113.46
  C 427.51 79.70 470.61 85.78 497.06 86.19
  Z
  M 506.70 180.53
  C 533.98 171.72 534.85 127.04 523.11 107.62
  Q 513.97 92.49 495.99 92.39
  Q 487.75 92.35 479.22 92.63
  A 1.00 1.00 0.0 0 0 478.25 93.63
  L 478.25 181.07
  A 1.00 1.00 0.0 0 0 479.25 182.07
  Q 486.07 182.06 492.74 181.99
  Q 502.52 181.88 506.70 180.53
  Z"
/>
<path fill="#ca9d61" d="
  M 237.94 172.88
  C 236.89 146.71 238.36 122.90 237.78 98.01
  C 237.62 91.19 234.39 87.21 227.17 87.75
  A 0.42 0.41 87.4 0 1 226.73 87.34
  L 226.73 87.01
  A 1.00 1.00 0.0 0 1 227.73 86.01
  Q 248.70 86.00 269.66 86.00
  C 272.31 86.00 271.30 87.63 269.17 87.71
  C 261.53 88.01 259.76 92.93 259.76 99.95
  Q 259.74 137.29 259.75 174.63
  C 259.75 181.83 262.25 186.63 270.02 186.78
  C 270.70 186.79 271.52 187.05 270.99 187.88
  A 0.81 0.80 -73.0 0 1 270.32 188.24
  Q 249.04 188.26 227.76 188.25
  C 227.14 188.25 226.22 187.92 226.66 187.16
  A 0.81 0.78 14.9 0 1 227.37 186.77
  C 236.29 186.94 238.24 180.40 237.94 172.88
  Z"
/>
<path fill="#ca9d61" d="
  M 184.47 296.44
  C 185.31 286.63 171.96 288.12 171.22 296.22
  C 171.00 298.61 174.07 302.59 169.33 302.61
  A 0.99 0.98 75.9 0 1 168.44 302.07
  C 160.59 286.97 190.68 282.09 189.51 296.34
  Q 188.72 306.06 179.99 310.64
  Q 178.42 311.46 180.07 312.10
  Q 185.58 314.22 187.37 320.08
  C 190.55 330.41 181.11 340.10 171.18 340.74
  C 163.00 341.27 156.73 335.69 160.52 327.11
  Q 161.21 325.55 162.44 324.97
  Q 163.03 324.68 163.64 324.56
  Q 165.58 324.15 164.75 325.96
  Q 162.38 331.10 165.16 335.47
  C 168.20 340.25 173.93 339.33 177.12 335.45
  C 181.27 330.39 183.79 318.92 177.65 314.00
  Q 176.73 313.27 175.77 312.80
  Q 174.20 312.03 175.66 311.07
  Q 183.67 305.77 184.47 296.44
  Z"
/>
<path fill="#ca9d61" d="
  M 204.9254 340.4723
  A 27.81 16.81 109.7 0 1 198.4739 308.6234
  A 27.81 16.81 109.7 0 1 223.6746 288.1077
  A 27.81 16.81 109.7 0 1 230.1261 319.9566
  A 27.81 16.81 109.7 0 1 204.9254 340.4723
  Z
  M 202.54 332.86
  C 204.25 338.22 209.65 340.38 214.37 336.84
  C 223.83 329.74 227.73 311.77 227.54 300.77
  C 227.44 294.83 224.97 288.02 217.55 289.84
  C 204.74 293.00 199.29 322.63 202.54 332.86
  Z"
/>
<path fill="#ca9d61" d="
  M 386.15 334.02
  Q 391.25 335.26 396.55 336.02
  Q 399.50 336.44 401.86 335.25
  Q 403.78 334.28 402.96 336.27
  Q 400.50 342.20 393.58 340.42
  Q 388.81 339.19 381.55 336.05
  A 1.00 1.00 0.0 0 0 380.53 336.18
  Q 376.60 339.27 371.60 338.39
  A 1.04 1.01 72.6 0 1 371.05 338.09
  C 366.90 333.73 371.14 331.79 374.96 332.06
  Q 377.93 332.27 380.91 332.65
  A 1.04 0.98 25.5 0 0 381.74 332.38
  C 390.25 324.05 398.64 310.89 398.59 298.28
  C 398.56 290.24 390.65 285.82 385.65 293.03
  Q 381.77 298.61 383.22 305.70
  Q 383.64 307.76 381.77 306.79
  Q 379.15 305.41 378.69 302.60
  C 377.10 292.74 389.84 284.07 398.37 289.31
  C 404.60 293.14 403.99 302.09 401.76 308.37
  Q 396.78 322.42 385.72 332.31
  Q 384.30 333.57 386.15 334.02
  Z
  M 373.00 336.57
  Q 374.89 337.02 376.70 336.06
  Q 378.92 334.88 376.49 334.21
  Q 375.12 333.83 373.70 333.81
  C 371.62 333.79 370.14 335.89 373.00 336.57
  Z"
/>
<path fill="#ca9d61" d="
  M 419.8454 340.4823
  A 27.81 16.83 109.7 0 1 413.3751 308.6267
  A 27.81 16.83 109.7 0 1 438.5946 288.1177
  A 27.81 16.83 109.7 0 1 445.0649 319.9733
  A 27.81 16.83 109.7 0 1 419.8454 340.4823
  Z
  M 420.94 337.56
  C 425.76 340.36 430.31 336.87 433.04 332.82
  C 439.48 323.28 445.81 305.25 441.24 294.01
  C 438.24 286.63 428.93 289.68 425.50 294.79
  Q 418.90 304.62 417.14 316.84
  C 416.34 322.42 415.04 334.14 420.94 337.56
  Z"
/>
<path fill="#ca9d61" d="
  M 464.43 334.03
  Q 469.89 335.37 475.50 335.97
  Q 477.94 336.24 480.04 335.18
  Q 482.01 334.20 481.14 336.22
  Q 478.27 342.85 470.45 340.02
  Q 462.38 337.11 460.00 336.10
  A 1.01 0.99 -48.9 0 0 459.07 336.17
  C 456.24 337.95 444.66 341.45 448.14 333.20
  A 1.01 1.00 -86.2 0 1 448.79 332.63
  Q 453.64 331.24 458.55 332.88
  A 1.00 0.99 -58.3 0 0 459.58 332.63
  Q 470.16 321.97 474.85 309.33
  C 476.64 304.51 478.67 295.59 474.56 291.61
  C 470.17 287.37 464.56 290.20 462.49 295.25
  Q 460.48 300.15 461.18 305.59
  Q 461.41 307.46 459.73 306.61
  Q 455.61 304.52 456.98 299.04
  C 459.29 289.81 472.22 282.58 479.08 291.69
  C 483.54 297.61 481.19 306.97 478.17 313.22
  Q 472.90 324.13 463.99 332.33
  Q 462.61 333.59 464.43 334.03
  Z
  M 450.69 336.56
  Q 452.75 337.01 454.79 336.07
  Q 457.35 334.91 454.63 334.19
  Q 452.68 333.68 450.64 333.98
  A 1.00 0.98 7.6 0 0 449.88 334.55
  Q 449.09 336.22 450.69 336.56
  Z"
/>
<path fill="#ca9d61" d="
  M 509.17 290.04
  A 1.03 0.99 71.2 0 0 508.43 289.66
  Q 495.60 289.01 498.77 300.77
  A 1.00 0.98 -35.7 0 1 498.63 301.59
  Q 497.24 303.62 495.02 302.07
  A 1.01 0.98 11.2 0 1 494.64 301.52
  C 489.80 284.27 519.37 283.51 516.24 298.00
  Q 514.41 306.45 506.97 310.65
  Q 505.52 311.47 507.06 312.09
  Q 512.08 314.11 514.01 319.74
  C 517.96 331.25 506.11 341.85 495.07 340.61
  Q 490.37 340.08 487.96 337.14
  C 485.63 334.30 485.05 328.47 488.35 325.68
  Q 489.24 324.93 490.34 324.56
  Q 492.61 323.79 491.55 325.95
  Q 489.15 330.87 491.71 335.14
  C 497.17 344.27 506.21 334.77 507.54 328.50
  Q 508.57 323.62 507.54 319.54
  Q 506.46 315.25 502.43 312.73
  A 1.00 1.00 0.0 0 1 502.42 311.05
  Q 509.69 306.29 511.17 297.48
  Q 511.85 293.42 509.17 290.04
  Z"
/>
<path fill="#ca9d61" d="
  M 275.82 292.66
  Q 276.21 293.57 276.06 294.72
  C 274.73 305.07 269.42 337.93 257.94 340.51
  C 246.88 343.00 247.94 328.42 251.39 322.70
  Q 252.69 320.56 254.87 321.36
  A 1.00 1.00 0.0 0 1 255.47 322.65
  C 254.44 325.39 250.59 342.28 259.28 337.89
  C 262.97 336.02 265.17 326.67 266.26 322.51
  Q 270.17 307.65 273.18 292.45
  A 1.00 1.00 0.0 0 0 272.23 291.26
  Q 266.57 291.07 260.73 292.42
  Q 260.07 292.57 260.21 291.69
  Q 260.59 289.21 264.00 288.66
  Q 272.19 287.34 280.39 288.70
  Q 281.13 288.82 282.05 288.81
  C 285.87 288.77 283.73 290.66 282.12 290.91
  Q 279.42 291.34 276.77 291.27
  A 1.00 1.00 0.0 0 0 275.82 292.66
  Z"
/>
<ellipse fill="#ca9d61" cx="0.00" cy="0.00" transform="translate(350.99,303.92) rotate(-24.7)" rx="3.64" ry="2.50"/>
<path fill="#ca9d61" d="
  M 289.87 331.94
  Q 289.05 332.84 288.28 333.78
  C 283.00 340.26 277.27 336.04 278.30 328.76
  C 278.70 325.99 282.05 311.78 285.84 316.57
  A 1.00 1.00 0.0 0 1 285.91 317.72
  Q 281.68 324.46 282.08 332.43
  A 1.00 0.98 25.1 0 0 282.30 333.02
  C 286.90 338.58 294.22 321.69 295.80 318.12
  A 1.03 1.01 -80.9 0 1 296.60 317.53
  Q 298.70 317.29 299.30 319.05
  A 0.99 0.97 49.5 0 1 299.25 319.82
  C 298.04 322.23 292.90 332.33 296.36 334.98
  A 1.02 1.01 -32.7 0 0 297.21 335.16
  C 304.18 333.44 308.64 325.46 309.03 318.93
  A 1.00 0.99 -19.0 0 1 309.38 318.22
  Q 310.92 316.92 312.91 317.31
  A 0.99 0.99 0.0 0 1 313.71 318.26
  C 313.81 321.32 312.30 323.44 312.22 325.86
  Q 312.20 326.71 312.70 326.02
  C 315.41 322.28 319.29 317.44 323.75 316.27
  Q 329.56 314.76 330.20 321.29
  C 330.53 324.57 328.68 328.16 327.73 331.47
  Q 326.73 334.97 329.54 334.66
  C 337.46 333.80 339.07 317.83 345.71 312.93
  A 1.00 1.00 0.0 0 1 346.38 312.74
  C 348.48 312.91 348.26 314.64 347.49 316.04
  C 344.96 320.64 341.61 325.29 341.42 330.73
  C 341.30 334.22 343.78 335.68 346.80 334.00
  Q 351.38 331.44 353.91 325.57
  C 354.10 325.13 355.41 323.91 354.88 325.68
  C 353.31 330.96 347.40 338.27 341.18 336.68
  Q 338.29 335.94 337.27 332.28
  Q 336.81 330.62 335.84 332.04
  Q 334.31 334.27 331.91 335.51
  C 329.38 336.82 325.85 337.08 324.24 334.37
  C 322.15 330.84 329.35 318.86 322.05 319.99
  Q 319.87 320.33 318.33 321.91
  Q 313.04 327.40 309.42 333.64
  Q 308.24 335.67 308.00 335.81
  Q 307.00 336.41 305.11 335.11
  A 1.01 1.01 0.0 0 1 304.73 333.96
  L 304.92 333.42
  Q 305.67 331.24 304.07 332.90
  Q 301.78 335.27 299.87 336.07
  Q 291.97 339.40 291.26 332.40
  Q 291.07 330.62 289.87 331.94
  Z"
/>
</svg>
