<?xml version="1.0" encoding="UTF-8" standalone="no"?>
<svg xmlns="http://www.w3.org/2000/svg" version="1.2" baseProfile="tiny" viewBox="0 0 651 383">
<g stroke-width="1.00" fill="none" stroke-linecap="butt">
<path stroke="#5f6f6b" vector-effect="non-scaling-stroke" d="
  M 437.29 69.25
  L 436.25 69.71"
/>
<path stroke="#93ada9" vector-effect="non-scaling-stroke" d="
  M 436.25 69.71
  C 433.44 54.50 425.67 47.77 410.07 51.14
  Q 307.89 73.22 205.71 95.27
  Q 192.05 98.21 178.31 100.97
  A 0.99 0.98 -76.5 0 0 177.71 101.34
  Q 176.81 102.53 178.54 103.50"
/>
<path stroke="#8aa5a1" vector-effect="non-scaling-stroke" d="
  M 178.54 103.50
  L 178.50 103.71"
/>
<path stroke="#87a19d" vector-effect="non-scaling-stroke" d="
  M 178.50 103.71
  Q 141.48 111.38 133.24 113.47
  Q 131.36 113.94 125.23 117.36"
/>
<path stroke="#495e5a" vector-effect="non-scaling-stroke" d="
  M 203.78 120.13
  L 126.02 136.87"
/>
<path stroke="#798f8c" vector-effect="non-scaling-stroke" d="
  M 126.02 136.87
  Q 125.03 129.32 123.01 122.45"
/>
<path stroke="#65736f" vector-effect="non-scaling-stroke" d="
  M 436.25 69.71
  L 435.00 70.29"
/>
<path stroke="#90aaa5" vector-effect="non-scaling-stroke" d="
  M 435.00 70.29
  Q 434.60 70.32 434.30 70.15
  A 0.83 0.80 -79.1 0 1 433.90 69.54
  C 432.57 57.55 421.98 51.19 410.55 53.65
  Q 312.16 74.75 213.81 96.07
  Q 196.20 99.89 178.54 103.50"
/>
<path stroke="#5c6c67" vector-effect="non-scaling-stroke" d="
  M 435.00 70.29
  L 205.78 119.68"
/>
<path stroke="#859e99" vector-effect="non-scaling-stroke" d="
  M 205.78 119.68
  Q 202.97 119.32 200.83 117.92
  Q 190.85 111.41 180.92 104.82
  C 180.07 104.26 179.86 103.47 178.50 103.71"
/>
<path stroke="#47473f" vector-effect="non-scaling-stroke" d="
  M 447.96 119.25
  L 447.56 119.25
  A 0.80 0.79 -7.6 0 1 446.79 118.67
  Q 446.35 117.12 445.41 112.82
  Q 441.05 92.79 436.68 72.77
  Q 436.53 72.07 436.17 71.75
  Q 435.89 71.50 435.54 71.39
  Q 434.48 71.03 434.72 72.13
  Q 439.71 95.30 444.78 118.45
  Q 444.88 118.91 444.50 120.21"
/>
<path stroke="#5c6c67" vector-effect="non-scaling-stroke" d="
  M 444.50 120.21
  L 375.69 135.26"
/>
<path stroke="#465355" vector-effect="non-scaling-stroke" d="
  M 375.69 135.26
  L 368.99 135.98"
/>
<path stroke="#575e5e" vector-effect="non-scaling-stroke" d="
  M 368.99 135.98
  C 325.48 136.51 282.00 135.52 238.50 135.77
  Q 236.10 135.79 231.27 138.23"
/>
<path stroke="#212b28" vector-effect="non-scaling-stroke" d="
  M 231.27 138.23
  Q 217.89 128.67 203.78 120.13"
/>
<path stroke="#5a6863" vector-effect="non-scaling-stroke" d="
  M 203.78 120.13
  L 205.78 119.68"
/>
<path stroke="#465455" vector-effect="non-scaling-stroke" d="
  M 231.27 138.23
  Q 227.63 140.46 225.53 143.46"
/>
<path stroke="#36494c" vector-effect="non-scaling-stroke" d="
  M 225.53 143.46
  Q 221.90 148.33 221.99 153.51
  Q 222.16 163.44 221.25 168.39"
/>
<path stroke="#495e5a" vector-effect="non-scaling-stroke" d="
  M 221.25 168.39
  L 136.48 186.66"
/>
<path stroke="#405251" vector-effect="non-scaling-stroke" d="
  M 136.48 186.66
  L 135.04 186.75"
/>
<path stroke="#405251" vector-effect="non-scaling-stroke" d="
  M 124.29 137.25
  L 126.02 136.87"
/>
<path stroke="#718a8b" vector-effect="non-scaling-stroke" d="
  M 448.15 135.69
  Q 443.47 135.37 433.75 135.82
  Q 423.61 136.30 375.69 135.26"
/>
<path stroke="#7b857d" vector-effect="non-scaling-stroke" d="
  M 448.00 119.71
  L 445.21 120.25"
/>
<path stroke="#727d75" vector-effect="non-scaling-stroke" d="
  M 445.21 120.25
  L 444.50 120.21"
/>
<path stroke="#6c7c81" vector-effect="non-scaling-stroke" d="
  M 450.25 135.79
  Q 450.78 136.33 449.06 136.96
  Q 448.89 137.02 448.71 137.02
  C 431.87 137.01 417.68 136.89 398.56 137.09
  Q 383.76 137.24 368.99 135.98"
/>
<path stroke="#6c7c81" vector-effect="non-scaling-stroke" d="
  M 523.50 136.04
  Q 523.70 137.08 524.31 137.15
  C 533.22 138.18 540.83 144.47 541.09 154.00"
/>
<path stroke="#848b8e" vector-effect="non-scaling-stroke" d="
  M 541.09 154.00
  Q 538.79 153.82 539.46 156.25"
/>
<path stroke="#6c7c81" vector-effect="non-scaling-stroke" d="
  M 539.46 156.25
  C 536.73 141.70 527.20 139.72 513.67 139.74
  Q 411.24 139.85 308.80 139.55
  C 285.69 139.48 262.57 139.88 239.46 139.74
  Q 235.22 139.71 232.27 140.63
  Q 228.80 141.71 225.53 143.46"
/>
<path stroke="#657a7e" vector-effect="non-scaling-stroke" d="
  M 221.87 303.02
  C 222.99 302.06 221.45 300.83 221.96 299.50"
/>
<path stroke="#6f8687" vector-effect="non-scaling-stroke" d="
  M 221.96 299.50
  L 221.89 237.74"
/>
<path stroke="#abb5b7" vector-effect="non-scaling-stroke" d="
  M 221.89 237.74
  L 221.77 193.28"
/>
<path stroke="#6f8687" vector-effect="non-scaling-stroke" d="
  M 221.63 186.44
  Q 222.81 177.41 221.25 168.39"
/>
<path stroke="#748085" vector-effect="non-scaling-stroke" d="
  M 539.46 156.25
  Q 540.10 242.79 539.54 329.34
  A 0.63 0.62 -82.5 0 0 540.01 329.96
  C 540.82 330.18 540.82 329.66 540.82 329.07
  Q 540.89 241.54 541.09 154.00"
/>
<path stroke="#bfc9c6" vector-effect="non-scaling-stroke" d="
  M 216.91 188.10
  Q 198.19 191.55 179.60 195.77
  C 175.64 196.67 173.72 197.59 174.68 202.07
  Q 178.74 221.12 182.89 240.15
  C 183.69 243.85 184.98 245.64 189.01 244.77
  Q 205.22 241.27 221.89 237.74"
/>
<path stroke="#798f8c" vector-effect="non-scaling-stroke" d="
  M 221.96 299.50
  Q 204.27 303.24 186.62 307.07
  C 171.94 310.26 162.88 305.57 159.61 290.59
  C 154.01 264.82 148.28 239.07 142.96 213.24
  Q 140.20 199.90 136.48 186.66"
/>
<path stroke="#8b9c9c" vector-effect="non-scaling-stroke" d="
  M 451.75 135.71
  L 450.25 135.79"
/>
<path stroke="#7a9193" vector-effect="non-scaling-stroke" d="
  M 450.25 135.79
  L 448.15 135.69"
/>
<path stroke="#90aaa5" vector-effect="non-scaling-stroke" d="
  M 448.15 135.69
  L 445.21 120.25"
/>
<path stroke="#2e628a" vector-effect="non-scaling-stroke" d="
  M 424.9663 211.4109
  A 7.07 7.07 0.0 0 0 417.9210 204.3163
  L 385.7412 204.2040
  A 7.07 7.07 0.0 0 0 378.6466 211.2493
  L 378.5337 243.5891
  A 7.07 7.07 0.0 0 0 385.5790 250.6837
  L 417.7588 250.7960
  A 7.07 7.07 0.0 0 0 424.8534 243.7507
  L 424.9663 211.4109"
/>
<path stroke="#2e628a" vector-effect="non-scaling-stroke" d="
  M 460.36 228.14
  Q 465.83 224.42 464.25 218.08
  C 462.92 212.75 457.22 211.00 452.29 210.90
  Q 442.25 210.68 436.48 210.79
  A 1.00 1.00 0.0 0 0 435.50 211.79
  L 435.50 248.49
  A 1.00 1.00 0.0 0 0 436.49 249.49
  Q 443.44 249.54 450.39 249.47
  C 459.14 249.38 467.60 244.96 464.89 234.97
  Q 464.32 232.88 462.80 231.53
  Q 461.72 230.55 460.44 229.84
  A 1.00 1.00 0.0 0 1 460.36 228.14"
/>
<path stroke="#2e628a" vector-effect="non-scaling-stroke" d="
  M 495.00 232.24
  Q 501.94 227.23 500.21 219.21
  C 498.83 212.82 492.62 211.10 486.72 210.88
  Q 480.02 210.63 473.23 210.78
  A 1.01 1.00 -0.9 0 0 472.25 211.78
  L 472.25 248.50
  A 1.00 1.00 0.0 0 0 473.25 249.50
  L 481.59 249.50
  A 1.01 1.00 90.0 0 0 482.59 248.49
  L 482.51 236.39
  A 1.01 1.01 0.0 0 1 483.06 235.49
  C 484.31 234.85 485.28 235.38 485.99 236.57
  Q 489.66 242.73 493.14 248.98
  A 0.99 0.99 0.0 0 0 494.01 249.50
  L 503.57 249.50
  Q 505.44 249.50 504.40 247.94
  L 494.75 233.61
  A 1.00 1.00 0.0 0 1 495.00 232.24"
/>
<path stroke="#2e628a" vector-effect="non-scaling-stroke" d="
  M 519.50 211.01
  A 0.26 0.26 0.0 0 0 519.24 210.75
  L 509.26 210.75
  A 0.26 0.26 0.0 0 0 509.00 211.01
  L 509.00 249.25
  A 0.26 0.26 0.0 0 0 509.26 249.51
  L 519.24 249.51
  A 0.26 0.26 0.0 0 0 519.50 249.25
  L 519.50 211.01"
/>
<path stroke="#856d4c" vector-effect="non-scaling-stroke" d="
  M 246.25 225.96
  Q 245.62 227.00 246.25 228.04"
/>
<path stroke="#a89451" vector-effect="non-scaling-stroke" d="
  M 246.25 228.04
  L 246.29 236.25"
/>
<path stroke="#856d4c" vector-effect="non-scaling-stroke" d="
  M 246.29 236.25
  Q 245.63 239.99 246.21 243.75"
/>
<path stroke="#a89451" vector-effect="non-scaling-stroke" d="
  M 246.21 243.75
  L 246.29 246.75"
/>
<path stroke="#856d4c" vector-effect="non-scaling-stroke" d="
  M 246.29 246.75
  L 246.04 249.50"
/>
<path stroke="#a89451" vector-effect="non-scaling-stroke" d="
  M 246.04 249.50
  Q 246.97 262.82 260.46 262.25"
/>
<path stroke="#856d4c" vector-effect="non-scaling-stroke" d="
  M 260.46 262.25
  Q 261.71 262.77 263.00 262.21"
/>
<path stroke="#a89451" vector-effect="non-scaling-stroke" d="
  M 263.00 262.21
  L 278.78 262.23"
/>
<path stroke="#856d4c" vector-effect="non-scaling-stroke" d="
  M 278.78 262.23
  L 281.00 262.21"
/>
<path stroke="#a89451" vector-effect="non-scaling-stroke" d="
  M 281.00 262.21
  Q 294.83 262.88 295.21 249.25"
/>
<path stroke="#856d4c" vector-effect="non-scaling-stroke" d="
  M 295.21 249.25
  L 295.22 246.46"
/>
<path stroke="#a89451" vector-effect="non-scaling-stroke" d="
  M 295.22 246.46
  L 294.96 238.50"
/>
<path stroke="#856d4c" vector-effect="non-scaling-stroke" d="
  M 294.96 238.50
  L 295.21 236.25"
/>
<path stroke="#a89451" vector-effect="non-scaling-stroke" d="
  M 295.21 236.25
  L 295.00 228.21"
/>
<path stroke="#856d4c" vector-effect="non-scaling-stroke" d="
  M 295.00 228.21
  L 295.21 225.75"
/>
<path stroke="#a89451" vector-effect="non-scaling-stroke" d="
  M 295.21 225.75
  Q 294.36 212.40 280.75 213.29"
/>
<path stroke="#856d4c" vector-effect="non-scaling-stroke" d="
  M 280.75 213.29
  L 278.75 213.29"
/>
<path stroke="#a89451" vector-effect="non-scaling-stroke" d="
  M 278.75 213.29
  L 262.75 213.29"
/>
<path stroke="#856d4c" vector-effect="non-scaling-stroke" d="
  M 262.75 213.29
  L 260.75 213.29"
/>
<path stroke="#a89451" vector-effect="non-scaling-stroke" d="
  M 260.75 213.29
  Q 246.82 212.41 246.25 225.96"
/>
<path stroke="#d19024" vector-effect="non-scaling-stroke" d="
  M 260.75 213.29
  L 260.46 217.00"
/>
<path stroke="#f5c449" vector-effect="non-scaling-stroke" d="
  M 260.46 217.00
  Q 250.75 216.26 249.50 225.71"
/>
<path stroke="#d19024" vector-effect="non-scaling-stroke" d="
  M 249.50 225.71
  L 246.25 225.96"
/>
<path stroke="#d19024" vector-effect="non-scaling-stroke" d="
  M 262.75 213.29
  L 262.77 217.03"
/>
<path stroke="#d29d44" vector-effect="non-scaling-stroke" d="
  M 262.77 217.03
  L 262.84 235.66"
/>
<path stroke="#d19024" vector-effect="non-scaling-stroke" d="
  M 262.84 235.66
  L 263.00 262.21"
/>
<path stroke="#d19024" vector-effect="non-scaling-stroke" d="
  M 260.46 262.25
  L 260.51 249.87
  A 1.00 0.99 88.6 0 0 259.47 248.87
  Q 252.24 249.19 247.27 248.97
  Q 246.30 248.92 246.04 249.50"
/>
<path stroke="#d19024" vector-effect="non-scaling-stroke" d="
  M 246.29 246.75
  L 259.50 246.72
  A 1.00 1.00 0.0 0 0 260.50 245.72
  L 260.50 239.50
  A 1.00 1.00 0.0 0 0 259.50 238.50
  L 247.28 238.50
  A 1.00 1.00 0.0 0 0 246.28 239.48
  L 246.21 243.75"
/>
<path stroke="#d19024" vector-effect="non-scaling-stroke" d="
  M 246.29 236.25
  L 259.55 236.50
  A 1.01 1.00 10.1 0 0 260.51 235.84
  Q 260.68 235.36 260.46 234.75"
/>
<path stroke="#d29d44" vector-effect="non-scaling-stroke" d="
  M 260.46 234.75
  L 260.37 229.18
  A 1.00 0.99 -0.6 0 0 259.36 228.20
  L 250.25 228.29"
/>
<path stroke="#d19024" vector-effect="non-scaling-stroke" d="
  M 250.25 228.29
  L 246.25 228.04"
/>
<path stroke="#d29d44" vector-effect="non-scaling-stroke" d="
  M 249.50 225.71
  L 259.32 225.80
  A 1.00 1.00 0.0 0 0 260.33 224.82
  L 260.46 217.00"
/>
<path stroke="#f5c449" vector-effect="non-scaling-stroke" d="
  M 250.25 228.29
  Q 249.39 230.04 249.77 231.93
  A 1.02 1.00 89.4 0 0 250.55 232.71
  L 260.46 234.75"
/>
<path stroke="#f5c449" vector-effect="non-scaling-stroke" d="
  M 278.46 240.50
  L 262.84 235.66"
/>
<path stroke="#d19024" vector-effect="non-scaling-stroke" d="
  M 278.75 213.29
  L 278.46 216.75"
/>
<path stroke="#f5c449" vector-effect="non-scaling-stroke" d="
  M 278.46 216.75
  L 262.77 217.03"
/>
<path stroke="#d19024" vector-effect="non-scaling-stroke" d="
  M 280.75 213.29
  L 281.04 217.00"
/>
<path stroke="#d29d44" vector-effect="non-scaling-stroke" d="
  M 281.04 217.00
  L 280.94 224.59
  A 1.00 1.00 0.0 0 0 281.93 225.60
  L 291.75 225.71"
/>
<path stroke="#d19024" vector-effect="non-scaling-stroke" d="
  M 291.75 225.71
  L 295.21 225.75"
/>
<path stroke="#d19024" vector-effect="non-scaling-stroke" d="
  M 295.00 228.21
  L 291.50 228.29"
/>
<path stroke="#d29d44" vector-effect="non-scaling-stroke" d="
  M 291.50 228.29
  L 281.81 228.34
  A 1.00 0.99 90.0 0 0 280.82 229.34
  L 280.83 235.31
  A 1.00 1.00 0.0 0 0 281.81 236.31
  L 291.01 236.47"
/>
<path stroke="#d19024" vector-effect="non-scaling-stroke" d="
  M 291.01 236.47
  L 295.21 236.25"
/>
<path stroke="#d19024" vector-effect="non-scaling-stroke" d="
  M 294.96 238.50
  L 291.25 238.54"
/>
<path stroke="#d29d44" vector-effect="non-scaling-stroke" d="
  M 291.25 238.54
  L 281.80 238.55
  A 1.00 0.99 -83.9 0 0 280.83 239.34
  Q 280.54 240.63 281.00 241.96"
/>
<path stroke="#d19024" vector-effect="non-scaling-stroke" d="
  M 281.00 241.96
  Q 280.53 243.81 280.78 245.82
  A 1.02 1.01 87.9 0 0 281.72 246.70
  Q 288.49 247.09 295.22 246.46"
/>
<path stroke="#d19024" vector-effect="non-scaling-stroke" d="
  M 295.21 249.25
  L 281.81 249.05
  A 1.00 1.00 0.0 0 0 280.80 250.07
  L 281.00 262.21"
/>
<path stroke="#d19024" vector-effect="non-scaling-stroke" d="
  M 278.78 262.23
  L 278.46 240.50"
/>
<path stroke="#d29d44" vector-effect="non-scaling-stroke" d="
  M 278.46 240.50
  L 278.46 216.75"
/>
<path stroke="#f5c449" vector-effect="non-scaling-stroke" d="
  M 291.75 225.71
  Q 290.73 216.15 281.04 217.00"
/>
<path stroke="#f5c449" vector-effect="non-scaling-stroke" d="
  M 291.50 228.29
  Q 291.92 232.53 291.01 236.47"
/>
<path stroke="#f5c449" vector-effect="non-scaling-stroke" d="
  M 291.25 238.54
  L 291.45 244.83
  A 1.00 1.00 0.0 0 1 290.06 245.78
  L 281.00 241.96"
/>
<path stroke="#2e393c" vector-effect="non-scaling-stroke" d="
  M 244.36 291.79
  C 252.90 287.05 247.29 277.93 240.01 283.26
  A 1.00 1.00 0.0 0 0 239.68 284.47
  Q 240.90 287.23 242.99 285.10
  A 1.00 1.00 0.0 0 1 244.08 284.87
  C 247.50 286.26 240.79 291.63 239.50 292.96
  Q 237.03 295.51 240.98 295.51
  L 248.25 295.50
  A 1.00 1.00 0.0 0 0 249.25 294.50
  L 249.25 293.50
  A 1.00 1.00 0.0 0 0 248.25 292.50
  L 244.50 292.50
  A 0.25 0.22 -4.1 0 1 244.26 292.31
  L 244.23 292.06
  A 0.26 0.26 0.0 0 1 244.36 291.79"
/>
<path stroke="#2e393c" vector-effect="non-scaling-stroke" d="
  M 260.1370 286.1757
  A 4.32 4.32 0.0 0 0 255.7944 281.8784
  L 255.1344 281.8818
  A 4.32 4.32 0.0 0 0 250.8371 286.2244
  L 250.8630 291.1843
  A 4.32 4.32 0.0 0 0 255.2056 295.4816
  L 255.8656 295.4782
  A 4.32 4.32 0.0 0 0 260.1629 291.1356
  L 260.1370 286.1757"
/>
<path stroke="#2e393c" vector-effect="non-scaling-stroke" d="
  M 266.31 285.24
  Q 267.52 284.38 269.42 284.77
  A 1.01 1.01 0.0 0 0 270.57 284.10
  Q 271.40 281.58 268.77 281.68
  Q 262.58 281.92 261.85 287.46
  C 260.01 301.54 276.62 294.54 270.16 287.64
  Q 268.83 286.21 266.96 286.67
  Q 262.89 287.66 266.31 285.24"
/>
<path stroke="#2e393c" vector-effect="non-scaling-stroke" d="
  M 293.3826 286.1776
  A 4.32 4.32 0.0 0 0 289.0325 281.8879
  L 288.3725 281.8925
  A 4.32 4.32 0.0 0 0 284.0828 286.2425
  L 284.1174 291.2024
  A 4.32 4.32 0.0 0 0 288.4675 295.4921
  L 289.1275 295.4875
  A 4.32 4.32 0.0 0 0 293.4172 291.1375
  L 293.3826 286.1776"
/>
<path stroke="#2e393c" vector-effect="non-scaling-stroke" d="
  M 315.62 286.22
  A 4.32 4.32 0.0 0 0 311.30 281.90
  L 310.64 281.90
  A 4.32 4.32 0.0 0 0 306.32 286.22
  L 306.32 291.16
  A 4.32 4.32 0.0 0 0 310.64 295.48
  L 311.30 295.48
  A 4.32 4.32 0.0 0 0 315.62 291.16
  L 315.62 286.22"
/>
<path stroke="#2e393c" vector-effect="non-scaling-stroke" d="
  M 333.74 285.13
  A 1.00 1.00 0.0 0 1 334.15 286.77
  L 328.27 292.93
  A 1.05 1.01 -24.3 0 0 327.99 293.63
  L 328.00 294.51
  A 1.00 0.99 -0.0 0 0 329.00 295.50
  L 336.75 295.50
  A 1.00 1.00 0.0 0 0 337.75 294.50
  L 337.75 293.50
  A 1.00 1.00 0.0 0 0 336.75 292.50
  L 334.60 292.51
  Q 332.51 292.51 334.06 291.11
  Q 336.08 289.28 336.46 288.70
  C 340.40 282.78 333.08 280.09 328.72 283.20
  A 1.01 1.00 -36.4 0 0 328.50 284.61
  L 329.24 285.60
  A 1.00 0.99 50.5 0 0 330.71 285.75
  Q 332.03 284.55 333.74 285.13"
/>
<path stroke="#2e393c" vector-effect="non-scaling-stroke" d="
  M 365.83 285.34
  Q 366.31 284.97 366.95 284.76
  C 368.26 284.34 371.38 285.73 370.16 282.32
  A 1.00 0.99 77.7 0 0 369.15 281.66
  Q 358.74 282.38 362.27 293.97
  A 1.02 1.00 -86.0 0 0 362.79 294.58
  C 367.80 297.04 372.89 294.27 370.73 288.87
  Q 369.61 286.05 366.50 286.75
  Q 363.02 287.54 365.83 285.34"
/>
<path stroke="#2e393c" vector-effect="non-scaling-stroke" d="
  M 388.5655 295.8187
  A 7.06 5.00 88.9 0 0 393.4291 288.6640
  A 7.06 5.00 88.9 0 0 388.2945 281.7013
  A 7.06 5.00 88.9 0 0 383.4309 288.8560
  A 7.06 5.00 88.9 0 0 388.5655 295.8187"
/>
<path stroke="#2e393c" vector-effect="non-scaling-stroke" d="
  M 402.68 287.98
  L 404.08 286.04
  Q 405.58 283.97 402.78 282.65
  C 400.19 281.43 394.73 281.35 395.21 285.41
  Q 395.36 286.69 396.26 287.66
  A 1.01 1.00 46.7 0 1 396.22 289.06
  Q 392.75 292.43 396.94 295.32
  A 1.02 0.98 61.5 0 0 397.51 295.50
  L 401.53 295.51
  A 0.96 0.95 27.9 0 0 402.06 295.35
  Q 406.75 292.40 402.87 289.35
  A 1.01 1.00 37.4 0 1 402.68 287.98"
/>
<path stroke="#2e393c" vector-effect="non-scaling-stroke" d="
  M 277.96 292.05
  Q 276.64 293.02 274.67 292.72
  A 1.00 1.00 0.0 0 0 273.52 293.71
  L 273.53 294.63
  A 1.00 1.00 0.0 0 0 274.48 295.63
  Q 283.87 296.11 282.42 286.48
  C 281.47 280.20 272.40 280.47 272.66 286.85
  Q 272.75 289.11 274.26 290.33
  Q 275.62 291.44 277.41 290.92
  Q 280.92 289.89 277.96 292.05"
/>
<path stroke="#2e393c" vector-effect="non-scaling-stroke" d="
  M 299.25 287.93
  L 299.23 294.50
  A 1.00 1.00 0.0 0 0 300.23 295.50
  L 301.89 295.50
  A 0.99 0.99 0.0 0 0 302.89 294.50
  L 302.80 283.01
  A 1.01 1.00 -85.5 0 0 301.97 282.03
  Q 301.28 281.91 300.57 281.96
  C 298.87 282.07 297.08 284.07 295.77 285.18
  A 1.01 1.00 56.4 0 0 295.53 286.40
  Q 296.59 288.48 297.93 287.32
  Q 299.26 286.18 299.25 287.93"
/>
<path stroke="#2e393c" vector-effect="non-scaling-stroke" d="
  M 321.50 287.85
  L 321.50 294.50
  A 1.00 1.00 0.0 0 0 322.50 295.50
  L 324.17 295.50
  A 1.00 1.00 0.0 0 0 325.17 294.50
  L 325.19 283.00
  A 1.00 1.00 0.0 0 0 324.19 282.00
  L 322.20 282.00
  A 1.02 0.97 24.3 0 0 321.57 282.22
  L 317.97 285.11
  A 0.99 0.99 0.0 0 0 317.69 286.29
  Q 318.69 288.57 320.17 287.25
  Q 321.50 286.07 321.50 287.85"
/>
<path stroke="#2e393c" vector-effect="non-scaling-stroke" d="
  M 343.63 288.29
  L 343.71 294.51
  A 1.00 1.00 0.0 0 0 344.71 295.50
  L 346.26 295.50
  A 1.00 1.00 0.0 0 0 347.26 294.50
  L 347.24 283.00
  A 1.00 0.99 -90.0 0 0 346.25 282.00
  L 344.42 282.00
  A 0.97 0.96 -63.7 0 0 343.78 282.22
  L 340.14 285.19
  A 1.00 1.00 0.0 0 0 339.89 286.42
  Q 340.82 288.25 342.10 287.45
  Q 343.61 286.52 343.63 288.29"
/>
<path stroke="#2e393c" vector-effect="non-scaling-stroke" d="
  M 354.75 287.78
  L 354.75 294.50
  A 1.00 1.00 0.0 0 0 355.75 295.50
  L 357.35 295.50
  A 1.00 1.00 0.0 0 0 358.35 294.50
  L 358.37 282.96
  A 1.00 0.99 -83.0 0 0 357.62 281.99
  Q 355.72 281.50 354.65 282.38
  Q 352.97 283.75 351.19 285.09
  A 1.00 1.00 0.0 0 0 351.00 286.50
  L 351.64 287.34
  A 1.01 1.00 -40.2 0 0 353.12 287.46
  L 353.40 287.20
  Q 354.75 285.95 354.75 287.78"
/>
<path stroke="#2e393c" vector-effect="non-scaling-stroke" d="
  M 377.34 285.18
  Q 378.65 284.77 380.06 285.02
  A 1.00 0.99 5.5 0 0 381.23 284.06
  L 381.26 283.02
  A 1.00 1.00 0.0 0 0 380.26 282.00
  L 374.50 282.00
  A 0.99 0.99 0.0 0 0 373.51 282.90
  L 372.98 288.38
  A 1.01 1.01 0.0 0 0 373.61 289.41
  Q 374.98 289.95 376.52 289.40
  A 1.01 1.00 63.1 0 1 377.69 289.79
  Q 379.67 292.76 375.52 292.83
  Q 375.26 292.83 375.03 292.71
  Q 372.04 291.09 372.79 294.53
  A 1.01 1.00 88.2 0 0 373.60 295.30
  C 378.46 296.12 383.59 295.08 381.65 289.04
  Q 380.78 286.34 378.76 286.72
  Q 378.06 286.85 377.43 286.73
  Q 374.23 286.13 377.34 285.18"
/>
<path stroke="#a89052" vector-effect="non-scaling-stroke" d="
  M 482.50 328.46
  C 492.51 336.45 507.09 333.94 513.33 323.04
  C 519.49 312.28 515.37 299.56 504.34 294.16
  Q 493.64 288.92 482.25 296.79"
/>
<path stroke="#8f5651" vector-effect="non-scaling-stroke" d="
  M 482.25 296.79
  C 471.36 288.55 456.68 291.67 450.75 303.38
  C 444.67 315.38 451.25 329.12 463.98 332.50
  Q 473.43 335.02 482.50 328.46"
/>
<path stroke="#dc752b" vector-effect="non-scaling-stroke" d="
  M 482.25 296.79
  C 472.69 305.72 472.52 319.79 482.50 328.46"
/>
<path stroke="#2e393c" vector-effect="non-scaling-stroke" d="
  M 273.77 306.89
  Q 274.59 303.93 271.40 304.24
  A 1.01 1.00 87.2 0 0 270.50 305.24
  L 270.50 315.93
  A 1.00 1.00 0.0 0 0 271.44 316.93
  L 272.70 317.00
  A 0.99 0.99 0.0 0 0 273.75 316.00
  L 273.74 311.46
  A 1.01 1.00 -2.2 0 1 274.67 310.46
  L 275.18 310.43
  A 1.00 0.99 -2.1 0 1 276.25 311.42
  L 276.25 315.89
  A 1.00 0.99 2.5 0 0 277.16 316.88
  L 278.39 316.99
  A 1.00 1.00 0.0 0 0 279.48 315.99
  C 279.47 313.72 280.04 310.47 278.64 308.75
  Q 277.23 307.00 274.81 307.86
  Q 273.37 308.37 273.77 306.89"
/>
<path stroke="#2e393c" vector-effect="non-scaling-stroke" d="
  M 339.71 307.80
  Q 337.80 307.25 336.50 308.49
  C 333.87 311.01 335.27 319.39 340.09 316.38
  A 1.02 1.01 40.4 0 1 341.01 316.31
  L 342.44 316.92
  A 1.00 1.00 0.0 0 0 343.15 316.95
  C 344.56 316.48 343.94 309.17 344.10 305.52
  A 1.00 0.99 8.5 0 0 343.35 304.51
  Q 339.86 303.63 340.71 306.82
  Q 341.07 308.19 339.71 307.80"
/>
<path stroke="#2e393c" vector-effect="non-scaling-stroke" d="
  M 396.5016 305.0466
  A 0.91 0.91 0.0 0 0 395.5482 304.1822
  L 394.3497 304.2408
  A 0.91 0.91 0.0 0 0 393.4852 305.1942
  L 393.5184 305.8734
  A 0.91 0.91 0.0 0 0 394.4718 306.7378
  L 395.6703 306.6792
  A 0.91 0.91 0.0 0 0 396.5348 305.7258
  L 396.5016 305.0466"
/>
<path stroke="#2e393c" vector-effect="non-scaling-stroke" d="
  M 247.81 314.42
  L 248.38 316.17
  A 1.02 0.99 80.7 0 0 249.33 316.87
  L 250.93 316.86
  A 1.01 1.00 -82.5 0 0 251.90 316.11
  L 253.67 309.23
  Q 253.90 308.30 254.28 309.18
  C 254.52 309.73 253.98 314.78 253.98 315.83
  A 1.01 1.00 1.9 0 0 254.91 316.82
  L 255.82 316.88
  A 1.01 1.00 2.4 0 0 256.90 315.89
  L 256.93 306.17
  A 1.00 0.99 1.5 0 0 255.97 305.17
  L 253.48 305.08
  A 1.00 0.99 8.8 0 0 252.48 305.80
  L 250.98 311.08
  Q 250.19 313.83 249.44 311.07
  L 248.00 305.85
  A 1.00 1.00 0.0 0 0 247.09 305.12
  L 244.55 304.99
  A 0.99 0.99 0.0 0 0 243.50 305.98
  L 243.50 315.93
  A 1.01 1.00 2.5 0 0 244.42 316.93
  L 245.17 316.99
  A 1.01 0.99 1.9 0 0 246.25 315.99
  L 246.25 314.67
  Q 246.24 309.56 247.81 314.42"
/>
<path stroke="#2e393c" vector-effect="non-scaling-stroke" d="
  M 356.76 309.42
  Q 352.71 310.51 353.85 306.36
  A 1.00 1.00 0.0 0 0 352.97 305.10
  L 351.58 304.99
  A 1.00 1.00 0.0 0 0 350.50 305.99
  L 350.50 315.89
  A 1.00 0.99 2.5 0 0 351.41 316.88
  L 352.66 316.99
  A 1.00 0.99 2.6 0 0 353.75 316.00
  L 353.75 313.17
  A 1.00 1.00 0.0 0 1 354.69 312.17
  L 356.44 312.07
  A 1.00 1.00 0.0 0 1 357.50 313.07
  L 357.50 315.93
  A 1.00 1.00 0.0 0 0 358.45 316.93
  L 359.69 317.00
  A 1.00 1.00 0.0 0 0 360.75 316.00
  L 360.75 306.13
  A 1.00 1.00 0.0 0 0 359.78 305.13
  L 358.53 305.09
  A 1.00 1.00 0.0 0 0 357.50 306.09
  L 357.50 308.45
  A 1.01 1.00 82.5 0 1 356.76 309.42"
/>
<path stroke="#2e393c" vector-effect="non-scaling-stroke" d="
  M 294.39 308.13
  Q 293.75 307.55 292.81 307.67
  A 1.01 1.01 0.0 0 0 291.94 308.65
  L 291.84 315.76
  A 1.01 1.00 -86.2 0 0 292.72 316.77
  L 293.86 316.90
  A 1.00 0.99 -84.6 0 0 294.97 315.97
  L 295.27 311.30
  A 1.00 0.99 3.9 0 1 296.35 310.37
  L 296.76 310.40
  A 0.81 0.80 2.3 0 1 297.50 311.20
  L 297.50 315.87
  A 0.99 0.99 0.0 0 0 298.43 316.86
  L 299.68 316.95
  A 1.00 1.00 0.0 0 0 300.75 315.95
  L 300.75 311.56
  A 0.99 0.98 68.8 0 1 301.06 310.84
  C 303.97 308.08 303.22 314.72 303.20 315.79
  A 1.00 1.00 0.0 0 0 304.14 316.80
  L 305.35 316.89
  A 1.01 1.00 -89.2 0 0 306.41 315.85
  L 306.19 309.55
  A 0.98 0.96 -68.2 0 0 305.92 308.90
  Q 303.65 306.47 300.98 308.39
  A 1.02 1.01 -43.9 0 1 299.78 308.37
  Q 297.74 306.81 295.62 308.23
  A 1.00 0.99 49.4 0 1 294.39 308.13"
/>
<path stroke="#2e393c" vector-effect="non-scaling-stroke" d="
  M 314.20 311.17
  L 314.27 315.90
  A 1.00 1.00 0.0 0 0 315.23 316.88
  L 316.47 316.93
  A 1.01 1.00 -88.9 0 0 317.51 315.92
  L 317.49 311.35
  A 1.01 1.00 -89.4 0 1 318.51 310.34
  L 318.77 310.35
  A 1.00 1.00 0.0 0 1 319.75 311.35
  L 319.75 315.78
  A 1.01 1.00 2.2 0 0 320.68 316.78
  L 321.91 316.87
  A 0.99 0.99 0.0 0 0 322.98 315.88
  C 322.99 313.17 323.89 304.43 317.68 308.44
  A 1.00 1.00 0.0 0 1 316.53 308.39
  Q 314.42 306.76 312.33 308.25
  A 1.00 0.99 48.7 0 1 311.07 308.16
  Q 310.37 307.51 309.28 307.76
  A 1.01 0.99 -6.6 0 0 308.50 308.73
  L 308.50 315.88
  A 1.00 1.00 0.0 0 0 309.41 316.88
  L 310.65 316.99
  A 1.00 1.00 0.0 0 0 311.74 316.01
  C 311.75 314.61 311.12 309.94 313.31 310.19
  A 1.01 1.00 -87.4 0 1 314.20 311.17"
/>
<path stroke="#2e393c" vector-effect="non-scaling-stroke" d="
  M 404.45 311.15
  L 404.53 315.95
  A 0.99 0.99 0.0 0 0 405.47 316.93
  L 406.74 317.00
  A 1.01 1.00 0.8 0 0 407.80 315.97
  L 407.59 309.61
  A 1.00 0.99 -68.5 0 0 407.30 308.93
  Q 404.94 306.60 402.34 308.27
  A 1.00 1.00 0.0 0 1 401.08 308.12
  Q 400.49 307.51 399.54 307.71
  A 1.00 1.00 0.0 0 0 398.75 308.69
  L 398.75 315.93
  A 1.00 1.00 0.0 0 0 399.75 316.93
  L 400.97 316.93
  A 1.00 0.99 87.9 0 0 401.96 315.86
  C 401.84 314.05 401.55 310.00 403.54 310.17
  A 1.01 1.00 -88.1 0 1 404.45 311.15"
/>
<path stroke="#2e393c" vector-effect="non-scaling-stroke" d="
  M 265.86 316.54
  Q 266.73 317.43 267.81 316.71
  A 1.01 1.00 -17.2 0 0 268.25 315.88
  L 268.25 308.75
  A 1.00 1.00 0.0 0 0 267.25 307.75
  L 266.01 307.75
  A 1.01 1.00 -89.4 0 0 265.01 308.74
  C 265.00 309.87 265.75 315.50 263.10 314.35
  A 1.02 1.00 12.3 0 1 262.50 313.43
  L 262.50 308.61
  A 1.01 0.99 -83.9 0 0 261.72 307.63
  C 257.60 306.72 259.33 313.97 259.87 315.72
  A 1.00 1.00 0.0 0 0 260.31 316.29
  Q 262.62 317.69 264.61 316.40
  A 1.00 0.99 51.3 0 1 265.86 316.54"
/>
<path stroke="#2e393c" vector-effect="non-scaling-stroke" d="
  M 286.01 310.02
  Q 286.79 311.23 285.35 311.25
  C 282.48 311.31 279.59 312.66 281.70 315.85
  Q 283.15 318.05 286.01 316.38
  A 0.98 0.98 0.0 0 1 286.85 316.30
  L 288.35 316.83
  A 1.00 1.00 0.0 0 0 289.68 315.98
  C 290.11 311.37 290.47 306.54 283.75 307.85
  Q 281.63 308.26 282.59 309.69
  A 1.00 1.00 0.0 0 0 283.92 309.99
  Q 285.42 309.12 286.01 310.02"
/>
<path stroke="#2e393c" vector-effect="non-scaling-stroke" d="
  M 330.02 310.37
  L 329.97 310.78
  A 0.52 0.51 7.9 0 1 329.39 311.21
  C 323.06 310.39 322.77 318.75 329.88 316.52
  A 1.00 0.97 42.2 0 1 330.43 316.50
  L 332.00 316.90
  A 1.00 1.00 0.0 0 0 333.25 315.93
  L 333.25 310.10
  A 1.02 0.99 27.4 0 0 333.05 309.50
  Q 331.30 307.15 327.51 307.88
  Q 325.18 308.32 326.14 309.68
  A 1.00 0.99 68.2 0 0 327.08 310.09
  L 329.45 309.79
  A 0.51 0.51 0.0 0 1 330.02 310.37"
/>
<path stroke="#2e393c" vector-effect="non-scaling-stroke" d="
  M 363.55 315.94
  Q 366.06 317.93 368.25 316.33
  A 1.01 1.00 -40.0 0 1 369.55 316.44
  Q 370.26 317.16 371.22 316.95
  A 1.01 1.01 0.0 0 0 372.00 315.97
  L 372.00 308.75
  A 1.00 1.00 0.0 0 0 371.00 307.75
  L 369.77 307.75
  A 1.00 0.99 0.0 0 0 368.77 308.74
  C 368.76 309.13 369.12 317.21 366.47 313.91
  A 1.03 1.01 26.6 0 1 366.25 313.28
  L 366.25 308.75
  A 1.00 1.00 0.0 0 0 365.25 307.75
  L 364.04 307.75
  A 1.00 1.00 0.0 0 0 363.04 308.77
  L 363.17 315.17
  A 1.03 1.01 19.2 0 0 363.55 315.94"
/>
<path stroke="#2e393c" vector-effect="non-scaling-stroke" d="
  M 378.18 314.29
  C 377.74 316.20 372.00 311.93 374.46 316.34
  A 1.02 1.00 81.5 0 0 375.11 316.83
  Q 377.23 317.32 379.21 316.71
  C 381.72 315.93 382.19 312.62 379.69 311.58
  Q 374.57 309.45 379.87 309.97
  A 1.01 1.00 -75.6 0 0 380.89 309.36
  Q 381.42 308.11 379.99 307.77
  Q 377.42 307.16 376.05 307.80
  C 371.72 309.83 375.29 312.77 377.85 313.70
  A 0.51 0.50 16.0 0 1 378.18 314.29"
/>
<path stroke="#2e393c" vector-effect="non-scaling-stroke" d="
  M 386.85 313.04
  L 390.49 313.20
  A 1.00 0.99 6.6 0 0 391.52 312.40
  C 392.44 307.66 385.91 306.04 383.65 309.40
  C 380.61 313.93 384.89 318.22 390.03 316.75
  Q 391.59 316.31 391.16 315.12
  A 1.01 1.00 68.9 0 0 389.84 314.53
  Q 387.95 315.30 386.44 314.19
  Q 384.72 312.94 386.85 313.04"
/>
<path stroke="#2e393c" vector-effect="non-scaling-stroke" d="
  M 396.4853 308.1148
  A 0.37 0.37 0.0 0 0 396.1140 307.7460
  L 393.8340 307.7540
  A 0.37 0.37 0.0 0 0 393.4653 308.1253
  L 393.4947 316.5452
  A 0.37 0.37 0.0 0 0 393.8660 316.9140
  L 396.1460 316.9060
  A 0.37 0.37 0.0 0 0 396.5147 316.5347
  L 396.4853 308.1148"
/>
<path stroke="#2e628a" vector-effect="non-scaling-stroke" d="
  M 386.89 226.75
  C 389.72 224.25 396.44 218.53 396.94 214.77
  C 397.76 208.65 390.89 206.71 386.37 208.22
  Q 383.80 209.08 383.78 211.80
  Q 383.71 227.16 383.77 242.51
  C 383.80 249.97 395.85 247.70 396.60 241.03
  C 397.04 237.17 389.43 230.74 386.85 228.21
  A 1.00 0.99 -43.5 0 1 386.89 226.75"
/>
<path stroke="#2e628a" vector-effect="non-scaling-stroke" d="
  M 403.06 223.56
  Q 406.48 220.41 409.51 216.68
  A 0.99 0.95 67.7 0 0 409.73 216.12
  Q 410.37 207.10 401.66 207.81
  A 1.00 1.00 0.0 0 0 400.81 209.19
  Q 402.99 214.40 400.79 219.20
  C 399.57 221.87 396.44 224.33 394.31 226.83
  A 1.00 1.00 0.0 0 0 394.34 228.16
  C 396.64 230.63 399.76 233.32 400.84 236.27
  Q 402.51 240.86 400.34 245.61
  A 1.00 1.00 0.0 0 0 401.25 247.03
  L 416.14 246.98
  Q 418.51 246.97 416.85 245.28
  L 400.17 228.29
  A 1.01 1.00 42.8 0 1 400.11 226.95
  Q 402.46 224.12 403.06 223.56"
/>
<path stroke="#2e628a" vector-effect="non-scaling-stroke" d="
  M 415.84 237.27
  Q 416.85 238.38 418.03 239.37
  Q 419.65 240.72 419.67 238.61
  Q 419.81 226.52 419.76 214.39
  Q 419.75 211.00 419.00 209.71
  Q 417.72 207.47 414.59 207.77
  A 1.00 1.00 0.0 0 0 413.76 209.14
  Q 415.31 213.00 414.49 216.88
  Q 413.93 219.53 411.32 222.43
  Q 409.31 224.66 407.14 226.79
  A 1.00 1.00 0.0 0 0 407.13 228.20
  Q 409.99 231.16 412.86 234.01
  Q 412.89 234.04 415.84 237.27"
/>
<path stroke="#2e628a" vector-effect="non-scaling-stroke" d="
  M 446.70 225.36
  C 453.46 227.46 457.12 219.25 449.95 218.84
  Q 448.02 218.73 446.97 218.76
  A 1.00 1.00 0.0 0 0 446.00 219.76
  L 446.00 224.41
  A 1.00 0.99 8.8 0 0 446.70 225.36"
/>
<path stroke="#2e628a" vector-effect="non-scaling-stroke" d="
  M 453.54 240.45
  C 456.81 234.24 451.69 232.98 446.89 233.47
  A 1.01 1.01 0.0 0 0 445.99 234.47
  L 446.01 240.48
  A 1.01 1.01 0.0 0 0 447.10 241.48
  L 452.74 240.98
  A 1.02 1.01 -78.3 0 0 453.54 240.45"
/>
<path stroke="#2e628a" vector-effect="non-scaling-stroke" d="
  M 483.60 227.44
  C 489.84 228.36 493.46 220.96 485.76 218.58
  Q 482.76 217.66 482.75 220.68
  L 482.75 226.45
  A 1.00 0.99 -86.0 0 0 483.60 227.44"
/>
<path stroke="#2e393c" vector-effect="non-scaling-stroke" d="
  M 255.5100 292.8200
  A 4.09 1.28 90.0 0 0 256.7900 288.7300
  A 4.09 1.28 90.0 0 0 255.5100 284.6400
  A 4.09 1.28 90.0 0 0 254.2300 288.7300
  A 4.09 1.28 90.0 0 0 255.5100 292.8200"
/>
<path stroke="#2e393c" vector-effect="non-scaling-stroke" d="
  M 265.36 290.78
  Q 265.78 294.05 267.60 292.05
  A 1.00 0.97 65.8 0 0 267.86 291.33
  Q 267.74 288.47 265.78 289.83
  A 1.02 1.02 0.0 0 0 265.36 290.78"
/>
<path stroke="#2e393c" vector-effect="non-scaling-stroke" d="
  M 288.7272 292.8400
  A 4.12 1.29 89.9 0 0 290.0100 288.7177
  A 4.12 1.29 89.9 0 0 288.7128 284.6000
  A 4.12 1.29 89.9 0 0 287.4300 288.7223
  A 4.12 1.29 89.9 0 0 288.7272 292.8400"
/>
<path stroke="#2e393c" vector-effect="non-scaling-stroke" d="
  M 310.9572 292.8700
  A 4.12 1.32 89.9 0 0 312.2700 288.7477
  A 4.12 1.32 89.9 0 0 310.9428 284.6300
  A 4.12 1.32 89.9 0 0 309.6300 288.7523
  A 4.12 1.32 89.9 0 0 310.9572 292.8700"
/>
<path stroke="#2e393c" vector-effect="non-scaling-stroke" d="
  M 365.62 292.44
  Q 366.81 293.74 367.32 292.06
  Q 368.32 288.80 365.69 289.66
  A 1.00 0.99 83.8 0 0 365.00 290.52
  Q 364.90 291.65 365.62 292.44"
/>
<path stroke="#2e393c" vector-effect="non-scaling-stroke" d="
  M 388.4493 292.9599
  A 4.20 1.22 89.6 0 0 389.6400 288.7515
  A 4.20 1.22 89.6 0 0 388.3907 284.5601
  A 4.20 1.22 89.6 0 0 387.2000 288.7685
  A 4.20 1.22 89.6 0 0 388.4493 292.9599"
/>
<path stroke="#384242" vector-effect="non-scaling-stroke" d="
  M 399.50 284.48
  Q 398.36 284.62 398.84 285.98
  A 0.80 0.79 74.9 0 0 399.73 286.50
  Q 400.77 286.33 400.60 285.32
  A 1.00 1.00 0.0 0 0 399.50 284.48"
/>
<path stroke="#2e393c" vector-effect="non-scaling-stroke" d="
  M 400.25 290.57
  A 1.00 1.00 0.0 0 0 398.75 290.60
  C 396.09 293.75 403.43 293.99 400.25 290.57"
/>
<path stroke="#2e393c" vector-effect="non-scaling-stroke" d="
  M 277.6389 288.2782
  A 1.74 1.36 87.4 0 0 278.9186 286.4783
  A 1.74 1.36 87.4 0 0 277.4811 284.8018
  A 1.74 1.36 87.4 0 0 276.2014 286.6017
  A 1.74 1.36 87.4 0 0 277.6389 288.2782"
/>
<path stroke="#2e393c" vector-effect="non-scaling-stroke" d="
  M 340.96 311.41
  A 1.16 1.16 0.0 0 0 339.80 310.25
  L 339.64 310.25
  A 1.16 1.16 0.0 0 0 338.48 311.41
  L 338.48 313.31
  A 1.16 1.16 0.0 0 0 339.64 314.47
  L 339.80 314.47
  A 1.16 1.16 0.0 0 0 340.96 313.31
  L 340.96 311.41"
/>
<path stroke="#2e393c" vector-effect="non-scaling-stroke" d="
  M 286.3840 313.0387
  A 1.16 0.92 -37.2 0 0 284.9038 313.0072
  A 1.16 0.92 -37.2 0 0 284.5360 314.4413
  A 1.16 0.92 -37.2 0 0 286.0162 314.4728
  A 1.16 0.92 -37.2 0 0 286.3840 313.0387"
/>
<path stroke="#2e393c" vector-effect="non-scaling-stroke" d="
  M 330.1358 313.0183
  A 1.26 0.86 -35.5 0 0 328.6106 313.0499
  A 1.26 0.86 -35.5 0 0 328.0842 314.4817
  A 1.26 0.86 -35.5 0 0 329.6094 314.4501
  A 1.26 0.86 -35.5 0 0 330.1358 313.0183"
/>
<path stroke="#2e393c" vector-effect="non-scaling-stroke" d="
  M 387.27 309.85
  Q 386.95 309.84 386.71 309.96
  Q 385.16 310.74 386.85 311.15
  C 389.54 311.82 388.78 309.88 387.27 309.85"
/>
</g>
<path fill="#8ca8a5" d="
  M 437.29 69.25
  L 436.25 69.71
  C 433.44 54.50 425.67 47.77 410.07 51.14
  Q 307.89 73.22 205.71 95.27
  Q 192.05 98.21 178.31 100.97
  A 0.99 0.98 -76.5 0 0 177.71 101.34
  Q 176.81 102.53 178.54 103.50
  L 178.50 103.71
  Q 141.48 111.38 133.24 113.47
  Q 131.36 113.94 125.23 117.36
  Q 129.35 110.35 137.81 108.54
  Q 183.16 98.85 411.74 49.44
  C 427.13 46.12 435.57 54.94 437.29 69.25
  Z"
/>
<path fill="#99b1ad" d="
  M 436.25 69.71
  L 435.00 70.29
  Q 434.60 70.32 434.30 70.15
  A 0.83 0.80 -79.1 0 1 433.90 69.54
  C 432.57 57.55 421.98 51.19 410.55 53.65
  Q 312.16 74.75 213.81 96.07
  Q 196.20 99.89 178.54 103.50
  Q 176.81 102.53 177.71 101.34
  A 0.99 0.98 -76.5 0 1 178.31 100.97
  Q 192.05 98.21 205.71 95.27
  Q 307.89 73.22 410.07 51.14
  C 425.67 47.77 433.44 54.50 436.25 69.71
  Z"
/>
<path fill="#87a29d" d="
  M 435.00 70.29
  L 205.78 119.68
  Q 202.97 119.32 200.83 117.92
  Q 190.85 111.41 180.92 104.82
  C 180.07 104.26 179.86 103.47 178.50 103.71
  L 178.54 103.50
  Q 196.20 99.89 213.81 96.07
  Q 312.16 74.75 410.55 53.65
  C 421.98 51.19 432.57 57.55 433.90 69.54
  A 0.83 0.80 -79.1 0 0 434.30 70.15
  Q 434.60 70.32 435.00 70.29
  Z"
/>
<path fill="#313531" d="
  M 437.29 69.25
  Q 443.24 94.12 447.96 119.25
  L 447.56 119.25
  A 0.80 0.79 -7.6 0 1 446.79 118.67
  Q 446.35 117.12 445.41 112.82
  Q 441.05 92.79 436.68 72.77
  Q 436.53 72.07 436.17 71.75
  Q 435.89 71.50 435.54 71.39
  Q 434.48 71.03 434.72 72.13
  Q 439.71 95.30 444.78 118.45
  Q 444.88 118.91 444.50 120.21
  L 375.69 135.26
  L 368.99 135.98
  C 325.48 136.51 282.00 135.52 238.50 135.77
  Q 236.10 135.79 231.27 138.23
  Q 217.89 128.67 203.78 120.13
  L 205.78 119.68
  L 435.00 70.29
  L 436.25 69.71
  L 437.29 69.25
  Z"
/>
<path fill="#5c584d" d="
  M 447.96 119.25
  L 448.00 119.71
  L 445.21 120.25
  L 444.50 120.21
  Q 444.88 118.91 444.78 118.45
  Q 439.71 95.30 434.72 72.13
  Q 434.48 71.03 435.54 71.39
  Q 435.89 71.50 436.17 71.75
  Q 436.53 72.07 436.68 72.77
  Q 441.05 92.79 445.41 112.82
  Q 446.35 117.12 446.79 118.67
  A 0.80 0.79 -7.6 0 0 447.56 119.25
  L 447.96 119.25
  Z"
/>
<path fill="#829a95" d="
  M 178.50 103.71
  C 179.86 103.47 180.07 104.26 180.92 104.82
  Q 190.85 111.41 200.83 117.92
  Q 202.97 119.32 205.78 119.68
  L 203.78 120.13
  L 126.02 136.87
  Q 125.03 129.32 123.01 122.45
  Q 123.40 119.53 125.23 117.36
  Q 131.36 113.94 133.24 113.47
  Q 141.48 111.38 178.50 103.71
  Z"
/>
<path fill="#99b1ad" d="
  M 448.00 119.71
  L 451.75 135.71
  L 450.25 135.79
  L 448.15 135.69
  L 445.21 120.25
  L 448.00 119.71
  Z"
/>
<path fill="#10211f" d="
  M 203.78 120.13
  Q 217.89 128.67 231.27 138.23
  Q 227.63 140.46 225.53 143.46
  Q 221.90 148.33 221.99 153.51
  Q 222.16 163.44 221.25 168.39
  L 136.48 186.66
  L 135.04 186.75
  L 124.29 137.25
  L 126.02 136.87
  L 203.78 120.13
  Z"
/>
<path fill="#87a29d" d="
  M 444.50 120.21
  L 445.21 120.25
  L 448.15 135.69
  Q 443.47 135.37 433.75 135.82
  Q 423.61 136.30 375.69 135.26
  L 444.50 120.21
  Z"
/>
<path fill="#6f8383" d="
  M 123.01 122.45
  Q 125.03 129.32 126.02 136.87
  L 124.29 137.25
  Q 121.59 130.03 123.01 122.45
  Z"
/>
<path fill="#5b7178" d="
  M 375.69 135.26
  Q 423.61 136.30 433.75 135.82
  Q 443.47 135.37 448.15 135.69
  L 450.25 135.79
  Q 450.78 136.33 449.06 136.96
  Q 448.89 137.02 448.71 137.02
  C 431.87 137.01 417.68 136.89 398.56 137.09
  Q 383.76 137.24 368.99 135.98
  L 375.69 135.26
  Z"
/>
<path fill="#7c878a" d="
  M 368.99 135.98
  Q 383.76 137.24 398.56 137.09
  C 417.68 136.89 431.87 137.01 448.71 137.02
  Q 448.89 137.02 449.06 136.96
  Q 450.78 136.33 450.25 135.79
  L 451.75 135.71
  L 451.95 135.86
  A 0.43 0.41 -25.8 0 0 452.20 135.94
  L 523.50 136.04
  Q 523.70 137.08 524.31 137.15
  C 533.22 138.18 540.83 144.47 541.09 154.00
  Q 538.79 153.82 539.46 156.25
  C 536.73 141.70 527.20 139.72 513.67 139.74
  Q 411.24 139.85 308.80 139.55
  C 285.69 139.48 262.57 139.88 239.46 139.74
  Q 235.22 139.71 232.27 140.63
  Q 228.80 141.71 225.53 143.46
  Q 227.63 140.46 231.27 138.23
  Q 236.10 135.79 238.50 135.77
  C 282.00 135.52 325.48 136.51 368.99 135.98
  Z"
/>
<path fill="#5b7178" d="
  M 523.50 136.04
  C 538.43 136.66 542.75 146.11 542.75 159.09
  Q 542.75 241.25 542.75 323.43
  Q 542.75 328.63 541.48 331.74
  C 537.39 341.84 529.44 343.74 518.79 343.74
  Q 382.31 343.76 245.82 343.75
  Q 237.61 343.75 233.86 342.30
  C 225.13 338.91 222.21 331.55 222.31 322.49
  Q 222.42 312.76 221.87 303.02
  C 222.99 302.06 221.45 300.83 221.96 299.50
  L 221.89 237.74
  L 221.77 193.28
  Q 222.87 189.78 221.63 186.44
  Q 222.81 177.41 221.25 168.39
  Q 222.16 163.44 221.99 153.51
  Q 221.90 148.33 225.53 143.46
  Q 228.80 141.71 232.27 140.63
  Q 235.22 139.71 239.46 139.74
  C 262.57 139.88 285.69 139.48 308.80 139.55
  Q 411.24 139.85 513.67 139.74
  C 527.20 139.72 536.73 141.70 539.46 156.25
  Q 540.10 242.79 539.54 329.34
  A 0.63 0.62 -82.5 0 0 540.01 329.96
  C 540.82 330.18 540.82 329.66 540.82 329.07
  Q 540.89 241.54 541.09 154.00
  C 540.83 144.47 533.22 138.18 524.31 137.15
  Q 523.70 137.08 523.50 136.04
  Z
  M 424.9663 211.4109
  A 7.07 7.07 0.0 0 0 417.9210 204.3163
  L 385.7412 204.2040
  A 7.07 7.07 0.0 0 0 378.6466 211.2493
  L 378.5337 243.5891
  A 7.07 7.07 0.0 0 0 385.5790 250.6837
  L 417.7588 250.7960
  A 7.07 7.07 0.0 0 0 424.8534 243.7507
  L 424.9663 211.4109
  Z
  M 460.36 228.14
  Q 465.83 224.42 464.25 218.08
  C 462.92 212.75 457.22 211.00 452.29 210.90
  Q 442.25 210.68 436.48 210.79
  A 1.00 1.00 0.0 0 0 435.50 211.79
  L 435.50 248.49
  A 1.00 1.00 0.0 0 0 436.49 249.49
  Q 443.44 249.54 450.39 249.47
  C 459.14 249.38 467.60 244.96 464.89 234.97
  Q 464.32 232.88 462.80 231.53
  Q 461.72 230.55 460.44 229.84
  A 1.00 1.00 0.0 0 1 460.36 228.14
  Z
  M 495.00 232.24
  Q 501.94 227.23 500.21 219.21
  C 498.83 212.82 492.62 211.10 486.72 210.88
  Q 480.02 210.63 473.23 210.78
  A 1.01 1.00 -0.9 0 0 472.25 211.78
  L 472.25 248.50
  A 1.00 1.00 0.0 0 0 473.25 249.50
  L 481.59 249.50
  A 1.01 1.00 90.0 0 0 482.59 248.49
  L 482.51 236.39
  A 1.01 1.01 0.0 0 1 483.06 235.49
  C 484.31 234.85 485.28 235.38 485.99 236.57
  Q 489.66 242.73 493.14 248.98
  A 0.99 0.99 0.0 0 0 494.01 249.50
  L 503.57 249.50
  Q 505.44 249.50 504.40 247.94
  L 494.75 233.61
  A 1.00 1.00 0.0 0 1 495.00 232.24
  Z
  M 519.50 211.01
  A 0.26 0.26 0.0 0 0 519.24 210.75
  L 509.26 210.75
  A 0.26 0.26 0.0 0 0 509.00 211.01
  L 509.00 249.25
  A 0.26 0.26 0.0 0 0 509.26 249.51
  L 519.24 249.51
  A 0.26 0.26 0.0 0 0 519.50 249.25
  L 519.50 211.01
  Z
  M 246.25 225.96
  Q 245.62 227.00 246.25 228.04
  L 246.29 236.25
  Q 245.63 239.99 246.21 243.75
  L 246.29 246.75
  L 246.04 249.50
  Q 246.97 262.82 260.46 262.25
  Q 261.71 262.77 263.00 262.21
  L 278.78 262.23
  L 281.00 262.21
  Q 294.83 262.88 295.21 249.25
  L 295.22 246.46
  L 294.96 238.50
  L 295.21 236.25
  L 295.00 228.21
  L 295.21 225.75
  Q 294.36 212.40 280.75 213.29
  L 278.75 213.29
  L 262.75 213.29
  L 260.75 213.29
  Q 246.82 212.41 246.25 225.96
  Z
  M 244.36 291.79
  C 252.90 287.05 247.29 277.93 240.01 283.26
  A 1.00 1.00 0.0 0 0 239.68 284.47
  Q 240.90 287.23 242.99 285.10
  A 1.00 1.00 0.0 0 1 244.08 284.87
  C 247.50 286.26 240.79 291.63 239.50 292.96
  Q 237.03 295.51 240.98 295.51
  L 248.25 295.50
  A 1.00 1.00 0.0 0 0 249.25 294.50
  L 249.25 293.50
  A 1.00 1.00 0.0 0 0 248.25 292.50
  L 244.50 292.50
  A 0.25 0.22 -4.1 0 1 244.26 292.31
  L 244.23 292.06
  A 0.26 0.26 0.0 0 1 244.36 291.79
  Z
  M 260.1370 286.1757
  A 4.32 4.32 0.0 0 0 255.7944 281.8784
  L 255.1344 281.8818
  A 4.32 4.32 0.0 0 0 250.8371 286.2244
  L 250.8630 291.1843
  A 4.32 4.32 0.0 0 0 255.2056 295.4816
  L 255.8656 295.4782
  A 4.32 4.32 0.0 0 0 260.1629 291.1356
  L 260.1370 286.1757
  Z
  M 266.31 285.24
  Q 267.52 284.38 269.42 284.77
  A 1.01 1.01 0.0 0 0 270.57 284.10
  Q 271.40 281.58 268.77 281.68
  Q 262.58 281.92 261.85 287.46
  C 260.01 301.54 276.62 294.54 270.16 287.64
  Q 268.83 286.21 266.96 286.67
  Q 262.89 287.66 266.31 285.24
  Z
  M 293.3826 286.1776
  A 4.32 4.32 0.0 0 0 289.0325 281.8879
  L 288.3725 281.8925
  A 4.32 4.32 0.0 0 0 284.0828 286.2425
  L 284.1174 291.2024
  A 4.32 4.32 0.0 0 0 288.4675 295.4921
  L 289.1275 295.4875
  A 4.32 4.32 0.0 0 0 293.4172 291.1375
  L 293.3826 286.1776
  Z
  M 315.62 286.22
  A 4.32 4.32 0.0 0 0 311.30 281.90
  L 310.64 281.90
  A 4.32 4.32 0.0 0 0 306.32 286.22
  L 306.32 291.16
  A 4.32 4.32 0.0 0 0 310.64 295.48
  L 311.30 295.48
  A 4.32 4.32 0.0 0 0 315.62 291.16
  L 315.62 286.22
  Z
  M 333.74 285.13
  A 1.00 1.00 0.0 0 1 334.15 286.77
  L 328.27 292.93
  A 1.05 1.01 -24.3 0 0 327.99 293.63
  L 328.00 294.51
  A 1.00 0.99 -0.0 0 0 329.00 295.50
  L 336.75 295.50
  A 1.00 1.00 0.0 0 0 337.75 294.50
  L 337.75 293.50
  A 1.00 1.00 0.0 0 0 336.75 292.50
  L 334.60 292.51
  Q 332.51 292.51 334.06 291.11
  Q 336.08 289.28 336.46 288.70
  C 340.40 282.78 333.08 280.09 328.72 283.20
  A 1.01 1.00 -36.4 0 0 328.50 284.61
  L 329.24 285.60
  A 1.00 0.99 50.5 0 0 330.71 285.75
  Q 332.03 284.55 333.74 285.13
  Z
  M 365.83 285.34
  Q 366.31 284.97 366.95 284.76
  C 368.26 284.34 371.38 285.73 370.16 282.32
  A 1.00 0.99 77.7 0 0 369.15 281.66
  Q 358.74 282.38 362.27 293.97
  A 1.02 1.00 -86.0 0 0 362.79 294.58
  C 367.80 297.04 372.89 294.27 370.73 288.87
  Q 369.61 286.05 366.50 286.75
  Q 363.02 287.54 365.83 285.34
  Z
  M 388.5655 295.8187
  A 7.06 5.00 88.9 0 0 393.4291 288.6640
  A 7.06 5.00 88.9 0 0 388.2945 281.7013
  A 7.06 5.00 88.9 0 0 383.4309 288.8560
  A 7.06 5.00 88.9 0 0 388.5655 295.8187
  Z
  M 402.68 287.98
  L 404.08 286.04
  Q 405.58 283.97 402.78 282.65
  C 400.19 281.43 394.73 281.35 395.21 285.41
  Q 395.36 286.69 396.26 287.66
  A 1.01 1.00 46.7 0 1 396.22 289.06
  Q 392.75 292.43 396.94 295.32
  A 1.02 0.98 61.5 0 0 397.51 295.50
  L 401.53 295.51
  A 0.96 0.95 27.9 0 0 402.06 295.35
  Q 406.75 292.40 402.87 289.35
  A 1.01 1.00 37.4 0 1 402.68 287.98
  Z
  M 277.96 292.05
  Q 276.64 293.02 274.67 292.72
  A 1.00 1.00 0.0 0 0 273.52 293.71
  L 273.53 294.63
  A 1.00 1.00 0.0 0 0 274.48 295.63
  Q 283.87 296.11 282.42 286.48
  C 281.47 280.20 272.40 280.47 272.66 286.85
  Q 272.75 289.11 274.26 290.33
  Q 275.62 291.44 277.41 290.92
  Q 280.92 289.89 277.96 292.05
  Z
  M 299.25 287.93
  L 299.23 294.50
  A 1.00 1.00 0.0 0 0 300.23 295.50
  L 301.89 295.50
  A 0.99 0.99 0.0 0 0 302.89 294.50
  L 302.80 283.01
  A 1.01 1.00 -85.5 0 0 301.97 282.03
  Q 301.28 281.91 300.57 281.96
  C 298.87 282.07 297.08 284.07 295.77 285.18
  A 1.01 1.00 56.4 0 0 295.53 286.40
  Q 296.59 288.48 297.93 287.32
  Q 299.26 286.18 299.25 287.93
  Z
  M 321.50 287.85
  L 321.50 294.50
  A 1.00 1.00 0.0 0 0 322.50 295.50
  L 324.17 295.50
  A 1.00 1.00 0.0 0 0 325.17 294.50
  L 325.19 283.00
  A 1.00 1.00 0.0 0 0 324.19 282.00
  L 322.20 282.00
  A 1.02 0.97 24.3 0 0 321.57 282.22
  L 317.97 285.11
  A 0.99 0.99 0.0 0 0 317.69 286.29
  Q 318.69 288.57 320.17 287.25
  Q 321.50 286.07 321.50 287.85
  Z
  M 343.63 288.29
  L 343.71 294.51
  A 1.00 1.00 0.0 0 0 344.71 295.50
  L 346.26 295.50
  A 1.00 1.00 0.0 0 0 347.26 294.50
  L 347.24 283.00
  A 1.00 0.99 -90.0 0 0 346.25 282.00
  L 344.42 282.00
  A 0.97 0.96 -63.7 0 0 343.78 282.22
  L 340.14 285.19
  A 1.00 1.00 0.0 0 0 339.89 286.42
  Q 340.82 288.25 342.10 287.45
  Q 343.61 286.52 343.63 288.29
  Z
  M 354.75 287.78
  L 354.75 294.50
  A 1.00 1.00 0.0 0 0 355.75 295.50
  L 357.35 295.50
  A 1.00 1.00 0.0 0 0 358.35 294.50
  L 358.37 282.96
  A 1.00 0.99 -83.0 0 0 357.62 281.99
  Q 355.72 281.50 354.65 282.38
  Q 352.97 283.75 351.19 285.09
  A 1.00 1.00 0.0 0 0 351.00 286.50
  L 351.64 287.34
  A 1.01 1.00 -40.2 0 0 353.12 287.46
  L 353.40 287.20
  Q 354.75 285.95 354.75 287.78
  Z
  M 377.34 285.18
  Q 378.65 284.77 380.06 285.02
  A 1.00 0.99 5.5 0 0 381.23 284.06
  L 381.26 283.02
  A 1.00 1.00 0.0 0 0 380.26 282.00
  L 374.50 282.00
  A 0.99 0.99 0.0 0 0 373.51 282.90
  L 372.98 288.38
  A 1.01 1.01 0.0 0 0 373.61 289.41
  Q 374.98 289.95 376.52 289.40
  A 1.01 1.00 63.1 0 1 377.69 289.79
  Q 379.67 292.76 375.52 292.83
  Q 375.26 292.83 375.03 292.71
  Q 372.04 291.09 372.79 294.53
  A 1.01 1.00 88.2 0 0 373.60 295.30
  C 378.46 296.12 383.59 295.08 381.65 289.04
  Q 380.78 286.34 378.76 286.72
  Q 378.06 286.85 377.43 286.73
  Q 374.23 286.13 377.34 285.18
  Z
  M 482.50 328.46
  C 492.51 336.45 507.09 333.94 513.33 323.04
  C 519.49 312.28 515.37 299.56 504.34 294.16
  Q 493.64 288.92 482.25 296.79
  C 471.36 288.55 456.68 291.67 450.75 303.38
  C 444.67 315.38 451.25 329.12 463.98 332.50
  Q 473.43 335.02 482.50 328.46
  Z
  M 273.77 306.89
  Q 274.59 303.93 271.40 304.24
  A 1.01 1.00 87.2 0 0 270.50 305.24
  L 270.50 315.93
  A 1.00 1.00 0.0 0 0 271.44 316.93
  L 272.70 317.00
  A 0.99 0.99 0.0 0 0 273.75 316.00
  L 273.74 311.46
  A 1.01 1.00 -2.2 0 1 274.67 310.46
  L 275.18 310.43
  A 1.00 0.99 -2.1 0 1 276.25 311.42
  L 276.25 315.89
  A 1.00 0.99 2.5 0 0 277.16 316.88
  L 278.39 316.99
  A 1.00 1.00 0.0 0 0 279.48 315.99
  C 279.47 313.72 280.04 310.47 278.64 308.75
  Q 277.23 307.00 274.81 307.86
  Q 273.37 308.37 273.77 306.89
  Z
  M 339.71 307.80
  Q 337.80 307.25 336.50 308.49
  C 333.87 311.01 335.27 319.39 340.09 316.38
  A 1.02 1.01 40.4 0 1 341.01 316.31
  L 342.44 316.92
  A 1.00 1.00 0.0 0 0 343.15 316.95
  C 344.56 316.48 343.94 309.17 344.10 305.52
  A 1.00 0.99 8.5 0 0 343.35 304.51
  Q 339.86 303.63 340.71 306.82
  Q 341.07 308.19 339.71 307.80
  Z
  M 396.5016 305.0466
  A 0.91 0.91 0.0 0 0 395.5482 304.1822
  L 394.3497 304.2408
  A 0.91 0.91 0.0 0 0 393.4852 305.1942
  L 393.5184 305.8734
  A 0.91 0.91 0.0 0 0 394.4718 306.7378
  L 395.6703 306.6792
  A 0.91 0.91 0.0 0 0 396.5348 305.7258
  L 396.5016 305.0466
  Z
  M 247.81 314.42
  L 248.38 316.17
  A 1.02 0.99 80.7 0 0 249.33 316.87
  L 250.93 316.86
  A 1.01 1.00 -82.5 0 0 251.90 316.11
  L 253.67 309.23
  Q 253.90 308.30 254.28 309.18
  C 254.52 309.73 253.98 314.78 253.98 315.83
  A 1.01 1.00 1.9 0 0 254.91 316.82
  L 255.82 316.88
  A 1.01 1.00 2.4 0 0 256.90 315.89
  L 256.93 306.17
  A 1.00 0.99 1.5 0 0 255.97 305.17
  L 253.48 305.08
  A 1.00 0.99 8.8 0 0 252.48 305.80
  L 250.98 311.08
  Q 250.19 313.83 249.44 311.07
  L 248.00 305.85
  A 1.00 1.00 0.0 0 0 247.09 305.12
  L 244.55 304.99
  A 0.99 0.99 0.0 0 0 243.50 305.98
  L 243.50 315.93
  A 1.01 1.00 2.5 0 0 244.42 316.93
  L 245.17 316.99
  A 1.01 0.99 1.9 0 0 246.25 315.99
  L 246.25 314.67
  Q 246.24 309.56 247.81 314.42
  Z
  M 356.76 309.42
  Q 352.71 310.51 353.85 306.36
  A 1.00 1.00 0.0 0 0 352.97 305.10
  L 351.58 304.99
  A 1.00 1.00 0.0 0 0 350.50 305.99
  L 350.50 315.89
  A 1.00 0.99 2.5 0 0 351.41 316.88
  L 352.66 316.99
  A 1.00 0.99 2.6 0 0 353.75 316.00
  L 353.75 313.17
  A 1.00 1.00 0.0 0 1 354.69 312.17
  L 356.44 312.07
  A 1.00 1.00 0.0 0 1 357.50 313.07
  L 357.50 315.93
  A 1.00 1.00 0.0 0 0 358.45 316.93
  L 359.69 317.00
  A 1.00 1.00 0.0 0 0 360.75 316.00
  L 360.75 306.13
  A 1.00 1.00 0.0 0 0 359.78 305.13
  L 358.53 305.09
  A 1.00 1.00 0.0 0 0 357.50 306.09
  L 357.50 308.45
  A 1.01 1.00 82.5 0 1 356.76 309.42
  Z
  M 294.39 308.13
  Q 293.75 307.55 292.81 307.67
  A 1.01 1.01 0.0 0 0 291.94 308.65
  L 291.84 315.76
  A 1.01 1.00 -86.2 0 0 292.72 316.77
  L 293.86 316.90
  A 1.00 0.99 -84.6 0 0 294.97 315.97
  L 295.27 311.30
  A 1.00 0.99 3.9 0 1 296.35 310.37
  L 296.76 310.40
  A 0.81 0.80 2.3 0 1 297.50 311.20
  L 297.50 315.87
  A 0.99 0.99 0.0 0 0 298.43 316.86
  L 299.68 316.95
  A 1.00 1.00 0.0 0 0 300.75 315.95
  L 300.75 311.56
  A 0.99 0.98 68.8 0 1 301.06 310.84
  C 303.97 308.08 303.22 314.72 303.20 315.79
  A 1.00 1.00 0.0 0 0 304.14 316.80
  L 305.35 316.89
  A 1.01 1.00 -89.2 0 0 306.41 315.85
  L 306.19 309.55
  A 0.98 0.96 -68.2 0 0 305.92 308.90
  Q 303.65 306.47 300.98 308.39
  A 1.02 1.01 -43.9 0 1 299.78 308.37
  Q 297.74 306.81 295.62 308.23
  A 1.00 0.99 49.4 0 1 294.39 308.13
  Z
  M 314.20 311.17
  L 314.27 315.90
  A 1.00 1.00 0.0 0 0 315.23 316.88
  L 316.47 316.93
  A 1.01 1.00 -88.9 0 0 317.51 315.92
  L 317.49 311.35
  A 1.01 1.00 -89.4 0 1 318.51 310.34
  L 318.77 310.35
  A 1.00 1.00 0.0 0 1 319.75 311.35
  L 319.75 315.78
  A 1.01 1.00 2.2 0 0 320.68 316.78
  L 321.91 316.87
  A 0.99 0.99 0.0 0 0 322.98 315.88
  C 322.99 313.17 323.89 304.43 317.68 308.44
  A 1.00 1.00 0.0 0 1 316.53 308.39
  Q 314.42 306.76 312.33 308.25
  A 1.00 0.99 48.7 0 1 311.07 308.16
  Q 310.37 307.51 309.28 307.76
  A 1.01 0.99 -6.6 0 0 308.50 308.73
  L 308.50 315.88
  A 1.00 1.00 0.0 0 0 309.41 316.88
  L 310.65 316.99
  A 1.00 1.00 0.0 0 0 311.74 316.01
  C 311.75 314.61 311.12 309.94 313.31 310.19
  A 1.01 1.00 -87.4 0 1 314.20 311.17
  Z
  M 404.45 311.15
  L 404.53 315.95
  A 0.99 0.99 0.0 0 0 405.47 316.93
  L 406.74 317.00
  A 1.01 1.00 0.8 0 0 407.80 315.97
  L 407.59 309.61
  A 1.00 0.99 -68.5 0 0 407.30 308.93
  Q 404.94 306.60 402.34 308.27
  A 1.00 1.00 0.0 0 1 401.08 308.12
  Q 400.49 307.51 399.54 307.71
  A 1.00 1.00 0.0 0 0 398.75 308.69
  L 398.75 315.93
  A 1.00 1.00 0.0 0 0 399.75 316.93
  L 400.97 316.93
  A 1.00 0.99 87.9 0 0 401.96 315.86
  C 401.84 314.05 401.55 310.00 403.54 310.17
  A 1.01 1.00 -88.1 0 1 404.45 311.15
  Z
  M 265.86 316.54
  Q 266.73 317.43 267.81 316.71
  A 1.01 1.00 -17.2 0 0 268.25 315.88
  L 268.25 308.75
  A 1.00 1.00 0.0 0 0 267.25 307.75
  L 266.01 307.75
  A 1.01 1.00 -89.4 0 0 265.01 308.74
  C 265.00 309.87 265.75 315.50 263.10 314.35
  A 1.02 1.00 12.3 0 1 262.50 313.43
  L 262.50 308.61
  A 1.01 0.99 -83.9 0 0 261.72 307.63
  C 257.60 306.72 259.33 313.97 259.87 315.72
  A 1.00 1.00 0.0 0 0 260.31 316.29
  Q 262.62 317.69 264.61 316.40
  A 1.00 0.99 51.3 0 1 265.86 316.54
  Z
  M 286.01 310.02
  Q 286.79 311.23 285.35 311.25
  C 282.48 311.31 279.59 312.66 281.70 315.85
  Q 283.15 318.05 286.01 316.38
  A 0.98 0.98 0.0 0 1 286.85 316.30
  L 288.35 316.83
  A 1.00 1.00 0.0 0 0 289.68 315.98
  C 290.11 311.37 290.47 306.54 283.75 307.85
  Q 281.63 308.26 282.59 309.69
  A 1.00 1.00 0.0 0 0 283.92 309.99
  Q 285.42 309.12 286.01 310.02
  Z
  M 330.02 310.37
  L 329.97 310.78
  A 0.52 0.51 7.9 0 1 329.39 311.21
  C 323.06 310.39 322.77 318.75 329.88 316.52
  A 1.00 0.97 42.2 0 1 330.43 316.50
  L 332.00 316.90
  A 1.00 1.00 0.0 0 0 333.25 315.93
  L 333.25 310.10
  A 1.02 0.99 27.4 0 0 333.05 309.50
  Q 331.30 307.15 327.51 307.88
  Q 325.18 308.32 326.14 309.68
  A 1.00 0.99 68.2 0 0 327.08 310.09
  L 329.45 309.79
  A 0.51 0.51 0.0 0 1 330.02 310.37
  Z
  M 363.55 315.94
  Q 366.06 317.93 368.25 316.33
  A 1.01 1.00 -40.0 0 1 369.55 316.44
  Q 370.26 317.16 371.22 316.95
  A 1.01 1.01 0.0 0 0 372.00 315.97
  L 372.00 308.75
  A 1.00 1.00 0.0 0 0 371.00 307.75
  L 369.77 307.75
  A 1.00 0.99 0.0 0 0 368.77 308.74
  C 368.76 309.13 369.12 317.21 366.47 313.91
  A 1.03 1.01 26.6 0 1 366.25 313.28
  L 366.25 308.75
  A 1.00 1.00 0.0 0 0 365.25 307.75
  L 364.04 307.75
  A 1.00 1.00 0.0 0 0 363.04 308.77
  L 363.17 315.17
  A 1.03 1.01 19.2 0 0 363.55 315.94
  Z
  M 378.18 314.29
  C 377.74 316.20 372.00 311.93 374.46 316.34
  A 1.02 1.00 81.5 0 0 375.11 316.83
  Q 377.23 317.32 379.21 316.71
  C 381.72 315.93 382.19 312.62 379.69 311.58
  Q 374.57 309.45 379.87 309.97
  A 1.01 1.00 -75.6 0 0 380.89 309.36
  Q 381.42 308.11 379.99 307.77
  Q 377.42 307.16 376.05 307.80
  C 371.72 309.83 375.29 312.77 377.85 313.70
  A 0.51 0.50 16.0 0 1 378.18 314.29
  Z
  M 386.85 313.04
  L 390.49 313.20
  A 1.00 0.99 6.6 0 0 391.52 312.40
  C 392.44 307.66 385.91 306.04 383.65 309.40
  C 380.61 313.93 384.89 318.22 390.03 316.75
  Q 391.59 316.31 391.16 315.12
  A 1.01 1.00 68.9 0 0 389.84 314.53
  Q 387.95 315.30 386.44 314.19
  Q 384.72 312.94 386.85 313.04
  Z
  M 396.4853 308.1148
  A 0.37 0.37 0.0 0 0 396.1140 307.7460
  L 393.8340 307.7540
  A 0.37 0.37 0.0 0 0 393.4653 308.1253
  L 393.4947 316.5452
  A 0.37 0.37 0.0 0 0 393.8660 316.9140
  L 396.1460 316.9060
  A 0.37 0.37 0.0 0 0 396.5147 316.5347
  L 396.4853 308.1148
  Z"
/>
<path fill="#8c8e91" d="
  M 541.09 154.00
  Q 540.89 241.54 540.82 329.07
  C 540.82 329.66 540.82 330.18 540.01 329.96
  A 0.63 0.62 -82.5 0 1 539.54 329.34
  Q 540.10 242.79 539.46 156.25
  Q 538.79 153.82 541.09 154.00
  Z"
/>
<path fill="#829a95" d="
  M 221.25 168.39
  Q 222.81 177.41 221.63 186.44
  L 216.91 188.10
  Q 198.19 191.55 179.60 195.77
  C 175.64 196.67 173.72 197.59 174.68 202.07
  Q 178.74 221.12 182.89 240.15
  C 183.69 243.85 184.98 245.64 189.01 244.77
  Q 205.22 241.27 221.89 237.74
  L 221.96 299.50
  Q 204.27 303.24 186.62 307.07
  C 171.94 310.26 162.88 305.57 159.61 290.59
  C 154.01 264.82 148.28 239.07 142.96 213.24
  Q 140.20 199.90 136.48 186.66
  L 221.25 168.39
  Z"
/>
<path fill="#6f8383" d="
  M 135.04 186.75
  L 136.48 186.66
  Q 140.20 199.90 142.96 213.24
  C 148.28 239.07 154.01 264.82 159.61 290.59
  C 162.88 305.57 171.94 310.26 186.62 307.07
  Q 204.27 303.24 221.96 299.50
  C 221.45 300.83 222.99 302.06 221.87 303.02
  Q 203.54 306.76 185.49 310.77
  C 175.53 312.98 167.53 312.53 161.68 303.84
  Q 159.70 300.91 158.46 295.19
  Q 146.67 241.00 135.04 186.75
  Z"
/>
<path fill="#fbf8f6" d="
  M 216.91 188.10
  L 221.77 193.28
  L 221.89 237.74
  Q 205.22 241.27 189.01 244.77
  C 184.98 245.64 183.69 243.85 182.89 240.15
  Q 178.74 221.12 174.68 202.07
  C 173.72 197.59 175.64 196.67 179.60 195.77
  Q 198.19 191.55 216.91 188.10
  Z"
/>
<path fill="#01529c" d="
  M 424.8534 243.7507
  A 7.07 7.07 0.0 0 1 417.7588 250.7960
  L 385.5790 250.6837
  A 7.07 7.07 0.0 0 1 378.5337 243.5891
  L 378.6466 211.2493
  A 7.07 7.07 0.0 0 1 385.7412 204.2040
  L 417.9210 204.3163
  A 7.07 7.07 0.0 0 1 424.9663 211.4109
  L 424.8534 243.7507
  Z
  M 386.89 226.75
  C 389.72 224.25 396.44 218.53 396.94 214.77
  C 397.76 208.65 390.89 206.71 386.37 208.22
  Q 383.80 209.08 383.78 211.80
  Q 383.71 227.16 383.77 242.51
  C 383.80 249.97 395.85 247.70 396.60 241.03
  C 397.04 237.17 389.43 230.74 386.85 228.21
  A 1.00 0.99 -43.5 0 1 386.89 226.75
  Z
  M 403.06 223.56
  Q 406.48 220.41 409.51 216.68
  A 0.99 0.95 67.7 0 0 409.73 216.12
  Q 410.37 207.10 401.66 207.81
  A 1.00 1.00 0.0 0 0 400.81 209.19
  Q 402.99 214.40 400.79 219.20
  C 399.57 221.87 396.44 224.33 394.31 226.83
  A 1.00 1.00 0.0 0 0 394.34 228.16
  C 396.64 230.63 399.76 233.32 400.84 236.27
  Q 402.51 240.86 400.34 245.61
  A 1.00 1.00 0.0 0 0 401.25 247.03
  L 416.14 246.98
  Q 418.51 246.97 416.85 245.28
  L 400.17 228.29
  A 1.01 1.00 42.8 0 1 400.11 226.95
  Q 402.46 224.12 403.06 223.56
  Z
  M 415.84 237.27
  Q 416.85 238.38 418.03 239.37
  Q 419.65 240.72 419.67 238.61
  Q 419.81 226.52 419.76 214.39
  Q 419.75 211.00 419.00 209.71
  Q 417.72 207.47 414.59 207.77
  A 1.00 1.00 0.0 0 0 413.76 209.14
  Q 415.31 213.00 414.49 216.88
  Q 413.93 219.53 411.32 222.43
  Q 409.31 224.66 407.14 226.79
  A 1.00 1.00 0.0 0 0 407.13 228.20
  Q 409.99 231.16 412.86 234.01
  Q 412.89 234.04 415.84 237.27
  Z"
/>
<path fill="#5b7178" d="
  M 386.89 226.75
  A 1.00 0.99 -43.5 0 0 386.85 228.21
  C 389.43 230.74 397.04 237.17 396.60 241.03
  C 395.85 247.70 383.80 249.97 383.77 242.51
  Q 383.71 227.16 383.78 211.80
  Q 383.80 209.08 386.37 208.22
  C 390.89 206.71 397.76 208.65 396.94 214.77
  C 396.44 218.53 389.72 224.25 386.89 226.75
  Z"
/>
<path fill="#5b7178" d="
  M 403.06 223.56
  Q 402.46 224.12 400.11 226.95
  A 1.01 1.00 42.8 0 0 400.17 228.29
  L 416.85 245.28
  Q 418.51 246.97 416.14 246.98
  L 401.25 247.03
  A 1.00 1.00 0.0 0 1 400.34 245.61
  Q 402.51 240.86 400.84 236.27
  C 399.76 233.32 396.64 230.63 394.34 228.16
  A 1.00 1.00 0.0 0 1 394.31 226.83
  C 396.44 224.33 399.57 221.87 400.79 219.20
  Q 402.99 214.40 400.81 209.19
  A 1.00 1.00 0.0 0 1 401.66 207.81
  Q 410.37 207.10 409.73 216.12
  A 0.99 0.95 67.7 0 1 409.51 216.68
  Q 406.48 220.41 403.06 223.56
  Z"
/>
<path fill="#5b7178" d="
  M 412.86 234.01
  Q 409.99 231.16 407.13 228.20
  A 1.00 1.00 0.0 0 1 407.14 226.79
  Q 409.31 224.66 411.32 222.43
  Q 413.93 219.53 414.49 216.88
  Q 415.31 213.00 413.76 209.14
  A 1.00 1.00 0.0 0 1 414.59 207.77
  Q 417.72 207.47 419.00 209.71
  Q 419.75 211.00 419.76 214.39
  Q 419.81 226.52 419.67 238.61
  Q 419.65 240.72 418.03 239.37
  Q 416.85 238.38 415.84 237.27
  Q 412.89 234.04 412.86 234.01
  Z"
/>
<path fill="#01529c" d="
  M 460.44 229.84
  Q 461.72 230.55 462.80 231.53
  Q 464.32 232.88 464.89 234.97
  C 467.60 244.96 459.14 249.38 450.39 249.47
  Q 443.44 249.54 436.49 249.49
  A 1.00 1.00 0.0 0 1 435.50 248.49
  L 435.50 211.79
  A 1.00 1.00 0.0 0 1 436.48 210.79
  Q 442.25 210.68 452.29 210.90
  C 457.22 211.00 462.92 212.75 464.25 218.08
  Q 465.83 224.42 460.36 228.14
  A 1.00 1.00 0.0 0 0 460.44 229.84
  Z
  M 446.70 225.36
  C 453.46 227.46 457.12 219.25 449.95 218.84
  Q 448.02 218.73 446.97 218.76
  A 1.00 1.00 0.0 0 0 446.00 219.76
  L 446.00 224.41
  A 1.00 0.99 8.8 0 0 446.70 225.36
  Z
  M 453.54 240.45
  C 456.81 234.24 451.69 232.98 446.89 233.47
  A 1.01 1.01 0.0 0 0 445.99 234.47
  L 446.01 240.48
  A 1.01 1.01 0.0 0 0 447.10 241.48
  L 452.74 240.98
  A 1.02 1.01 -78.3 0 0 453.54 240.45
  Z"
/>
<path fill="#01529c" d="
  M 494.75 233.61
  L 504.40 247.94
  Q 505.44 249.50 503.57 249.50
  L 494.01 249.50
  A 0.99 0.99 0.0 0 1 493.14 248.98
  Q 489.66 242.73 485.99 236.57
  C 485.28 235.38 484.31 234.85 483.06 235.49
  A 1.01 1.01 0.0 0 0 482.51 236.39
  L 482.59 248.49
  A 1.01 1.00 -90.0 0 1 481.59 249.50
  L 473.25 249.50
  A 1.00 1.00 0.0 0 1 472.25 248.50
  L 472.25 211.78
  A 1.01 1.00 -0.9 0 1 473.23 210.78
  Q 480.02 210.63 486.72 210.88
  C 492.62 211.10 498.83 212.82 500.21 219.21
  Q 501.94 227.23 495.00 232.24
  A 1.00 1.00 0.0 0 0 494.75 233.61
  Z
  M 483.60 227.44
  C 489.84 228.36 493.46 220.96 485.76 218.58
  Q 482.76 217.66 482.75 220.68
  L 482.75 226.45
  A 1.00 0.99 -86.0 0 0 483.60 227.44
  Z"
/>
<rect fill="#01529c" x="509.00" y="210.75" width="10.50" height="38.76" rx="0.26"/>
<path fill="#f4b729" d="
  M 260.75 213.29
  L 260.46 217.00
  Q 250.75 216.26 249.50 225.71
  L 246.25 225.96
  Q 246.82 212.41 260.75 213.29
  Z"
/>
<path fill="#ae681f" d="
  M 260.75 213.29
  L 262.75 213.29
  L 262.77 217.03
  L 262.84 235.66
  L 263.00 262.21
  Q 261.71 262.77 260.46 262.25
  L 260.51 249.87
  A 1.00 0.99 88.6 0 0 259.47 248.87
  Q 252.24 249.19 247.27 248.97
  Q 246.30 248.92 246.04 249.50
  L 246.29 246.75
  L 259.50 246.72
  A 1.00 1.00 0.0 0 0 260.50 245.72
  L 260.50 239.50
  A 1.00 1.00 0.0 0 0 259.50 238.50
  L 247.28 238.50
  A 1.00 1.00 0.0 0 0 246.28 239.48
  L 246.21 243.75
  Q 245.63 239.99 246.29 236.25
  L 259.55 236.50
  A 1.01 1.00 10.1 0 0 260.51 235.84
  Q 260.68 235.36 260.46 234.75
  L 260.37 229.18
  A 1.00 0.99 -0.6 0 0 259.36 228.20
  L 250.25 228.29
  L 246.25 228.04
  Q 245.62 227.00 246.25 225.96
  L 249.50 225.71
  L 259.32 225.80
  A 1.00 1.00 0.0 0 0 260.33 224.82
  L 260.46 217.00
  L 260.75 213.29
  Z"
/>
<path fill="#f4b729" d="
  M 262.75 213.29
  L 278.75 213.29
  L 278.46 216.75
  L 262.77 217.03
  L 262.75 213.29
  Z"
/>
<path fill="#ae681f" d="
  M 278.75 213.29
  L 280.75 213.29
  L 281.04 217.00
  L 280.94 224.59
  A 1.00 1.00 0.0 0 0 281.93 225.60
  L 291.75 225.71
  L 295.21 225.75
  L 295.00 228.21
  L 291.50 228.29
  L 281.81 228.34
  A 1.00 0.99 90.0 0 0 280.82 229.34
  L 280.83 235.31
  A 1.00 1.00 0.0 0 0 281.81 236.31
  L 291.01 236.47
  L 295.21 236.25
  L 294.96 238.50
  L 291.25 238.54
  L 281.80 238.55
  A 1.00 0.99 -83.9 0 0 280.83 239.34
  Q 280.54 240.63 281.00 241.96
  Q 280.53 243.81 280.78 245.82
  A 1.02 1.01 87.9 0 0 281.72 246.70
  Q 288.49 247.09 295.22 246.46
  L 295.21 249.25
  L 281.81 249.05
  A 1.00 1.00 0.0 0 0 280.80 250.07
  L 281.00 262.21
  L 278.78 262.23
  L 278.46 240.50
  L 278.46 216.75
  L 278.75 213.29
  Z"
/>
<path fill="#f4b729" d="
  M 280.75 213.29
  Q 294.36 212.40 295.21 225.75
  L 291.75 225.71
  Q 290.73 216.15 281.04 217.00
  L 280.75 213.29
  Z"
/>
<path fill="#f5d168" d="
  M 278.46 216.75
  L 278.46 240.50
  L 262.84 235.66
  L 262.77 217.03
  L 278.46 216.75
  Z"
/>
<path fill="#f5d168" d="
  M 291.75 225.71
  L 281.93 225.60
  A 1.00 1.00 0.0 0 1 280.94 224.59
  L 281.04 217.00
  Q 290.73 216.15 291.75 225.71
  Z"
/>
<path fill="#f5d168" d="
  M 260.46 217.00
  L 260.33 224.82
  A 1.00 1.00 0.0 0 1 259.32 225.80
  L 249.50 225.71
  Q 250.75 216.26 260.46 217.00
  Z"
/>
<path fill="#5b7178" d="
  M 449.95 218.84
  C 457.12 219.25 453.46 227.46 446.70 225.36
  A 1.00 0.99 8.8 0 1 446.00 224.41
  L 446.00 219.76
  A 1.00 1.00 0.0 0 1 446.97 218.76
  Q 448.02 218.73 449.95 218.84
  Z"
/>
<path fill="#5b7178" d="
  M 485.76 218.58
  C 493.46 220.96 489.84 228.36 483.60 227.44
  A 1.00 0.99 -86.0 0 1 482.75 226.45
  L 482.75 220.68
  Q 482.76 217.66 485.76 218.58
  Z"
/>
<path fill="#f4b729" d="
  M 246.25 228.04
  L 250.25 228.29
  Q 249.39 230.04 249.77 231.93
  A 1.02 1.00 89.4 0 0 250.55 232.71
  L 260.46 234.75
  Q 260.68 235.36 260.51 235.84
  A 1.01 1.00 10.1 0 1 259.55 236.50
  L 246.29 236.25
  L 246.25 228.04
  Z"
/>
<path fill="#f5d168" d="
  M 260.46 234.75
  L 250.55 232.71
  A 1.02 1.00 89.4 0 1 249.77 231.93
  Q 249.39 230.04 250.25 228.29
  L 259.36 228.20
  A 1.00 0.99 -0.6 0 1 260.37 229.18
  L 260.46 234.75
  Z"
/>
<path fill="#f5d168" d="
  M 291.50 228.29
  Q 291.92 232.53 291.01 236.47
  L 281.81 236.31
  A 1.00 1.00 0.0 0 1 280.83 235.31
  L 280.82 229.34
  A 1.00 0.99 -90.0 0 1 281.81 228.34
  L 291.50 228.29
  Z"
/>
<path fill="#f4b729" d="
  M 291.50 228.29
  L 295.00 228.21
  L 295.21 236.25
  L 291.01 236.47
  Q 291.92 232.53 291.50 228.29
  Z"
/>
<path fill="#5b7178" d="
  M 453.54 240.45
  A 1.02 1.01 -78.3 0 1 452.74 240.98
  L 447.10 241.48
  A 1.01 1.01 0.0 0 1 446.01 240.48
  L 445.99 234.47
  A 1.01 1.01 0.0 0 1 446.89 233.47
  C 451.69 232.98 456.81 234.24 453.54 240.45
  Z"
/>
<path fill="#f4b729" d="
  M 262.84 235.66
  L 278.46 240.50
  L 278.78 262.23
  L 263.00 262.21
  L 262.84 235.66
  Z"
/>
<path fill="#f4b729" d="
  M 246.29 246.75
  L 246.21 243.75
  L 246.28 239.48
  A 1.00 1.00 0.0 0 1 247.28 238.50
  L 259.50 238.50
  A 1.00 1.00 0.0 0 1 260.50 239.50
  L 260.50 245.72
  A 1.00 1.00 0.0 0 1 259.50 246.72
  L 246.29 246.75
  Z"
/>
<path fill="#f5d168" d="
  M 291.25 238.54
  L 291.45 244.83
  A 1.00 1.00 0.0 0 1 290.06 245.78
  L 281.00 241.96
  Q 280.54 240.63 280.83 239.34
  A 1.00 0.99 -83.9 0 1 281.80 238.55
  L 291.25 238.54
  Z"
/>
<path fill="#f4b729" d="
  M 291.25 238.54
  L 294.96 238.50
  L 295.22 246.46
  Q 288.49 247.09 281.72 246.70
  A 1.02 1.01 87.9 0 1 280.78 245.82
  Q 280.53 243.81 281.00 241.96
  L 290.06 245.78
  A 1.00 1.00 0.0 0 0 291.45 244.83
  L 291.25 238.54
  Z"
/>
<path fill="#f4b729" d="
  M 260.46 262.25
  Q 246.97 262.82 246.04 249.50
  Q 246.30 248.92 247.27 248.97
  Q 252.24 249.19 259.47 248.87
  A 1.00 0.99 88.6 0 1 260.51 249.87
  L 260.46 262.25
  Z"
/>
<path fill="#f4b729" d="
  M 295.21 249.25
  Q 294.83 262.88 281.00 262.21
  L 280.80 250.07
  A 1.00 1.00 0.0 0 1 281.81 249.05
  L 295.21 249.25
  Z"
/>
<path fill="#000000" d="
  M 244.23 292.06
  L 244.26 292.31
  A 0.25 0.22 -4.1 0 0 244.50 292.50
  L 248.25 292.50
  A 1.00 1.00 0.0 0 1 249.25 293.50
  L 249.25 294.50
  A 1.00 1.00 0.0 0 1 248.25 295.50
  L 240.98 295.51
  Q 237.03 295.51 239.50 292.96
  C 240.79 291.63 247.50 286.26 244.08 284.87
  A 1.00 1.00 0.0 0 0 242.99 285.10
  Q 240.90 287.23 239.68 284.47
  A 1.00 1.00 0.0 0 1 240.01 283.26
  C 247.29 277.93 252.90 287.05 244.36 291.79
  A 0.26 0.26 0.0 0 0 244.23 292.06
  Z"
/>
<path fill="#000000" d="
  M 260.1629 291.1356
  A 4.32 4.32 0.0 0 1 255.8656 295.4782
  L 255.2056 295.4816
  A 4.32 4.32 0.0 0 1 250.8630 291.1843
  L 250.8371 286.2244
  A 4.32 4.32 0.0 0 1 255.1344 281.8818
  L 255.7944 281.8784
  A 4.32 4.32 0.0 0 1 260.1370 286.1757
  L 260.1629 291.1356
  Z
  M 255.5100 292.8200
  A 4.09 1.28 90.0 0 0 256.7900 288.7300
  A 4.09 1.28 90.0 0 0 255.5100 284.6400
  A 4.09 1.28 90.0 0 0 254.2300 288.7300
  A 4.09 1.28 90.0 0 0 255.5100 292.8200
  Z"
/>
<path fill="#000000" d="
  M 266.96 286.67
  Q 268.83 286.21 270.16 287.64
  C 276.62 294.54 260.01 301.54 261.85 287.46
  Q 262.58 281.92 268.77 281.68
  Q 271.40 281.58 270.57 284.10
  A 1.01 1.01 0.0 0 1 269.42 284.77
  Q 267.52 284.38 266.31 285.24
  Q 262.89 287.66 266.96 286.67
  Z
  M 265.36 290.78
  Q 265.78 294.05 267.60 292.05
  A 1.00 0.97 65.8 0 0 267.86 291.33
  Q 267.74 288.47 265.78 289.83
  A 1.02 1.02 0.0 0 0 265.36 290.78
  Z"
/>
<path fill="#000000" d="
  M 293.4172 291.1375
  A 4.32 4.32 0.0 0 1 289.1275 295.4875
  L 288.4675 295.4921
  A 4.32 4.32 0.0 0 1 284.1174 291.2024
  L 284.0828 286.2425
  A 4.32 4.32 0.0 0 1 288.3725 281.8925
  L 289.0325 281.8879
  A 4.32 4.32 0.0 0 1 293.3826 286.1776
  L 293.4172 291.1375
  Z
  M 288.7272 292.8400
  A 4.12 1.29 89.9 0 0 290.0100 288.7177
  A 4.12 1.29 89.9 0 0 288.7128 284.6000
  A 4.12 1.29 89.9 0 0 287.4300 288.7223
  A 4.12 1.29 89.9 0 0 288.7272 292.8400
  Z"
/>
<path fill="#000000" d="
  M 315.62 291.16
  A 4.32 4.32 0.0 0 1 311.30 295.48
  L 310.64 295.48
  A 4.32 4.32 0.0 0 1 306.32 291.16
  L 306.32 286.22
  A 4.32 4.32 0.0 0 1 310.64 281.90
  L 311.30 281.90
  A 4.32 4.32 0.0 0 1 315.62 286.22
  L 315.62 291.16
  Z
  M 310.9572 292.8700
  A 4.12 1.32 89.9 0 0 312.2700 288.7477
  A 4.12 1.32 89.9 0 0 310.9428 284.6300
  A 4.12 1.32 89.9 0 0 309.6300 288.7523
  A 4.12 1.32 89.9 0 0 310.9572 292.8700
  Z"
/>
<path fill="#000000" d="
  M 333.74 285.13
  Q 332.03 284.55 330.71 285.75
  A 1.00 0.99 50.5 0 1 329.24 285.60
  L 328.50 284.61
  A 1.01 1.00 -36.4 0 1 328.72 283.20
  C 333.08 280.09 340.40 282.78 336.46 288.70
  Q 336.08 289.28 334.06 291.11
  Q 332.51 292.51 334.60 292.51
  L 336.75 292.50
  A 1.00 1.00 0.0 0 1 337.75 293.50
  L 337.75 294.50
  A 1.00 1.00 0.0 0 1 336.75 295.50
  L 329.00 295.50
  A 1.00 0.99 0.0 0 1 328.00 294.51
  L 327.99 293.63
  A 1.05 1.01 -24.3 0 1 328.27 292.93
  L 334.15 286.77
  A 1.00 1.00 0.0 0 0 333.74 285.13
  Z"
/>
<path fill="#000000" d="
  M 366.50 286.75
  Q 369.61 286.05 370.73 288.87
  C 372.89 294.27 367.80 297.04 362.79 294.58
  A 1.02 1.00 -86.0 0 1 362.27 293.97
  Q 358.74 282.38 369.15 281.66
  A 1.00 0.99 77.7 0 1 370.16 282.32
  C 371.38 285.73 368.26 284.34 366.95 284.76
  Q 366.31 284.97 365.83 285.34
  Q 363.02 287.54 366.50 286.75
  Z
  M 365.62 292.44
  Q 366.81 293.74 367.32 292.06
  Q 368.32 288.80 365.69 289.66
  A 1.00 0.99 83.8 0 0 365.00 290.52
  Q 364.90 291.65 365.62 292.44
  Z"
/>
<path fill="#000000" d="
  M 388.5655 295.8187
  A 7.06 5.00 88.9 0 1 383.4309 288.8560
  A 7.06 5.00 88.9 0 1 388.2945 281.7013
  A 7.06 5.00 88.9 0 1 393.4291 288.6640
  A 7.06 5.00 88.9 0 1 388.5655 295.8187
  Z
  M 388.4493 292.9599
  A 4.20 1.22 89.6 0 0 389.6400 288.7515
  A 4.20 1.22 89.6 0 0 388.3907 284.5601
  A 4.20 1.22 89.6 0 0 387.2000 288.7685
  A 4.20 1.22 89.6 0 0 388.4493 292.9599
  Z"
/>
<path fill="#000000" d="
  M 402.87 289.35
  Q 406.75 292.40 402.06 295.35
  A 0.96 0.95 27.9 0 1 401.53 295.51
  L 397.51 295.50
  A 1.02 0.98 61.5 0 1 396.94 295.32
  Q 392.75 292.43 396.22 289.06
  A 1.01 1.00 46.7 0 0 396.26 287.66
  Q 395.36 286.69 395.21 285.41
  C 394.73 281.35 400.19 281.43 402.78 282.65
  Q 405.58 283.97 404.08 286.04
  L 402.68 287.98
  A 1.01 1.00 37.4 0 0 402.87 289.35
  Z
  M 399.50 284.48
  Q 398.36 284.62 398.84 285.98
  A 0.80 0.79 74.9 0 0 399.73 286.50
  Q 400.77 286.33 400.60 285.32
  A 1.00 1.00 0.0 0 0 399.50 284.48
  Z
  M 400.25 290.57
  A 1.00 1.00 0.0 0 0 398.75 290.60
  C 396.09 293.75 403.43 293.99 400.25 290.57
  Z"
/>
<path fill="#000000" d="
  M 277.41 290.92
  Q 275.62 291.44 274.26 290.33
  Q 272.75 289.11 272.66 286.85
  C 272.40 280.47 281.47 280.20 282.42 286.48
  Q 283.87 296.11 274.48 295.63
  A 1.00 1.00 0.0 0 1 273.53 294.63
  L 273.52 293.71
  A 1.00 1.00 0.0 0 1 274.67 292.72
  Q 276.64 293.02 277.96 292.05
  Q 280.92 289.89 277.41 290.92
  Z
  M 277.6389 288.2782
  A 1.74 1.36 87.4 0 0 278.9186 286.4783
  A 1.74 1.36 87.4 0 0 277.4811 284.8018
  A 1.74 1.36 87.4 0 0 276.2014 286.6017
  A 1.74 1.36 87.4 0 0 277.6389 288.2782
  Z"
/>
<path fill="#000000" d="
  M 297.93 287.32
  Q 296.59 288.48 295.53 286.40
  A 1.01 1.00 56.4 0 1 295.77 285.18
  C 297.08 284.07 298.87 282.07 300.57 281.96
  Q 301.28 281.91 301.97 282.03
  A 1.01 1.00 -85.5 0 1 302.80 283.01
  L 302.89 294.50
  A 0.99 0.99 0.0 0 1 301.89 295.50
  L 300.23 295.50
  A 1.00 1.00 0.0 0 1 299.23 294.50
  L 299.25 287.93
  Q 299.26 286.18 297.93 287.32
  Z"
/>
<path fill="#000000" d="
  M 320.17 287.25
  Q 318.69 288.57 317.69 286.29
  A 0.99 0.99 0.0 0 1 317.97 285.11
  L 321.57 282.22
  A 1.02 0.97 24.3 0 1 322.20 282.00
  L 324.19 282.00
  A 1.00 1.00 0.0 0 1 325.19 283.00
  L 325.17 294.50
  A 1.00 1.00 0.0 0 1 324.17 295.50
  L 322.50 295.50
  A 1.00 1.00 0.0 0 1 321.50 294.50
  L 321.50 287.85
  Q 321.50 286.07 320.17 287.25
  Z"
/>
<path fill="#000000" d="
  M 342.10 287.45
  Q 340.82 288.25 339.89 286.42
  A 1.00 1.00 0.0 0 1 340.14 285.19
  L 343.78 282.22
  A 0.97 0.96 -63.7 0 1 344.42 282.00
  L 346.25 282.00
  A 1.00 0.99 90.0 0 1 347.24 283.00
  L 347.26 294.50
  A 1.00 1.00 0.0 0 1 346.26 295.50
  L 344.71 295.50
  A 1.00 1.00 0.0 0 1 343.71 294.51
  L 343.63 288.29
  Q 343.61 286.52 342.10 287.45
  Z"
/>
<path fill="#000000" d="
  M 353.40 287.20
  L 353.12 287.46
  A 1.01 1.00 -40.2 0 1 351.64 287.34
  L 351.00 286.50
  A 1.00 1.00 0.0 0 1 351.19 285.09
  Q 352.97 283.75 354.65 282.38
  Q 355.72 281.50 357.62 281.99
  A 1.00 0.99 -83.0 0 1 358.37 282.96
  L 358.35 294.50
  A 1.00 1.00 0.0 0 1 357.35 295.50
  L 355.75 295.50
  A 1.00 1.00 0.0 0 1 354.75 294.50
  L 354.75 287.78
  Q 354.75 285.95 353.40 287.20
  Z"
/>
<path fill="#000000" d="
  M 377.43 286.73
  Q 378.06 286.85 378.76 286.72
  Q 380.78 286.34 381.65 289.04
  C 383.59 295.08 378.46 296.12 373.60 295.30
  A 1.01 1.00 88.2 0 1 372.79 294.53
  Q 372.04 291.09 375.03 292.71
  Q 375.26 292.83 375.52 292.83
  Q 379.67 292.76 377.69 289.79
  A 1.01 1.00 63.1 0 0 376.52 289.40
  Q 374.98 289.95 373.61 289.41
  A 1.01 1.01 0.0 0 1 372.98 288.38
  L 373.51 282.90
  A 0.99 0.99 0.0 0 1 374.50 282.00
  L 380.26 282.00
  A 1.00 1.00 0.0 0 1 381.26 283.02
  L 381.23 284.06
  A 1.00 0.99 5.5 0 1 380.06 285.02
  Q 378.65 284.77 377.34 285.18
  Q 374.23 286.13 377.43 286.73
  Z"
/>
<path fill="#6f8383" d="
  M 400.60 285.32
  Q 400.77 286.33 399.73 286.50
  A 0.80 0.79 74.9 0 1 398.84 285.98
  Q 398.36 284.62 399.50 284.48
  A 1.00 1.00 0.0 0 1 400.60 285.32
  Z"
/>
<ellipse fill="#5b7178" cx="0.00" cy="0.00" transform="translate(255.51,288.73) rotate(90.0)" rx="4.09" ry="1.28"/>
<ellipse fill="#5b7178" cx="0.00" cy="0.00" transform="translate(277.56,286.54) rotate(87.4)" rx="1.74" ry="1.36"/>
<ellipse fill="#5b7178" cx="0.00" cy="0.00" transform="translate(288.72,288.72) rotate(89.9)" rx="4.12" ry="1.29"/>
<ellipse fill="#5b7178" cx="0.00" cy="0.00" transform="translate(310.95,288.75) rotate(89.9)" rx="4.12" ry="1.32"/>
<ellipse fill="#5b7178" cx="0.00" cy="0.00" transform="translate(388.42,288.76) rotate(89.6)" rx="4.20" ry="1.22"/>
<path fill="#5b7178" d="
  M 265.78 289.83
  Q 267.74 288.47 267.86 291.33
  A 1.00 0.97 65.8 0 1 267.60 292.05
  Q 265.78 294.05 265.36 290.78
  A 1.02 1.02 0.0 0 1 265.78 289.83
  Z"
/>
<path fill="#5b7178" d="
  M 365.62 292.44
  Q 364.90 291.65 365.00 290.52
  A 1.00 0.99 83.8 0 1 365.69 289.66
  Q 368.32 288.80 367.32 292.06
  Q 366.81 293.74 365.62 292.44
  Z"
/>
<path fill="#5b7178" d="
  M 400.25 290.57
  C 403.43 293.99 396.09 293.75 398.75 290.60
  A 1.00 1.00 0.0 0 1 400.25 290.57
  Z"
/>
<path fill="#c33b29" d="
  M 482.25 296.79
  C 472.69 305.72 472.52 319.79 482.50 328.46
  Q 473.43 335.02 463.98 332.50
  C 451.25 329.12 444.67 315.38 450.75 303.38
  C 456.68 291.67 471.36 288.55 482.25 296.79
  Z"
/>
<path fill="#f4af2c" d="
  M 482.50 328.46
  C 472.52 319.79 472.69 305.72 482.25 296.79
  Q 493.64 288.92 504.34 294.16
  C 515.37 299.56 519.49 312.28 513.33 323.04
  C 507.09 333.94 492.51 336.45 482.50 328.46
  Z"
/>
<path fill="#000000" d="
  M 274.81 307.86
  Q 277.23 307.00 278.64 308.75
  C 280.04 310.47 279.47 313.72 279.48 315.99
  A 1.00 1.00 0.0 0 1 278.39 316.99
  L 277.16 316.88
  A 1.00 0.99 2.5 0 1 276.25 315.89
  L 276.25 311.42
  A 1.00 0.99 -2.1 0 0 275.18 310.43
  L 274.67 310.46
  A 1.01 1.00 -2.2 0 0 273.74 311.46
  L 273.75 316.00
  A 0.99 0.99 0.0 0 1 272.70 317.00
  L 271.44 316.93
  A 1.00 1.00 0.0 0 1 270.50 315.93
  L 270.50 305.24
  A 1.01 1.00 87.2 0 1 271.40 304.24
  Q 274.59 303.93 273.77 306.89
  Q 273.37 308.37 274.81 307.86
  Z"
/>
<path fill="#000000" d="
  M 340.71 306.82
  Q 339.86 303.63 343.35 304.51
  A 1.00 0.99 8.5 0 1 344.10 305.52
  C 343.94 309.17 344.56 316.48 343.15 316.95
  A 1.00 1.00 0.0 0 1 342.44 316.92
  L 341.01 316.31
  A 1.02 1.01 40.4 0 0 340.09 316.38
  C 335.27 319.39 333.87 311.01 336.50 308.49
  Q 337.80 307.25 339.71 307.80
  Q 341.07 308.19 340.71 306.82
  Z
  M 340.96 311.41
  A 1.16 1.16 0.0 0 0 339.80 310.25
  L 339.64 310.25
  A 1.16 1.16 0.0 0 0 338.48 311.41
  L 338.48 313.31
  A 1.16 1.16 0.0 0 0 339.64 314.47
  L 339.80 314.47
  A 1.16 1.16 0.0 0 0 340.96 313.31
  L 340.96 311.41
  Z"
/>
<rect fill="#000000" x="-1.51" y="-1.25" transform="translate(395.01,305.46) rotate(-2.8)" width="3.02" height="2.50" rx="0.91"/>
<path fill="#000000" d="
  M 246.25 314.67
  L 246.25 315.99
  A 1.01 0.99 1.9 0 1 245.17 316.99
  L 244.42 316.93
  A 1.01 1.00 2.5 0 1 243.50 315.93
  L 243.50 305.98
  A 0.99 0.99 0.0 0 1 244.55 304.99
  L 247.09 305.12
  A 1.00 1.00 0.0 0 1 248.00 305.85
  L 249.44 311.07
  Q 250.19 313.83 250.98 311.08
  L 252.48 305.80
  A 1.00 0.99 8.8 0 1 253.48 305.08
  L 255.97 305.17
  A 1.00 0.99 1.5 0 1 256.93 306.17
  L 256.90 315.89
  A 1.01 1.00 2.4 0 1 255.82 316.88
  L 254.91 316.82
  A 1.01 1.00 1.9 0 1 253.98 315.83
  C 253.98 314.78 254.52 309.73 254.28 309.18
  Q 253.90 308.30 253.67 309.23
  L 251.90 316.11
  A 1.01 1.00 -82.5 0 1 250.93 316.86
  L 249.33 316.87
  A 1.02 0.99 80.7 0 1 248.38 316.17
  L 247.81 314.42
  Q 246.24 309.56 246.25 314.67
  Z"
/>
<path fill="#000000" d="
  M 357.50 308.45
  L 357.50 306.09
  A 1.00 1.00 0.0 0 1 358.53 305.09
  L 359.78 305.13
  A 1.00 1.00 0.0 0 1 360.75 306.13
  L 360.75 316.00
  A 1.00 1.00 0.0 0 1 359.69 317.00
  L 358.45 316.93
  A 1.00 1.00 0.0 0 1 357.50 315.93
  L 357.50 313.07
  A 1.00 1.00 0.0 0 0 356.44 312.07
  L 354.69 312.17
  A 1.00 1.00 0.0 0 0 353.75 313.17
  L 353.75 316.00
  A 1.00 0.99 2.6 0 1 352.66 316.99
  L 351.41 316.88
  A 1.00 0.99 2.5 0 1 350.50 315.89
  L 350.50 305.99
  A 1.00 1.00 0.0 0 1 351.58 304.99
  L 352.97 305.10
  A 1.00 1.00 0.0 0 1 353.85 306.36
  Q 352.71 310.51 356.76 309.42
  A 1.01 1.00 82.5 0 0 357.50 308.45
  Z"
/>
<path fill="#000000" d="
  M 295.62 308.23
  Q 297.74 306.81 299.78 308.37
  A 1.02 1.01 -43.9 0 0 300.98 308.39
  Q 303.65 306.47 305.92 308.90
  A 0.98 0.96 -68.2 0 1 306.19 309.55
  L 306.41 315.85
  A 1.01 1.00 -89.2 0 1 305.35 316.89
  L 304.14 316.80
  A 1.00 1.00 0.0 0 1 303.20 315.79
  C 303.22 314.72 303.97 308.08 301.06 310.84
  A 0.99 0.98 68.8 0 0 300.75 311.56
  L 300.75 315.95
  A 1.00 1.00 0.0 0 1 299.68 316.95
  L 298.43 316.86
  A 0.99 0.99 0.0 0 1 297.50 315.87
  L 297.50 311.20
  A 0.81 0.80 2.3 0 0 296.76 310.40
  L 296.35 310.37
  A 1.00 0.99 3.9 0 0 295.27 311.30
  L 294.97 315.97
  A 1.00 0.99 -84.6 0 1 293.86 316.90
  L 292.72 316.77
  A 1.01 1.00 -86.2 0 1 291.84 315.76
  L 291.94 308.65
  A 1.01 1.01 0.0 0 1 292.81 307.67
  Q 293.75 307.55 294.39 308.13
  A 1.00 0.99 49.4 0 0 295.62 308.23
  Z"
/>
<path fill="#000000" d="
  M 313.31 310.19
  C 311.12 309.94 311.75 314.61 311.74 316.01
  A 1.00 1.00 0.0 0 1 310.65 316.99
  L 309.41 316.88
  A 1.00 1.00 0.0 0 1 308.50 315.88
  L 308.50 308.73
  A 1.01 0.99 -6.6 0 1 309.28 307.76
  Q 310.37 307.51 311.07 308.16
  A 1.00 0.99 48.7 0 0 312.33 308.25
  Q 314.42 306.76 316.53 308.39
  A 1.00 1.00 0.0 0 0 317.68 308.44
  C 323.89 304.43 322.99 313.17 322.98 315.88
  A 0.99 0.99 0.0 0 1 321.91 316.87
  L 320.68 316.78
  A 1.01 1.00 2.2 0 1 319.75 315.78
  L 319.75 311.35
  A 1.00 1.00 0.0 0 0 318.77 310.35
  L 318.51 310.34
  A 1.01 1.00 -89.4 0 0 317.49 311.35
  L 317.51 315.92
  A 1.01 1.00 -88.9 0 1 316.47 316.93
  L 315.23 316.88
  A 1.00 1.00 0.0 0 1 314.27 315.90
  L 314.20 311.17
  A 1.01 1.00 -87.4 0 0 313.31 310.19
  Z"
/>
<path fill="#000000" d="
  M 403.54 310.17
  C 401.55 310.00 401.84 314.05 401.96 315.86
  A 1.00 0.99 87.9 0 1 400.97 316.93
  L 399.75 316.93
  A 1.00 1.00 0.0 0 1 398.75 315.93
  L 398.75 308.69
  A 1.00 1.00 0.0 0 1 399.54 307.71
  Q 400.49 307.51 401.08 308.12
  A 1.00 1.00 0.0 0 0 402.34 308.27
  Q 404.94 306.60 407.30 308.93
  A 1.00 0.99 -68.5 0 1 407.59 309.61
  L 407.80 315.97
  A 1.01 1.00 0.8 0 1 406.74 317.00
  L 405.47 316.93
  A 0.99 0.99 0.0 0 1 404.53 315.95
  L 404.45 311.15
  A 1.01 1.00 -88.1 0 0 403.54 310.17
  Z"
/>
<path fill="#000000" d="
  M 264.61 316.40
  Q 262.62 317.69 260.31 316.29
  A 1.00 1.00 0.0 0 1 259.87 315.72
  C 259.33 313.97 257.60 306.72 261.72 307.63
  A 1.01 0.99 -83.9 0 1 262.50 308.61
  L 262.50 313.43
  A 1.02 1.00 12.3 0 0 263.10 314.35
  C 265.75 315.50 265.00 309.87 265.01 308.74
  A 1.01 1.00 -89.4 0 1 266.01 307.75
  L 267.25 307.75
  A 1.00 1.00 0.0 0 1 268.25 308.75
  L 268.25 315.88
  A 1.01 1.00 -17.2 0 1 267.81 316.71
  Q 266.73 317.43 265.86 316.54
  A 1.00 0.99 51.3 0 0 264.61 316.40
  Z"
/>
<path fill="#000000" d="
  M 286.01 310.02
  Q 285.42 309.12 283.92 309.99
  A 1.00 1.00 0.0 0 1 282.59 309.69
  Q 281.63 308.26 283.75 307.85
  C 290.47 306.54 290.11 311.37 289.68 315.98
  A 1.00 1.00 0.0 0 1 288.35 316.83
  L 286.85 316.30
  A 0.98 0.98 0.0 0 0 286.01 316.38
  Q 283.15 318.05 281.70 315.85
  C 279.59 312.66 282.48 311.31 285.35 311.25
  Q 286.79 311.23 286.01 310.02
  Z
  M 286.3840 313.0387
  A 1.16 0.92 -37.2 0 0 284.9038 313.0072
  A 1.16 0.92 -37.2 0 0 284.5360 314.4413
  A 1.16 0.92 -37.2 0 0 286.0162 314.4728
  A 1.16 0.92 -37.2 0 0 286.3840 313.0387
  Z"
/>
<path fill="#000000" d="
  M 329.45 309.79
  L 327.08 310.09
  A 1.00 0.99 68.2 0 1 326.14 309.68
  Q 325.18 308.32 327.51 307.88
  Q 331.30 307.15 333.05 309.50
  A 1.02 0.99 27.4 0 1 333.25 310.10
  L 333.25 315.93
  A 1.00 1.00 0.0 0 1 332.00 316.90
  L 330.43 316.50
  A 1.00 0.97 42.2 0 0 329.88 316.52
  C 322.77 318.75 323.06 310.39 329.39 311.21
  A 0.52 0.51 7.9 0 0 329.97 310.78
  L 330.02 310.37
  A 0.51 0.51 0.0 0 0 329.45 309.79
  Z
  M 330.1358 313.0183
  A 1.26 0.86 -35.5 0 0 328.6106 313.0499
  A 1.26 0.86 -35.5 0 0 328.0842 314.4817
  A 1.26 0.86 -35.5 0 0 329.6094 314.4501
  A 1.26 0.86 -35.5 0 0 330.1358 313.0183
  Z"
/>
<path fill="#000000" d="
  M 363.55 315.94
  A 1.03 1.01 19.2 0 1 363.17 315.17
  L 363.04 308.77
  A 1.00 1.00 0.0 0 1 364.04 307.75
  L 365.25 307.75
  A 1.00 1.00 0.0 0 1 366.25 308.75
  L 366.25 313.28
  A 1.03 1.01 26.6 0 0 366.47 313.91
  C 369.12 317.21 368.76 309.13 368.77 308.74
  A 1.00 0.99 -0.0 0 1 369.77 307.75
  L 371.00 307.75
  A 1.00 1.00 0.0 0 1 372.00 308.75
  L 372.00 315.97
  A 1.01 1.01 0.0 0 1 371.22 316.95
  Q 370.26 317.16 369.55 316.44
  A 1.01 1.00 -40.0 0 0 368.25 316.33
  Q 366.06 317.93 363.55 315.94
  Z"
/>
<path fill="#000000" d="
  M 377.85 313.70
  C 375.29 312.77 371.72 309.83 376.05 307.80
  Q 377.42 307.16 379.99 307.77
  Q 381.42 308.11 380.89 309.36
  A 1.01 1.00 -75.6 0 1 379.87 309.97
  Q 374.57 309.45 379.69 311.58
  C 382.19 312.62 381.72 315.93 379.21 316.71
  Q 377.23 317.32 375.11 316.83
  A 1.02 1.00 81.5 0 1 374.46 316.34
  C 372.00 311.93 377.74 316.20 378.18 314.29
  A 0.51 0.50 16.0 0 0 377.85 313.70
  Z"
/>
<path fill="#000000" d="
  M 386.44 314.19
  Q 387.95 315.30 389.84 314.53
  A 1.01 1.00 68.9 0 1 391.16 315.12
  Q 391.59 316.31 390.03 316.75
  C 384.89 318.22 380.61 313.93 383.65 309.40
  C 385.91 306.04 392.44 307.66 391.52 312.40
  A 1.00 0.99 6.6 0 1 390.49 313.20
  L 386.85 313.04
  Q 384.72 312.94 386.44 314.19
  Z
  M 387.27 309.85
  Q 386.95 309.84 386.71 309.96
  Q 385.16 310.74 386.85 311.15
  C 389.54 311.82 388.78 309.88 387.27 309.85
  Z"
/>
<rect fill="#000000" x="-1.51" y="-4.58" transform="translate(394.99,312.33) rotate(-0.2)" width="3.02" height="9.16" rx="0.37"/>
<path fill="#5b7178" d="
  M 387.27 309.85
  C 388.78 309.88 389.54 311.82 386.85 311.15
  Q 385.16 310.74 386.71 309.96
  Q 386.95 309.84 387.27 309.85
  Z"
/>
<rect fill="#5b7178" x="338.48" y="310.25" width="2.48" height="4.22" rx="1.16"/>
<ellipse fill="#5b7178" cx="0.00" cy="0.00" transform="translate(285.46,313.74) rotate(-37.2)" rx="1.16" ry="0.92"/>
<ellipse fill="#5b7178" cx="0.00" cy="0.00" transform="translate(329.11,313.75) rotate(-35.5)" rx="1.26" ry="0.86"/>
</svg>
