<?xml version="1.0" encoding="UTF-8" standalone="no"?>
<svg xmlns="http://www.w3.org/2000/svg" version="1.2" baseProfile="tiny" viewBox="0 0 422 591">
<g stroke-width="1.00" fill="none" stroke-linecap="butt">
<path stroke="#d2ab6f" vector-effect="non-scaling-stroke" d="
  M 111.50 294.04
  L 111.79 294.75"
/>
<path stroke="#aa986f" stroke-opacity="0.910" vector-effect="non-scaling-stroke" d="
  M 129.29 296.50
  L 127.54 297.75"
/>
<path stroke="#d2ab6f" vector-effect="non-scaling-stroke" d="
  M 74.50 291.79
  L 74.75 292.79"
/>
<path stroke="#d2ab6f" vector-effect="non-scaling-stroke" d="
  M 75.75 294.21
  L 76.71 294.25"
/>
<path stroke="#aa986f" stroke-opacity="0.910" vector-effect="non-scaling-stroke" d="
  M 129.50 296.96
  Q 128.53 297.56 128.21 298.75"
/>
<path stroke="#d4a45c" stroke-opacity="0.996" vector-effect="non-scaling-stroke" d="
  M 195.94 337.40
  Q 196.59 337.11 196.21 336.25"
/>
<path stroke="#d09e5c" vector-effect="non-scaling-stroke" d="
  M 346.50 329.04
  L 346.00 328.54"
/>
<path stroke="#cda261" vector-effect="non-scaling-stroke" d="
  M 226.50 380.29
  L 226.29 380.75"
/>
<path stroke="#d1a55a" stroke-opacity="0.996" vector-effect="non-scaling-stroke" d="
  M 216.04 410.50
  L 216.04 411.75"
/>
<path stroke="#d2ab6f" vector-effect="non-scaling-stroke" d="
  M 37.25 295.71
  L 36.75 295.79"
/>
<path stroke="#d2ab6f" vector-effect="non-scaling-stroke" d="
  M 20.25 294.75
  L 21.00 294.71"
/>
<path stroke="#d2ab6f" vector-effect="non-scaling-stroke" d="
  M 357.75 292.29
  L 357.25 292.79"
/>
<path stroke="#d2ab6f" vector-effect="non-scaling-stroke" d="
  M 357.96 294.00
  L 358.65 294.56"
/>
<path stroke="#d2ab6f" vector-effect="non-scaling-stroke" d="
  M 393.75 293.96
  L 394.04 294.50"
/>
<path stroke="#d2ab6f" vector-effect="non-scaling-stroke" d="
  M 412.00 296.71
  Q 410.84 295.88 410.49 297.20
  A 0.80 0.80 0.0 0 1 409.92 297.77
  Q 409.72 297.82 409.50 297.79"
/>
<path stroke="#d2ab6f" vector-effect="non-scaling-stroke" d="
  M 376.25 295.29
  L 375.50 295.04"
/>
<path stroke="#d2ab6f" vector-effect="non-scaling-stroke" d="
  M 319.29 295.50
  L 318.75 295.79"
/>
<path stroke="#aa986f" stroke-opacity="0.910" vector-effect="non-scaling-stroke" d="
  M 285.50 296.54
  L 284.99 296.65
  A 0.64 0.64 0.0 0 0 284.56 297.58
  Q 284.83 298.08 284.79 298.75"
/>
<path stroke="#aa986f" stroke-opacity="0.910" vector-effect="non-scaling-stroke" d="
  M 301.00 295.96
  Q 301.89 296.53 302.42 296.01
  A 0.80 0.79 53.0 0 0 302.55 295.04
  Q 301.99 294.07 300.75 294.54"
/>
<path stroke="#aa986f" stroke-opacity="0.910" vector-effect="non-scaling-stroke" d="
  M 19.54 293.25
  Q 19.62 294.23 18.75 294.54"
/>
<path stroke="#a2895f" stroke-opacity="0.914" vector-effect="non-scaling-stroke" d="
  M 19.79 293.50
  L 20.25 294.75"
/>
<path stroke="#d2ab6f" vector-effect="non-scaling-stroke" d="
  M 373.79 297.50
  Q 373.41 296.35 372.29 296.25"
/>
<path stroke="#d2ab6f" vector-effect="non-scaling-stroke" d="
  M 411.71 297.00
  Q 410.61 297.44 409.99 298.94"
/>
</g>
<path fill="#d89c4c" fill-opacity="0.996" d="
  M 168.82 182.60
  Q 169.75 184.94 170.67 182.60
  Q 174.25 173.55 178.22 165.40
  Q 180.43 160.84 185.49 160.37
  C 186.96 160.23 186.65 160.63 185.82 160.83
  Q 181.19 161.93 179.53 166.08
  A 1.00 1.00 0.0 0 0 180.53 167.45
  L 186.04 167.07
  Q 187.83 166.94 186.99 168.53
  Q 186.52 169.43 186.55 170.56
  C 186.66 174.14 186.23 186.29 187.72 187.21
  Q 188.97 187.98 187.50 187.97
  L 184.24 187.93
  Q 182.34 187.91 183.99 186.97
  L 184.22 186.84
  A 1.01 1.00 -15.0 0 0 184.73 185.97
  L 184.80 169.17
  A 1.00 0.99 85.8 0 0 183.66 168.18
  C 181.79 168.45 176.14 168.70 179.88 172.24
  Q 181.04 173.32 179.50 172.93
  Q 178.79 172.75 178.38 172.21
  A 1.01 1.00 38.5 0 0 176.67 172.40
  L 170.34 186.26
  Q 169.45 188.22 168.53 186.28
  Q 164.67 178.14 161.24 169.86
  Q 160.88 168.99 160.32 168.47
  Q 160.13 168.31 159.94 168.15
  Q 158.84 167.24 160.27 167.24
  L 163.64 167.25
  Q 164.86 167.26 164.00 168.13
  L 163.77 168.36
  A 1.00 0.99 -33.7 0 0 163.55 169.44
  L 168.82 182.60
  Z"
/>
<path fill="#d7a056" fill-opacity="0.996" d="
  M 55.55 167.80
  Q 55.73 167.71 55.90 167.63
  Q 56.72 167.24 57.66 167.24
  Q 64.59 167.26 72.84 167.25
  A 1.00 1.00 0.0 0 1 73.84 168.19
  Q 74.01 171.10 72.65 168.75
  A 1.01 1.00 -15.0 0 0 71.78 168.25
  L 67.25 168.25
  A 1.00 1.00 0.0 0 0 66.25 169.25
  L 66.25 185.99
  A 1.00 0.99 13.9 0 0 66.79 186.87
  L 67.25 187.12
  Q 68.60 187.83 67.08 187.89
  L 64.10 188.02
  Q 62.58 188.08 63.60 186.95
  Q 63.78 186.75 63.93 186.54
  C 64.85 185.24 64.24 171.70 64.22 169.19
  A 1.00 1.00 0.0 0 0 63.21 168.19
  L 57.25 168.28
  Q 54.72 168.32 54.27 170.75
  Q 53.45 175.23 53.35 179.78
  Q 53.28 183.39 52.22 184.99
  C 49.40 189.24 42.14 189.45 39.00 185.61
  C 36.27 182.26 37.17 173.32 37.29 168.97
  A 1.02 1.02 0.0 0 0 36.85 168.11
  L 36.45 167.84
  Q 35.57 167.24 36.64 167.24
  L 40.14 167.26
  Q 41.50 167.26 40.28 167.88
  L 39.82 168.11
  A 1.01 0.99 77.3 0 0 39.27 168.99
  Q 39.11 179.01 39.33 181.67
  C 39.85 187.76 47.92 189.38 50.88 184.39
  C 54.84 177.72 47.23 164.24 58.73 162.28
  Q 59.66 162.12 59.44 162.56
  A 0.36 0.32 -79.2 0 1 59.21 162.74
  Q 55.56 163.45 54.20 166.49
  Q 53.09 168.99 55.55 167.80
  Z"
/>
<path fill="#d89c4c" fill-opacity="0.996" d="
  M 388.07 182.58
  Q 389.83 184.61 389.83 181.93
  Q 389.83 176.50 389.96 170.75
  Q 389.98 169.56 389.57 168.71
  A 1.00 1.00 0.0 0 1 390.50 167.27
  L 391.11 167.29
  Q 392.65 167.34 391.72 168.57
  Q 391.31 169.12 391.30 169.81
  Q 391.19 173.74 391.25 182.71
  C 391.29 188.05 395.25 191.45 400.29 192.33
  Q 401.16 192.48 400.40 192.93
  C 398.57 194.02 393.81 191.42 392.35 189.88
  Q 384.51 181.64 377.00 173.08
  Q 375.24 171.08 375.24 173.74
  L 375.25 185.58
  A 1.00 0.98 18.9 0 0 375.65 186.37
  C 378.95 188.88 373.68 187.94 373.08 187.78
  Q 371.96 187.48 373.08 187.15
  L 373.40 187.05
  A 0.80 0.79 82.6 0 0 373.97 186.30
  Q 374.05 179.83 374.16 173.37
  C 374.24 168.35 371.27 165.29 366.55 164.27
  A 0.99 0.98 -48.9 0 0 366.00 164.31
  Q 364.35 164.91 365.47 163.66
  A 1.00 0.99 -70.5 0 1 366.17 163.32
  Q 370.46 163.14 373.43 166.32
  Q 380.90 174.30 388.07 182.58
  Z"
/>
<path fill="#d7a056" fill-opacity="0.996" d="
  M 333.99 177.18
  L 343.12 177.08
  A 0.99 0.99 0.0 0 0 344.10 176.15
  Q 344.37 172.30 344.29 168.54
  Q 344.25 166.19 345.75 164.94
  Q 349.08 162.18 346.96 165.95
  Q 346.04 167.57 346.03 168.81
  Q 345.96 177.36 346.02 185.89
  A 1.01 1.00 -75.0 0 0 346.52 186.76
  L 346.87 186.95
  Q 348.43 187.84 346.64 187.91
  L 344.09 188.02
  Q 342.54 188.08 343.59 186.94
  Q 343.73 186.80 343.85 186.65
  Q 344.17 186.25 344.21 185.66
  Q 344.47 182.47 344.07 179.34
  A 1.01 1.00 -3.3 0 0 343.08 178.47
  L 333.86 178.40
  A 1.00 1.00 0.0 0 0 332.85 179.38
  Q 332.78 183.71 332.67 188.16
  Q 332.61 190.57 330.87 191.56
  Q 328.26 193.03 330.04 190.62
  Q 330.97 189.36 330.97 188.19
  C 330.99 185.07 331.80 170.42 330.69 168.57
  Q 330.54 168.32 330.34 168.08
  Q 329.65 167.25 330.74 167.25
  L 333.24 167.24
  Q 334.55 167.24 333.58 168.13
  Q 333.30 168.39 333.09 168.70
  Q 332.78 169.17 332.77 169.98
  Q 332.73 173.14 332.98 176.26
  A 1.01 1.00 87.2 0 0 333.99 177.18
  Z"
/>
<path fill="#d7a056" fill-opacity="0.996" d="
  M 275.46 174.14
  L 270.04 186.47
  Q 269.13 188.52 268.21 186.48
  L 263.12 175.22
  Q 261.50 171.64 261.21 175.56
  L 260.43 186.07
  A 1.01 1.01 0.0 0 0 260.69 186.82
  L 261.02 187.18
  Q 261.68 187.89 260.71 187.87
  L 259.05 187.82
  Q 257.37 187.77 258.47 186.50
  Q 258.93 185.96 259.00 185.34
  Q 259.80 178.59 260.38 171.82
  C 260.72 167.85 257.83 165.43 254.28 164.65
  C 253.68 164.52 254.09 164.24 254.37 164.23
  C 258.68 164.07 260.73 166.00 262.64 169.88
  Q 265.79 176.26 268.58 182.73
  Q 269.48 184.82 270.41 182.74
  L 276.58 168.94
  Q 277.72 166.37 278.10 169.15
  Q 279.15 176.89 280.51 184.57
  C 281.28 188.97 282.79 191.74 287.28 192.40
  Q 288.04 192.51 287.83 192.93
  A 0.28 0.27 -75.0 0 1 287.59 193.08
  C 280.44 193.06 278.97 188.65 278.08 182.19
  Q 277.54 178.27 276.98 174.35
  Q 276.58 171.58 275.46 174.14
  Z"
/>
<path fill="#d89c4c" fill-opacity="0.996" d="
  M 213.60 193.16
  L 216.92 193.27
  A 0.33 0.32 -82.6 0 1 217.22 193.67
  Q 217.18 193.88 216.94 193.95
  C 209.44 196.12 206.39 186.38 204.49 181.39
  A 1.01 1.01 0.0 0 0 203.55 180.75
  L 196.87 180.75
  A 1.00 1.00 0.0 0 0 195.93 181.41
  L 194.32 185.88
  A 1.00 1.00 0.0 0 0 194.55 186.93
  L 194.77 187.14
  Q 195.67 188.04 194.39 188.02
  L 191.47 187.95
  Q 189.83 187.91 191.20 187.01
  Q 191.48 186.83 191.73 186.63
  C 193.50 185.21 197.89 173.12 199.10 170.28
  Q 200.41 167.22 197.36 166.75
  Q 196.68 166.64 195.99 166.68
  Q 194.29 166.79 193.86 166.49
  Q 193.25 166.07 193.98 165.91
  Q 200.95 164.32 203.20 171.17
  C 205.67 178.69 207.60 186.49 212.87 192.81
  A 0.98 0.96 -18.6 0 0 213.60 193.16
  Z
  M 197.04 178.86
  A 0.44 0.44 0.0 0 0 197.44 179.46
  L 203.31 179.54
  A 0.44 0.44 0.0 0 0 203.73 178.96
  L 200.91 170.89
  A 0.44 0.44 0.0 0 0 200.08 170.88
  L 197.04 178.86
  Z"
/>
<path fill="#d7a056" fill-opacity="0.996" d="
  M 228.69 179.87
  L 234.46 186.30
  Q 236.78 188.88 238.07 185.81
  L 245.07 169.01
  A 1.00 0.99 -56.9 0 0 244.84 167.91
  Q 242.69 165.84 239.76 166.76
  A 0.21 0.21 0.0 0 1 239.49 166.53
  L 239.52 166.24
  A 0.51 0.51 0.0 0 1 239.95 165.80
  Q 247.01 164.70 248.80 171.72
  Q 249.40 174.07 253.52 184.68
  C 254.97 188.43 257.56 193.51 262.31 193.29
  Q 262.90 193.26 262.61 193.77
  Q 262.53 193.93 262.36 194.04
  Q 262.22 194.15 261.99 194.16
  C 254.39 194.53 251.95 187.05 249.96 181.42
  A 0.99 0.99 0.0 0 0 249.02 180.75
  L 242.49 180.75
  A 0.99 0.99 0.0 0 0 241.57 181.37
  L 239.77 185.75
  A 1.01 1.01 0.0 0 0 239.92 186.76
  Q 241.40 188.58 237.98 187.96
  Q 237.75 187.91 237.55 187.92
  Q 236.16 187.97 237.10 188.99
  Q 239.97 192.14 244.27 192.61
  A 0.22 0.21 7.9 0 1 244.46 192.85
  C 244.12 195.08 236.50 191.27 236.02 190.73
  Q 230.37 184.49 225.07 178.82
  Q 223.85 177.51 225.64 177.47
  Q 227.87 177.42 229.03 176.16
  Q 230.16 174.92 230.08 172.56
  Q 229.89 167.58 223.80 168.32
  A 1.00 0.99 85.9 0 0 222.93 169.33
  C 223.01 174.52 223.37 180.16 222.86 185.29
  Q 222.77 186.16 223.13 186.65
  Q 223.98 187.80 222.55 187.92
  Q 221.50 188.00 220.62 187.90
  Q 218.46 187.65 220.50 186.91
  L 220.80 186.80
  A 0.40 0.39 81.0 0 0 221.07 186.42
  L 220.97 169.13
  A 1.00 0.99 18.0 0 0 220.55 168.32
  L 220.15 168.03
  Q 219.18 167.33 220.38 167.29
  C 225.60 167.11 233.10 166.29 232.18 173.63
  Q 231.79 176.77 228.95 178.33
  A 1.00 0.99 -35.6 0 0 228.69 179.87
  Z
  M 242.54 178.69
  A 0.56 0.56 0.0 0 0 243.06 179.45
  L 248.70 179.56
  A 0.56 0.56 0.0 0 0 249.24 178.82
  L 246.57 170.99
  A 0.56 0.56 0.0 0 0 245.51 170.97
  L 242.54 178.69
  Z"
/>
<path fill="#d7a056" fill-opacity="0.996" d="
  M 285.78 187.95
  Q 285.35 188.07 284.93 188.09
  Q 282.81 188.16 284.35 186.70
  Q 284.89 186.20 285.18 185.48
  Q 288.51 177.20 292.06 169.01
  A 1.01 1.01 0.0 0 0 291.79 167.86
  Q 289.74 166.07 286.97 166.57
  A 0.33 0.32 71.1 0 1 286.63 166.40
  Q 286.37 165.92 287.32 165.78
  C 300.58 163.81 296.81 194.05 309.12 193.29
  A 0.42 0.41 -3.5 0 1 309.56 193.67
  Q 309.58 193.99 309.23 194.05
  C 302.03 195.23 298.69 186.95 297.07 181.47
  A 1.00 1.00 0.0 0 0 296.11 180.75
  L 289.38 180.75
  A 1.00 0.99 10.0 0 0 288.44 181.40
  L 286.82 185.80
  A 0.99 0.99 0.0 0 0 287.04 186.84
  C 288.49 188.33 286.23 187.82 285.78 187.95
  Z
  M 289.55 178.78
  A 0.51 0.51 0.0 0 0 290.02 179.47
  L 295.70 179.52
  A 0.51 0.51 0.0 0 0 296.18 178.84
  L 293.42 170.99
  A 0.51 0.51 0.0 0 0 292.46 170.98
  L 289.55 178.78
  Z"
/>
<path fill="#d7a056" fill-opacity="0.996" d="
  M 363.66 180.83
  L 356.90 180.63
  A 1.00 0.99 -78.9 0 0 355.94 181.28
  L 354.16 185.94
  A 1.00 1.00 0.0 0 0 354.38 187.00
  L 354.71 187.33
  Q 355.42 188.06 354.40 188.03
  L 351.52 187.94
  Q 349.42 187.87 351.32 186.96
  L 351.84 186.72
  A 1.03 1.03 0.0 0 0 352.34 186.19
  L 359.45 168.93
  A 1.01 1.01 0.0 0 0 359.16 167.78
  Q 356.93 165.90 354.08 166.80
  A 0.26 0.26 0.0 0 1 353.74 166.55
  L 353.75 166.25
  A 0.32 0.31 -7.2 0 1 353.99 165.95
  Q 360.34 164.15 362.64 170.34
  Q 365.81 178.89 368.36 185.80
  Q 369.19 188.05 371.37 190.91
  Q 373.41 193.59 377.01 193.21
  Q 377.73 193.13 377.22 193.65
  L 376.98 193.90
  A 0.66 0.59 17.1 0 1 376.57 194.09
  C 368.82 194.65 366.47 187.28 364.58 181.51
  A 1.00 0.99 -8.3 0 0 363.66 180.83
  Z
  M 356.91 178.89
  A 0.39 0.39 0.0 0 0 357.27 179.42
  L 363.31 179.57
  A 0.39 0.39 0.0 0 0 363.69 179.06
  L 360.87 170.55
  A 0.39 0.39 0.0 0 0 360.14 170.53
  L 356.91 178.89
  Z"
/>
<path fill="#d89c4c" fill-opacity="0.996" d="
  M 22.71 186.70
  L 23.12 186.98
  Q 24.39 187.86 22.85 187.92
  L 20.10 188.02
  Q 18.61 188.08 19.60 186.96
  Q 19.78 186.76 19.92 186.55
  C 21.00 184.96 20.11 172.10 19.97 169.44
  A 1.00 0.98 13.7 0 0 19.47 168.64
  L 19.22 168.49
  Q 18.53 168.08 19.31 167.89
  C 42.30 162.35 31.14 187.28 23.18 177.33
  A 0.51 0.50 31.7 0 1 23.08 176.93
  Q 23.19 176.26 23.86 176.86
  C 31.54 183.76 34.92 164.30 22.92 168.41
  A 1.00 0.99 -9.5 0 0 22.24 169.35
  L 22.27 185.88
  A 1.01 0.98 17.6 0 0 22.71 186.70
  Z"
/>
<path fill="#d1a152" fill-opacity="0.996" d="
  M 80.17 186.86
  C 83.02 188.28 79.04 187.95 78.48 187.99
  Q 74.69 188.27 77.24 186.66
  A 0.99 0.98 -16.2 0 0 77.70 185.83
  Q 77.85 173.95 77.74 170.02
  Q 77.72 169.33 77.41 168.73
  A 1.00 1.00 0.0 0 1 78.25 167.27
  Q 80.63 167.17 82.99 167.28
  C 87.94 167.51 90.89 171.82 88.14 176.07
  Q 87.18 177.55 85.59 178.39
  A 1.00 1.00 0.0 0 0 85.32 179.96
  L 94.87 190.12
  Q 96.62 191.98 99.23 192.30
  Q 103.32 192.80 99.23 193.32
  C 96.29 193.69 93.04 191.14 90.84 188.71
  Q 86.49 183.89 82.07 179.14
  Q 80.80 177.78 82.64 177.48
  Q 88.84 176.47 85.91 169.43
  A 1.02 1.02 0.0 0 0 85.38 168.90
  Q 82.96 167.85 80.33 168.33
  A 1.01 1.00 84.9 0 0 79.51 169.32
  L 79.62 185.97
  A 1.00 0.98 -77.1 0 0 80.17 186.86
  Z"
/>
<path fill="#d7a056" fill-opacity="0.996" d="
  M 96.71 168.12
  C 95.09 168.43 88.87 168.83 92.91 172.21
  Q 93.70 172.87 92.67 172.93
  C 90.32 173.07 89.64 168.16 94.01 167.55
  Q 97.09 167.11 100.20 167.25
  Q 101.43 167.31 100.42 168.00
  L 100.18 168.16
  A 1.02 1.00 72.8 0 0 99.75 168.99
  L 99.75 185.91
  A 1.01 1.01 0.0 0 0 100.20 186.75
  L 100.71 187.08
  Q 102.22 188.06 100.42 188.02
  L 98.03 187.96
  Q 96.61 187.93 97.37 186.73
  Q 97.78 186.10 97.77 185.01
  Q 97.64 177.06 97.90 169.13
  A 1.00 0.99 85.2 0 0 96.71 168.12
  Z"
/>
<path fill="#d89c4c" fill-opacity="0.996" d="
  M 115.45 182.76
  C 118.88 188.91 127.90 188.83 131.51 183.03
  C 135.52 176.60 131.94 166.68 123.27 167.99
  C 120.19 168.45 118.04 173.44 117.78 173.47
  A 0.21 0.21 0.0 0 1 117.55 173.24
  C 119.02 160.37 141.86 169.14 133.94 182.79
  C 127.94 193.13 109.80 188.70 111.86 175.42
  Q 112.33 172.44 114.19 170.34
  Q 117.85 166.21 115.23 171.07
  Q 112.13 176.82 115.45 182.76
  Z"
/>
<path fill="#d49844" fill-opacity="0.996" d="
  M 140.23 186.29
  C 140.40 183.74 141.21 169.76 139.98 168.34
  Q 139.80 168.14 139.59 167.98
  Q 138.67 167.25 139.85 167.25
  L 142.66 167.24
  Q 144.27 167.24 143.10 168.35
  L 142.81 168.62
  A 1.02 1.01 -22.1 0 0 142.50 169.35
  L 142.50 187.02
  A 1.00 1.00 0.0 0 0 143.08 187.93
  C 148.78 190.54 156.50 193.19 162.82 191.51
  Q 163.67 191.28 162.82 191.79
  C 154.42 196.78 146.86 190.62 139.10 187.79
  Q 138.35 187.52 139.11 187.30
  L 139.52 187.18
  A 1.00 0.99 -6.8 0 0 140.23 186.29
  Z"
/>
<path fill="#d89c4c" fill-opacity="0.996" d="
  M 155.88 186.82
  C 157.96 187.72 155.73 188.03 155.13 188.00
  Q 153.96 187.95 152.76 187.94
  Q 150.93 187.94 152.50 186.99
  L 152.77 186.83
  A 0.99 0.99 0.0 0 0 153.25 185.98
  L 153.25 169.25
  A 1.00 1.00 0.0 0 0 152.39 168.26
  Q 149.69 167.88 147.67 169.61
  A 1.00 0.99 -38.9 0 0 147.52 170.96
  L 148.49 172.27
  A 0.52 0.51 44.5 0 1 148.50 172.87
  C 147.84 173.83 143.61 169.99 148.25 167.71
  Q 149.98 166.85 155.79 167.26
  Q 156.96 167.35 155.99 168.01
  L 155.67 168.23
  A 1.02 1.00 72.8 0 0 155.24 169.06
  L 155.27 185.90
  A 1.04 1.02 11.8 0 0 155.88 186.82
  Z"
/>
<path fill="#d7a056" fill-opacity="0.996" d="
  M 307.23 186.21
  L 307.26 169.36
  A 1.00 1.00 0.0 0 0 306.28 168.36
  Q 302.74 168.30 300.81 171.18
  C 300.40 171.78 299.73 171.56 300.12 170.82
  C 302.60 166.07 310.78 167.11 315.48 167.35
  C 326.24 167.89 329.37 181.85 320.30 186.70
  C 316.47 188.74 310.85 188.07 306.40 187.77
  Q 305.50 187.71 306.23 187.18
  Q 306.41 187.04 306.63 186.98
  A 0.79 0.79 0.0 0 0 307.23 186.21
  Z
  M 309.50 169.28
  C 309.54 175.02 309.20 180.49 309.29 185.89
  A 1.00 0.99 -87.4 0 0 310.18 186.87
  Q 313.50 187.24 315.27 187.04
  Q 323.00 186.18 323.22 178.00
  C 323.44 169.58 317.58 167.62 310.41 168.28
  A 1.00 0.99 -2.8 0 0 309.50 169.28
  Z"
/>
<path fill="#d7a056" fill-opacity="0.996" d="
  M 402.49 186.86
  Q 402.70 186.92 402.87 187.04
  Q 404.16 187.91 402.60 187.97
  Q 401.16 188.02 399.67 188.01
  C 399.01 188.01 397.66 187.61 399.15 186.94
  A 1.00 1.00 0.0 0 0 399.73 186.03
  L 399.79 169.33
  A 1.01 1.00 -87.2 0 0 398.89 168.33
  C 397.21 168.17 390.77 169.24 395.10 172.18
  C 396.35 173.03 394.32 172.77 393.99 172.51
  Q 391.79 170.79 393.54 168.34
  A 0.95 0.94 11.0 0 1 394.11 167.96
  Q 398.40 166.89 402.83 167.30
  Q 403.76 167.39 402.92 167.80
  L 402.57 167.97
  A 1.00 1.00 0.0 0 0 402.01 168.85
  L 401.78 185.89
  A 1.00 0.99 -81.6 0 0 402.49 186.86
  Z"
/>
<path fill="#d1a862" fill-opacity="0.996" d="
  M 118.10 217.63
  L 118.10 214.28
  A 1.00 1.00 0.0 0 1 119.10 213.28
  L 119.39 213.28
  A 0.64 0.64 0.0 0 1 120.03 213.93
  L 119.90 226.50
  A 0.98 0.98 0.0 0 0 120.15 227.18
  Q 122.61 229.96 118.46 228.24
  Q 117.40 227.81 115.96 228.81
  A 0.98 0.97 30.8 0 1 115.27 228.98
  Q 112.02 228.62 111.57 225.23
  Q 110.68 218.43 117.07 218.63
  A 1.00 1.00 0.0 0 0 118.10 217.63
  Z
  M 117.21 219.99
  Q 116.10 219.73 115.19 219.96
  C 112.06 220.74 111.96 226.68 115.18 227.48
  C 119.34 228.52 118.26 222.81 117.96 220.82
  A 1.01 1.00 -87.5 0 0 117.21 219.99
  Z"
/>
<path fill="#d1a152" fill-opacity="0.996" d="
  M 195.91 226.16
  Q 195.92 226.45 195.96 226.76
  C 196.05 227.60 196.07 229.49 194.77 228.91
  A 1.01 1.00 -78.4 0 1 194.17 227.99
  L 194.29 214.25
  A 0.99 0.99 0.0 0 1 194.58 213.55
  Q 195.55 212.58 195.73 214.53
  Q 196.03 217.88 195.96 221.16
  Q 195.89 224.08 197.73 221.82
  Q 198.79 220.52 199.89 219.27
  C 200.42 218.67 202.41 218.32 201.08 219.81
  Q 199.70 221.36 198.51 223.00
  A 1.01 1.00 -46.6 0 0 198.54 224.23
  L 201.80 228.19
  A 0.54 0.52 -53.3 0 1 201.87 228.72
  C 201.62 229.33 200.82 229.20 200.42 228.77
  Q 198.99 227.21 197.70 225.51
  Q 195.73 222.89 195.91 226.16
  Z"
/>
<path fill="#d7a056" fill-opacity="0.996" d="
  M 247.04 218.58
  A 1.00 1.00 0.0 0 0 248.14 217.27
  Q 247.48 215.30 248.27 213.99
  Q 249.75 211.53 249.75 214.40
  L 249.75 226.49
  A 1.01 1.00 -78.4 0 0 250.35 227.41
  Q 251.98 228.11 250.50 228.90
  A 1.00 0.99 52.3 0 1 249.36 228.75
  Q 247.79 227.32 246.22 228.80
  A 1.03 1.02 26.8 0 1 245.42 229.06
  C 238.90 228.28 240.34 217.56 247.04 218.58
  Z
  M 248.0717 221.8840
  A 2.12 2.12 0.0 0 0 245.9297 219.7863
  L 245.1897 219.7941
  A 2.12 2.12 0.0 0 0 243.0920 221.9362
  L 243.1283 225.3960
  A 2.12 2.12 0.0 0 0 245.2703 227.4937
  L 246.0103 227.4859
  A 2.12 2.12 0.0 0 0 248.1080 225.3438
  L 248.0717 221.8840
  Z"
/>
<ellipse fill="#d1a862" fill-opacity="0.996" cx="0.00" cy="0.00" transform="translate(142.12,215.27) rotate(92.8)" rx="1.17" ry="0.93"/>
<ellipse fill="#d1a862" fill-opacity="0.996" cx="0.00" cy="0.00" transform="translate(103.92,215.27) rotate(98.2)" rx="1.06" ry="0.92"/>
<circle fill="#d1a862" fill-opacity="0.996" cx="254.48" cy="215.33" r="1.15"/>
<path fill="#d49844" fill-opacity="0.996" d="
  M 157.56 222.07
  Q 157.82 222.21 158.16 222.26
  A 1.00 1.00 0.0 0 1 158.81 222.67
  C 160.30 224.74 159.71 227.23 157.31 228.31
  Q 154.56 229.53 151.49 228.86
  A 1.00 0.99 -84.2 0 1 150.71 227.90
  L 150.54 215.71
  A 1.00 1.00 0.0 0 1 151.32 214.72
  C 154.69 213.95 162.44 216.25 157.41 220.77
  A 0.81 0.80 38.6 0 0 157.56 222.07
  Z
  M 156.56 216.85
  Q 150.70 214.62 152.40 220.30
  A 1.00 1.00 0.0 0 0 153.20 221.00
  Q 156.06 221.46 157.16 218.10
  A 1.01 1.01 0.0 0 0 156.56 216.85
  Z
  M 154.85 227.49
  C 159.88 226.56 157.57 221.38 153.09 222.56
  A 1.01 1.01 0.0 0 0 152.38 223.23
  Q 150.87 228.21 154.85 227.49
  Z"
/>
<path fill="#d1a152" fill-opacity="0.996" d="
  M 210.02 224.73
  Q 209.96 226.18 210.01 227.64
  C 210.03 228.38 209.68 229.50 208.75 228.96
  A 1.01 1.00 -75.0 0 1 208.25 228.09
  L 208.25 215.61
  A 1.00 1.00 0.0 0 1 209.10 214.62
  Q 212.39 214.12 215.51 215.32
  A 1.06 1.06 0.0 0 1 216.03 215.78
  Q 218.35 220.10 214.80 222.80
  A 1.00 1.00 0.0 0 0 214.58 224.18
  L 217.27 227.95
  A 0.65 0.65 0.0 0 1 217.10 228.86
  L 216.85 229.02
  A 0.80 0.80 0.0 0 1 215.75 228.79
  L 212.70 224.27
  A 1.01 1.00 75.3 0 0 211.95 223.83
  L 211.10 223.77
  A 1.00 0.99 -86.4 0 0 210.02 224.73
  Z
  M 214.55 217.19
  Q 212.90 216.01 210.89 216.23
  A 1.01 1.00 86.8 0 0 210.00 217.23
  L 210.00 221.26
  A 0.99 0.99 0.0 0 0 210.90 222.25
  Q 215.55 222.71 214.97 217.88
  A 1.04 1.01 14.6 0 0 214.55 217.19
  Z"
/>
<path fill="#d89c4c" fill-opacity="0.996" d="
  M 262.53 216.74
  Q 265.17 213.49 269.37 215.07
  A 0.98 0.97 89.2 0 1 269.94 215.63
  Q 270.34 216.65 269.45 216.98
  A 0.83 0.78 -37.1 0 1 268.73 216.90
  Q 265.21 214.56 263.91 218.29
  A 1.00 0.99 -64.4 0 0 264.32 219.47
  L 269.08 222.44
  Q 271.83 224.14 270.18 226.45
  Q 267.21 230.60 262.08 228.23
  A 0.52 0.51 -68.9 0 1 261.81 227.61
  L 261.90 227.29
  A 0.81 0.80 -66.4 0 1 263.07 226.83
  C 265.55 228.25 270.36 227.48 267.76 223.69
  Q 267.62 223.49 267.40 223.38
  L 263.16 221.10
  Q 260.25 219.54 262.53 216.74
  Z"
/>
<path fill="#d7a056" fill-opacity="0.996" d="
  M 67.10 214.80
  C 78.79 213.07 75.33 225.25 69.05 223.89
  Q 67.32 223.52 67.89 225.18
  Q 68.54 227.12 67.72 228.38
  Q 66.25 230.63 66.25 227.94
  L 66.25 215.79
  A 1.00 0.99 86.0 0 1 67.10 214.80
  Z
  M 72.54 217.18
  Q 70.90 216.01 68.89 216.23
  A 1.01 1.00 86.8 0 0 68.00 217.23
  L 68.00 221.51
  A 1.00 1.00 0.0 0 0 68.92 222.51
  Q 73.62 222.86 72.96 217.87
  A 1.04 1.01 14.6 0 0 72.54 217.18
  Z"
/>
<path fill="#d7a056" fill-opacity="0.996" d="
  M 92.03 218.95
  Q 95.86 219.09 91.54 219.99
  A 1.00 1.00 0.0 0 0 90.75 220.97
  L 90.75 226.50
  A 0.99 0.99 0.0 0 0 91.78 227.49
  L 93.14 227.45
  A 0.51 0.50 -3.5 0 1 93.67 227.91
  C 93.80 229.36 88.48 230.06 89.27 225.24
  Q 89.40 224.49 89.19 220.82
  A 0.99 0.99 0.0 0 0 88.36 219.89
  Q 86.71 219.60 88.16 218.97
  Q 88.40 218.87 88.56 218.65
  L 89.28 217.69
  Q 90.25 216.38 90.69 217.95
  Q 90.82 218.40 91.17 218.69
  Q 91.46 218.93 92.03 218.95
  Z"
/>
<path fill="#d49844" fill-opacity="0.996" d="
  M 314.11 227.60
  Q 313.10 226.76 314.01 225.80
  A 1.00 0.99 -36.5 0 0 314.18 224.66
  C 310.49 217.37 319.02 219.59 322.07 218.48
  Q 323.08 218.11 322.73 219.12
  Q 322.53 219.74 321.75 219.84
  A 1.01 1.00 -6.5 0 0 320.88 220.93
  Q 321.41 226.42 315.39 225.66
  A 0.41 0.41 0.0 0 0 314.95 226.20
  L 315.07 226.53
  A 1.01 1.01 0.0 0 0 315.99 227.20
  C 327.45 227.52 318.75 236.44 313.97 232.30
  Q 312.23 230.81 314.13 229.12
  A 1.01 1.01 0.0 0 0 314.11 227.60
  Z
  M 319.61 222.08
  A 2.40 2.40 0.0 0 0 317.21 219.68
  A 2.40 2.40 0.0 0 0 314.81 222.08
  A 2.40 2.40 0.0 0 0 317.21 224.48
  A 2.40 2.40 0.0 0 0 319.61 222.08
  Z
  M 319.9230 230.2181
  A 2.62 1.71 -4.2 0 0 317.1848 228.7046
  A 2.62 1.71 -4.2 0 0 314.6970 230.6019
  A 2.62 1.71 -4.2 0 0 317.4352 232.1154
  A 2.62 1.71 -4.2 0 0 319.9230 230.2181
  Z"
/>
<path fill="#d1a152" fill-opacity="0.996" d="
  M 83.27 226.41
  C 83.34 225.88 83.12 218.25 84.46 218.93
  A 1.00 1.00 0.0 0 1 85.00 219.82
  L 85.00 226.70
  A 1.00 0.99 5.7 0 0 85.80 227.67
  L 86.04 227.73
  Q 87.42 228.01 86.18 228.68
  Q 84.84 229.40 83.88 228.30
  A 1.00 1.00 0.0 0 0 82.57 228.13
  Q 79.82 230.00 78.20 228.10
  C 76.66 226.30 77.27 222.20 77.27 219.75
  A 1.00 0.99 -18.9 0 1 77.66 218.96
  C 80.65 216.63 75.55 230.51 82.70 227.19
  A 1.03 1.00 82.1 0 0 83.27 226.41
  Z"
/>
<path fill="#d1a152" fill-opacity="0.996" d="
  M 98.91 219.41
  L 100.46 218.63
  A 0.41 0.41 0.0 0 1 101.04 218.90
  L 101.13 219.27
  A 1.00 1.00 0.0 0 1 100.31 220.49
  C 95.29 221.23 99.12 229.45 96.67 228.99
  A 0.79 0.79 0.0 0 1 96.02 228.21
  C 96.02 227.46 94.97 216.69 97.79 219.25
  A 1.00 0.98 52.7 0 0 98.91 219.41
  Z"
/>
<rect fill="#ca9d61" x="-0.87" y="-5.11" transform="translate(103.88,223.86) rotate(0.2)" width="1.74" height="10.22" rx="0.84"/>
<path fill="#d1a152" fill-opacity="0.996" d="
  M 130.61 227.51
  Q 130.88 227.69 131.06 227.92
  A 0.64 0.64 0.0 0 1 130.66 228.94
  Q 129.65 229.12 128.97 228.36
  A 1.01 1.00 55.0 0 0 127.74 228.14
  L 126.26 228.94
  A 0.99 0.96 32.8 0 1 125.70 229.05
  Q 122.52 228.76 122.79 225.66
  A 1.00 0.98 77.0 0 1 123.26 224.89
  Q 125.00 223.82 126.93 223.41
  C 130.68 222.63 127.48 217.65 124.35 220.83
  A 0.64 0.64 0.0 0 1 123.29 220.60
  L 123.18 220.28
  A 0.80 0.80 0.0 0 1 123.75 219.23
  C 132.39 217.20 129.26 222.01 130.19 226.87
  A 1.05 1.02 12.6 0 0 130.61 227.51
  Z
  M 128.3906 225.4527
  A 2.03 1.35 -18.0 0 0 126.0428 224.7961
  A 2.03 1.35 -18.0 0 0 124.5294 226.7073
  A 2.03 1.35 -18.0 0 0 126.8772 227.3639
  A 2.03 1.35 -18.0 0 0 128.3906 225.4527
  Z"
/>
<path fill="#d1a152" fill-opacity="0.996" d="
  M 136.86 219.36
  L 138.34 218.77
  A 0.51 0.51 0.0 0 1 139.04 219.21
  L 139.06 219.47
  A 1.00 1.00 0.0 0 1 138.22 220.51
  C 135.05 221.04 135.24 225.18 135.60 227.85
  A 1.01 1.00 -10.5 0 1 134.83 228.96
  L 134.50 229.03
  A 0.41 0.41 0.0 0 1 134.00 228.63
  L 134.00 220.05
  A 1.00 0.99 -81.1 0 1 135.30 219.10
  L 136.19 219.38
  A 1.00 0.99 43.0 0 0 136.86 219.36
  Z"
/>
<rect fill="#d7a056" fill-opacity="0.996" x="-0.88" y="-5.13" transform="translate(142.13,223.90) rotate(0.1)" width="1.76" height="10.26" rx="0.77"/>
<path fill="#d49844" fill-opacity="0.996" d="
  M 169.06 227.24
  Q 169.78 227.63 169.77 228.31
  A 0.80 0.80 0.0 0 1 168.63 229.02
  L 166.83 228.18
  A 0.98 0.98 0.0 0 0 165.82 228.27
  Q 163.18 230.21 161.46 227.27
  Q 160.17 225.07 162.77 224.27
  L 166.23 223.20
  A 1.01 1.00 -12.1 0 0 166.93 222.12
  C 166.29 216.83 161.70 222.66 161.77 220.37
  A 1.00 0.99 75.5 0 1 162.26 219.53
  Q 165.71 217.54 168.49 220.05
  A 1.02 1.01 22.6 0 1 168.82 220.84
  L 168.53 226.30
  A 1.02 1.01 -74.7 0 0 169.06 227.24
  Z
  M 166.9553 225.3653
  A 2.11 1.34 -19.8 0 0 164.5161 224.8192
  A 2.11 1.34 -19.8 0 0 162.9847 226.7947
  A 2.11 1.34 -19.8 0 0 165.4239 227.3408
  A 2.11 1.34 -19.8 0 0 166.9553 225.3653
  Z"
/>
<path fill="#d49844" fill-opacity="0.996" d="
  M 175.10 219.43
  C 179.88 217.30 181.70 221.62 180.81 225.33
  Q 179.85 229.35 175.05 229.06
  A 1.00 1.00 0.0 0 0 174.08 230.47
  Q 174.80 232.07 173.82 232.92
  Q 172.50 234.06 172.50 232.31
  L 172.50 220.20
  A 1.00 1.00 0.0 0 1 173.87 219.27
  L 174.32 219.45
  A 0.99 0.96 -45.7 0 0 175.10 219.43
  Z
  M 179.2105 222.2807
  A 2.18 2.18 0.0 0 0 177.0573 220.0742
  L 176.4173 220.0664
  A 2.18 2.18 0.0 0 0 174.2108 222.2196
  L 174.1695 225.5993
  A 2.18 2.18 0.0 0 0 176.3227 227.8058
  L 176.9627 227.8136
  A 2.18 2.18 0.0 0 0 179.1692 225.6604
  L 179.2105 222.2807
  Z"
/>
<path fill="#d49844" fill-opacity="0.996" d="
  M 190.55 227.26
  C 193.20 229.37 189.75 228.90 188.74 228.24
  A 1.01 1.00 -45.3 0 0 187.62 228.25
  Q 184.39 230.48 182.58 226.20
  A 1.00 1.00 0.0 0 1 183.16 224.86
  L 187.95 223.15
  A 1.02 1.01 74.1 0 0 188.59 221.99
  L 188.23 220.37
  A 0.99 0.99 0.0 0 0 186.87 219.66
  L 183.77 220.96
  A 0.33 0.32 -22.1 0 1 183.33 220.78
  C 182.48 218.50 188.38 218.62 189.91 219.88
  A 0.99 0.97 -70.5 0 1 190.28 220.67
  L 190.17 226.46
  A 1.03 1.03 0.0 0 0 190.55 227.26
  Z
  M 188.4548 225.2693
  A 2.01 1.29 -24.1 0 0 186.0933 224.9124
  A 2.01 1.29 -24.1 0 0 184.7852 226.9107
  A 2.01 1.29 -24.1 0 0 187.1467 227.2676
  A 2.01 1.29 -24.1 0 0 188.4548 225.2693
  Z"
/>
<path fill="#d1a152" fill-opacity="0.996" d="
  M 222.06 226.94
  Q 223.75 228.32 226.08 227.42
  C 227.73 226.79 227.88 228.22 226.58 228.62
  C 221.22 230.25 217.90 226.05 219.93 221.35
  C 221.63 217.40 228.40 217.84 227.74 222.88
  A 1.00 0.99 3.6 0 1 226.75 223.75
  L 222.21 223.75
  A 1.00 1.00 0.0 0 0 221.21 224.67
  Q 221.09 226.14 222.06 226.94
  Z
  M 225.31 220.19
  Q 222.75 219.01 221.88 221.12
  A 1.00 1.00 0.0 0 0 222.81 222.50
  L 225.23 222.50
  A 1.00 0.99 5.2 0 0 226.21 221.69
  Q 226.40 220.69 225.31 220.19
  Z"
/>
<path fill="#d49844" fill-opacity="0.996" d="
  M 235.80 220.16
  C 230.94 219.34 232.16 225.30 232.23 227.80
  A 1.00 0.99 -87.1 0 1 231.11 228.82
  L 230.81 228.78
  A 1.04 0.10 -89.9 0 1 230.71 227.75
  L 230.71 219.64
  A 0.64 0.64 0.0 0 1 231.51 219.02
  Q 231.84 219.11 232.07 219.42
  A 0.81 0.81 0.0 0 0 233.17 219.60
  Q 235.79 217.78 238.26 219.94
  A 1.04 1.02 20.8 0 1 238.60 220.68
  L 238.73 227.95
  A 1.00 0.99 83.4 0 1 237.94 228.95
  Q 236.51 229.26 236.81 227.32
  Q 237.36 223.86 236.60 220.90
  A 1.00 1.00 0.0 0 0 235.80 220.16
  Z"
/>
<rect fill="#ca9d61" x="-0.94" y="-5.09" transform="translate(254.50,223.88) rotate(0.5)" width="1.88" height="10.18" rx="0.59"/>
<path fill="#d89c4c" fill-opacity="0.996" d="
  M 276.5043 229.1512
  A 5.31 4.46 93.3 0 1 272.3574 223.5933
  A 5.31 4.46 93.3 0 1 277.1157 218.5488
  A 5.31 4.46 93.3 0 1 281.2626 224.1067
  A 5.31 4.46 93.3 0 1 276.5043 229.1512
  Z
  M 276.9791 227.9380
  A 4.11 2.93 88.2 0 0 279.7786 223.7380
  A 4.11 2.93 88.2 0 0 276.7209 219.7220
  A 4.11 2.93 88.2 0 0 273.9214 223.9220
  A 4.11 2.93 88.2 0 0 276.9791 227.9380
  Z"
/>
<path fill="#d1a152" fill-opacity="0.996" d="
  M 286.96 219.58
  Q 287.28 219.48 287.57 219.31
  C 288.17 218.94 289.59 218.56 289.23 219.81
  A 0.80 0.79 1.8 0 1 288.63 220.37
  C 285.09 221.10 285.99 225.23 285.98 227.83
  A 1.01 1.01 0.0 0 1 284.80 228.82
  L 284.50 228.76
  A 0.51 0.50 -84.8 0 1 284.08 228.25
  L 284.13 219.68
  A 0.80 0.78 67.9 0 1 284.36 219.12
  Q 285.08 218.39 285.95 219.31
  A 0.99 0.99 0.0 0 0 286.96 219.58
  Z"
/>
<path fill="#d49844" fill-opacity="0.996" d="
  M 294.7201 229.1936
  A 5.32 4.57 92.8 0 1 290.4155 223.6568
  A 5.32 4.57 92.8 0 1 295.2399 218.5664
  A 5.32 4.57 92.8 0 1 299.5445 224.1032
  A 5.32 4.57 92.8 0 1 294.7201 229.1936
  Z
  M 295.0095 227.9792
  A 4.14 2.96 88.9 0 0 297.8895 223.7832
  A 4.14 2.96 88.9 0 0 294.8505 219.7008
  A 4.14 2.96 88.9 0 0 291.9705 223.8968
  A 4.14 2.96 88.9 0 0 295.0095 227.9792
  Z"
/>
<path fill="#d49844" fill-opacity="0.996" d="
  M 305.24 219.38
  Q 307.71 217.87 309.83 219.97
  A 1.03 1.03 0.0 0 1 310.13 220.67
  L 310.22 227.82
  A 1.00 0.99 3.3 0 1 309.09 228.82
  L 308.80 228.78
  A 0.26 0.26 0.0 0 1 308.57 228.51
  L 308.83 221.77
  A 1.06 1.06 0.0 0 0 308.57 221.05
  Q 306.39 218.67 304.20 221.56
  A 1.02 0.99 -27.4 0 0 304.00 222.16
  L 304.00 228.38
  A 0.51 0.51 0.0 0 1 303.49 228.89
  L 303.16 228.89
  A 1.00 0.99 -90.0 0 1 302.16 227.88
  L 302.28 220.08
  A 1.00 1.00 0.0 0 1 303.66 219.17
  L 304.33 219.45
  A 1.00 0.99 -49.0 0 0 305.24 219.38
  Z"
/>
<path fill="#d49844" fill-opacity="0.996" d="
  M 328.42 228.14
  L 327.21 228.92
  A 1.02 1.00 33.5 0 1 326.49 229.06
  Q 322.88 228.43 324.17 224.96
  A 0.99 0.99 0.0 0 1 324.83 224.34
  L 328.73 223.23
  A 1.00 0.99 81.2 0 0 329.45 222.23
  C 329.23 216.55 324.04 222.50 324.18 220.34
  A 1.00 0.99 77.8 0 1 324.69 219.54
  Q 327.43 218.01 330.19 219.33
  A 1.02 1.01 -76.8 0 1 330.75 220.24
  L 330.75 226.64
  A 0.81 0.81 0.0 0 0 331.17 227.35
  L 331.40 227.47
  Q 333.44 228.55 331.17 228.96
  Q 330.43 229.10 329.69 228.30
  A 1.00 1.00 0.0 0 0 328.42 228.14
  Z
  M 329.5502 225.2099
  A 2.32 1.33 -20.7 0 0 326.9099 224.7859
  A 2.32 1.33 -20.7 0 0 325.2098 226.8501
  A 2.32 1.33 -20.7 0 0 327.8501 227.2741
  A 2.32 1.33 -20.7 0 0 329.5502 225.2099
  Z"
/>
<path fill="#d49844" fill-opacity="0.996" d="
  M 340.20 219.91
  C 333.63 220.09 338.14 230.03 335.50 228.98
  A 0.80 0.80 0.0 0 1 335.00 228.24
  L 335.00 220.30
  A 1.00 0.99 -77.5 0 1 336.42 219.39
  L 336.71 219.52
  A 0.99 0.98 -47.6 0 0 337.65 219.47
  Q 340.14 217.96 342.45 219.81
  A 1.02 1.02 0.0 0 1 342.83 220.56
  L 343.06 228.26
  A 0.64 0.64 0.0 0 1 342.51 228.92
  L 342.16 228.96
  A 0.80 0.79 86.2 0 1 341.26 228.17
  L 341.23 220.90
  A 1.00 1.00 0.0 0 0 340.20 219.91
  Z"
/>
<path fill="#d1a862" fill-opacity="0.996" d="
  M 150.56 258.33
  Q 152.66 259.40 150.01 259.80
  A 1.03 1.00 -27.4 0 1 149.18 259.55
  C 147.21 257.74 141.77 262.96 141.39 254.98
  Q 141.12 249.50 147.18 249.11
  A 0.99 0.99 0.0 0 0 148.11 248.09
  L 148.04 245.12
  A 1.01 1.00 -7.5 0 1 148.81 244.12
  Q 150.37 243.75 150.07 246.25
  Q 149.54 250.55 150.01 257.51
  A 1.02 0.99 11.8 0 0 150.56 258.33
  Z
  M 148.0379 252.7872
  A 1.88 1.88 0.0 0 0 146.1029 250.9638
  L 144.9035 250.9994
  A 1.88 1.88 0.0 0 0 143.0801 252.9343
  L 143.1821 256.3728
  A 1.88 1.88 0.0 0 0 145.1171 258.1962
  L 146.3165 258.1606
  A 1.88 1.88 0.0 0 0 148.1399 256.2257
  L 148.0379 252.7872
  Z"
/>
<path fill="#d89c4c" fill-opacity="0.996" d="
  M 188.43 249.80
  Q 190.44 248.83 192.03 250.16
  Q 193.37 251.29 193.60 253.65
  Q 194.30 261.06 186.06 259.63
  A 1.01 1.00 -85.3 0 1 185.23 258.64
  L 185.26 245.05
  A 1.01 1.01 0.0 0 1 186.04 244.07
  L 186.38 244.00
  A 0.51 0.51 0.0 0 1 187.00 244.50
  L 187.00 248.90
  A 1.00 0.99 -12.7 0 0 188.43 249.80
  Z
  M 189.0106 258.8110
  A 3.99 2.69 95.6 0 0 192.0772 255.1025
  A 3.99 2.69 95.6 0 0 189.7894 250.8690
  A 3.99 2.69 95.6 0 0 186.7228 254.5775
  A 3.99 2.69 95.6 0 0 189.0106 258.8110
  Z"
/>
<circle fill="#d1a862" fill-opacity="0.996" cx="269.10" cy="245.99" r="1.07"/>
<rect fill="#d49844" fill-opacity="0.996" x="179.46" y="245.40" width="1.68" height="14.52" rx="0.63"/>
<ellipse fill="#d1a152" fill-opacity="0.996" cx="0.00" cy="0.00" transform="translate(232.56,246.07) rotate(3.0)" rx="1.12" ry="0.90"/>
<path fill="#d1a152" fill-opacity="0.996" d="
  M 212.89 256.56
  C 212.60 257.38 212.12 259.31 211.45 259.81
  C 210.48 260.53 210.44 259.20 210.64 258.62
  C 212.41 253.55 214.71 244.26 217.26 245.70
  A 1.01 0.97 6.2 0 1 217.72 246.25
  L 221.91 258.88
  A 0.77 0.76 54.6 0 1 221.79 259.61
  C 220.49 261.34 219.64 257.27 219.45 256.70
  A 1.01 1.00 81.1 0 0 218.53 256.02
  L 213.86 255.90
  A 1.00 0.99 10.4 0 0 212.89 256.56
  Z
  M 213.77 253.72
  A 0.32 0.32 0.0 0 0 214.05 254.17
  L 218.24 254.33
  A 0.32 0.32 0.0 0 0 218.55 253.91
  L 216.67 248.30
  A 0.32 0.32 0.0 0 0 216.07 248.28
  L 213.77 253.72
  Z"
/>
<path fill="#d1a862" fill-opacity="0.996" d="
  M 240.72 255.80
  Q 241.95 253.07 242.82 250.19
  C 243.18 248.98 244.78 248.73 244.11 250.62
  C 242.58 254.88 241.13 262.33 236.40 263.90
  A 1.01 1.00 -20.1 0 1 235.16 263.33
  L 235.02 263.00
  A 0.51 0.51 0.0 0 1 235.45 262.30
  Q 237.86 262.10 238.96 260.13
  A 0.99 0.97 -41.6 0 0 239.02 259.27
  Q 237.22 254.84 235.70 250.41
  C 235.09 248.61 236.57 248.97 237.10 250.22
  Q 238.25 252.94 239.24 255.73
  Q 239.90 257.62 240.72 255.80
  Z"
/>
<path fill="#d1a862" fill-opacity="0.996" d="
  M 157.61 259.18
  C 152.59 262.03 150.23 254.50 157.59 253.99
  A 1.00 0.99 5.2 0 0 158.49 253.25
  C 159.33 250.05 155.44 250.68 153.99 251.84
  A 0.41 0.41 0.0 0 1 153.46 251.83
  C 152.05 250.60 156.78 248.22 159.42 250.24
  A 0.99 0.97 -76.2 0 1 159.80 250.88
  Q 160.28 254.02 159.84 257.05
  C 159.70 258.01 160.06 258.49 161.03 258.55
  A 0.54 0.49 69.8 0 1 161.40 258.74
  C 162.15 259.68 159.64 260.06 158.76 259.29
  A 1.01 1.00 50.2 0 0 157.61 259.18
  Z
  M 158.16 256.91
  Q 159.76 254.49 157.01 255.42
  L 155.15 256.04
  A 0.99 0.99 0.0 0 0 154.48 256.87
  C 154.20 259.30 157.34 258.15 158.16 256.91
  Z"
/>
<path fill="#d1a152" fill-opacity="0.996" d="
  M 201.68 259.02
  Q 199.14 260.71 196.83 258.74
  A 0.96 0.95 -73.7 0 1 196.48 258.09
  C 196.35 256.89 195.30 248.91 197.51 249.50
  A 1.01 1.00 -82.5 0 1 198.25 250.47
  L 198.25 257.21
  A 1.01 1.00 -83.5 0 0 199.02 258.19
  Q 200.75 258.59 202.10 257.27
  A 0.99 0.98 69.6 0 0 202.40 256.61
  C 202.44 255.95 202.03 248.42 203.55 249.43
  A 1.01 1.01 0.0 0 1 204.00 250.27
  L 204.00 257.35
  A 1.01 1.01 0.0 0 0 204.78 258.33
  Q 206.56 258.73 204.83 259.79
  A 1.00 1.00 0.0 0 1 203.68 259.72
  L 202.86 259.07
  A 1.01 1.01 0.0 0 0 201.68 259.02
  Z"
/>
<path fill="#ca9d61" d="
  M 227.26 250.24
  L 228.85 249.50
  Q 229.95 248.99 229.76 250.18
  L 229.70 250.56
  A 1.00 1.00 0.0 0 1 228.76 251.40
  C 225.30 251.59 226.23 256.67 226.22 258.96
  A 0.99 0.99 0.0 0 1 225.75 259.80
  C 223.72 261.06 224.12 251.00 224.39 250.26
  Q 225.03 248.48 226.02 249.91
  A 0.99 0.99 0.0 0 0 227.26 250.24
  Z"
/>
<rect fill="#d1a152" fill-opacity="0.996" x="-0.95" y="-5.32" transform="translate(232.55,254.63) rotate(-0.2)" width="1.90" height="10.64" rx="0.91"/>
<path fill="#d1a862" fill-opacity="0.996" d="
  M 249.19 250.81
  C 248.47 250.76 245.39 253.05 246.38 250.51
  A 1.01 1.00 1.2 0 1 247.01 249.91
  C 254.83 247.43 252.45 253.22 252.76 257.46
  A 1.02 1.01 7.6 0 0 253.44 258.34
  L 253.79 258.45
  Q 255.30 258.96 253.86 259.64
  Q 252.77 260.15 251.82 259.23
  A 0.99 0.99 0.0 0 0 250.75 259.03
  C 248.04 260.13 244.49 259.97 246.10 255.77
  A 0.98 0.97 -89.3 0 1 246.70 255.18
  L 250.61 253.82
  A 1.01 1.01 0.0 0 0 251.25 253.09
  Q 251.73 250.99 249.19 250.81
  Z
  M 251.15 256.69
  Q 251.96 254.72 249.93 255.36
  C 249.02 255.64 246.42 256.03 247.45 257.76
  A 1.00 0.99 78.0 0 0 248.18 258.24
  Q 250.39 258.53 251.15 256.69
  Z"
/>
<path fill="#d1a152" fill-opacity="0.996" d="
  M 259.69 250.22
  L 261.36 249.38
  A 1.00 0.94 -52.6 0 1 261.96 249.28
  C 266.02 249.87 265.08 254.91 264.97 258.96
  A 0.80 0.79 82.0 0 1 264.41 259.71
  C 262.37 260.34 263.24 252.90 263.11 251.66
  A 1.00 1.00 0.0 0 0 261.76 250.83
  L 259.14 251.83
  A 1.01 1.01 0.0 0 0 258.50 252.77
  L 258.50 259.05
  A 1.02 1.01 73.1 0 1 258.06 259.89
  C 256.50 260.93 256.98 253.48 257.03 250.57
  C 257.04 249.93 257.72 248.46 258.33 249.76
  A 1.00 1.00 0.0 0 0 259.69 250.22
  Z"
/>
<rect fill="#ca9d61" x="-0.87" y="-5.36" transform="translate(269.13,254.60) rotate(0.1)" width="1.74" height="10.72" rx="0.85"/>
<path fill="#d7a056" fill-opacity="0.996" d="
  M 166.95 250.09
  Q 169.61 248.44 171.67 250.78
  A 1.00 0.95 24.4 0 1 171.92 251.40
  L 172.22 258.66
  A 1.01 1.00 -8.2 0 1 171.46 259.67
  L 171.04 259.77
  A 0.64 0.63 82.7 0 1 170.25 259.15
  L 170.25 252.29
  A 1.02 1.00 -75.0 0 0 169.76 251.42
  Q 167.83 250.30 166.04 252.13
  A 1.04 1.01 -23.5 0 0 165.75 252.84
  L 165.75 259.00
  A 1.00 0.99 -18.0 0 1 165.33 259.81
  C 163.32 261.26 163.04 247.49 165.75 249.97
  A 1.01 1.00 50.4 0 0 166.95 250.09
  Z"
/>
<path fill="#ca9d61" d="
  M 156.84 301.55
  A 1.01 1.00 4.7 0 1 156.00 300.56
  L 156.03 285.30
  A 1.02 1.01 81.7 0 1 156.74 284.34
  C 174.10 278.98 176.37 304.62 156.84 301.55
  Z
  M 159.49 298.88
  C 170.20 301.78 171.21 284.04 159.56 286.35
  A 1.00 1.00 0.0 0 0 158.75 287.33
  L 158.75 297.91
  A 1.01 1.00 -82.5 0 0 159.49 298.88
  Z"
/>
<path fill="#ca9d61" d="
  M 176.55 287.79
  L 176.66 290.55
  A 1.01 1.00 -1.5 0 0 177.68 291.51
  C 178.60 291.50 188.06 290.63 185.67 293.62
  A 0.99 0.96 18.1 0 1 184.89 294.00
  L 177.50 294.00
  A 1.00 1.00 0.0 0 0 176.50 295.00
  L 176.50 298.00
  A 1.00 1.00 0.0 0 0 177.50 299.00
  L 185.54 299.00
  A 1.02 0.99 62.6 0 1 186.14 299.20
  C 191.20 302.95 175.27 301.46 174.98 301.45
  A 1.00 1.00 0.0 0 1 174.01 300.45
  L 174.00 285.36
  A 1.00 0.99 -2.5 0 1 174.91 284.37
  C 175.45 284.32 190.50 282.47 186.03 286.50
  A 1.03 1.02 -65.1 0 1 185.36 286.75
  L 177.55 286.75
  A 1.00 0.99 -1.4 0 0 176.55 287.79
  Z"
/>
<path fill="#ca9d61" d="
  M 220.00 294.59
  L 216.97 294.77
  A 1.02 1.01 59.4 0 1 216.36 294.61
  C 214.22 293.21 216.04 292.21 217.46 292.01
  Q 220.37 291.60 223.08 292.45
  A 1.00 0.99 -80.8 0 1 223.78 293.43
  Q 223.58 300.76 218.03 301.56
  C 208.32 302.95 203.69 290.70 212.16 285.38
  Q 218.03 281.68 223.50 288.04
  A 0.98 0.92 23.9 0 1 223.74 288.61
  C 223.98 291.52 222.14 290.46 221.28 289.17
  C 214.73 279.41 203.50 296.86 215.45 299.09
  Q 220.14 299.96 221.03 295.80
  A 1.00 0.99 -85.6 0 0 220.00 294.59
  Z"
/>
<path fill="#ca9d61" d="
  M 234.60 296.26
  L 230.12 296.25
  A 1.01 1.00 -80.7 0 0 229.17 296.94
  C 228.97 297.54 226.70 304.83 225.27 300.63
  A 1.05 1.02 46.7 0 1 225.28 299.96
  L 230.98 284.74
  A 1.02 0.97 -4.7 0 1 231.45 284.21
  Q 233.03 283.37 233.56 284.73
  Q 236.30 291.70 239.22 298.61
  C 239.69 299.72 240.44 302.17 238.16 301.60
  A 1.02 1.00 -4.9 0 1 237.50 301.06
  L 235.50 296.83
  A 1.00 1.00 0.0 0 0 234.60 296.26
  Z
  M 230.44 293.24
  A 0.40 0.40 0.0 0 0 230.82 293.78
  L 234.10 293.72
  A 0.40 0.40 0.0 0 0 234.46 293.16
  L 232.73 289.19
  A 0.40 0.40 0.0 0 0 231.99 289.20
  L 230.44 293.24
  Z"
/>
<path fill="#ca9d61" d="
  M 253.85 295.08
  Q 254.20 290.95 253.79 286.64
  C 253.67 285.37 254.54 282.70 256.10 284.96
  A 1.04 1.04 0.0 0 1 256.27 285.53
  Q 256.23 293.03 256.25 300.50
  Q 256.26 302.09 254.39 301.80
  A 1.07 1.02 -15.5 0 1 253.79 301.48
  Q 251.21 298.60 250.66 297.57
  Q 248.71 293.91 246.18 290.60
  Q 244.79 288.78 244.74 291.07
  Q 244.66 295.40 244.73 299.72
  Q 244.79 302.61 242.95 301.28
  A 1.01 1.01 0.0 0 1 242.54 300.53
  C 242.33 296.93 240.64 279.65 245.33 285.44
  Q 249.19 290.20 252.37 295.43
  Q 253.65 297.53 253.85 295.08
  Z"
/>
<path fill="#ca9d61" d="
  M 192.65 291.05
  Q 192.86 294.97 192.77 299.68
  C 192.74 301.04 192.09 303.06 190.47 300.98
  A 1.00 0.99 26.3 0 1 190.26 300.37
  Q 190.23 293.25 190.27 286.15
  C 190.28 284.62 191.27 283.35 192.73 285.01
  Q 196.98 289.85 200.27 295.39
  Q 201.76 297.90 201.76 294.98
  L 201.75 285.42
  A 0.98 0.98 0.0 0 1 202.00 284.74
  C 205.59 280.77 204.13 299.02 204.10 299.76
  C 203.98 302.80 201.73 302.04 200.60 300.26
  Q 197.46 295.35 194.10 290.55
  Q 192.50 288.25 192.65 291.05
  Z"
/>
<path fill="#dab97e" fill-opacity="0.996" d="
  M 37.25 295.71
  L 36.75 295.79
  C 36.04 294.98 35.51 294.65 34.39 294.99
  C 34.28 295.02 23.64 297.89 27.58 298.53
  Q 29.04 298.77 27.74 299.49
  L 27.37 299.69
  A 0.99 0.98 -34.6 0 1 26.14 299.47
  L 24.90 298.05
  A 1.01 0.99 66.5 0 0 24.05 297.71
  Q 20.27 298.08 16.71 296.80
  A 1.00 0.99 40.5 0 0 15.90 296.86
  C 14.89 297.41 13.90 298.31 12.76 298.40
  Q 10.36 298.60 11.76 296.84
  A 1.01 1.00 26.2 0 0 11.21 295.24
  Q 6.55 294.10 2.77 296.86
  A 0.80 0.80 0.0 0 0 2.55 297.92
  C 3.08 298.78 2.00 300.63 1.39 299.68
  A 0.62 0.61 33.2 0 1 1.30 299.27
  Q 1.50 297.35 0.00 296.19
  L 0.00 295.69
  L 7.28 293.90
  Q 8.66 293.56 7.49 292.76
  L 7.19 292.55
  Q 6.93 292.37 6.54 292.00
  Q 6.10 291.59 6.10 291.13
  A 0.64 0.64 0.0 0 1 6.95 290.53
  Q 8.91 291.19 9.53 293.10
  A 1.01 1.00 -88.8 0 0 10.13 293.73
  Q 14.60 295.39 19.18 296.24
  C 20.10 296.41 21.86 295.94 20.25 294.75
  L 21.00 294.71
  L 22.13 296.42
  A 1.00 0.99 67.0 0 0 23.18 296.85
  L 29.84 295.35
  Q 32.34 294.79 29.96 293.83
  C 29.62 293.69 27.93 293.33 28.36 292.54
  A 0.51 0.50 -69.8 0 1 28.91 292.28
  Q 30.83 292.69 32.36 293.87
  A 1.02 1.01 61.6 0 0 33.06 294.08
  Q 38.21 293.60 42.02 290.31
  A 1.00 0.99 34.5 0 1 43.01 290.13
  Q 44.85 290.79 43.64 291.61
  A 1.01 1.00 -48.1 0 0 43.73 293.33
  Q 49.67 296.48 56.23 294.03
  Q 56.84 293.80 56.30 293.45
  L 56.01 293.25
  A 0.81 0.80 34.5 0 0 54.91 293.45
  Q 54.46 294.08 54.08 293.54
  A 0.42 0.41 -37.7 0 1 54.15 293.00
  Q 56.81 290.64 56.89 293.11
  A 1.00 1.00 0.0 0 0 58.01 294.07
  Q 61.60 293.64 64.76 295.17
  Q 65.06 295.32 65.09 295.48
  C 65.25 296.18 61.14 294.93 60.47 294.97
  Q 56.57 295.25 52.73 295.94
  A 1.01 1.01 0.0 0 0 52.04 297.44
  Q 52.28 297.84 52.24 298.32
  Q 52.10 299.97 51.10 298.65
  L 49.39 296.43
  A 1.01 0.97 -8.0 0 0 48.92 296.09
  C 45.85 295.04 37.51 291.89 37.25 295.71
  Z"
/>
<path fill="#dab97e" fill-opacity="0.996" d="
  M 357.75 292.29
  L 357.25 292.79
  Q 356.02 294.35 357.96 294.00
  L 358.65 294.56
  Q 364.17 295.89 369.01 293.40
  Q 370.61 292.58 369.07 291.65
  Q 367.55 290.74 370.01 290.16
  A 1.03 1.01 58.4 0 1 370.89 290.38
  Q 374.62 293.61 379.63 294.05
  A 1.05 1.02 31.9 0 0 380.19 293.93
  L 383.05 292.37
  A 0.81 0.80 -31.5 0 1 384.10 292.62
  C 385.25 294.31 381.95 293.20 381.87 294.54
  A 0.64 0.64 0.0 0 0 382.37 295.20
  L 389.74 296.86
  A 1.00 1.00 0.0 0 0 390.79 296.44
  L 392.23 294.32
  A 0.99 0.97 57.7 0 0 392.39 293.59
  Q 392.18 292.39 393.75 293.96
  L 394.04 294.50
  Q 392.61 296.75 395.43 295.90
  Q 398.85 294.86 402.33 293.98
  A 1.03 1.00 3.4 0 0 403.01 293.39
  C 403.52 292.17 407.50 288.50 406.76 291.49
  A 0.96 0.96 0.0 0 1 406.34 292.08
  L 406.05 292.28
  Q 404.11 293.57 406.37 294.09
  L 415.61 296.22
  A 1.00 0.99 28.6 0 0 416.55 295.95
  L 419.17 293.31
  A 0.65 0.64 -49.4 0 1 420.00 293.24
  L 420.24 293.41
  A 1.00 1.00 0.0 0 1 420.27 295.00
  Q 418.66 296.28 422.00 296.06
  L 422.00 296.56
  Q 417.09 298.34 412.00 296.71
  Q 410.84 295.88 410.49 297.20
  A 0.80 0.80 0.0 0 1 409.92 297.77
  Q 409.72 297.82 409.50 297.79
  L 409.32 296.65
  A 1.02 1.00 7.2 0 0 408.72 295.89
  C 408.09 295.62 397.60 293.64 400.97 297.08
  A 0.80 0.79 -62.2 0 1 401.18 297.77
  C 400.92 299.36 398.12 297.64 396.89 296.92
  A 1.01 1.00 51.0 0 0 396.05 296.83
  Q 392.27 298.15 388.29 297.86
  A 0.99 0.99 0.0 0 0 387.30 298.44
  Q 386.49 300.27 385.05 299.63
  Q 382.81 298.64 385.26 298.65
  Q 386.76 298.66 385.39 297.38
  C 383.52 295.65 377.11 294.94 376.25 295.29
  L 375.50 295.04
  C 372.78 292.57 366.93 295.24 363.73 296.06
  A 1.02 1.00 -83.1 0 0 363.08 296.58
  L 362.22 298.29
  A 1.01 1.00 -66.1 0 1 360.97 298.78
  Q 360.09 298.44 360.72 297.57
  A 1.00 1.00 0.0 0 0 360.05 295.99
  L 351.52 294.83
  A 1.01 0.96 33.8 0 0 350.94 294.93
  C 346.97 296.91 344.28 294.54 340.78 295.15
  Q 337.52 295.72 334.47 295.95
  Q 332.83 296.07 333.93 297.28
  Q 334.56 297.97 333.96 298.57
  A 0.81 0.79 52.3 0 1 332.70 298.40
  L 331.63 296.55
  A 0.96 0.95 83.4 0 0 331.07 296.10
  C 327.90 295.10 320.21 292.07 319.29 295.50
  L 318.75 295.79
  L 317.91 295.10
  A 0.99 0.98 58.1 0 0 317.08 294.90
  Q 313.59 295.62 310.35 297.02
  A 1.00 1.00 0.0 0 0 310.11 298.70
  Q 310.88 299.35 309.12 299.82
  A 1.02 1.00 64.1 0 1 308.06 299.44
  L 307.26 298.35
  A 1.02 1.00 72.2 0 0 306.50 297.95
  Q 304.94 297.87 303.41 297.83
  C 300.06 297.72 298.59 295.85 295.25 298.33
  A 1.01 0.99 -55.9 0 1 294.42 298.50
  Q 292.65 298.07 293.65 296.92
  A 1.01 1.00 -62.4 0 0 293.14 295.29
  Q 288.74 294.19 285.50 296.54
  L 284.99 296.65
  A 0.64 0.64 0.0 0 0 284.56 297.58
  Q 284.83 298.08 284.79 298.75
  Q 282.89 301.01 283.09 297.86
  A 1.00 1.00 0.0 0 0 281.85 296.83
  Q 277.32 297.98 272.73 296.86
  A 1.03 1.01 -55.2 0 0 271.93 297.01
  L 269.51 298.69
  A 1.03 1.00 -52.1 0 1 268.62 298.81
  Q 266.33 298.03 267.69 296.57
  A 1.00 0.99 -57.1 0 0 267.35 294.97
  Q 266.41 294.58 265.58 294.07
  Q 262.13 291.94 265.94 293.33
  Q 272.33 295.68 274.47 296.06
  C 276.88 296.49 272.68 294.23 274.63 293.38
  A 1.00 1.00 0.0 0 1 275.70 293.55
  L 278.45 296.00
  A 1.03 1.00 -29.7 0 0 279.34 296.23
  L 288.56 294.11
  Q 290.43 293.67 289.00 292.39
  Q 288.52 291.96 288.17 291.38
  Q 287.17 289.76 288.95 290.45
  Q 290.84 291.20 291.56 293.13
  A 0.98 0.97 0.8 0 0 292.13 293.71
  Q 296.47 295.43 301.00 295.96
  Q 301.89 296.53 302.42 296.01
  A 0.80 0.79 53.0 0 0 302.55 295.04
  Q 301.99 294.07 300.75 294.54
  Q 299.51 293.29 300.68 292.67
  A 0.99 0.99 0.0 0 1 301.98 293.01
  L 304.10 296.25
  A 1.00 1.00 0.0 0 0 305.01 296.71
  Q 309.89 296.31 312.00 295.23
  C 315.02 293.69 309.70 294.13 310.44 292.57
  A 0.51 0.51 0.0 0 1 311.10 292.32
  C 313.13 293.16 314.39 294.24 316.67 293.85
  Q 320.49 293.20 323.42 290.78
  C 324.08 290.24 325.79 289.43 325.95 290.74
  A 0.99 0.98 -15.1 0 1 325.35 291.78
  Q 323.73 292.46 325.69 293.31
  Q 331.91 296.00 337.59 294.23
  A 0.51 0.51 0.0 0 0 337.82 293.41
  L 337.54 293.09
  A 0.33 0.33 0.0 0 0 337.00 293.16
  Q 336.32 294.55 335.99 293.46
  A 0.64 0.64 0.0 0 1 336.36 292.68
  L 338.29 291.88
  A 0.64 0.64 0.0 0 1 339.17 292.56
  L 339.12 292.95
  A 1.01 1.00 -0.3 0 0 340.25 294.06
  Q 343.82 293.58 346.98 295.29
  A 1.00 0.98 -45.6 0 0 347.96 295.27
  Q 351.23 293.35 355.03 294.21
  A 0.80 0.79 28.9 0 0 355.77 294.00
  Q 356.24 293.54 355.78 293.11
  A 0.80 0.80 0.0 0 1 355.92 291.84
  Q 356.69 291.39 357.75 292.29
  Z
  M 268.70 297.92
  L 268.99 298.10
  A 0.33 0.33 0.0 0 0 269.48 297.86
  Q 269.64 296.75 268.81 296.99
  Q 267.69 297.32 268.70 297.92
  Z"
/>
<path fill="#dab97e" fill-opacity="0.996" d="
  M 111.50 294.04
  L 111.79 294.75
  C 109.68 297.71 119.80 294.12 120.37 293.97
  A 1.00 1.00 0.0 0 0 121.06 293.32
  Q 121.79 291.20 124.03 290.30
  A 0.40 0.40 0.0 0 1 124.57 290.55
  L 124.65 290.79
  A 1.00 0.99 63.8 0 1 124.27 291.92
  L 123.72 292.31
  Q 121.86 293.61 124.07 294.10
  L 133.77 296.27
  A 1.01 1.00 22.8 0 0 134.83 295.84
  C 135.38 294.99 136.98 292.83 138.12 293.34
  Q 138.67 293.59 138.55 294.59
  A 1.00 1.00 0.0 0 0 139.82 295.67
  Q 144.22 294.40 148.54 292.53
  Q 149.14 292.27 149.20 292.76
  A 0.34 0.33 -17.8 0 1 149.02 293.10
  L 145.20 294.97
  A 1.00 1.00 0.0 0 0 144.94 296.58
  Q 145.82 297.45 144.74 298.60
  A 1.00 1.00 0.0 0 1 143.47 298.76
  L 140.84 297.07
  A 1.01 1.00 -34.0 0 0 140.10 296.93
  Q 134.64 298.02 129.29 296.50
  L 127.54 297.75
  C 127.51 295.11 125.62 295.25 123.29 295.01
  Q 121.23 294.79 119.33 295.25
  A 1.00 1.00 0.0 0 0 118.84 296.91
  Q 119.36 297.46 118.98 298.14
  A 0.80 0.79 -61.5 0 1 117.91 298.46
  L 115.00 296.91
  A 0.98 0.98 0.0 0 0 114.23 296.84
  C 112.33 297.46 105.20 297.56 104.85 298.83
  A 1.00 0.98 -0.2 0 1 104.15 299.52
  Q 103.95 299.58 103.75 299.60
  Q 100.93 299.84 103.49 298.62
  Q 104.96 297.93 102.35 296.97
  Q 99.16 295.79 95.81 294.85
  A 0.99 0.98 -55.5 0 0 94.93 295.02
  L 93.15 296.42
  A 1.01 1.01 0.0 0 1 91.82 296.33
  Q 90.74 295.25 91.43 297.09
  Q 91.83 298.18 90.83 297.58
  L 90.55 297.41
  A 0.80 0.79 39.2 0 1 90.42 296.14
  L 90.90 295.69
  A 1.00 1.00 0.0 0 1 92.12 295.59
  Q 92.57 295.88 93.08 295.70
  Q 93.94 295.39 93.23 294.82
  C 90.60 292.70 84.73 295.30 81.76 296.15
  A 1.02 1.00 3.7 0 0 81.12 296.70
  C 80.75 297.54 79.19 299.70 78.41 298.48
  A 0.52 0.52 0.0 0 1 78.41 297.92
  L 78.66 297.55
  A 1.00 1.00 0.0 0 0 77.89 296.00
  Q 75.01 295.81 72.21 295.25
  C 69.38 294.67 68.62 295.69 66.31 295.77
  Q 64.94 295.82 66.14 295.16
  Q 69.07 293.55 72.35 294.07
  A 0.99 0.99 0.0 0 0 73.49 292.93
  Q 73.27 291.52 74.50 291.79
  L 74.75 292.79
  Q 74.35 294.31 75.75 294.21
  L 76.71 294.25
  Q 76.82 294.90 77.52 294.99
  Q 81.79 295.48 86.90 293.37
  Q 88.75 292.60 87.03 291.58
  Q 85.49 290.67 88.16 290.17
  A 1.05 1.02 59.1 0 1 88.99 290.39
  L 91.46 292.49
  Q 91.64 292.64 91.86 292.70
  L 97.54 294.13
  A 1.00 0.98 31.3 0 0 98.44 293.92
  C 99.09 293.36 102.90 291.07 102.12 293.05
  A 1.01 1.00 4.9 0 1 101.39 293.66
  C 95.53 294.83 107.29 296.66 108.01 296.73
  A 1.00 1.00 0.0 0 0 108.97 296.23
  L 110.43 293.71
  A 0.51 0.51 0.0 0 1 111.27 293.65
  Q 111.40 293.81 111.50 294.04
  Z"
/>
<path fill="#ca9d61" d="
  M 74.50 291.79
  Q 76.76 291.99 76.71 294.25
  L 75.75 294.21
  Q 76.74 292.78 74.75 292.79
  L 74.50 291.79
  Z"
/>
<path fill="#ca9d61" d="
  M 357.75 292.29
  Q 359.07 292.63 358.65 294.56
  L 357.96 294.00
  Q 358.11 293.11 357.25 292.79
  L 357.75 292.29
  Z"
/>
<path fill="#dab97e" fill-opacity="0.996" d="
  M 19.54 293.25
  Q 19.62 294.23 18.75 294.54
  Q 17.37 291.58 19.54 293.25
  Z"
/>
<path fill="#ca9d61" d="
  M 111.79 294.75
  L 111.50 294.04
  Q 111.87 293.72 111.82 293.35
  Q 111.67 292.28 112.49 292.98
  Q 113.16 293.55 111.79 294.75
  Z"
/>
<path fill="#ca9d61" d="
  M 394.04 294.50
  L 393.75 293.96
  Q 393.85 293.67 393.77 293.41
  Q 393.47 292.39 394.46 292.79
  Q 395.22 293.10 394.04 294.50
  Z"
/>
<path fill="#71705c" fill-opacity="0.824" d="
  M 19.54 293.25
  L 19.79 293.50
  L 20.25 294.75
  Q 19.64 297.35 18.75 294.54
  Q 19.62 294.23 19.54 293.25
  Z"
/>
<path fill="#ca9d61" d="
  M 19.79 293.50
  Q 20.94 293.50 21.00 294.71
  L 20.25 294.75
  L 19.79 293.50
  Z"
/>
<path fill="#71705c" fill-opacity="0.824" d="
  M 301.00 295.96
  L 300.75 294.54
  Q 301.99 294.07 302.55 295.04
  A 0.80 0.79 53.0 0 1 302.42 296.01
  Q 301.89 296.53 301.00 295.96
  Z"
/>
<path fill="#ca9d61" d="
  M 375.50 295.04
  L 376.25 295.29
  Q 375.35 296.78 373.79 297.50
  Q 373.41 296.35 372.29 296.25
  Q 372.62 295.81 373.06 295.56
  A 1.03 1.00 -44.8 0 1 374.03 295.55
  Q 374.90 296.02 375.50 295.04
  Z"
/>
<path fill="#ca9d61" d="
  M 36.75 295.79
  L 37.25 295.71
  Q 37.92 295.90 38.37 295.71
  A 0.52 0.51 74.8 0 1 39.08 296.12
  Q 39.22 297.20 40.10 296.28
  A 0.26 0.26 0.0 0 1 40.52 296.33
  L 40.70 296.65
  A 0.41 0.40 -27.7 0 1 40.52 297.22
  Q 38.24 298.32 36.75 295.79
  Z"
/>
<path fill="#ca9d61" d="
  M 318.75 295.79
  L 319.29 295.50
  Q 319.95 295.88 320.40 295.71
  A 0.52 0.51 76.2 0 1 321.08 296.13
  Q 321.22 297.19 322.10 296.28
  A 0.26 0.26 0.0 0 1 322.52 296.33
  L 322.70 296.65
  A 0.41 0.40 -27.7 0 1 322.52 297.22
  Q 320.24 298.32 318.75 295.79
  Z"
/>
<path fill="#71705c" fill-opacity="0.824" d="
  M 129.29 296.50
  L 129.50 296.96
  Q 128.53 297.56 128.21 298.75
  L 127.54 297.75
  L 129.29 296.50
  Z"
/>
<path fill="#dab97e" fill-opacity="0.996" d="
  M 372.29 296.25
  Q 373.41 296.35 373.79 297.50
  Q 371.93 298.15 372.29 296.25
  Z"
/>
<path fill="#ca9d61" d="
  M 412.00 296.71
  L 411.71 297.00
  Q 410.61 297.44 409.99 298.94
  Q 409.55 298.29 409.50 297.79
  Q 409.72 297.82 409.92 297.77
  A 0.80 0.80 0.0 0 0 410.49 297.20
  Q 410.84 295.88 412.00 296.71
  Z"
/>
<path fill="#71705c" fill-opacity="0.824" d="
  M 285.50 296.54
  L 284.79 298.75
  Q 284.83 298.08 284.56 297.58
  A 0.64 0.64 0.0 0 1 284.99 296.65
  L 285.50 296.54
  Z"
/>
<path fill="#dab97e" fill-opacity="0.996" d="
  M 129.50 296.96
  Q 130.09 298.17 129.59 299.37
  A 0.64 0.63 -77.7 0 1 128.99 299.76
  Q 128.29 299.74 128.21 298.75
  Q 128.53 297.56 129.50 296.96
  Z"
/>
<path fill="#dab97e" fill-opacity="0.996" d="
  M 411.71 297.00
  Q 412.35 301.41 409.99 298.94
  Q 410.61 297.44 411.71 297.00
  Z"
/>
<path fill="#ca9d61" d="
  M 36.45 328.94
  Q 35.45 334.68 36.42 340.49
  C 37.51 346.96 46.76 346.64 46.98 339.93
  C 47.16 334.11 45.33 324.36 53.48 323.15
  Q 54.05 323.07 54.29 323.28
  Q 54.74 323.68 54.14 323.74
  C 41.87 324.88 55.88 347.02 40.79 346.01
  C 32.14 345.43 34.25 334.53 34.23 328.92
  A 0.82 0.80 16.5 0 0 33.85 328.24
  L 33.63 328.10
  Q 32.64 327.49 33.80 327.50
  L 36.64 327.51
  Q 37.62 327.51 36.92 328.21
  L 36.73 328.40
  A 1.02 0.96 -19.3 0 0 36.45 328.94
  Z"
/>
<path fill="#d7a056" fill-opacity="0.996" d="
  M 207.12 344.64
  Q 204.77 343.25 204.77 340.25
  L 204.74 329.74
  A 1.02 0.99 27.4 0 0 204.54 329.14
  L 204.24 328.74
  Q 203.31 327.51 204.86 327.46
  L 206.95 327.40
  Q 208.38 327.36 207.19 328.15
  Q 207.05 328.24 206.91 328.31
  A 1.01 0.99 78.2 0 0 206.37 329.15
  C 206.08 334.71 204.15 346.14 213.24 344.98
  C 222.83 343.76 211.56 326.00 223.22 323.26
  Q 224.39 322.99 224.34 323.51
  A 0.27 0.26 -3.1 0 1 224.13 323.74
  C 216.39 325.21 218.75 336.73 218.75 342.41
  A 1.01 0.97 -21.5 0 1 218.41 343.15
  Q 212.90 348.06 207.12 344.64
  Z"
/>
<path fill="#ca9d61" d="
  M 66.32 335.40
  Q 66.70 332.85 66.48 330.24
  C 66.34 328.56 67.48 324.23 69.77 324.24
  Q 70.58 324.24 69.99 324.80
  C 67.08 327.61 68.24 339.75 68.27 343.97
  A 1.00 0.99 -74.4 0 0 68.74 344.82
  L 69.04 344.99
  Q 70.28 345.75 68.82 345.75
  L 66.79 345.75
  Q 65.32 345.76 66.12 344.52
  Q 66.53 343.88 66.52 343.02
  Q 66.51 341.57 66.51 341.48
  Q 66.62 339.92 66.39 338.39
  A 1.00 0.99 85.9 0 0 65.42 337.54
  L 57.53 337.40
  A 1.00 0.99 0.3 0 0 56.51 338.40
  Q 56.54 341.78 56.33 345.18
  Q 56.16 348.10 53.70 349.51
  A 0.50 0.26 -33.9 0 1 53.19 349.57
  L 53.06 349.44
  A 0.31 0.22 -49.3 0 1 53.09 349.09
  Q 54.80 346.99 54.77 345.75
  C 54.72 343.01 55.50 330.63 54.53 329.04
  Q 54.37 328.78 54.19 328.53
  Q 53.48 327.57 54.67 327.51
  L 56.67 327.40
  Q 58.53 327.30 57.12 328.52
  L 56.84 328.77
  A 1.01 1.00 -20.9 0 0 56.50 329.52
  L 56.50 335.25
  A 1.00 1.00 0.0 0 0 57.50 336.25
  L 65.33 336.25
  A 1.00 1.00 0.0 0 0 66.32 335.40
  Z"
/>
<path fill="#d89c4c" fill-opacity="0.996" d="
  M 275.60 341.11
  Q 276.99 342.66 276.99 340.57
  L 277.01 329.34
  A 0.64 0.64 0.0 0 0 276.74 328.82
  L 276.47 328.62
  Q 275.31 327.79 276.71 327.48
  Q 280.29 326.69 278.37 329.28
  A 1.03 1.01 -28.5 0 0 278.18 329.90
  C 278.25 333.76 277.28 342.59 279.42 345.57
  Q 281.83 348.93 286.29 349.42
  A 0.28 0.28 0.0 0 1 286.53 349.67
  Q 286.54 350.00 286.23 350.05
  Q 282.00 350.76 278.99 347.50
  Q 272.14 340.08 265.41 332.54
  Q 264.01 330.99 264.01 333.08
  L 263.99 343.68
  A 1.00 0.99 18.9 0 0 264.38 344.47
  Q 266.99 346.48 262.33 345.69
  Q 261.53 345.55 262.12 344.99
  L 262.42 344.70
  A 1.03 1.02 68.9 0 0 262.73 343.99
  C 262.77 340.33 263.72 330.72 261.51 327.96
  Q 260.08 326.19 258.02 325.25
  Q 254.93 323.84 258.29 324.27
  Q 260.54 324.56 262.29 326.46
  Q 269.02 333.76 275.60 341.11
  Z"
/>
<path fill="#d7a056" fill-opacity="0.996" d="
  M 195.94 337.40
  Q 196.59 337.11 196.21 336.25
  Q 196.57 332.24 196.77 328.28
  Q 196.86 326.25 198.30 325.26
  Q 200.51 323.74 199.22 326.10
  Q 198.53 327.37 198.52 328.06
  Q 198.47 336.00 198.51 343.92
  A 1.06 1.05 22.1 0 0 198.82 344.64
  L 199.21 345.01
  Q 200.23 345.97 198.83 345.89
  L 196.61 345.76
  Q 195.40 345.68 196.14 344.73
  Q 196.43 344.36 196.49 344.01
  Q 197.05 341.00 195.94 337.40
  Z"
/>
<path fill="#ca9d61" d="
  M 9.31 344.99
  A 1.37 1.37 0.0 0 0 10.55 343.77
  C 10.92 340.36 12.90 330.53 10.91 327.89
  Q 10.30 327.08 9.47 326.51
  Q 6.27 324.29 9.94 325.61
  Q 12.44 326.50 13.87 329.63
  Q 16.63 335.66 19.09 340.92
  Q 20.03 342.92 20.91 340.89
  L 26.10 328.99
  Q 27.25 326.36 27.62 329.21
  Q 28.43 335.27 29.40 341.69
  Q 29.93 345.20 31.17 346.90
  Q 31.82 347.78 32.63 348.50
  Q 36.20 351.67 31.92 349.56
  Q 28.80 348.01 28.04 343.77
  Q 27.14 338.69 26.45 333.52
  Q 26.41 333.27 26.35 333.09
  Q 25.93 331.83 25.40 333.05
  L 20.52 344.15
  Q 19.62 346.20 18.69 344.16
  L 14.25 334.33
  Q 13.17 331.95 12.73 334.53
  Q 11.87 339.59 12.12 344.71
  A 1.00 1.00 0.0 0 1 11.12 345.76
  L 9.33 345.75
  Q 8.69 345.75 9.06 345.23
  Q 9.23 345.00 9.31 344.99
  Z"
/>
<path fill="#d7a056" fill-opacity="0.996" d="
  M 106.43 334.23
  L 102.09 344.17
  Q 101.20 346.20 100.26 344.19
  Q 97.85 339.01 95.34 333.87
  C 94.69 332.53 94.27 333.10 94.23 334.10
  Q 93.98 340.19 93.50 343.75
  Q 93.42 344.33 93.57 344.73
  A 0.80 0.80 0.0 0 1 92.94 345.79
  Q 89.62 346.33 91.53 344.58
  A 1.00 0.98 72.1 0 0 91.84 343.96
  Q 92.55 338.22 93.24 332.56
  C 93.74 328.55 92.27 326.31 88.34 325.65
  Q 87.68 325.54 88.10 325.11
  A 0.55 0.54 -68.6 0 1 88.46 324.95
  Q 92.90 324.89 94.68 328.32
  Q 97.84 334.40 100.50 340.74
  Q 101.39 342.88 102.34 340.76
  L 107.30 329.62
  Q 108.66 326.58 109.20 329.86
  Q 110.30 336.45 111.23 343.05
  Q 111.81 347.10 114.94 349.10
  Q 119.54 352.03 114.39 350.24
  Q 111.03 349.08 109.72 344.76
  Q 108.99 342.36 107.96 334.45
  Q 107.59 331.59 106.43 334.23
  Z"
/>
<path fill="#d7a056" fill-opacity="0.996" d="
  M 114.42 345.00
  A 1.30 1.29 87.9 0 0 115.56 343.77
  Q 115.80 338.53 116.66 333.36
  C 117.32 329.36 116.42 326.50 112.23 325.74
  C 111.99 325.70 111.41 325.93 111.48 325.36
  A 0.42 0.41 1.6 0 1 111.87 325.00
  C 114.68 324.87 116.66 325.94 118.11 328.48
  Q 121.46 334.38 123.90 340.74
  Q 124.73 342.91 125.73 340.82
  Q 128.68 334.71 131.40 328.11
  C 131.84 327.04 132.46 327.56 132.55 328.36
  C 133.54 337.10 133.46 347.53 140.21 350.01
  C 141.87 350.62 140.58 350.77 140.04 350.69
  Q 134.04 349.78 133.03 344.24
  Q 132.21 339.71 131.48 335.31
  Q 130.94 332.02 129.58 335.06
  L 125.48 344.28
  Q 124.56 346.32 123.65 344.28
  L 119.32 334.61
  Q 118.23 332.20 117.80 334.81
  Q 116.96 339.76 117.10 344.77
  A 1.00 0.99 0.3 0 1 116.06 345.79
  L 114.36 345.74
  Q 113.60 345.71 114.14 345.18
  Q 114.30 345.02 114.42 345.00
  Z"
/>
<path fill="#d7a056" fill-opacity="0.996" d="
  M 75.52 344.98
  Q 75.89 345.10 75.94 345.44
  A 0.27 0.26 85.2 0 1 75.69 345.75
  L 72.71 345.76
  Q 71.08 345.76 72.51 344.99
  L 73.06 344.69
  A 0.99 0.95 -4.0 0 0 73.51 344.19
  L 79.68 329.32
  A 1.00 0.98 -51.1 0 0 79.59 328.38
  Q 78.27 326.41 75.74 326.84
  Q 75.17 326.94 75.07 326.52
  A 0.26 0.26 0.0 0 1 75.33 326.20
  L 79.42 326.36
  A 0.99 0.97 68.5 0 1 80.10 326.66
  C 85.31 332.05 86.20 347.56 92.65 350.08
  Q 92.82 350.15 93.00 350.21
  Q 97.01 351.62 92.76 351.45
  Q 91.22 351.39 89.97 350.22
  Q 86.14 346.64 84.46 339.99
  A 1.00 0.99 -7.0 0 0 83.49 339.24
  L 77.77 339.25
  A 0.99 0.99 0.0 0 0 76.84 339.90
  L 75.20 344.32
  A 0.50 0.50 0.0 0 0 75.52 344.98
  Z
  M 77.70 337.55
  A 0.52 0.52 0.0 0 0 78.19 338.24
  L 83.02 338.25
  A 0.52 0.52 0.0 0 0 83.51 337.56
  L 81.11 330.85
  A 0.52 0.52 0.0 0 0 80.13 330.85
  L 77.70 337.55
  Z"
/>
<path fill="#d1a152" fill-opacity="0.996" d="
  M 147.98 339.38
  L 142.61 339.49
  A 1.00 1.00 0.0 0 0 141.70 340.11
  L 140.17 343.84
  A 1.02 1.01 -51.3 0 0 140.27 344.80
  L 140.49 345.10
  Q 141.12 346.00 140.02 345.90
  C 139.40 345.85 136.41 346.27 136.50 345.60
  A 0.41 0.41 0.0 0 1 136.77 345.28
  C 138.99 344.47 142.92 333.38 144.54 329.14
  A 1.01 1.00 -58.0 0 0 144.29 328.05
  Q 143.77 327.57 143.18 327.24
  Q 140.12 325.54 143.54 326.29
  Q 145.97 326.83 147.20 329.78
  C 148.94 333.92 153.04 348.71 157.57 350.05
  Q 158.44 350.31 159.33 350.46
  Q 161.54 350.82 159.39 351.45
  Q 159.10 351.54 158.71 351.50
  C 153.07 351.01 150.82 345.31 148.94 340.05
  A 1.00 1.00 0.0 0 0 147.98 339.38
  Z
  M 142.55 337.67
  A 0.41 0.41 0.0 0 0 142.93 338.22
  L 147.92 338.28
  A 0.41 0.41 0.0 0 0 148.31 337.74
  L 145.91 330.57
  A 0.41 0.41 0.0 0 0 145.13 330.56
  L 142.55 337.67
  Z"
/>
<path fill="#d1a152" fill-opacity="0.996" d="
  M 303.32 327.23
  Q 299.32 325.21 303.67 326.28
  Q 304.20 326.41 304.70 326.65
  C 307.43 327.99 310.09 336.64 310.98 339.51
  C 312.42 344.19 314.60 350.08 319.84 350.71
  C 320.49 350.79 320.21 351.04 319.68 351.09
  Q 314.62 351.61 312.17 347.11
  Q 310.36 343.76 309.15 340.10
  A 1.00 0.99 -8.8 0 0 308.20 339.41
  L 302.65 339.41
  A 1.01 1.00 11.4 0 0 301.72 340.02
  L 300.12 343.85
  A 0.99 0.99 0.0 0 0 300.27 344.86
  L 300.57 345.24
  Q 301.15 345.97 300.23 345.91
  L 298.25 345.79
  Q 296.07 345.65 297.98 344.59
  L 298.22 344.46
  A 0.62 0.61 -4.5 0 0 298.50 344.14
  L 304.62 329.27
  A 1.01 1.00 41.9 0 0 304.57 328.41
  Q 304.16 327.66 303.32 327.23
  Z
  M 302.56 337.79
  A 0.31 0.31 0.0 0 0 302.84 338.21
  L 308.15 338.28
  A 0.31 0.31 0.0 0 0 308.44 337.86
  L 305.88 330.73
  A 0.31 0.31 0.0 0 0 305.30 330.72
  L 302.56 337.79
  Z"
/>
<path fill="#d7a056" fill-opacity="0.996" d="
  M 396.03 333.28
  Q 396.95 335.46 397.88 333.28
  Q 398.80 331.10 400.18 329.19
  Q 401.25 327.71 402.53 326.96
  Q 405.11 325.45 403.03 327.60
  Q 396.44 334.40 397.94 344.30
  A 1.01 0.96 18.2 0 0 398.25 344.88
  L 398.59 345.20
  Q 399.39 345.94 398.31 345.91
  L 395.55 345.84
  Q 394.06 345.80 395.11 344.75
  L 395.39 344.47
  A 0.99 0.96 70.6 0 0 395.67 343.86
  Q 396.59 334.08 389.85 327.24
  A 1.00 1.00 0.0 0 0 388.56 327.13
  Q 383.62 330.60 380.15 335.58
  A 1.00 0.99 -49.7 0 0 380.25 336.85
  C 384.26 340.94 389.77 348.51 395.64 349.32
  C 396.06 349.37 396.50 349.59 396.11 350.05
  A 0.53 0.53 0.0 0 1 395.75 350.24
  C 389.04 350.64 382.48 342.02 378.43 337.39
  A 0.99 0.99 0.0 0 1 378.39 336.12
  L 383.75 329.15
  A 0.81 0.80 -46.0 0 0 383.74 328.15
  L 383.50 327.86
  Q 383.13 327.41 383.72 327.43
  L 386.11 327.53
  A 1.03 0.97 25.4 0 0 386.76 327.32
  Q 389.69 325.05 392.07 327.42
  Q 394.64 329.98 396.03 333.28
  Z"
/>
<path fill="#d7a056" fill-opacity="0.996" d="
  M 232.09 340.78
  C 230.27 336.67 220.45 334.06 225.47 328.65
  Q 227.58 326.37 231.50 327.41
  A 0.65 0.64 10.1 0 1 231.98 328.09
  L 231.95 328.40
  Q 231.78 330.09 230.58 328.89
  Q 229.12 327.43 227.20 328.74
  C 222.33 332.07 232.89 337.56 233.69 339.31
  C 238.98 350.83 217.95 350.87 223.03 339.80
  Q 223.12 339.60 223.29 339.54
  Q 223.78 339.36 223.63 339.86
  C 220.55 350.44 235.42 348.29 232.09 340.78
  Z"
/>
<path fill="#d1a862" fill-opacity="0.996" d="
  M 238.27 344.14
  L 238.37 329.35
  A 1.00 0.99 16.7 0 0 237.90 328.49
  L 237.51 328.25
  Q 236.35 327.52 237.71 327.49
  L 244.44 327.32
  A 0.51 0.50 2.9 0 1 244.96 327.89
  L 244.93 328.17
  A 1.00 0.99 -76.7 0 1 243.61 328.99
  Q 242.31 328.53 240.85 328.74
  A 1.00 1.00 0.0 0 0 240.00 329.73
  L 240.00 335.20
  A 1.00 0.99 2.5 0 0 240.91 336.19
  Q 242.75 336.36 244.51 336.22
  C 245.70 336.12 248.01 333.89 246.68 337.97
  A 0.41 0.40 31.3 0 1 246.01 338.13
  L 245.70 337.83
  A 1.05 1.05 0.0 0 0 245.04 337.55
  L 241.09 337.37
  A 1.00 1.00 0.0 0 0 240.05 338.36
  L 239.98 343.72
  A 1.00 1.00 0.0 0 0 240.97 344.73
  Q 245.26 344.81 246.51 344.74
  Q 247.58 344.68 248.38 344.13
  Q 250.57 342.64 249.30 344.97
  Q 249.23 345.10 249.14 345.23
  A 1.01 0.99 -74.0 0 1 248.32 345.69
  Q 243.15 345.76 237.98 345.80
  C 237.57 345.81 236.28 345.66 237.68 345.04
  A 0.99 0.98 -12.0 0 0 238.27 344.14
  Z"
/>
<path fill="#d1a862" fill-opacity="0.996" d="
  M 250.05 330.15
  L 250.26 331.00
  Q 250.71 332.90 249.38 331.47
  Q 247.90 329.87 249.98 328.47
  Q 251.05 327.75 252.86 327.60
  Q 254.83 327.42 256.83 327.35
  Q 258.15 327.30 257.38 328.36
  Q 257.24 328.55 257.12 328.74
  C 256.00 330.45 256.92 341.79 257.08 344.42
  A 0.63 0.62 -81.7 0 0 257.49 344.98
  Q 257.67 345.05 257.82 345.16
  Q 258.62 345.76 257.63 345.76
  L 254.14 345.76
  Q 253.55 345.76 253.87 345.25
  Q 254.05 344.96 254.43 344.99
  A 0.51 0.51 0.0 0 0 254.99 344.49
  L 255.03 329.60
  A 1.01 1.01 0.0 0 0 253.92 328.60
  L 250.92 328.92
  A 1.01 1.00 80.4 0 0 250.05 330.15
  Z"
/>
<path fill="#d7a056" fill-opacity="0.996" d="
  M 286.01 329.19
  A 1.01 1.00 -4.6 0 0 284.84 328.20
  Q 279.35 329.11 281.33 331.90
  C 281.71 332.43 281.00 332.27 280.84 332.16
  C 274.60 327.72 288.80 326.95 288.97 327.36
  A 0.33 0.32 -23.3 0 1 288.80 327.78
  C 286.68 328.77 287.50 340.90 287.50 343.50
  Q 287.51 344.01 287.87 344.51
  Q 288.72 345.70 287.26 345.78
  L 285.85 345.86
  Q 283.93 345.96 285.40 344.73
  L 285.64 344.53
  A 1.00 1.00 0.0 0 0 286.00 343.76
  L 286.01 329.19
  Z"
/>
<path fill="#d1a152" fill-opacity="0.996" d="
  M 317.11 345.87
  Q 316.29 345.58 317.04 345.14
  C 318.24 344.43 317.75 331.79 317.74 329.74
  A 1.03 1.01 -63.7 0 0 317.54 329.13
  L 317.21 328.70
  Q 316.22 327.42 317.84 327.41
  L 319.59 327.40
  Q 320.78 327.40 320.13 328.39
  Q 319.96 328.67 319.81 328.95
  C 318.75 330.97 319.49 342.05 319.50 344.94
  A 1.00 1.00 0.0 0 0 320.11 345.86
  C 324.96 347.91 331.75 350.45 336.98 348.81
  C 337.43 348.67 337.88 348.66 337.61 349.30
  A 0.65 0.62 -0.6 0 1 337.27 349.63
  C 329.41 353.06 324.14 348.44 317.11 345.87
  Z"
/>
<path fill="#d7a056" fill-opacity="0.996" d="
  M 346.50 329.04
  L 346.00 328.54
  C 346.93 328.18 354.49 326.48 354.51 327.56
  A 0.41 0.41 0.0 0 1 354.14 327.97
  Q 353.00 328.09 353.00 329.00
  Q 352.99 336.42 353.01 343.84
  A 1.00 1.00 0.0 0 0 353.50 344.70
  L 353.99 344.99
  Q 355.27 345.76 353.78 345.75
  L 350.18 345.75
  Q 348.69 345.75 350.05 345.12
  L 350.39 344.97
  A 1.00 1.00 0.0 0 0 350.97 344.06
  L 351.06 329.63
  A 1.00 1.00 0.0 0 0 349.94 328.64
  L 346.50 329.04
  Z"
/>
<path fill="#d7a056" fill-opacity="0.996" d="
  M 366.18 328.75
  L 359.60 328.75
  A 1.00 0.99 -63.7 0 0 358.99 328.96
  Q 357.37 330.22 357.72 328.22
  A 1.01 1.00 4.7 0 1 358.71 327.39
  L 369.09 327.46
  Q 370.89 327.47 369.93 329.00
  L 360.43 344.01
  A 1.00 1.00 0.0 0 0 360.88 345.46
  Q 366.06 347.70 372.68 348.78
  Q 377.13 349.51 380.62 348.04
  A 0.33 0.31 -32.8 0 1 380.98 348.11
  L 381.19 348.31
  A 0.27 0.12 -46.3 0 1 381.09 348.58
  C 377.99 351.81 371.98 351.04 368.17 349.63
  Q 363.29 347.84 358.53 345.77
  A 1.01 1.00 -61.9 0 1 358.09 344.31
  L 367.02 330.29
  Q 368.00 328.75 366.18 328.75
  Z"
/>
<path fill="#d1a862" fill-opacity="0.996" d="
  M 157.95 344.10
  L 158.13 329.81
  A 1.00 1.00 0.0 0 0 157.18 328.80
  Q 154.57 328.66 152.68 330.70
  Q 151.49 331.99 151.87 329.55
  A 1.00 1.00 0.0 0 1 152.57 328.75
  C 158.62 326.92 171.82 325.51 173.87 334.08
  Q 175.64 341.47 169.59 344.65
  C 166.28 346.39 161.45 345.70 157.55 345.81
  Q 156.21 345.85 157.30 345.07
  L 157.53 344.91
  A 1.00 0.99 -18.0 0 0 157.95 344.10
  Z
  M 168.81 329.69
  Q 165.31 327.97 160.80 328.85
  A 1.00 0.99 84.8 0 0 159.99 329.83
  L 159.95 343.58
  A 1.01 1.00 4.7 0 0 160.79 344.57
  Q 163.18 344.97 165.58 344.67
  C 173.22 343.70 174.75 332.60 168.81 329.69
  Z"
/>
<path fill="#d1a862" fill-opacity="0.996" d="
  M 196.21 336.25
  Q 196.59 337.11 195.94 337.40
  L 187.93 337.39
  A 1.00 1.00 0.0 0 0 186.94 338.25
  Q 186.50 341.42 186.58 344.50
  C 186.63 346.27 185.48 349.72 183.39 349.79
  Q 182.37 349.83 183.08 349.10
  C 184.21 347.93 185.00 346.88 185.00 345.13
  Q 185.01 337.26 184.99 329.40
  A 1.01 1.00 -71.1 0 0 184.61 328.61
  L 184.35 328.41
  Q 183.19 327.50 184.66 327.49
  L 186.16 327.49
  A 1.00 1.00 0.0 0 1 187.06 328.92
  Q 186.79 329.49 186.78 330.25
  Q 186.74 333.45 186.82 335.22
  A 1.00 0.99 88.5 0 0 187.81 336.17
  L 196.21 336.25
  Z"
/>
<path fill="#d7a056" fill-opacity="0.996" d="
  M 338.34 339.12
  Q 337.90 338.70 337.48 338.22
  A 1.00 1.00 0.0 0 1 338.01 336.59
  Q 343.20 335.38 340.66 329.58
  A 1.01 1.01 0.0 0 0 339.82 328.98
  L 336.35 328.71
  A 1.01 1.00 2.4 0 0 335.27 329.70
  Q 335.24 336.35 335.24 343.04
  Q 335.24 343.90 335.56 344.43
  Q 335.72 344.68 335.91 344.91
  Q 336.61 345.75 335.52 345.76
  L 334.05 345.76
  A 1.00 1.00 0.0 0 1 333.18 344.27
  Q 333.40 343.86 333.43 343.44
  C 333.48 342.76 334.11 330.14 332.94 328.69
  Q 332.83 328.55 332.71 328.42
  Q 332.04 327.71 333.00 327.56
  Q 337.86 326.83 342.27 328.81
  A 1.03 1.03 0.0 0 1 342.78 329.32
  Q 345.09 334.56 340.71 337.34
  A 0.99 0.99 0.0 0 0 340.50 338.85
  Q 344.07 342.83 347.97 346.78
  Q 350.05 348.89 353.43 350.04
  Q 353.97 350.23 353.71 350.57
  A 0.50 0.50 0.0 0 1 353.31 350.77
  C 346.92 350.88 342.72 343.31 338.34 339.12
  Z"
/>
<path fill="#d7a056" fill-opacity="0.996" d="
  M 374.88 328.63
  L 374.09 327.97
  Q 373.54 327.51 374.26 327.51
  L 377.56 327.49
  Q 379.00 327.49 377.78 328.25
  L 377.47 328.45
  A 0.99 0.99 0.0 0 0 377.00 329.29
  L 377.00 343.98
  A 1.00 0.98 -74.1 0 0 377.46 344.82
  L 377.87 345.08
  Q 379.13 345.88 377.63 345.84
  L 375.38 345.76
  Q 374.16 345.72 374.89 344.74
  Q 375.24 344.28 375.24 343.75
  Q 375.26 336.64 375.24 329.39
  A 1.00 0.98 20.3 0 0 374.88 328.63
  Z"
/>
<path fill="#ca9d61" d="
  M 346.00 328.54
  L 346.50 329.04
  Q 345.81 330.18 346.20 331.09
  Q 346.88 332.67 345.45 331.72
  Q 344.08 330.82 346.00 328.54
  Z"
/>
<path fill="#d1a152" fill-opacity="0.996" d="
  M 148.35 374.32
  Q 148.47 373.31 148.31 372.29
  Q 148.14 371.21 148.34 370.73
  Q 148.64 369.95 149.33 370.05
  A 1.00 1.00 0.0 0 1 150.20 371.06
  L 149.93 383.16
  A 1.01 0.99 -77.5 0 0 150.51 384.09
  L 150.81 384.23
  Q 152.66 385.09 150.72 385.72
  Q 149.81 386.02 149.06 385.22
  A 1.00 1.00 0.0 0 0 147.84 385.04
  C 141.32 388.74 137.72 375.57 147.39 375.20
  A 1.02 1.01 2.4 0 0 148.35 374.32
  Z
  M 148.5473 378.8855
  A 2.16 2.16 0.0 0 0 146.3835 376.7293
  L 145.5435 376.7307
  A 2.16 2.16 0.0 0 0 143.3873 378.8945
  L 143.3927 382.0145
  A 2.16 2.16 0.0 0 0 145.5565 384.1707
  L 146.3965 384.1693
  A 2.16 2.16 0.0 0 0 148.5527 382.0055
  L 148.5473 378.8855
  Z"
/>
<path fill="#ca9d61" d="
  M 226.50 380.29
  L 226.29 380.75
  L 226.24 384.71
  A 1.00 1.00 0.0 0 1 225.06 385.68
  L 224.81 385.63
  A 0.80 0.79 -81.9 0 1 224.16 384.76
  Q 224.84 378.03 224.19 371.29
  A 0.98 0.97 -20.6 0 1 224.60 370.39
  Q 226.41 369.07 226.31 371.75
  Q 226.12 376.94 226.50 380.29
  Z"
/>
<path fill="#d7a056" fill-opacity="0.996" d="
  M 93.25 381.94
  L 93.25 385.31
  A 0.52 0.51 89.4 0 1 92.75 385.83
  L 92.44 385.83
  A 1.00 1.00 0.0 0 1 91.43 384.83
  L 91.44 372.36
  A 0.99 0.99 0.0 0 1 92.22 371.39
  Q 96.12 370.53 99.36 372.59
  A 1.00 0.96 12.3 0 1 99.81 373.26
  Q 101.08 380.65 94.21 380.94
  A 1.00 1.00 0.0 0 0 93.25 381.94
  Z
  M 94.04 378.99
  C 99.39 380.15 100.20 371.72 94.04 373.04
  A 1.00 0.99 -6.1 0 0 93.25 374.01
  L 93.25 378.01
  A 1.00 1.00 0.0 0 0 94.04 378.99
  Z"
/>
<circle fill="#ca9d61" cx="172.29" cy="372.07" r="0.95"/>
<path fill="#d7a056" fill-opacity="0.996" d="
  M 188.26 378.54
  Q 190.28 380.20 189.69 382.49
  C 188.83 385.80 184.37 386.16 181.59 385.70
  A 0.99 0.99 0.0 0 1 180.75 384.72
  L 180.75 372.36
  A 1.02 1.00 -4.7 0 1 181.60 371.37
  Q 183.40 371.10 185.18 371.33
  C 188.47 371.78 189.88 374.34 188.05 377.24
  A 1.00 0.99 36.0 0 0 188.26 378.54
  Z
  M 183.47 377.54
  Q 187.60 377.98 186.89 374.00
  A 1.01 1.00 -86.6 0 0 186.20 373.22
  Q 181.11 371.65 182.61 376.83
  A 1.01 1.00 -5.2 0 0 183.47 377.54
  Z
  M 183.26 384.15
  C 188.46 385.33 190.26 379.18 183.57 378.88
  A 1.00 1.00 0.0 0 0 182.52 379.87
  L 182.49 383.16
  A 1.01 0.99 -83.2 0 0 183.26 384.15
  Z"
/>
<path fill="#ca9d61" d="
  M 246.75 379.00
  L 241.08 379.00
  A 1.01 1.00 90.0 0 0 240.08 380.01
  L 240.11 384.83
  A 0.97 0.93 63.1 0 1 239.93 385.42
  Q 239.28 386.32 238.73 385.50
  C 238.02 384.43 238.51 374.00 238.50 372.01
  A 0.80 0.79 -11.9 0 1 238.98 371.28
  C 239.97 370.84 240.32 371.64 240.27 372.49
  Q 240.16 374.67 240.31 376.82
  A 1.01 1.00 87.8 0 0 241.31 377.75
  L 246.75 377.75
  A 1.00 1.00 0.0 0 0 247.75 376.75
  L 247.75 371.69
  A 0.41 0.41 0.0 0 1 248.16 371.28
  L 248.50 371.28
  A 1.00 1.00 0.0 0 1 249.50 372.28
  L 249.50 385.27
  A 0.51 0.51 0.0 0 1 248.87 385.77
  L 248.52 385.69
  A 1.00 1.00 0.0 0 1 247.75 384.72
  L 247.75 380.00
  A 1.00 1.00 0.0 0 0 246.75 379.00
  Z"
/>
<path fill="#d1a862" fill-opacity="0.996" d="
  M 266.19 379.75
  L 269.29 371.98
  A 0.99 0.99 0.0 0 1 270.23 371.35
  L 270.62 371.35
  A 1.00 0.99 -2.6 0 1 271.60 372.24
  L 272.95 384.74
  A 0.98 0.98 0.0 0 1 272.65 385.57
  C 271.45 386.71 271.09 384.89 271.05 384.08
  C 270.98 382.43 270.51 372.80 269.21 376.17
  Q 267.74 379.97 266.26 383.55
  Q 265.29 385.89 264.40 383.52
  L 261.99 377.10
  Q 260.86 374.11 260.44 377.27
  Q 260.04 380.29 259.94 383.33
  C 259.91 384.11 259.53 387.49 258.11 385.10
  A 1.04 1.03 -57.5 0 1 257.97 384.45
  Q 258.79 378.56 259.38 372.72
  C 259.48 371.70 260.09 370.80 261.17 371.37
  A 1.01 0.99 -87.8 0 1 261.64 371.89
  L 264.71 379.75
  Q 265.44 381.64 266.19 379.75
  Z"
/>
<path fill="#d1a862" fill-opacity="0.996" d="
  M 113.69 376.88
  Q 112.22 376.02 113.78 375.24
  A 1.03 0.98 -5.0 0 0 114.29 374.66
  Q 115.20 371.86 116.16 374.53
  A 0.99 0.99 0.0 0 0 117.29 375.17
  Q 118.29 374.97 118.80 375.52
  Q 120.20 377.02 118.15 376.86
  L 117.08 376.78
  A 1.01 1.00 2.1 0 0 116.00 377.78
  L 116.00 383.29
  A 0.99 0.99 0.0 0 0 117.30 384.24
  Q 119.65 383.48 118.63 385.26
  A 1.00 0.99 10.7 0 1 117.91 385.75
  C 113.27 386.45 114.19 380.42 114.19 377.74
  A 1.02 1.02 0.0 0 0 113.69 376.88
  Z"
/>
<path fill="#d1a862" fill-opacity="0.996" d="
  M 226.29 380.75
  L 226.50 380.29
  L 230.85 375.30
  A 0.52 0.52 0.0 0 1 231.60 375.27
  C 232.32 375.98 229.42 378.93 228.91 379.60
  A 0.99 0.99 0.0 0 0 228.92 380.81
  L 232.00 384.79
  A 0.80 0.79 -58.0 0 1 232.15 385.47
  C 231.65 387.48 226.99 381.34 226.29 380.75
  Z"
/>
<path fill="#d1a862" fill-opacity="0.996" d="
  M 124.25 376.25
  L 124.95 375.74
  A 1.00 0.99 52.4 0 1 126.32 375.92
  L 126.51 376.15
  Q 127.10 376.89 126.16 376.98
  C 121.70 377.43 123.21 382.23 122.84 385.14
  A 0.82 0.81 82.5 0 1 122.35 385.79
  C 120.26 386.63 120.88 376.76 121.38 375.87
  Q 122.13 374.55 122.76 375.88
  A 0.99 0.99 0.0 0 0 124.25 376.25
  Z"
/>
<path fill="#d1a862" fill-opacity="0.996" d="
  M 132.38 376.81
  Q 130.56 376.49 129.02 377.54
  A 0.64 0.64 0.0 0 1 128.08 377.29
  L 127.94 376.99
  A 0.80 0.80 0.0 0 1 128.46 375.87
  C 136.49 373.77 134.67 378.26 134.88 383.27
  A 1.02 1.01 12.4 0 0 135.43 384.12
  Q 136.94 384.88 135.47 385.78
  A 1.01 1.00 -36.9 0 1 134.22 385.61
  Q 132.89 384.19 131.45 385.58
  A 1.01 1.01 0.0 0 1 130.64 385.86
  Q 127.08 385.45 127.90 381.82
  A 1.00 1.00 0.0 0 1 128.58 381.09
  L 132.54 379.85
  A 1.00 1.00 0.0 0 0 133.24 378.86
  L 133.21 377.76
  A 1.00 1.00 0.0 0 0 132.38 376.81
  Z
  M 133.3168 381.9910
  A 2.23 1.33 -19.9 0 0 130.7673 381.4994
  A 2.23 1.33 -19.9 0 0 129.1232 383.5090
  A 2.23 1.33 -19.9 0 0 131.6727 384.0006
  A 2.23 1.33 -19.9 0 0 133.3168 381.9910
  Z"
/>
<path fill="#d1a152" fill-opacity="0.996" d="
  M 158.76 379.46
  C 160.18 376.68 156.50 376.23 154.70 377.43
  Q 153.79 378.04 153.91 376.95
  Q 153.98 376.35 154.91 375.91
  C 161.62 372.77 160.22 379.89 160.05 383.19
  A 1.00 0.99 12.1 0 0 160.69 384.17
  L 161.17 384.36
  Q 162.25 384.78 161.32 385.47
  Q 160.19 386.30 159.24 385.12
  A 1.00 1.00 0.0 0 0 158.00 384.85
  L 156.36 385.69
  A 1.04 1.04 0.0 0 1 155.69 385.78
  Q 153.10 385.23 153.07 382.62
  A 1.01 1.01 0.0 0 1 153.40 381.85
  Q 155.33 380.14 157.92 380.00
  A 1.01 0.99 11.8 0 0 158.76 379.46
  Z
  M 155.47 382.02
  C 154.44 382.72 154.56 384.15 155.74 384.28
  Q 158.47 384.57 158.68 382.32
  A 1.01 1.00 88.0 0 0 157.53 381.24
  Q 156.38 381.41 155.47 382.02
  Z"
/>
<path fill="#ca9d61" d="
  M 167.39 376.03
  Q 168.01 375.55 168.85 375.46
  Q 170.11 375.33 169.47 376.42
  Q 168.82 377.55 167.10 377.44
  A 1.00 1.00 0.0 0 0 166.03 378.42
  C 166.03 378.78 166.63 387.92 164.50 385.61
  A 1.05 1.01 -66.8 0 1 164.24 384.92
  C 164.25 383.28 163.85 376.89 164.56 375.84
  Q 165.24 374.83 165.98 375.83
  A 1.01 1.00 52.8 0 0 167.39 376.03
  Z"
/>
<rect fill="#d1a152" fill-opacity="0.996" x="-0.77" y="-5.27" transform="translate(172.29,380.58) rotate(0.1)" width="1.54" height="10.54" rx="0.75"/>
<path fill="#d1a862" fill-opacity="0.996" d="
  M 196.21 376.79
  Q 194.30 376.49 192.70 377.58
  A 0.52 0.52 0.0 0 1 192.12 377.57
  C 190.62 376.52 195.58 374.48 198.12 376.02
  A 1.02 1.02 0.0 0 1 198.59 376.71
  C 198.92 378.59 198.16 383.38 199.54 384.36
  Q 201.30 385.61 199.15 385.81
  Q 198.44 385.87 197.63 385.09
  A 1.00 0.99 53.5 0 0 196.49 384.92
  L 194.88 385.72
  A 1.04 1.03 36.3 0 1 194.27 385.81
  Q 190.64 385.20 191.91 381.59
  A 0.99 0.99 0.0 0 1 192.58 380.96
  L 196.50 379.86
  A 1.01 1.00 77.9 0 0 197.22 378.74
  L 197.05 377.62
  A 1.00 0.99 0.1 0 0 196.21 376.79
  Z
  M 193.69 384.06
  Q 196.47 384.81 197.03 382.52
  A 1.00 0.99 89.2 0 0 195.80 381.32
  L 193.72 381.88
  A 1.02 1.02 0.0 0 0 193.03 382.52
  Q 192.60 383.77 193.69 384.06
  Z"
/>
<path fill="#d1a152" fill-opacity="0.996" d="
  M 205.03 376.15
  Q 206.08 376.02 207.02 375.44
  A 1.03 1.02 34.0 0 1 207.71 375.31
  C 213.18 376.23 212.52 386.65 205.61 385.87
  A 1.00 0.99 -86.7 0 0 204.50 386.86
  L 204.50 389.32
  A 0.26 0.26 0.0 0 1 204.25 389.58
  L 203.96 389.60
  A 1.00 1.00 0.0 0 1 202.91 388.59
  L 202.99 376.24
  Q 203.00 375.10 203.97 375.70
  Q 204.11 375.79 204.24 375.91
  A 1.00 0.99 -28.1 0 0 205.03 376.15
  Z
  M 209.4802 379.0946
  A 2.01 2.01 0.0 0 0 207.5307 377.0259
  L 206.5712 376.9974
  A 2.01 2.01 0.0 0 0 204.5024 378.9469
  L 204.3998 382.4054
  A 2.01 2.01 0.0 0 0 206.3493 384.4741
  L 207.3088 384.5026
  A 2.01 2.01 0.0 0 0 209.3776 382.5531
  L 209.4802 379.0946
  Z"
/>
<path fill="#d1a862" fill-opacity="0.996" d="
  M 218.48 377.45
  C 217.48 376.21 215.67 376.85 214.56 377.59
  A 0.79 0.78 -50.9 0 1 213.82 377.67
  Q 212.92 377.32 213.79 376.62
  Q 218.22 373.03 220.56 377.63
  A 1.00 0.99 33.5 0 1 220.67 378.16
  L 220.30 383.05
  A 1.01 0.99 -74.6 0 0 220.84 384.02
  Q 222.68 384.95 220.94 385.84
  A 1.01 1.01 0.0 0 1 219.71 385.58
  Q 218.48 384.06 217.06 385.49
  A 1.04 1.02 22.1 0 1 216.33 385.79
  Q 212.66 385.72 213.31 382.03
  A 1.02 1.01 85.0 0 1 213.96 381.25
  L 218.16 379.78
  A 0.99 0.98 86.8 0 0 218.80 379.06
  Q 219.02 378.12 218.48 377.45
  Z
  M 214.99 382.41
  Q 213.58 383.73 215.46 384.12
  Q 217.91 384.63 218.58 382.62
  A 1.01 1.00 7.7 0 0 217.57 381.30
  Q 216.08 381.40 214.99 382.41
  Z"
/>
<path fill="#d1a152" fill-opacity="0.996" d="
  M 279.99 376.94
  Q 278.10 376.40 276.50 377.73
  A 0.51 0.51 0.0 0 1 275.81 377.69
  L 275.59 377.47
  A 0.42 0.41 -44.5 0 1 275.60 376.89
  Q 278.84 373.70 282.22 376.59
  A 0.99 0.95 22.5 0 1 282.57 377.39
  L 282.32 383.06
  A 1.00 0.99 12.7 0 0 282.93 384.02
  Q 284.58 384.73 283.04 385.72
  A 1.00 0.99 52.8 0 1 281.75 385.54
  Q 280.53 384.17 278.98 385.54
  A 1.02 1.02 0.0 0 1 278.26 385.79
  Q 274.49 385.59 275.37 381.89
  A 1.02 1.01 -2.8 0 1 276.03 381.17
  L 280.06 379.85
  A 1.00 1.00 0.0 0 0 280.75 378.87
  L 280.72 377.87
  A 1.01 1.01 0.0 0 0 279.99 376.94
  Z
  M 277.44 384.06
  Q 280.16 384.95 280.63 382.57
  A 0.99 0.99 0.0 0 0 279.51 381.39
  Q 278.68 381.51 277.91 381.76
  C 276.78 382.12 276.20 383.66 277.44 384.06
  Z"
/>
<path fill="#d1a152" fill-opacity="0.996" d="
  M 287.84 378.68
  Q 289.18 379.91 290.90 380.59
  A 0.95 0.93 -7.4 0 1 291.35 380.93
  C 293.91 384.48 288.90 386.70 286.08 385.47
  Q 285.50 385.21 285.37 384.77
  Q 285.03 383.60 286.19 383.99
  C 287.64 384.47 291.23 385.03 289.99 382.40
  A 1.04 1.04 0.0 0 0 289.57 381.95
  L 286.69 380.34
  Q 284.34 379.02 285.96 376.98
  C 288.16 374.21 293.06 375.53 291.50 377.00
  A 0.65 0.65 0.0 0 1 290.80 377.12
  Q 289.35 376.45 288.10 377.04
  A 1.00 1.00 0.0 0 0 287.84 378.68
  Z"
/>
<path fill="#d7a056" fill-opacity="0.996" d="
  M 313.59 385.75
  A 1.01 0.99 -78.5 0 1 313.01 384.85
  C 313.01 383.56 312.55 375.76 313.68 375.48
  A 0.81 0.80 -26.7 0 1 314.49 375.74
  Q 315.17 376.56 316.05 376.09
  C 322.57 372.55 321.25 382.01 321.23 384.88
  A 1.00 0.99 82.7 0 1 320.51 385.83
  C 318.53 386.42 319.36 380.76 319.59 378.75
  A 1.00 0.99 29.0 0 0 319.37 378.00
  Q 317.63 375.89 315.35 377.92
  A 0.99 0.97 69.0 0 0 315.02 378.68
  C 315.05 380.87 315.53 386.66 313.59 385.75
  Z"
/>
<path fill="#d89c4c" fill-opacity="0.996" d="
  M 102.94 384.59
  A 1.01 1.00 -70.5 0 1 102.61 383.89
  C 102.55 382.73 101.83 375.42 103.46 375.43
  A 0.80 0.79 90.0 0 1 104.25 376.23
  L 104.25 382.99
  A 1.00 1.00 0.0 0 0 104.79 383.88
  Q 106.68 384.85 108.36 383.26
  A 1.03 1.01 71.0 0 0 108.68 382.59
  C 108.73 381.69 108.12 374.87 109.85 375.49
  A 1.00 0.99 10.3 0 1 110.52 376.44
  L 110.44 382.81
  A 1.04 1.03 -64.5 0 0 110.66 383.45
  Q 113.59 387.10 108.74 384.92
  A 1.00 1.00 0.0 0 0 107.72 385.03
  Q 105.40 386.79 102.94 384.59
  Z"
/>
<path fill="#d1a152" fill-opacity="0.996" d="
  M 295.53 385.81
  A 1.00 1.00 0.0 0 1 294.50 384.81
  L 294.50 376.30
  A 0.79 0.78 73.8 0 1 294.86 375.64
  Q 295.53 375.19 295.94 375.87
  A 1.00 1.00 0.0 0 0 297.25 376.25
  L 298.50 375.62
  Q 298.64 375.54 298.80 375.52
  Q 300.37 375.28 299.76 376.53
  A 1.02 1.00 5.2 0 1 299.12 377.05
  Q 295.32 378.08 296.79 384.82
  A 0.80 0.80 0.0 0 1 296.03 385.79
  L 295.53 385.81
  Z"
/>
<path fill="#d1a152" fill-opacity="0.996" d="
  M 302.19 384.82
  A 0.99 0.98 -71.8 0 1 301.78 384.00
  C 301.80 382.88 300.84 375.53 302.66 375.44
  A 0.79 0.79 0.0 0 1 303.50 376.23
  L 303.50 383.05
  A 1.01 1.00 -77.5 0 0 304.07 383.96
  Q 305.92 384.84 307.41 383.18
  A 0.99 0.98 -22.3 0 0 307.67 382.57
  C 307.73 381.37 307.21 375.47 308.67 375.41
  A 0.80 0.80 0.0 0 1 309.50 376.21
  L 309.50 383.09
  A 1.00 1.00 0.0 0 0 309.99 383.95
  Q 311.98 385.14 309.85 385.75
  A 1.00 0.99 -28.1 0 1 308.83 385.45
  Q 308.31 384.86 307.54 384.74
  A 1.03 0.98 -59.9 0 0 306.73 384.98
  Q 304.75 386.70 302.19 384.82
  Z"
/>
<circle fill="#ca9d61" cx="254.19" cy="384.80" r="1.04"/>
<path fill="#d1a862" fill-opacity="0.996" d="
  M 95.95 415.55
  C 88.30 419.41 86.50 405.46 95.29 406.09
  A 1.00 0.99 -77.7 0 0 96.30 405.43
  C 96.69 404.34 95.77 400.56 97.33 400.77
  A 0.82 0.81 4.1 0 1 98.03 401.57
  L 97.93 414.04
  A 1.02 1.01 9.2 0 0 98.63 415.00
  Q 100.40 415.56 98.69 416.37
  A 0.99 0.98 54.3 0 1 97.56 416.18
  L 97.10 415.73
  A 0.99 0.99 0.0 0 0 95.95 415.55
  Z
  M 93.7507 415.0908
  A 3.96 2.80 93.9 0 0 96.8135 411.3304
  A 3.96 2.80 93.9 0 0 94.2893 407.1892
  A 3.96 2.80 93.9 0 0 91.2265 410.9496
  A 3.96 2.80 93.9 0 0 93.7507 415.0908
  Z"
/>
<path fill="#ca9d61" d="
  M 135.94 416.31
  Q 135.65 416.27 134.50 416.28
  A 1.00 1.00 0.0 0 1 133.50 415.28
  L 133.47 401.78
  A 1.01 1.00 -4.7 0 1 134.31 400.79
  L 134.56 400.75
  A 0.63 0.63 0.0 0 1 135.30 401.40
  L 135.15 405.60
  A 1.01 1.00 -8.2 0 0 136.47 406.58
  Q 142.21 404.69 141.78 411.76
  Q 141.46 417.09 135.94 416.31
  Z
  M 140.1410 409.7756
  A 2.06 2.06 0.0 0 0 138.0453 407.7518
  L 137.0455 407.7693
  A 2.06 2.06 0.0 0 0 135.0218 409.8649
  L 135.0790 413.1444
  A 2.06 2.06 0.0 0 0 137.1747 415.1682
  L 138.1745 415.1507
  A 2.06 2.06 0.0 0 0 140.1982 413.0551
  L 140.1410 409.7756
  Z"
/>
<path fill="#d1a862" fill-opacity="0.996" d="
  M 216.04 410.50
  L 216.04 411.75
  L 215.79 415.44
  A 1.00 1.00 0.0 0 1 214.86 416.37
  L 214.55 416.39
  A 0.51 0.51 0.0 0 1 214.00 415.88
  L 214.00 401.80
  A 1.00 1.00 0.0 0 1 214.79 400.82
  L 215.16 400.74
  A 0.52 0.51 83.0 0 1 215.78 401.23
  L 216.04 410.50
  Z"
/>
<path fill="#d49844" fill-opacity="0.996" d="
  M 254.97 407.81
  Q 252.83 407.21 251.27 408.87
  A 1.02 1.00 66.8 0 0 251.00 409.56
  L 251.00 415.45
  A 1.00 0.99 74.4 0 1 250.53 416.30
  C 249.42 416.99 249.22 415.42 249.28 414.68
  Q 249.75 408.29 249.35 401.88
  A 1.01 1.01 0.0 0 1 250.24 400.82
  L 250.54 400.78
  A 0.42 0.41 -3.1 0 1 251.00 401.19
  L 251.00 405.86
  A 1.00 1.00 0.0 0 0 252.50 406.73
  L 253.52 406.14
  Q 253.74 406.01 254.01 406.01
  C 258.68 405.96 257.56 411.89 257.46 416.00
  A 0.41 0.40 -87.3 0 1 257.03 416.40
  L 256.71 416.37
  A 0.99 0.99 0.0 0 1 255.78 415.39
  L 255.70 408.76
  A 1.01 1.00 7.9 0 0 254.97 407.81
  Z"
/>
<rect fill="#d7a056" fill-opacity="0.996" x="-0.89" y="-7.83" transform="translate(284.86,408.59) rotate(-0.2)" width="1.78" height="15.66" rx="0.63"/>
<path fill="#d1a152" fill-opacity="0.996" d="
  M 310.40 406.54
  Q 312.69 405.37 314.68 407.23
  A 0.99 0.98 -68.5 0 1 315.00 407.98
  C 314.98 408.72 315.84 417.94 313.78 416.19
  A 0.80 0.80 0.0 0 1 313.50 415.58
  L 313.50 408.78
  A 1.00 0.98 -80.6 0 0 312.84 407.84
  Q 311.01 407.18 309.42 408.49
  A 1.03 1.01 -19.3 0 0 309.06 409.22
  C 309.00 410.56 309.32 415.23 308.68 416.09
  C 307.68 417.44 306.96 415.66 307.02 414.82
  Q 307.44 408.57 306.89 402.31
  A 0.98 0.98 0.0 0 1 307.06 401.67
  C 308.87 398.97 309.12 402.21 309.01 403.24
  Q 308.87 404.47 308.94 405.70
  A 1.01 1.01 0.0 0 0 310.40 406.54
  Z"
/>
<circle fill="#ca9d61" cx="176.08" cy="402.76" r="1.04"/>
<circle fill="#d7a056" fill-opacity="0.996" cx="224.94" cy="402.72" r="1.01"/>
<path fill="#d1a152" fill-opacity="0.996" d="
  M 268.17 419.35
  Q 266.16 418.78 265.25 415.49
  Q 263.70 409.89 265.77 404.48
  Q 266.33 403.02 267.57 402.22
  Q 269.80 400.78 268.26 402.95
  Q 264.88 407.70 266.26 413.77
  Q 266.92 416.66 268.44 418.07
  A 1.03 1.00 20.4 0 1 268.75 418.72
  Q 268.82 419.54 268.17 419.35
  Z"
/>
<rect fill="#ca9d61" x="-0.86" y="-7.22" transform="translate(128.64,409.25) rotate(-0.1)" width="1.72" height="14.44" rx="0.84"/>
<path fill="#ca9d61" d="
  M 161.75 411.00
  L 161.75 415.49
  A 1.00 0.99 -18.9 0 1 161.36 416.28
  C 159.16 417.98 160.01 404.40 160.02 403.42
  C 160.03 402.66 160.50 401.51 161.40 402.14
  A 0.81 0.77 17.9 0 1 161.75 402.79
  L 161.75 407.32
  A 1.01 1.00 -0.3 0 0 162.77 408.32
  L 168.30 408.23
  A 1.01 1.00 89.7 0 0 169.29 407.22
  C 169.28 406.28 168.59 401.16 170.58 402.11
  A 1.01 1.00 13.4 0 1 171.15 403.03
  L 170.94 415.67
  A 0.83 0.82 -18.3 0 1 170.62 416.30
  Q 169.76 416.94 169.31 415.68
  Q 169.04 414.92 169.28 411.06
  A 1.00 1.00 0.0 0 0 168.28 410.00
  L 162.75 410.00
  A 1.00 1.00 0.0 0 0 161.75 411.00
  Z"
/>
<path fill="#ca9d61" d="
  M 193.92 410.20
  Q 195.37 407.09 196.51 403.58
  C 197.20 401.47 199.02 401.46 199.27 403.93
  Q 199.86 409.69 200.43 415.44
  A 0.99 0.96 61.0 0 1 200.25 416.12
  C 199.57 417.07 198.85 415.96 198.80 415.21
  C 198.73 414.22 198.23 405.11 197.64 405.10
  A 0.25 0.24 10.8 0 0 197.39 405.26
  L 193.93 414.20
  Q 193.04 416.48 192.08 414.24
  Q 190.37 410.29 188.58 405.78
  C 188.14 404.66 187.81 406.09 187.81 406.34
  Q 187.72 410.76 187.23 415.18
  C 187.11 416.26 185.72 417.49 185.71 415.25
  Q 185.71 412.76 187.11 403.02
  A 1.01 0.99 84.7 0 1 187.76 402.22
  Q 189.12 401.74 189.53 402.98
  Q 190.71 406.59 192.08 410.13
  Q 192.92 412.31 193.92 410.20
  Z"
/>
<path fill="#d89c4c" fill-opacity="0.996" d="
  M 272.18 413.24
  C 271.91 414.06 271.35 415.99 270.60 416.41
  C 268.37 417.69 274.12 403.62 274.41 402.87
  A 1.00 0.98 -80.9 0 1 275.29 402.22
  L 275.99 402.18
  A 1.02 1.00 -10.3 0 1 276.99 402.86
  Q 278.92 408.54 280.78 414.26
  C 281.03 415.02 281.25 417.93 279.53 415.81
  Q 279.40 415.65 279.34 415.45
  L 278.71 413.20
  A 1.01 1.00 -8.3 0 0 277.73 412.47
  L 273.11 412.56
  A 1.00 0.99 8.6 0 0 272.18 413.24
  Z
  M 273.29 410.56
  A 0.37 0.37 0.0 0 0 273.65 411.04
  L 277.63 410.96
  A 0.37 0.37 0.0 0 0 277.97 410.46
  L 275.86 404.77
  A 0.37 0.37 0.0 0 0 275.16 404.78
  L 273.29 410.56
  Z"
/>
<path fill="#d7a056" fill-opacity="0.996" d="
  M 318.95 402.55
  Q 319.64 403.20 319.87 403.66
  Q 323.84 411.64 318.78 418.85
  A 1.01 1.01 0.0 0 1 318.25 419.23
  C 315.86 419.96 318.28 417.31 318.48 417.09
  C 321.01 414.18 320.39 405.67 317.62 402.92
  Q 316.16 401.49 318.12 402.07
  Q 318.58 402.21 318.95 402.55
  Z"
/>
<path fill="#d7a056" fill-opacity="0.996" d="
  M 107.19 415.75
  A 0.99 0.99 0.0 0 0 105.81 415.55
  Q 102.34 418.11 100.63 413.26
  A 1.01 1.00 72.1 0 1 101.29 411.96
  L 106.00 410.58
  A 1.02 1.01 -87.5 0 0 106.66 409.97
  C 107.89 406.70 103.83 407.18 102.27 408.35
  A 0.50 0.50 0.0 0 1 101.68 408.36
  C 100.48 407.55 104.97 404.40 108.03 407.46
  A 1.03 1.02 24.6 0 1 108.32 408.22
  L 108.02 414.01
  A 1.00 0.99 -82.5 0 0 108.80 415.03
  L 109.06 415.09
  Q 110.40 415.39 109.31 416.22
  Q 108.22 417.06 107.19 415.75
  Z
  M 106.6806 412.4833
  A 2.20 1.35 -25.2 0 0 104.1152 412.1985
  A 2.20 1.35 -25.2 0 0 102.6994 414.3567
  A 2.20 1.35 -25.2 0 0 105.2648 414.6415
  A 2.20 1.35 -25.2 0 0 106.6806 412.4833
  Z"
/>
<path fill="#d7a056" fill-opacity="0.996" d="
  M 117.56 407.59
  Q 115.61 407.48 114.29 408.81
  A 0.96 0.95 67.5 0 0 114.00 409.52
  L 114.00 415.45
  A 1.01 1.01 0.0 0 1 113.22 416.43
  L 112.87 416.50
  A 0.51 0.51 0.0 0 1 112.25 416.00
  L 112.25 406.92
  A 0.82 0.79 -22.4 0 1 112.50 406.34
  Q 113.19 405.69 113.76 406.50
  A 1.00 0.99 66.5 0 0 114.79 406.91
  Q 115.28 406.80 115.71 406.57
  C 121.56 403.37 120.22 413.39 120.43 415.69
  A 0.64 0.64 0.0 0 1 119.79 416.39
  L 119.50 416.39
  A 1.00 1.00 0.0 0 1 118.50 415.39
  L 118.51 408.59
  A 1.00 1.00 0.0 0 0 117.56 407.59
  Z"
/>
<path fill="#ca9d61" d="
  M 174.97 407.74
  C 174.66 407.57 171.48 406.99 173.99 406.20
  Q 175.27 405.80 176.53 406.04
  A 1.01 1.00 -84.2 0 1 177.34 407.04
  L 177.20 417.25
  Q 177.20 417.42 176.30 419.03
  Q 175.74 420.03 174.85 420.28
  Q 172.69 420.87 174.21 419.22
  C 176.24 417.03 175.52 411.48 175.48 408.60
  A 1.01 1.00 -76.1 0 0 174.97 407.74
  Z"
/>
<path fill="#d1a862" fill-opacity="0.996" d="
  M 207.99 415.55
  L 205.59 416.39
  A 1.07 1.04 42.2 0 1 205.02 416.41
  Q 202.18 415.70 203.26 412.33
  A 1.00 1.00 0.0 0 1 203.95 411.68
  L 207.83 410.60
  A 1.01 1.00 -2.8 0 0 208.55 409.81
  Q 208.84 408.10 207.13 407.27
  A 1.00 1.00 0.0 0 0 206.32 407.25
  L 204.08 408.17
  Q 202.43 408.84 203.47 407.40
  Q 203.63 407.16 203.96 406.96
  Q 207.18 404.99 209.71 407.30
  A 1.01 0.99 22.4 0 1 210.04 408.06
  L 209.90 414.07
  A 1.02 1.01 -70.7 0 0 210.29 414.89
  L 210.57 415.10
  Q 211.71 415.96 210.38 416.48
  Q 209.68 416.75 209.15 415.95
  A 1.01 1.00 63.7 0 0 207.99 415.55
  Z
  M 208.2718 412.4447
  A 2.12 1.40 -28.0 0 0 205.7427 412.2039
  A 2.12 1.40 -28.0 0 0 204.5282 414.4353
  A 2.12 1.40 -28.0 0 0 207.0573 414.6761
  A 2.12 1.40 -28.0 0 0 208.2718 412.4447
  Z"
/>
<path fill="#d1a152" fill-opacity="0.996" d="
  M 216.04 411.75
  L 216.04 410.50
  Q 217.10 409.67 219.37 406.67
  Q 220.16 405.62 220.90 406.02
  A 0.80 0.80 0.0 0 1 221.08 407.28
  L 218.23 410.19
  A 1.00 0.99 46.5 0 0 218.20 411.55
  L 221.36 415.13
  A 1.01 1.00 -43.1 0 1 221.31 416.51
  L 221.01 416.80
  Q 219.98 417.80 218.80 414.95
  Q 217.94 412.87 216.04 411.75
  Z"
/>
<rect fill="#d1a152" fill-opacity="0.996" x="-0.93" y="-5.21" transform="translate(224.93,411.24) rotate(0.9)" width="1.86" height="10.42" rx="0.82"/>
<path fill="#d1a152" fill-opacity="0.996" d="
  M 233.41 411.91
  Q 234.20 409.92 235.23 406.75
  Q 235.54 405.78 236.15 406.08
  A 0.82 0.80 -67.7 0 1 236.55 407.06
  C 235.11 411.27 233.58 418.34 229.33 420.51
  A 1.02 1.01 45.3 0 1 228.41 420.50
  Q 225.99 419.24 229.79 418.57
  Q 232.40 418.11 231.16 414.83
  L 228.27 407.18
  A 1.00 0.98 64.5 0 1 228.69 405.97
  Q 229.44 405.53 229.80 406.73
  Q 230.76 409.91 231.55 411.91
  Q 232.48 414.27 233.41 411.91
  Z"
/>
<path fill="#d7a056" fill-opacity="0.996" d="
  M 300.59 407.29
  L 297.84 408.52
  A 1.01 1.01 0.0 0 0 297.25 409.44
  L 297.25 415.39
  A 1.00 1.00 0.0 0 1 296.68 416.29
  L 296.33 416.46
  A 0.41 0.40 77.2 0 1 295.75 416.09
  L 295.75 408.95
  A 1.01 0.99 -74.7 0 0 295.27 408.09
  Q 293.13 406.80 291.33 408.80
  A 0.99 0.98 -22.3 0 0 291.07 409.41
  C 291.03 410.11 291.64 417.49 289.74 416.32
  A 1.00 0.99 -74.4 0 1 289.27 415.47
  C 289.27 414.91 288.27 403.63 291.04 406.56
  A 1.00 0.99 53.2 0 0 292.25 406.74
  Q 294.55 405.45 296.80 407.04
  A 1.00 0.98 -36.3 0 0 297.72 407.17
  C 299.71 406.44 301.41 405.05 303.19 407.31
  C 304.24 408.63 303.75 414.12 303.72 415.95
  A 0.51 0.50 3.1 0 1 303.16 416.45
  L 302.89 416.42
  A 1.00 1.00 0.0 0 1 302.00 415.43
  L 302.00 408.21
  A 1.01 1.01 0.0 0 0 300.59 407.29
  Z"
/>
<path fill="#ca9d61" d="
  M 152.74 414.76
  L 153.38 415.13
  Q 154.54 415.80 153.29 416.28
  L 152.96 416.41
  A 0.99 0.97 -36.3 0 1 151.99 416.27
  L 151.07 415.57
  A 1.00 0.99 -44.7 0 0 149.84 415.57
  Q 147.39 417.47 145.12 415.27
  A 1.03 1.01 21.5 0 1 144.82 414.60
  L 144.48 407.33
  A 1.00 1.00 0.0 0 1 145.48 406.28
  L 145.88 406.28
  A 0.64 0.63 -87.1 0 1 146.51 406.98
  C 146.36 408.54 144.95 419.00 150.43 413.92
  A 1.02 1.01 68.5 0 0 150.75 413.18
  L 150.75 406.70
  A 0.41 0.41 0.0 0 1 151.16 406.29
  L 151.48 406.29
  A 0.79 0.79 0.0 0 1 152.27 407.09
  L 152.24 413.89
  A 1.01 1.00 -75.0 0 0 152.74 414.76
  Z"
/>
<path fill="#d49844" fill-opacity="0.996" d="
  M 243.80 409.49
  Q 243.07 405.60 239.45 408.30
  A 0.63 0.62 42.0 0 1 238.74 408.33
  C 237.50 407.59 242.19 404.38 245.05 407.63
  A 0.99 0.98 -64.2 0 1 245.30 408.36
  L 244.90 413.93
  A 0.99 0.99 0.0 0 0 245.49 414.91
  L 246.07 415.18
  Q 247.15 415.67 246.15 416.30
  Q 245.77 416.54 245.29 416.45
  C 243.96 416.20 243.61 414.12 241.82 416.13
  A 1.00 0.99 24.2 0 1 240.94 416.46
  Q 237.17 415.95 238.48 412.29
  A 1.00 0.99 -87.1 0 1 239.17 411.66
  L 243.07 410.64
  A 1.00 0.99 -13.0 0 0 243.80 409.49
  Z
  M 243.7273 412.4863
  A 2.20 1.41 -25.4 0 0 241.1352 412.1563
  A 2.20 1.41 -25.4 0 0 239.7527 414.3737
  A 2.20 1.41 -25.4 0 0 242.3448 414.7037
  A 2.20 1.41 -25.4 0 0 243.7273 412.4863
  Z"
/>
<circle fill="#ca9d61" cx="181.73" cy="415.51" r="1.00"/>
</svg>
