<?xml version="1.0" encoding="UTF-8" standalone="no"?>
<!DOCTYPE svg PUBLIC "-//W3C//DTD SVG 1.1//EN" "http://www.w3.org/Graphics/SVG/1.1/DTD/svg11.dtd">
<svg xmlns="http://www.w3.org/2000/svg" version="1.1" viewBox="0 0 375 666">
<g stroke-width="2.10" fill="none" stroke-linecap="butt">
<path stroke="#d0a25c" vector-effect="non-scaling-stroke" d="
  M 159.00 230.21
  L 158.50 230.71"
/>
<path stroke="#d9a252" stroke-opacity="0.996" vector-effect="non-scaling-stroke" d="
  M 53.54 229.00
  L 54.25 229.54"
/>
<path stroke="#d19e56" vector-effect="non-scaling-stroke" d="
  M 258.75 238.46
  L 258.46 237.50"
/>
<path stroke="#d19e56" vector-effect="non-scaling-stroke" d="
  M 252.79 237.50
  L 252.75 238.21"
/>
<path stroke="#d7b77f" stroke-opacity="0.996" vector-effect="non-scaling-stroke" d="
  M 71.25 333.71
  L 72.21 333.75"
/>
<path stroke="#d7b77f" stroke-opacity="0.996" vector-effect="non-scaling-stroke" d="
  M 101.00 335.21
  L 101.96 335.25"
/>
<path stroke="#d7b77f" stroke-opacity="0.996" vector-effect="non-scaling-stroke" d="
  M 88.00 334.79
  L 87.50 334.71"
/>
<path stroke="#d7b77f" stroke-opacity="0.996" vector-effect="non-scaling-stroke" d="
  M 41.00 335.54
  L 40.47 336.01"
/>
<path stroke="#d7b77f" stroke-opacity="0.996" vector-effect="non-scaling-stroke" d="
  M 326.00 335.04
  L 325.25 334.54"
/>
<path stroke="#d7b77f" stroke-opacity="0.996" vector-effect="non-scaling-stroke" d="
  M 278.21 334.75
  L 277.25 335.04"
/>
<path stroke="#d7b77f" stroke-opacity="0.996" vector-effect="non-scaling-stroke" d="
  M 248.21 337.25
  L 247.50 337.21"
/>
<path stroke="#d7b77f" stroke-opacity="0.996" vector-effect="non-scaling-stroke" d="
  M 235.79 337.50
  L 236.00 336.79"
/>
<path stroke="#d7b77f" stroke-opacity="0.996" vector-effect="non-scaling-stroke" d="
  M 263.79 335.25
  L 264.50 335.21"
/>
<path stroke="#d7b77f" stroke-opacity="0.996" vector-effect="non-scaling-stroke" d="
  M 272.79 334.50
  L 274.00 333.96"
/>
<path stroke="#d7b77f" stroke-opacity="0.996" vector-effect="non-scaling-stroke" d="
  M 292.25 333.96
  L 293.25 333.96"
/>
<path stroke="#d7b77f" stroke-opacity="0.996" vector-effect="non-scaling-stroke" d="
  M 309.25 333.71
  L 310.21 333.75"
/>
</g>
<path fill="#d8a658" fill-opacity="0.996" d="
  M 159.00 230.21
  L 158.50 230.71
  C 157.87 230.81 152.42 241.74 152.13 243.01
  Q 152.08 243.23 152.02 243.44
  Q 151.58 245.25 150.82 243.54
  L 144.20 228.67
  A 1.02 1.02 0.0 0 0 143.66 228.16
  L 143.27 228.00
  Q 141.10 227.12 143.44 227.21
  L 146.51 227.33
  A 0.52 0.51 14.9 0 1 146.95 228.08
  L 146.81 228.34
  A 1.00 1.00 0.0 0 0 146.75 229.17
  L 150.57 239.28
  Q 151.39 241.43 152.41 239.37
  Q 155.61 232.91 158.36 226.34
  C 159.73 223.06 161.84 221.38 165.27 221.20
  A 0.53 0.48 -22.8 0 1 165.64 221.33
  Q 166.02 221.68 165.29 221.81
  Q 161.29 222.53 159.97 226.03
  A 0.99 0.99 0.0 0 0 160.95 227.38
  Q 163.55 227.24 166.14 227.07
  C 166.81 227.03 167.93 227.28 166.56 227.95
  A 1.01 1.00 -13.4 0 0 166.00 228.85
  L 166.00 242.95
  A 0.99 0.99 0.0 0 0 166.29 243.65
  L 166.52 243.88
  Q 167.37 244.75 166.15 244.75
  L 164.33 244.76
  Q 163.28 244.76 163.92 243.93
  Q 164.18 243.60 164.21 243.25
  Q 164.74 237.76 164.35 229.14
  A 1.01 1.00 6.9 0 0 163.62 228.22
  Q 160.53 227.36 159.00 230.21
  Z"
/>
<path fill="#d8a658" fill-opacity="0.996" d="
  M 53.54 229.00
  L 54.25 229.54
  C 51.67 234.84 55.90 245.62 46.16 245.02
  C 37.91 244.50 39.77 234.45 39.74 228.92
  A 0.99 0.99 0.0 0 0 39.45 228.22
  L 39.18 227.95
  Q 38.48 227.25 39.47 227.25
  L 41.85 227.25
  Q 42.68 227.25 42.07 227.82
  L 41.80 228.07
  A 1.02 1.01 -22.1 0 0 41.49 228.80
  C 41.50 232.02 40.77 238.86 42.23 241.56
  C 43.73 244.34 47.54 244.95 49.92 242.88
  C 55.83 237.71 47.09 224.43 57.51 223.17
  C 57.79 223.13 58.96 223.56 57.75 223.75
  Q 53.34 224.47 53.54 229.00
  Z"
/>
<path fill="#da9e4c" fill-opacity="0.996" d="
  M 326.80 232.35
  Q 325.34 230.82 325.42 232.93
  Q 325.57 237.09 325.51 241.25
  Q 325.49 242.68 325.84 243.55
  A 1.00 0.99 72.8 0 1 325.13 244.90
  Q 323.13 245.33 323.74 243.65
  C 324.67 241.09 324.08 235.04 324.10 232.10
  Q 324.12 228.93 322.88 227.30
  Q 321.28 225.21 318.67 224.76
  Q 315.54 224.21 318.71 223.95
  Q 321.10 223.75 322.89 225.59
  Q 329.61 232.53 336.01 239.76
  Q 337.76 241.74 337.76 239.09
  L 337.75 229.09
  A 1.01 0.99 17.2 0 0 337.30 228.26
  C 334.94 226.69 341.58 226.55 339.29 228.44
  A 1.04 1.02 -20.6 0 0 338.93 229.22
  C 338.97 236.43 336.50 246.51 346.60 248.32
  A 0.21 0.21 0.0 0 1 346.77 248.56
  L 346.74 248.82
  A 0.25 0.17 2.4 0 1 346.50 248.97
  Q 342.22 248.91 340.60 247.14
  Q 333.73 239.63 326.80 232.35
  Z"
/>
<path fill="#d8a658" fill-opacity="0.996" d="
  M 235.13 239.69
  Q 236.04 241.76 236.96 239.70
  L 241.77 228.97
  Q 242.92 226.39 243.29 229.19
  Q 244.19 236.00 245.57 242.72
  Q 246.17 245.65 248.31 247.21
  Q 252.46 250.23 247.70 248.32
  Q 245.93 247.62 244.82 245.92
  Q 243.79 244.36 243.21 240.38
  Q 242.78 237.49 242.40 234.59
  Q 241.94 231.17 240.50 234.31
  L 236.56 242.88
  Q 235.64 244.89 234.74 242.88
  Q 232.31 237.48 229.84 232.10
  Q 229.59 231.58 229.24 231.86
  A 0.50 0.50 0.0 0 0 229.04 232.26
  Q 229.03 237.43 228.04 242.52
  Q 227.94 243.07 228.08 243.53
  A 0.99 0.99 0.0 0 1 227.24 244.82
  Q 224.76 245.10 226.59 243.49
  A 1.01 0.97 -19.1 0 0 226.93 242.82
  Q 227.36 237.34 228.02 231.96
  C 228.47 228.31 226.92 226.04 223.67 224.81
  Q 222.75 224.47 223.69 224.19
  C 226.36 223.41 229.74 228.03 230.78 230.20
  Q 233.06 234.98 235.13 239.69
  Z"
/>
<path fill="#d8ac69" fill-opacity="0.996" d="
  M 298.02 236.78
  L 290.64 236.65
  A 1.00 0.99 -2.5 0 0 289.63 237.75
  Q 290.06 242.03 289.27 245.48
  Q 288.89 247.15 287.70 247.69
  Q 285.60 248.63 286.91 246.74
  Q 287.22 246.30 287.48 245.85
  C 288.80 243.63 287.99 232.28 287.95 229.15
  A 1.03 1.02 -68.9 0 0 287.64 228.44
  Q 285.74 226.62 289.28 227.22
  A 1.00 0.99 11.1 0 1 290.09 228.41
  Q 289.44 231.51 289.78 234.70
  A 1.01 1.01 0.0 0 0 290.78 235.60
  L 298.10 235.55
  A 1.01 1.00 -3.6 0 0 299.09 234.43
  Q 298.57 230.10 299.75 225.87
  A 0.99 0.97 -10.7 0 1 300.14 225.31
  Q 303.92 222.69 301.22 226.11
  A 1.01 0.99 66.0 0 0 301.00 226.71
  Q 300.68 238.40 300.81 242.69
  Q 300.82 243.13 301.05 243.58
  A 0.80 0.79 76.1 0 1 300.35 244.75
  L 298.40 244.75
  Q 297.77 244.75 298.14 244.23
  Q 298.31 243.99 298.58 244.00
  A 0.41 0.41 0.0 0 0 299.00 243.59
  L 299.00 237.78
  A 1.00 1.00 0.0 0 0 298.02 236.78
  Z"
/>
<path fill="#da9e4c" fill-opacity="0.996" d="
  M 190.22 249.09
  C 190.66 249.22 192.00 249.14 191.48 249.80
  A 0.65 0.64 -68.6 0 1 190.94 250.04
  C 184.07 249.58 183.16 244.15 181.08 239.15
  A 0.99 0.99 0.0 0 0 180.18 238.54
  L 174.95 238.40
  A 1.02 1.00 -72.0 0 0 174.10 238.84
  Q 172.58 241.08 172.62 243.73
  A 1.00 0.99 89.4 0 1 171.63 244.75
  L 171.34 244.75
  Q 169.36 244.76 170.52 243.16
  Q 171.24 242.18 171.80 240.81
  Q 174.24 234.89 176.58 228.94
  A 0.99 0.97 41.6 0 0 176.52 228.08
  Q 175.25 225.79 172.64 226.49
  A 0.42 0.40 -39.2 0 1 172.39 226.47
  C 171.41 226.10 172.96 225.59 173.15 225.58
  C 184.13 225.04 179.56 245.81 190.22 249.09
  Z
  M 174.72 236.98
  A 0.41 0.41 0.0 0 0 175.12 237.53
  L 180.05 237.47
  A 0.41 0.41 0.0 0 0 180.43 236.91
  L 177.88 230.18
  A 0.41 0.41 0.0 0 0 177.11 230.19
  L 174.72 236.98
  Z"
/>
<path fill="#d8a658" fill-opacity="0.996" d="
  M 201.77 236.60
  A 1.00 1.00 0.0 0 0 201.68 238.08
  L 207.24 243.81
  A 1.00 0.99 35.1 0 0 208.86 243.53
  Q 211.92 236.86 214.77 230.12
  C 215.60 228.16 214.83 226.27 212.63 226.34
  Q 212.20 226.35 211.85 226.35
  Q 209.40 226.39 211.70 225.56
  Q 213.44 224.93 214.98 225.82
  Q 217.39 227.21 218.71 231.27
  C 220.91 238.01 223.65 248.80 229.96 249.31
  A 0.26 0.25 -84.6 0 1 230.19 249.60
  C 230.17 249.84 229.79 250.05 229.55 250.05
  C 223.04 249.80 221.58 243.78 219.33 239.08
  A 1.00 0.98 77.1 0 0 218.44 238.51
  L 213.36 238.47
  A 1.00 1.00 0.0 0 0 212.56 238.87
  Q 210.92 241.04 211.08 243.71
  A 1.00 1.00 0.0 0 1 210.15 244.76
  L 209.90 244.78
  Q 208.25 244.90 209.37 246.12
  Q 211.20 248.11 213.99 248.27
  Q 214.77 248.32 214.40 248.75
  A 0.67 0.66 17.8 0 1 213.94 248.98
  Q 209.75 249.20 206.87 246.13
  Q 202.84 241.83 198.95 237.54
  A 1.00 1.00 0.0 0 1 199.30 235.95
  Q 201.74 234.91 202.07 233.71
  Q 203.79 227.46 197.74 228.27
  A 1.00 1.00 0.0 0 0 196.87 229.25
  L 196.75 242.98
  A 0.98 0.96 22.7 0 0 197.06 243.71
  L 197.41 244.05
  Q 198.15 244.75 197.12 244.75
  L 194.47 244.75
  Q 193.39 244.75 194.08 243.91
  Q 194.19 243.78 194.34 243.67
  A 1.01 1.00 72.0 0 0 194.75 242.86
  L 194.75 229.05
  A 0.99 0.99 0.0 0 0 194.46 228.35
  L 194.07 227.95
  Q 193.38 227.25 194.36 227.25
  L 201.06 227.24
  A 0.99 0.98 -25.2 0 1 201.68 227.46
  Q 207.45 232.05 201.77 236.60
  Z
  M 213.41 236.63
  A 0.59 0.59 0.0 0 0 213.94 237.43
  L 218.07 237.57
  A 0.59 0.59 0.0 0 0 218.65 236.81
  L 216.80 230.67
  A 0.59 0.59 0.0 0 0 215.68 230.63
  L 213.41 236.63
  Z"
/>
<path fill="#da9e4c" fill-opacity="0.996" d="
  M 258.75 238.46
  L 258.46 237.50
  L 256.77 231.77
  Q 256.05 229.33 254.91 231.61
  Q 253.51 234.43 252.79 237.50
  L 252.75 238.21
  Q 250.67 240.78 250.72 243.82
  A 1.00 0.99 85.5 0 1 249.86 244.83
  Q 246.91 245.25 248.42 243.67
  C 250.57 241.44 253.36 232.28 254.84 228.96
  A 1.02 1.00 41.2 0 0 254.77 228.01
  Q 253.49 226.01 251.00 226.50
  Q 249.96 226.70 250.40 225.99
  A 0.68 0.67 9.6 0 1 250.83 225.69
  C 255.06 224.92 256.93 227.27 258.26 231.10
  Q 260.12 236.46 262.20 241.80
  Q 264.16 246.81 267.89 248.81
  Q 271.05 250.49 267.50 250.00
  Q 266.98 249.93 266.53 249.70
  Q 260.87 246.78 259.67 239.91
  C 259.58 239.39 259.13 238.78 258.75 238.46
  Z"
/>
<path fill="#d8a658" fill-opacity="0.996" d="
  M 309.44 238.82
  Q 307.56 240.94 307.88 243.62
  A 1.00 1.00 0.0 0 1 307.04 244.73
  Q 302.88 245.35 305.44 243.75
  A 0.99 0.96 -5.3 0 0 305.84 243.28
  L 311.75 228.80
  A 1.00 0.99 -54.6 0 0 311.58 227.77
  Q 310.43 226.42 308.82 226.38
  Q 305.92 226.31 308.67 225.39
  Q 309.55 225.09 310.53 225.51
  C 319.28 229.26 315.52 245.96 325.87 249.23
  Q 327.43 249.72 325.82 250.02
  Q 325.44 250.09 325.00 249.98
  C 319.68 248.69 317.93 244.71 316.29 239.26
  A 1.01 1.00 -7.8 0 0 315.34 238.55
  L 310.20 238.49
  A 1.01 0.99 -67.6 0 0 309.44 238.82
  Z
  M 309.99 236.48
  A 0.73 0.73 0.0 0 0 310.66 237.45
  L 314.63 237.55
  A 0.73 0.73 0.0 0 0 315.35 236.61
  L 313.51 230.49
  A 0.73 0.73 0.0 0 0 312.12 230.46
  L 309.99 236.48
  Z"
/>
<path fill="#d8a658" fill-opacity="0.996" d="
  M 27.59 244.01
  Q 27.89 244.13 27.94 244.44
  A 0.27 0.26 85.2 0 1 27.69 244.75
  L 25.26 244.76
  Q 24.33 244.76 24.83 243.97
  C 25.96 242.18 25.20 231.21 25.03 229.70
  Q 24.75 227.08 27.38 227.02
  Q 36.12 226.79 35.90 232.69
  C 35.75 236.96 32.33 238.81 28.55 236.41
  C 27.27 235.59 28.56 235.73 28.92 235.89
  C 36.03 238.96 36.78 225.58 27.81 228.20
  A 1.00 0.99 81.6 0 0 27.10 229.17
  L 27.28 243.54
  A 0.51 0.51 0.0 0 0 27.59 244.01
  Z"
/>
<path fill="#da9e4c" fill-opacity="0.996" d="
  M 54.25 229.54
  L 53.54 229.00
  C 56.44 226.14 66.03 227.24 70.21 227.05
  A 0.52 0.51 -1.6 0 1 70.75 227.55
  L 70.75 227.91
  Q 70.78 229.39 69.53 228.60
  Q 67.59 227.38 65.13 228.15
  A 0.99 0.99 0.0 0 0 64.43 229.11
  L 64.53 242.91
  A 1.08 1.04 -65.7 0 0 64.75 243.53
  L 65.02 243.87
  Q 65.94 245.02 64.47 244.91
  L 62.15 244.72
  Q 60.99 244.63 61.84 243.84
  L 62.15 243.55
  A 1.02 0.99 -22.1 0 0 62.47 242.82
  L 62.56 229.16
  A 1.01 0.99 7.3 0 0 61.79 228.18
  Q 57.72 227.20 54.25 229.54
  Z"
/>
<path fill="#d8a658" fill-opacity="0.996" d="
  M 93.00 228.48
  Q 92.18 234.60 92.66 242.33
  Q 92.70 242.94 92.86 243.44
  A 1.00 0.99 81.0 0 1 91.91 244.75
  L 90.67 244.75
  Q 89.19 244.74 90.36 243.83
  L 90.61 243.64
  A 1.00 0.99 -18.9 0 0 91.00 242.85
  L 91.00 229.07
  A 1.00 1.00 0.0 0 0 89.84 228.08
  L 86.82 228.57
  A 1.01 1.00 74.8 0 0 86.05 229.92
  C 87.47 233.59 83.66 230.56 85.57 228.22
  A 1.06 1.01 -75.7 0 1 86.08 227.90
  C 86.64 227.74 95.40 226.65 93.37 227.91
  A 0.80 0.79 -12.4 0 0 93.00 228.48
  Z"
/>
<path fill="#da9e4c" fill-opacity="0.996" d="
  M 110.56 243.94
  C 122.54 247.70 124.65 224.56 111.66 228.18
  Q 110.09 228.61 109.26 229.80
  Q 107.15 232.82 108.54 229.41
  Q 109.15 227.92 111.16 227.43
  C 123.70 224.35 127.29 240.94 116.02 244.45
  C 106.02 247.56 96.89 235.70 106.40 228.37
  Q 106.74 228.11 106.91 228.35
  A 0.22 0.21 46.6 0 1 106.91 228.60
  C 102.93 233.73 104.07 241.90 110.56 243.94
  Z"
/>
<path fill="#d8a658" fill-opacity="0.996" d="
  M 133.02 229.90
  L 133.56 231.51
  A 0.21 0.19 71.5 0 1 133.44 231.77
  C 133.34 231.81 133.00 231.75 132.91 231.66
  C 129.49 227.98 135.16 227.04 137.78 227.12
  C 138.63 227.15 141.84 226.22 140.02 228.31
  A 1.02 1.01 -21.9 0 0 139.77 228.89
  Q 139.33 235.34 139.54 241.75
  Q 139.57 242.81 139.80 243.49
  A 1.00 0.99 84.3 0 1 138.73 244.80
  Q 136.17 244.47 137.55 243.56
  A 1.01 1.01 0.0 0 0 138.00 242.72
  L 138.00 229.01
  A 1.01 1.00 -5.3 0 0 136.81 228.03
  L 133.78 228.60
  A 1.00 1.00 0.0 0 0 133.02 229.90
  Z"
/>
<path fill="#d8a658" fill-opacity="0.996" d="
  M 80.74 238.03
  Q 83.74 241.17 86.59 244.41
  Q 88.13 246.16 90.20 247.34
  Q 94.99 250.05 89.71 248.51
  Q 87.18 247.77 85.18 245.33
  Q 81.69 241.08 77.59 237.22
  Q 76.33 236.04 78.05 235.85
  Q 82.17 235.38 81.70 231.49
  C 81.34 228.51 78.99 227.63 76.36 228.36
  A 1.01 1.00 82.5 0 0 75.62 229.33
  L 75.73 243.17
  A 1.01 0.99 24.0 0 0 76.00 243.85
  L 76.25 244.12
  A 0.33 0.33 0.0 0 1 76.09 244.66
  Q 71.98 245.65 73.76 243.26
  A 1.02 0.99 -27.4 0 0 73.96 242.66
  L 73.98 229.10
  A 1.01 1.00 -71.1 0 0 73.60 228.31
  L 73.24 228.03
  Q 72.35 227.32 73.48 227.30
  C 76.15 227.23 79.59 226.71 81.72 228.19
  C 84.18 229.90 84.15 233.66 81.80 235.73
  Q 81.32 236.15 80.82 236.57
  A 1.01 1.01 0.0 0 0 80.74 238.03
  Z"
/>
<path fill="#da9e4c" fill-opacity="0.996" d="
  M 128.53 229.17
  L 128.49 243.66
  A 1.00 0.98 -78.2 0 0 129.07 244.57
  C 133.79 246.73 140.38 248.94 145.53 247.65
  Q 146.66 247.37 145.88 247.81
  C 138.88 251.72 132.00 246.94 126.47 244.80
  Q 125.50 244.43 126.39 243.89
  L 126.67 243.72
  A 0.65 0.64 -15.9 0 0 126.98 243.17
  Q 127.02 236.20 126.99 229.25
  Q 126.99 228.87 126.74 228.47
  Q 125.95 227.24 127.42 227.24
  L 128.90 227.25
  Q 130.50 227.26 129.19 228.18
  L 128.95 228.35
  A 1.01 1.00 72.4 0 0 128.53 229.17
  Z"
/>
<path fill="#d8a658" fill-opacity="0.996" d="
  M 266.88 228.14
  Q 264.17 228.48 262.19 230.34
  A 0.32 0.31 40.5 0 1 261.78 230.37
  Q 261.50 230.16 261.80 229.80
  C 264.72 226.32 274.58 226.55 278.31 228.09
  C 285.58 231.09 284.89 241.36 277.73 244.15
  C 275.09 245.17 271.00 244.75 267.84 244.72
  Q 266.75 244.71 267.46 243.88
  L 267.77 243.51
  A 1.04 1.01 65.4 0 0 268.00 242.86
  L 268.00 229.14
  A 1.01 1.00 86.5 0 0 266.88 228.14
  Z
  M 277.81 242.69
  C 282.73 239.54 283.02 232.27 277.77 229.15
  C 275.70 227.93 272.80 227.99 270.42 228.17
  A 1.00 1.00 0.0 0 0 269.50 229.17
  L 269.50 242.62
  A 1.01 1.00 7.5 0 0 270.25 243.59
  Q 274.60 244.74 277.81 242.69
  Z"
/>
<path fill="#cea663" fill-opacity="0.992" d="
  M 348.60 244.01
  Q 348.89 244.13 348.94 244.44
  A 0.27 0.26 85.2 0 1 348.69 244.75
  L 345.78 244.76
  Q 344.81 244.76 345.58 244.17
  C 346.75 243.28 346.25 231.25 346.23 229.12
  A 1.00 0.99 -86.4 0 0 345.36 228.13
  Q 343.98 227.95 342.64 228.22
  Q 341.04 228.53 341.42 230.50
  Q 341.92 233.12 340.48 230.87
  Q 339.70 229.64 340.85 228.01
  A 0.99 0.98 15.2 0 1 341.60 227.59
  L 347.28 227.20
  Q 348.75 227.10 348.03 228.38
  Q 347.77 228.86 347.85 229.44
  C 348.43 234.03 347.88 238.88 348.28 243.58
  A 0.52 0.52 0.0 0 0 348.60 244.01
  Z"
/>
<path fill="#c99e5f" d="
  M 159.00 230.21
  Q 161.65 232.99 158.50 230.71
  L 159.00 230.21
  Z"
/>
<path fill="#c99e5f" d="
  M 252.79 237.50
  L 258.46 237.50
  L 258.75 238.46
  L 252.75 238.21
  L 252.79 237.50
  Z"
/>
<path fill="#d0b179" fill-opacity="0.996" d="
  M 103.43 278.36
  A 1.05 1.01 -87.3 0 1 102.95 277.81
  Q 100.28 270.41 107.15 270.17
  A 1.00 1.00 0.0 0 0 108.12 269.15
  L 108.06 266.67
  A 1.01 1.00 81.7 0 1 108.79 265.69
  C 110.69 265.15 108.61 276.81 110.26 277.82
  A 0.64 0.64 0.0 0 1 110.27 278.90
  L 110.04 279.05
  A 0.22 0.21 -46.3 0 1 109.82 279.06
  L 108.65 278.41
  A 1.02 1.02 0.0 0 0 107.67 278.41
  Q 105.70 279.52 103.43 278.36
  Z
  M 108.2921 273.3639
  A 1.91 1.91 0.0 0 0 106.3854 271.4506
  L 105.7454 271.4494
  A 1.91 1.91 0.0 0 0 103.8321 273.3561
  L 103.8279 275.7361
  A 1.91 1.91 0.0 0 0 105.7346 277.6494
  L 106.3746 277.6506
  A 1.91 1.91 0.0 0 0 108.2879 275.7439
  L 108.2921 273.3639
  Z"
/>
<path fill="#d0b179" fill-opacity="0.996" d="
  M 175.71 272.23
  L 176.89 270.73
  A 1.04 1.03 -81.2 0 1 177.31 270.42
  C 179.67 269.48 176.13 273.58 176.01 274.26
  A 0.97 0.97 0.0 0 0 176.24 275.07
  C 176.50 275.38 180.38 279.59 177.73 279.06
  A 1.02 0.97 -9.0 0 1 177.09 278.62
  C 176.72 278.06 174.71 274.18 173.87 275.25
  A 0.79 0.78 -29.9 0 0 173.70 275.86
  L 174.08 278.29
  A 0.52 0.51 -4.3 0 1 173.57 278.88
  L 173.29 278.88
  A 1.00 1.00 0.0 0 1 172.29 277.79
  Q 172.80 272.52 172.26 267.25
  Q 172.09 265.61 173.19 265.68
  A 0.80 0.80 0.0 0 1 173.94 266.48
  L 173.93 271.61
  Q 173.93 274.50 175.71 272.23
  Z"
/>
<path fill="#da9e4c" fill-opacity="0.996" d="
  M 217.06 278.49
  C 212.42 280.78 209.62 272.91 214.81 270.41
  A 1.00 0.96 -52.9 0 1 215.37 270.32
  C 220.39 270.93 216.00 264.88 218.80 265.77
  A 0.64 0.63 -81.3 0 1 219.24 266.38
  C 219.27 268.08 218.43 277.61 220.15 277.88
  A 0.40 0.40 0.0 0 1 220.49 278.34
  L 220.45 278.66
  A 0.52 0.51 13.4 0 1 219.78 279.07
  L 217.81 278.43
  A 1.02 1.00 39.9 0 0 217.06 278.49
  Z
  M 215.7283 277.7760
  A 3.31 2.23 92.8 0 0 218.1173 274.5789
  A 3.31 2.23 92.8 0 0 216.0517 271.1640
  A 3.31 2.23 92.8 0 0 213.6627 274.3611
  A 3.31 2.23 92.8 0 0 215.7283 277.7760
  Z"
/>
<ellipse fill="#d0b179" fill-opacity="0.996" cx="0.00" cy="0.00" transform="translate(96.13,267.16) rotate(-30.8)" rx="0.99" ry="0.88"/>
<ellipse fill="#d0b179" fill-opacity="0.996" cx="0.00" cy="0.00" transform="translate(128.14,267.13) rotate(130.0)" rx="0.98" ry="0.80"/>
<ellipse fill="#d0b179" fill-opacity="0.996" cx="0.00" cy="0.00" transform="translate(223.27,267.14) rotate(117.3)" rx="0.91" ry="0.76"/>
<path fill="#d0b179" fill-opacity="0.996" d="
  M 70.08 267.09
  A 1.02 0.99 79.5 0 1 70.90 267.67
  C 72.81 271.79 71.01 274.19 67.00 274.62
  C 64.44 274.89 66.82 280.28 64.58 278.90
  A 1.01 1.00 -73.6 0 1 64.11 278.03
  L 64.30 267.66
  A 1.00 0.99 3.2 0 1 65.39 266.69
  L 70.08 267.09
  Z
  M 67.00 267.59
  A 1.00 1.00 0.0 0 0 65.68 268.57
  L 65.79 272.33
  A 1.00 0.99 2.7 0 0 66.67 273.29
  C 70.54 273.77 71.01 268.95 67.00 267.59
  Z"
/>
<path fill="#d8ac69" fill-opacity="0.996" d="
  M 141.67 272.93
  C 145.35 277.80 140.17 279.77 136.02 278.81
  A 1.00 1.00 0.0 0 1 135.25 277.84
  L 135.25 267.82
  A 1.00 0.99 -2.5 0 1 136.16 266.83
  Q 137.40 266.72 138.58 266.71
  C 141.48 266.69 143.48 269.12 141.65 271.76
  A 1.01 1.00 44.2 0 0 141.67 272.93
  Z
  M 137.44 272.11
  C 141.31 273.72 142.01 267.25 137.90 267.80
  A 1.00 0.99 -1.8 0 0 137.04 268.71
  L 136.83 271.10
  A 1.01 1.00 -76.4 0 0 137.44 272.11
  Z
  M 139.89 277.45
  C 143.56 275.91 140.52 272.70 137.63 273.36
  A 1.00 0.99 -89.9 0 0 136.89 274.11
  Q 135.66 279.22 139.89 277.45
  Z"
/>
<path fill="#d8a658" fill-opacity="0.996" d="
  M 185.67 275.06
  C 185.51 275.75 186.36 279.61 184.65 278.84
  A 0.79 0.79 0.0 0 1 184.18 278.12
  L 184.11 267.68
  A 1.00 0.99 2.1 0 1 185.19 266.68
  L 189.93 267.06
  A 1.03 1.00 76.8 0 1 190.73 267.57
  Q 192.78 271.27 189.93 273.51
  A 1.01 1.00 -36.3 0 0 189.72 274.86
  L 191.77 277.89
  A 0.80 0.79 38.4 0 1 191.86 278.61
  C 191.03 280.96 188.57 273.51 186.30 274.35
  A 0.98 0.98 0.0 0 0 185.67 275.06
  Z
  M 187.07 267.45
  A 1.00 1.00 0.0 0 0 185.69 268.39
  L 185.76 272.29
  A 1.01 1.01 0.0 0 0 186.58 273.26
  C 190.52 273.96 191.55 269.26 187.07 267.45
  Z"
/>
<path fill="#d8a658" fill-opacity="0.996" d="
  M 229.45 277.83
  C 228.77 274.96 235.83 280.86 234.95 275.07
  A 1.03 1.01 10.1 0 0 234.44 274.35
  L 231.04 272.45
  Q 228.38 270.98 230.25 268.49
  Q 232.33 265.71 235.91 267.24
  A 0.51 0.50 20.2 0 1 236.20 267.86
  L 236.10 268.18
  A 0.64 0.63 -61.6 0 1 235.08 268.49
  C 232.50 266.29 229.23 270.46 233.80 272.20
  Q 238.05 273.82 235.47 278.13
  A 1.04 1.00 3.2 0 1 234.99 278.54
  Q 232.51 279.54 230.05 278.52
  A 0.99 0.99 0.0 0 1 229.45 277.83
  Z"
/>
<path fill="#d0b179" fill-opacity="0.996" d="
  M 86.34 271.51
  A 1.01 1.00 -81.3 0 0 85.05 272.46
  L 84.98 276.68
  A 1.01 1.00 -3.7 0 0 86.13 277.69
  L 87.15 277.53
  A 0.32 0.29 58.3 0 1 87.39 277.60
  C 88.30 278.27 84.99 280.25 83.66 277.90
  C 82.67 276.15 83.72 273.62 82.70 271.35
  A 1.02 1.01 -39.6 0 1 82.80 270.36
  L 83.50 269.36
  Q 84.40 268.08 84.91 269.55
  Q 85.26 270.56 86.66 270.23
  Q 88.27 269.85 87.33 271.22
  Q 86.99 271.71 86.34 271.51
  Z"
/>
<path fill="#d8ac69" fill-opacity="0.996" d="
  M 275.17 277.06
  L 279.71 278.49
  A 1.01 1.00 -66.7 0 1 280.28 279.94
  C 279.02 282.19 275.19 283.85 273.35 281.38
  Q 272.57 280.33 273.52 279.13
  A 1.01 1.01 0.0 0 0 273.52 277.89
  Q 272.88 277.07 273.59 276.06
  A 0.98 0.98 0.0 0 0 273.65 275.00
  Q 272.08 272.17 274.83 270.44
  A 1.02 0.97 27.9 0 1 275.36 270.29
  L 280.25 270.27
  A 0.51 0.50 1.6 0 1 280.76 270.80
  Q 280.74 271.30 280.13 271.36
  A 0.81 0.80 -5.6 0 0 279.42 272.22
  C 279.79 277.18 274.76 275.03 274.72 276.44
  A 0.64 0.63 9.1 0 0 275.17 277.06
  Z
  M 278.14 273.16
  A 1.84 1.84 0.0 0 0 276.30 271.32
  A 1.84 1.84 0.0 0 0 274.46 273.16
  A 1.84 1.84 0.0 0 0 276.30 275.00
  A 1.84 1.84 0.0 0 0 278.14 273.16
  Z
  M 278.4500 280.1074
  A 2.12 1.25 0.2 0 0 276.3344 278.8500
  A 2.12 1.25 0.2 0 0 274.2100 280.0926
  A 2.12 1.25 0.2 0 0 276.3256 281.3500
  A 2.12 1.25 0.2 0 0 278.4500 280.1074
  Z"
/>
<path fill="#c99e5f" d="
  M 80.82 277.65
  Q 82.22 278.30 80.89 278.94
  A 1.00 0.99 48.5 0 1 79.90 278.87
  C 77.93 277.56 77.20 279.22 75.50 279.05
  C 73.04 278.80 73.69 273.95 73.78 270.93
  A 0.81 0.80 76.7 0 1 74.20 270.24
  C 75.33 269.65 75.04 274.29 74.98 276.35
  A 0.97 0.96 -65.9 0 0 75.25 277.07
  Q 76.63 278.50 78.22 276.84
  A 1.00 0.99 -23.2 0 0 78.50 276.15
  L 78.50 271.30
  A 1.01 1.01 0.0 0 1 79.28 270.32
  L 79.63 270.25
  A 0.51 0.51 0.0 0 1 80.25 270.75
  L 80.25 276.74
  A 1.01 1.00 -77.5 0 0 80.82 277.65
  Z"
/>
<path fill="#d0b179" fill-opacity="0.996" d="
  M 91.22 273.00
  C 91.03 274.03 91.54 279.37 89.84 278.93
  A 0.79 0.79 0.0 0 1 89.24 278.16
  L 89.26 271.12
  Q 89.27 269.53 90.54 270.48
  Q 91.38 271.10 92.55 270.47
  A 0.81 0.80 -26.7 0 1 93.65 270.83
  L 93.77 271.09
  A 0.42 0.41 -23.2 0 1 93.54 271.66
  L 91.87 272.24
  A 1.02 0.98 -5.4 0 0 91.22 273.00
  Z"
/>
<rect fill="#d0b179" fill-opacity="0.996" x="-0.88" y="-4.38" transform="translate(96.12,274.63) rotate(0.1)" width="1.76" height="8.76" rx="0.77"/>
<path fill="#cea663" fill-opacity="0.992" d="
  M 115.87 271.40
  A 1.00 1.00 0.0 0 0 114.72 271.41
  Q 114.01 271.91 113.22 272.07
  Q 111.00 272.53 112.81 271.16
  Q 115.94 268.81 118.11 271.78
  A 1.01 0.99 33.7 0 1 118.28 272.59
  C 117.95 274.03 117.62 276.50 118.42 277.75
  Q 119.84 279.96 116.98 278.45
  A 0.99 0.97 43.3 0 0 116.02 278.47
  Q 113.05 280.16 111.63 276.52
  A 1.01 1.01 0.0 0 1 112.24 275.21
  L 116.21 273.86
  A 1.00 1.00 0.0 0 0 116.85 272.64
  Q 116.65 271.95 115.87 271.40
  Z
  M 116.8481 275.3688
  A 1.80 1.12 -31.9 0 0 114.7281 275.3692
  A 1.80 1.12 -31.9 0 0 113.7919 277.2712
  A 1.80 1.12 -31.9 0 0 115.9119 277.2708
  A 1.80 1.12 -31.9 0 0 116.8481 275.3688
  Z"
/>
<path fill="#cea663" fill-opacity="0.992" d="
  M 124.25 270.87
  L 124.95 270.28
  A 0.42 0.41 52.4 0 1 125.55 270.36
  L 125.70 270.58
  A 0.80 0.80 0.0 0 1 125.22 271.82
  C 122.14 272.53 122.99 276.21 122.97 278.54
  A 0.41 0.41 0.0 0 1 122.41 278.92
  L 122.15 278.82
  A 1.00 0.99 -75.7 0 1 121.52 277.75
  C 121.81 275.68 120.73 269.00 122.96 270.87
  A 1.01 1.00 -44.7 0 0 124.25 270.87
  Z"
/>
<rect fill="#d0b179" fill-opacity="0.996" x="-0.81" y="-4.35" transform="translate(128.19,274.62) rotate(-0.6)" width="1.62" height="8.70" rx="0.78"/>
<path fill="#d8ac69" fill-opacity="0.996" d="
  M 149.33 272.90
  Q 148.68 270.11 145.81 272.32
  A 0.51 0.51 0.0 0 1 145.13 272.27
  L 144.88 272.01
  A 0.21 0.20 46.0 0 1 144.88 271.72
  Q 147.32 269.17 150.25 270.83
  A 1.01 1.00 15.0 0 1 150.76 271.70
  L 150.75 276.54
  A 0.99 0.98 27.2 0 0 150.94 277.12
  Q 153.10 280.13 149.66 278.48
  A 0.99 0.98 44.0 0 0 148.77 278.49
  Q 145.69 280.09 144.42 276.93
  A 1.00 0.99 54.6 0 1 144.59 275.90
  Q 146.08 274.20 148.39 274.12
  A 1.00 1.00 0.0 0 0 149.33 272.90
  Z
  M 147.27 277.58
  Q 148.51 277.72 148.99 276.73
  Q 150.12 274.39 147.71 275.37
  L 147.01 275.66
  Q 143.42 277.12 147.27 277.58
  Z"
/>
<path fill="#cea663" fill-opacity="0.992" d="
  M 156.48 279.08
  A 1.00 1.00 0.0 0 0 155.63 280.33
  Q 156.28 282.74 154.61 282.22
  A 1.00 0.99 -81.1 0 1 153.91 281.25
  L 154.00 271.52
  A 1.00 1.00 0.0 0 1 155.16 270.54
  L 156.01 270.69
  A 1.03 1.00 36.4 0 0 156.60 270.61
  C 159.36 269.34 160.69 271.12 161.07 273.63
  Q 161.80 278.48 156.48 279.08
  Z
  M 157.1377 278.1492
  A 3.34 2.23 96.4 0 0 159.7261 275.0786
  A 3.34 2.23 96.4 0 0 157.8823 271.5108
  A 3.34 2.23 96.4 0 0 155.2939 274.5814
  A 3.34 2.23 96.4 0 0 157.1377 278.1492
  Z"
/>
<path fill="#d0b179" fill-opacity="0.996" d="
  M 167.27 272.07
  L 166.90 271.67
  A 1.01 1.00 -32.0 0 0 165.81 271.42
  L 164.25 272.02
  Q 161.50 273.06 163.74 271.15
  Q 166.23 269.02 168.66 271.35
  A 1.01 1.01 0.0 0 1 168.96 272.25
  Q 168.45 275.05 169.37 277.61
  Q 169.98 279.29 168.32 278.62
  Q 167.14 278.14 165.88 278.86
  A 0.96 0.94 32.3 0 1 165.27 278.99
  Q 162.20 278.64 163.23 275.55
  A 0.99 0.98 -85.1 0 1 164.02 274.88
  Q 165.83 274.59 167.16 273.53
  A 0.99 0.99 0.0 0 0 167.27 272.07
  Z
  M 166.87 276.93
  Q 168.79 274.09 165.64 275.45
  L 165.16 275.66
  A 1.00 1.00 0.0 0 0 164.85 277.28
  Q 165.91 278.34 166.87 276.93
  Z"
/>
<path fill="#cea663" fill-opacity="0.992" d="
  M 197.60 279.77
  Q 192.98 277.96 193.86 273.75
  C 194.94 268.60 201.28 269.45 200.67 273.66
  A 0.99 0.99 0.0 0 1 199.69 274.51
  L 196.24 274.55
  A 1.00 1.00 0.0 0 0 195.30 275.87
  Q 195.85 277.46 197.64 277.85
  C 198.43 278.02 203.05 275.79 198.62 279.60
  A 1.01 1.01 0.0 0 1 197.60 279.77
  Z
  M 198.06 271.43
  Q 196.76 271.25 196.08 272.01
  Q 194.76 273.50 196.74 273.34
  L 198.44 273.21
  A 0.80 0.80 0.0 0 0 199.16 272.24
  Q 199.01 271.56 198.06 271.43
  Z"
/>
<path fill="#cea663" fill-opacity="0.992" d="
  M 207.19 271.56
  L 205.16 272.28
  A 0.99 0.99 0.0 0 0 204.49 273.22
  L 204.50 278.16
  A 0.80 0.80 0.0 0 1 203.70 278.96
  L 203.41 278.96
  A 0.41 0.41 0.0 0 1 203.00 278.55
  L 203.00 271.61
  A 1.00 1.00 0.0 0 1 204.35 270.68
  L 204.78 270.84
  A 1.05 1.03 39.7 0 0 205.64 270.77
  Q 207.83 269.49 209.44 271.30
  A 0.98 0.98 0.0 0 1 209.70 271.94
  L 209.89 278.46
  A 0.32 0.32 0.0 0 1 209.60 278.79
  L 209.33 278.83
  A 0.81 0.80 86.9 0 1 208.43 278.02
  L 208.52 272.52
  A 1.00 1.00 0.0 0 0 207.19 271.56
  Z"
/>
<rect fill="#da9e4c" fill-opacity="0.996" x="-0.62" y="-4.37" transform="translate(223.37,274.63) rotate(-0.1)" width="1.24" height="8.74" rx="0.60"/>
<path fill="#cea663" fill-opacity="0.992" d="
  M 241.9296 279.1106
  A 4.50 3.82 93.7 0 1 238.4080 274.3735
  A 4.50 3.82 93.7 0 1 242.5104 270.1294
  A 4.50 3.82 93.7 0 1 246.0320 274.8665
  A 4.50 3.82 93.7 0 1 241.9296 279.1106
  Z
  M 242.2965 278.0883
  A 3.39 2.32 88.2 0 0 244.5089 274.6271
  A 3.39 2.32 88.2 0 0 242.0835 271.3117
  A 3.39 2.32 88.2 0 0 239.8711 274.7729
  A 3.39 2.32 88.2 0 0 242.2965 278.0883
  Z"
/>
<path fill="#d0b179" fill-opacity="0.996" d="
  M 248.76 278.85
  A 0.83 0.81 -77.5 0 1 248.31 278.13
  L 248.28 271.50
  A 1.00 1.00 0.0 0 1 249.63 270.56
  Q 250.67 270.94 251.79 270.44
  A 0.80 0.80 0.0 0 1 252.85 270.85
  L 252.98 271.15
  A 0.33 0.33 0.0 0 1 252.71 271.61
  C 247.92 272.12 250.80 279.86 248.76 278.85
  Z"
/>
<path fill="#cea663" fill-opacity="0.992" d="
  M 257.1397 279.1446
  A 4.51 3.86 92.8 0 1 253.5046 274.4514
  A 4.51 3.86 92.8 0 1 257.5803 270.1354
  A 4.51 3.86 92.8 0 1 261.2154 274.8286
  A 4.51 3.86 92.8 0 1 257.1397 279.1446
  Z
  M 257.5816 278.1092
  A 3.42 2.32 88.8 0 0 259.8295 274.6414
  A 3.42 2.32 88.8 0 0 257.4384 271.2708
  A 3.42 2.32 88.8 0 0 255.1905 274.7386
  A 3.42 2.32 88.8 0 0 257.5816 278.1092
  Z"
/>
<path fill="#da9e4c" fill-opacity="0.996" d="
  M 268.14 271.85
  C 262.68 270.08 266.40 280.48 264.03 278.89
  A 0.64 0.64 0.0 0 1 263.75 278.36
  L 263.75 271.08
  Q 263.75 269.85 264.76 270.56
  L 265.03 270.75
  A 1.00 1.00 0.0 0 0 266.14 270.77
  Q 268.52 269.24 270.08 271.69
  A 0.95 0.92 -62.4 0 1 270.23 272.20
  L 270.40 278.13
  A 0.81 0.80 -6.9 0 1 269.76 278.94
  C 268.35 279.24 269.00 273.59 268.81 272.61
  A 0.99 0.99 0.0 0 0 268.14 271.85
  Z"
/>
<path fill="#cea663" fill-opacity="0.992" d="
  M 287.34 275.54
  A 1.00 0.98 35.2 0 0 287.52 276.54
  Q 290.65 280.21 286.58 278.41
  A 1.00 0.99 41.6 0 0 285.67 278.46
  Q 282.64 280.24 281.45 276.07
  A 0.99 0.99 0.0 0 1 282.20 274.82
  L 285.75 274.06
  A 1.00 1.00 0.0 0 0 286.49 272.77
  Q 285.64 270.19 283.31 271.99
  Q 281.79 273.17 282.52 271.39
  Q 282.93 270.41 284.53 270.29
  Q 289.50 269.91 287.34 275.54
  Z
  M 283.66 277.66
  Q 285.59 277.74 286.24 276.21
  Q 286.83 274.80 285.33 275.12
  Q 284.08 275.39 283.14 276.28
  Q 281.78 277.58 283.66 277.66
  Z"
/>
<path fill="#d0b179" fill-opacity="0.996" d="
  M 295.49 271.46
  L 293.48 272.03
  A 0.99 0.98 -8.0 0 0 292.75 272.99
  L 292.75 277.97
  A 0.99 0.99 0.0 0 1 292.08 278.91
  L 291.79 279.01
  A 0.41 0.41 0.0 0 1 291.25 278.62
  L 291.25 271.65
  A 1.00 1.00 0.0 0 1 292.48 270.68
  Q 293.20 270.86 293.87 270.67
  C 299.53 269.13 298.00 275.02 298.00 278.24
  A 0.64 0.64 0.0 0 1 297.51 278.86
  L 297.25 278.92
  A 0.41 0.41 0.0 0 1 296.74 278.52
  L 296.76 272.43
  A 1.01 1.00 -7.5 0 0 295.49 271.46
  Z"
/>
<path fill="#cea663" fill-opacity="0.992" d="
  M 132.99 304.48
  C 127.01 307.74 124.95 295.82 132.42 296.20
  A 1.01 1.00 5.4 0 0 133.46 295.34
  Q 133.60 294.43 133.51 293.56
  C 133.44 292.90 133.68 290.30 134.82 292.17
  A 1.02 1.02 0.0 0 1 134.97 292.80
  C 134.71 295.13 134.20 301.79 135.38 303.71
  Q 136.74 305.91 133.92 304.47
  A 1.00 0.99 44.1 0 0 132.99 304.48
  Z
  M 131.86 304.10
  A 1.00 1.00 0.0 0 0 133.37 303.28
  L 133.54 298.58
  A 0.99 0.98 18.9 0 0 133.12 297.74
  C 130.09 295.55 126.37 300.84 131.86 304.10
  Z"
/>
<path fill="#c99e5f" d="
  M 167.52 296.49
  Q 169.91 295.82 171.18 297.47
  Q 172.24 298.86 171.98 301.14
  Q 171.40 306.20 165.69 304.82
  A 1.00 1.00 0.0 0 1 164.92 303.81
  Q 165.15 298.27 164.88 292.81
  C 164.85 292.16 164.96 291.46 165.80 291.74
  A 0.64 0.62 8.9 0 1 166.25 292.34
  L 166.25 295.52
  A 1.01 1.00 82.3 0 0 167.52 296.49
  Z
  M 167.9260 304.0662
  A 3.28 2.32 96.9 0 0 170.6232 301.0887
  A 3.28 2.32 96.9 0 0 168.7140 297.5538
  A 3.28 2.32 96.9 0 0 166.0168 300.5313
  A 3.28 2.32 96.9 0 0 167.9260 304.0662
  Z"
/>
<ellipse fill="#d0b179" fill-opacity="0.996" cx="0.00" cy="0.00" transform="translate(204.80,293.16) rotate(-3.3)" rx="0.98" ry="0.86"/>
<ellipse fill="#c99e5f" cx="0.00" cy="0.00" transform="translate(235.71,293.17) rotate(110.7)" rx="0.85" ry="0.73"/>
<rect fill="#c99e5f" x="-0.66" y="-6.07" transform="translate(160.59,298.88) rotate(-0.2)" width="1.32" height="12.14" rx="0.55"/>
<path fill="#cea663" fill-opacity="0.992" d="
  M 192.73 301.54
  L 188.94 301.54
  A 1.01 1.00 4.9 0 0 187.96 302.36
  L 187.67 303.94
  A 1.03 1.02 -19.8 0 1 187.44 304.42
  C 186.07 305.98 185.76 304.13 186.15 303.25
  Q 188.29 298.43 190.08 293.47
  A 1.01 1.00 5.1 0 1 190.85 292.83
  C 192.33 292.56 195.19 302.65 195.69 303.85
  A 0.80 0.80 0.0 0 1 194.95 304.96
  L 194.66 304.96
  A 0.51 0.51 0.0 0 1 194.16 304.55
  L 193.71 302.34
  A 1.00 1.00 0.0 0 0 192.73 301.54
  Z
  M 189.12 299.74
  A 0.34 0.34 0.0 0 0 189.42 300.20
  L 192.40 300.30
  A 0.34 0.34 0.0 0 0 192.73 299.87
  L 191.41 295.25
  A 0.34 0.34 0.0 0 0 190.76 295.23
  L 189.12 299.74
  Z"
/>
<path fill="#cea663" fill-opacity="0.992" d="
  M 142.28 299.17
  C 142.99 295.32 138.05 299.20 137.98 297.71
  Q 137.88 295.33 141.50 296.25
  Q 144.01 296.88 143.17 302.33
  A 1.00 1.00 0.0 0 0 143.42 303.17
  Q 146.35 306.30 142.22 304.41
  A 0.99 0.99 0.0 0 0 141.32 304.45
  Q 138.27 306.15 137.13 302.25
  A 1.00 1.00 0.0 0 1 137.82 301.01
  L 141.57 299.95
  A 1.02 1.01 87.7 0 0 142.28 299.17
  Z
  M 141.71 302.72
  Q 142.99 300.37 140.48 301.31
  L 139.64 301.63
  Q 137.96 302.26 139.38 303.35
  Q 140.78 304.44 141.71 302.72
  Z"
/>
<path fill="#cea663" fill-opacity="0.992" d="
  M 151.36 297.59
  C 145.64 296.92 149.92 305.84 147.53 305.00
  A 0.81 0.80 -80.3 0 1 147.00 304.24
  L 147.00 297.70
  A 1.00 1.00 0.0 0 1 148.24 296.73
  L 148.63 296.83
  A 1.02 1.00 -51.8 0 0 149.34 296.74
  C 154.57 293.93 153.51 302.03 153.48 304.16
  A 0.80 0.79 -3.9 0 1 152.80 304.93
  C 151.35 305.15 152.14 299.81 152.24 298.67
  A 1.01 1.00 5.9 0 0 151.36 297.59
  Z"
/>
<path fill="#d0b179" fill-opacity="0.996" d="
  M 178.47 304.40
  Q 176.36 305.76 174.56 303.97
  A 0.99 0.99 0.0 0 1 174.27 303.27
  Q 174.26 300.46 174.22 297.75
  C 174.19 295.30 175.95 296.23 175.64 298.00
  Q 175.21 300.45 175.77 302.90
  A 1.01 1.00 74.9 0 0 177.05 303.64
  L 178.45 303.19
  A 0.99 0.99 0.0 0 0 179.14 302.32
  C 179.21 301.46 178.74 295.76 180.33 296.33
  A 0.64 0.63 -80.3 0 1 180.75 296.93
  L 180.75 302.45
  A 1.03 0.99 -64.8 0 0 180.96 303.07
  Q 183.38 306.14 179.42 304.33
  A 1.02 1.00 -48.8 0 0 178.47 304.40
  Z"
/>
<path fill="#cea663" fill-opacity="0.992" d="
  M 199.78 298.81
  Q 199.01 301.25 199.54 303.78
  A 1.00 0.99 -16.4 0 1 198.91 304.93
  Q 197.65 305.38 197.82 303.22
  C 197.83 303.05 198.11 294.94 199.11 296.51
  A 1.00 0.99 -21.4 0 0 200.13 296.95
  Q 204.71 296.11 200.30 298.20
  A 1.02 1.00 86.0 0 0 199.78 298.81
  Z"
/>
<rect fill="#cea663" fill-opacity="0.992" x="-0.78" y="-4.33" transform="translate(204.78,300.63) rotate(-0.5)" width="1.56" height="8.66" rx="0.57"/>
<path fill="#cea663" fill-opacity="0.992" d="
  M 211.84 300.84
  Q 212.85 299.11 213.47 297.18
  C 213.62 296.72 214.24 295.64 214.64 296.74
  A 1.02 1.02 0.0 0 1 214.62 297.47
  L 210.35 307.49
  A 1.01 1.01 0.0 0 1 209.47 308.10
  Q 204.36 308.34 209.72 306.23
  A 1.01 1.00 69.9 0 0 210.30 304.97
  Q 208.91 300.95 207.67 297.64
  C 207.00 295.87 208.41 295.83 208.81 297.19
  Q 209.34 298.99 210.05 300.72
  Q 210.83 302.60 211.84 300.84
  Z"
/>
<path fill="#cea663" fill-opacity="0.992" d="
  M 220.33 297.78
  C 219.38 296.84 217.92 297.51 217.00 298.13
  A 0.64 0.63 40.8 0 1 216.37 298.17
  Q 215.77 297.89 216.50 297.32
  Q 220.26 294.35 222.12 298.22
  A 0.99 0.97 -50.8 0 1 222.18 298.91
  Q 221.52 301.38 222.36 303.56
  Q 223.07 305.39 221.28 304.57
  L 220.70 304.31
  A 0.99 0.98 -46.7 0 0 219.83 304.34
  Q 215.84 306.43 216.05 301.74
  A 1.01 0.99 -6.4 0 1 216.80 300.82
  L 220.09 299.96
  A 1.00 0.99 -5.6 0 0 220.84 299.05
  Q 220.87 298.33 220.33 297.78
  Z
  M 219.31 303.31
  Q 220.22 302.85 220.52 302.18
  Q 221.23 300.53 219.53 301.10
  L 218.02 301.61
  A 1.00 0.99 66.2 0 0 217.47 303.04
  Q 217.98 303.99 219.31 303.31
  Z"
/>
<path fill="#cea663" fill-opacity="0.992" d="
  M 227.69 296.74
  Q 229.88 295.60 231.70 297.21
  A 1.01 1.00 20.9 0 1 232.04 297.96
  L 232.01 304.39
  A 0.61 0.60 70.0 0 1 231.80 304.85
  C 230.23 306.29 230.72 299.11 230.70 298.73
  A 1.01 0.99 -80.4 0 0 230.09 297.85
  C 225.39 295.89 226.89 302.55 226.71 304.54
  A 0.52 0.51 -86.9 0 1 226.20 305.00
  L 225.89 305.00
  A 0.64 0.64 0.0 0 1 225.25 304.36
  L 225.25 297.66
  A 1.00 1.00 0.0 0 1 226.52 296.70
  L 226.96 296.82
  A 0.97 0.96 -51.0 0 0 227.69 296.74
  Z"
/>
<rect fill="#c99e5f" x="235.03" y="296.32" width="1.26" height="8.62" rx="0.49"/>
<path fill="#c99e5f" d="
  M 140.88 340.21
  A 1.01 1.00 4.0 0 1 140.01 339.22
  L 140.02 326.52
  A 1.01 1.00 -8.1 0 1 140.75 325.56
  C 155.39 321.44 157.14 342.39 140.88 340.21
  Z
  M 149.14 328.37
  Q 146.26 326.95 143.16 327.12
  A 0.99 0.99 0.0 0 0 142.22 328.12
  L 142.26 337.29
  A 1.00 0.99 -88.8 0 0 143.20 338.28
  Q 151.55 338.77 149.68 329.08
  A 0.99 0.99 0.0 0 0 149.14 328.37
  Z"
/>
<path fill="#c99e5f" d="
  M 158.37 338.06
  Q 161.31 338.46 164.29 338.23
  C 165.28 338.15 167.18 338.59 165.88 339.94
  A 0.99 0.98 21.2 0 1 165.16 340.25
  L 156.27 340.25
  A 1.00 1.00 0.0 0 1 155.27 339.25
  L 155.27 326.47
  A 1.00 0.99 89.1 0 1 156.23 325.47
  L 164.80 325.18
  A 1.03 1.01 -24.2 0 1 165.51 325.44
  C 168.68 328.32 159.22 327.52 158.45 327.56
  A 1.00 1.00 0.0 0 0 157.50 328.56
  L 157.50 330.69
  A 1.00 1.00 0.0 0 0 158.42 331.69
  Q 160.71 331.86 162.96 331.71
  C 166.49 331.46 166.07 334.32 163.01 333.94
  Q 160.72 333.67 158.44 333.80
  A 1.00 1.00 0.0 0 0 157.50 334.80
  L 157.50 337.07
  A 1.01 1.00 4.0 0 0 158.37 338.06
  Z"
/>
<path fill="#c99e5f" d="
  M 171.22 332.47
  L 171.42 339.04
  A 1.00 1.00 0.0 0 1 170.57 340.06
  L 170.16 340.12
  A 0.99 0.99 0.0 0 1 169.02 339.14
  C 169.01 338.66 167.75 320.78 171.65 326.35
  Q 174.40 330.27 177.06 334.28
  Q 178.55 336.51 178.53 333.83
  L 178.48 326.67
  A 1.00 1.00 0.0 0 1 179.55 325.66
  L 180.07 325.70
  A 1.01 1.00 2.2 0 1 181.00 326.70
  C 180.99 329.07 181.60 338.16 180.68 339.74
  C 179.87 341.13 178.32 340.20 177.66 339.13
  Q 175.45 335.52 173.06 331.89
  Q 171.11 328.95 171.22 332.47
  Z"
/>
<path fill="#c99e5f" d="
  M 194.86 335.10
  A 1.00 1.00 0.0 0 0 193.53 334.15
  Q 191.61 334.83 190.69 333.86
  Q 189.20 332.27 191.38 332.17
  L 195.96 331.98
  Q 199.05 331.84 197.55 335.23
  C 192.57 346.55 179.62 336.95 184.94 328.84
  C 188.20 323.86 194.37 324.18 197.42 329.37
  A 0.98 0.98 0.0 0 1 197.50 330.21
  C 196.79 332.20 193.98 328.69 193.44 328.07
  Q 191.72 326.10 189.77 327.44
  C 178.09 335.45 194.84 342.23 194.86 335.10
  Z"
/>
<path fill="#c99e5f" d="
  M 206.70 335.60
  L 202.55 335.78
  A 1.00 1.00 0.0 0 0 201.64 336.48
  L 200.73 339.45
  A 1.04 1.02 -8.2 0 1 200.32 339.99
  C 196.32 342.62 202.83 327.19 203.04 326.64
  C 203.64 325.05 205.29 324.52 205.94 326.32
  Q 208.06 332.23 210.50 338.04
  C 210.96 339.14 210.92 341.25 209.02 339.91
  A 1.01 1.01 0.0 0 1 208.64 339.38
  L 207.70 336.31
  A 1.01 0.99 -9.3 0 0 206.70 335.60
  Z
  M 202.86 333.08
  A 0.32 0.32 0.0 0 0 203.16 333.53
  L 206.06 333.49
  A 0.32 0.32 0.0 0 0 206.35 333.03
  L 204.85 329.76
  A 0.32 0.32 0.0 0 0 204.27 329.77
  L 202.86 333.08
  Z"
/>
<path fill="#cea663" fill-opacity="0.992" d="
  M 222.75 333.30
  L 222.75 326.49
  A 1.01 1.00 72.4 0 1 223.17 325.67
  C 226.20 323.56 224.77 337.95 224.73 339.19
  A 1.01 0.97 -23.0 0 1 224.45 339.85
  Q 223.15 341.21 221.77 339.20
  Q 219.11 335.29 216.48 331.31
  Q 214.89 328.91 215.01 331.79
  L 215.31 339.04
  A 0.99 0.99 0.0 0 1 214.29 340.08
  L 214.00 340.07
  A 1.01 1.01 0.0 0 1 213.02 339.08
  C 213.02 338.83 211.90 320.06 215.85 326.64
  Q 218.16 330.48 220.98 333.93
  Q 222.76 336.11 222.75 333.30
  Z"
/>
<path fill="#dfbe86" fill-opacity="0.992" d="
  M 71.25 333.71
  L 72.21 333.75
  L 74.66 334.91
  A 1.08 1.04 -37.9 0 0 75.31 334.98
  L 82.29 333.40
  Q 85.36 332.70 82.33 331.85
  Q 81.26 331.54 81.77 330.83
  A 0.80 0.80 0.0 0 1 82.86 330.63
  L 86.31 332.88
  Q 86.46 332.98 86.63 333.02
  L 90.72 333.95
  A 0.95 0.95 0.0 0 0 91.42 333.85
  C 91.76 333.67 94.34 331.52 94.46 332.85
  A 0.42 0.41 -21.1 0 1 94.29 333.22
  L 94.04 333.40
  Q 92.12 334.76 94.44 335.20
  Q 95.94 335.47 97.32 335.86
  Q 99.36 336.44 101.00 335.21
  L 101.96 335.25
  Q 102.03 335.42 102.16 335.55
  A 0.63 0.62 -29.3 0 0 102.76 335.71
  C 105.73 334.97 109.90 334.64 111.54 331.75
  A 1.00 1.00 0.0 0 1 112.29 331.25
  Q 115.10 330.91 112.99 332.50
  Q 111.61 333.56 113.31 333.92
  L 121.28 335.64
  A 1.03 1.03 0.0 0 0 122.19 335.39
  L 124.18 333.48
  A 0.82 0.81 32.3 0 1 124.99 333.30
  L 125.27 333.40
  A 0.41 0.41 0.0 0 1 125.42 334.09
  L 125.04 334.44
  Q 123.74 335.65 125.48 335.32
  Q 129.00 334.66 131.50 333.54
  Q 132.16 333.24 132.74 333.15
  Q 134.57 332.86 132.95 333.76
  L 129.03 335.93
  A 0.41 0.41 0.0 0 0 128.95 336.58
  L 129.15 336.78
  A 0.51 0.51 0.0 0 0 129.94 336.69
  Q 130.28 336.15 130.95 336.26
  Q 132.06 336.44 131.20 337.16
  L 130.49 337.76
  A 1.00 1.00 0.0 0 1 129.26 337.80
  L 127.30 336.37
  A 1.01 0.99 -35.6 0 0 126.40 336.23
  Q 122.74 337.43 119.14 336.17
  A 1.00 1.00 0.0 0 0 117.81 337.07
  C 117.61 341.97 116.24 336.55 116.20 336.19
  A 1.00 0.98 5.4 0 0 115.49 335.35
  C 114.95 335.19 104.86 333.86 108.94 336.51
  A 0.34 0.33 -58.6 0 1 109.04 336.96
  L 108.86 337.25
  A 0.64 0.64 0.0 0 1 108.02 337.49
  L 105.77 336.32
  A 1.03 1.02 54.5 0 0 105.18 336.22
  L 97.47 337.23
  A 1.01 0.96 -33.8 0 1 96.89 337.13
  Q 92.69 335.01 88.00 334.79
  L 87.50 334.71
  L 84.95 333.82
  A 1.03 0.96 -38.7 0 0 84.43 333.78
  C 81.63 334.33 77.15 334.78 75.76 337.62
  A 0.64 0.63 -66.2 0 1 74.95 337.94
  Q 74.26 337.66 74.66 337.05
  A 0.80 0.80 0.0 0 0 74.28 335.86
  Q 69.24 333.90 63.98 335.45
  A 0.95 0.95 0.0 0 1 63.44 335.45
  Q 57.99 333.99 52.63 335.79
  C 51.73 336.09 51.81 336.64 52.53 337.23
  A 0.33 0.33 0.0 0 1 52.54 337.72
  L 52.26 337.99
  A 0.51 0.51 0.0 0 1 51.48 337.90
  L 50.19 335.96
  A 0.99 0.97 -8.2 0 0 49.63 335.55
  L 41.83 333.34
  A 1.00 1.00 0.0 0 0 40.72 333.76
  Q 39.54 335.60 41.00 335.54
  L 40.47 336.01
  Q 36.37 333.87 32.12 336.22
  A 1.00 1.00 0.0 0 0 31.81 337.71
  Q 32.46 338.55 31.46 338.73
  A 1.01 1.01 0.0 0 1 30.31 338.00
  C 30.13 337.31 29.82 336.99 29.05 336.99
  C 26.23 336.99 21.74 335.44 19.56 337.30
  A 1.02 1.00 34.0 0 1 18.59 337.48
  Q 17.44 337.10 18.40 336.20
  Q 19.59 335.09 17.98 334.83
  Q 17.76 334.79 17.49 334.79
  C 14.92 334.82 10.11 333.94 10.35 338.03
  Q 10.46 339.83 9.42 338.35
  Q 9.12 337.92 9.14 337.34
  A 1.00 0.99 84.0 0 0 7.90 336.33
  Q 4.52 337.18 1.19 336.37
  C 0.65 336.24 -0.44 335.59 0.59 335.12
  A 0.83 0.81 45.4 0 1 1.27 335.13
  C 4.44 336.69 0.55 333.44 2.14 333.20
  A 0.51 0.47 -27.4 0 1 2.55 333.31
  L 5.02 335.40
  A 1.01 0.99 -30.6 0 0 5.87 335.61
  L 13.94 333.92
  A 0.80 0.80 0.0 0 0 14.45 332.71
  Q 14.24 332.38 13.94 332.10
  A 0.98 0.97 14.4 0 1 13.63 331.58
  C 13.32 330.21 15.06 331.37 15.41 331.82
  C 17.54 334.62 21.23 334.93 24.44 335.75
  A 0.66 0.65 29.4 0 0 25.06 335.58
  L 25.25 335.38
  A 0.65 0.65 0.0 0 1 26.03 335.27
  Q 27.76 336.27 32.84 335.42
  Q 35.79 334.93 33.14 333.55
  L 32.50 333.22
  A 0.55 0.52 7.7 0 1 32.24 332.90
  C 31.84 331.40 34.92 333.28 35.39 333.71
  A 1.01 1.00 -29.6 0 0 36.28 333.95
  L 41.09 332.84
  A 1.05 1.04 -76.6 0 0 41.64 332.50
  C 42.21 331.80 45.11 329.73 45.63 331.00
  A 0.51 0.51 0.0 0 1 45.38 331.66
  C 41.92 333.29 50.35 334.77 51.26 335.04
  Q 52.51 335.42 53.69 334.10
  A 1.01 0.99 33.4 0 1 54.85 333.87
  Q 55.50 334.17 56.23 334.02
  Q 59.94 333.30 63.30 334.82
  A 1.02 0.99 -46.0 0 0 64.18 334.79
  C 66.50 333.57 69.96 334.52 71.25 333.71
  Z"
/>
<path fill="#dfbe86" fill-opacity="0.992" d="
  M 326.00 335.04
  L 325.25 334.54
  Q 320.19 333.27 315.56 335.89
  C 315.17 336.11 312.92 339.77 313.19 336.93
  A 1.00 1.00 0.0 0 0 312.55 335.90
  Q 307.41 333.93 302.03 335.41
  A 0.95 0.95 0.0 0 1 301.49 335.41
  Q 296.39 333.98 291.37 335.70
  A 1.00 1.00 0.0 0 0 290.76 337.01
  Q 291.08 337.81 290.24 337.90
  A 0.63 0.63 0.0 0 1 289.59 337.51
  C 288.32 334.47 280.83 333.20 278.21 334.75
  L 277.25 335.04
  C 274.15 334.47 273.52 335.83 270.80 336.19
  Q 268.53 336.48 269.90 337.72
  Q 271.16 338.86 269.46 338.83
  Q 268.48 338.82 268.25 337.72
  A 1.01 1.00 84.7 0 0 267.31 336.93
  L 262.38 336.72
  Q 262.15 336.71 261.95 336.61
  Q 260.18 335.67 258.06 337.27
  Q 256.74 338.26 256.39 337.21
  A 0.80 0.79 62.8 0 1 256.67 336.32
  C 259.65 334.08 251.91 334.91 250.65 335.07
  A 1.01 0.97 10.0 0 0 249.88 335.59
  Q 249.32 336.67 248.21 337.25
  L 247.50 337.21
  Q 248.30 335.76 246.50 336.20
  C 242.46 337.21 238.82 335.32 235.79 337.50
  L 236.00 336.79
  C 237.52 335.94 232.38 333.64 231.63 333.41
  A 0.52 0.49 87.0 0 1 231.30 333.09
  Q 231.11 332.57 231.89 332.91
  Q 235.54 334.51 239.43 335.34
  A 0.64 0.64 0.0 0 0 240.17 334.52
  Q 240.02 334.07 240.24 333.67
  A 0.64 0.64 0.0 0 1 241.24 333.51
  L 243.22 335.36
  A 0.99 0.99 0.0 0 0 244.11 335.61
  L 251.70 334.02
  A 1.00 0.99 64.7 0 0 252.27 332.42
  L 251.64 331.63
  A 0.32 0.32 0.0 0 1 251.68 331.19
  L 251.87 331.01
  A 0.26 0.25 -53.1 0 1 252.15 330.96
  Q 253.78 331.63 254.59 333.19
  A 0.98 0.97 -4.8 0 0 255.20 333.70
  C 256.64 334.11 262.98 336.47 263.79 335.25
  L 264.50 335.21
  C 265.87 337.08 271.34 335.09 272.79 334.50
  L 274.00 333.96
  Q 278.55 333.79 281.93 330.95
  A 1.00 1.00 0.0 0 1 282.62 330.72
  Q 284.69 330.81 283.65 331.78
  A 1.00 1.00 0.0 0 0 284.00 333.46
  Q 287.06 334.52 290.25 335.04
  Q 291.30 335.21 292.25 333.96
  L 293.25 333.96
  Q 297.33 333.34 301.15 334.63
  Q 301.36 334.70 301.59 334.67
  L 309.25 333.71
  L 310.21 333.75
  L 311.41 334.03
  Q 311.66 334.09 311.85 334.26
  Q 312.85 335.17 314.98 334.71
  Q 317.16 334.24 319.73 333.45
  A 1.00 1.00 0.0 0 0 320.27 331.94
  Q 319.80 331.22 319.98 330.85
  C 320.60 329.60 323.46 331.97 323.92 332.54
  A 1.01 0.98 -12.1 0 0 324.46 332.88
  L 328.85 333.99
  A 1.00 0.98 36.2 0 0 329.60 333.88
  L 331.81 332.56
  Q 332.97 331.87 332.77 333.20
  Q 332.69 333.72 331.96 333.76
  A 1.02 1.01 -75.1 0 0 331.17 334.22
  L 331.02 334.45
  A 0.21 0.21 0.0 0 0 331.13 334.77
  C 333.34 335.47 338.92 337.53 339.73 334.06
  A 1.01 0.99 -0.1 0 1 340.49 333.31
  Q 342.16 332.94 341.32 334.14
  Q 340.10 335.89 342.17 335.37
  L 348.18 333.88
  A 1.04 1.03 -84.0 0 0 348.84 333.34
  C 349.12 332.75 351.25 329.99 351.89 331.28
  A 0.51 0.50 -32.8 0 1 351.75 331.91
  L 350.84 332.61
  Q 348.74 334.23 351.38 334.04
  Q 351.61 334.02 351.85 333.95
  Q 352.11 333.88 352.37 333.95
  L 359.29 335.64
  A 0.99 0.97 -60.0 0 0 360.23 335.38
  L 362.08 333.54
  A 1.09 1.03 17.6 0 1 362.66 333.26
  Q 364.34 333.05 363.60 334.55
  A 0.64 0.62 18.3 0 1 362.90 334.89
  Q 362.45 334.80 362.60 335.26
  A 0.42 0.41 74.4 0 0 363.08 335.54
  Q 367.58 334.51 371.83 332.82
  C 373.02 332.35 372.76 333.26 371.96 333.49
  Q 369.59 334.16 367.65 335.67
  Q 366.29 336.74 368.01 336.59
  L 368.53 336.54
  Q 370.19 336.40 368.89 337.45
  L 368.68 337.63
  A 1.01 1.00 51.9 0 1 367.25 337.45
  C 365.85 335.60 359.77 337.09 356.80 336.03
  A 1.00 1.00 0.0 0 0 355.58 336.50
  Q 354.67 338.19 356.18 337.62
  Q 357.12 337.27 356.70 338.18
  Q 356.63 338.32 356.48 338.47
  C 355.88 339.04 355.14 338.66 354.66 338.20
  A 0.98 0.98 0.0 0 1 354.37 337.64
  L 354.10 335.97
  A 1.00 0.99 2.2 0 0 353.33 335.15
  Q 350.45 334.52 347.59 334.93
  Q 345.71 335.19 347.21 336.35
  Q 348.02 336.97 346.84 337.47
  A 1.01 1.01 0.0 0 1 345.95 337.41
  L 344.11 336.35
  A 0.95 0.92 56.5 0 0 343.51 336.22
  L 336.37 336.98
  A 1.03 0.99 13.5 0 0 335.64 337.41
  L 334.86 338.57
  A 0.79 0.79 0.0 0 1 333.88 338.86
  Q 332.92 338.45 333.43 337.51
  A 1.00 0.99 -63.5 0 0 332.97 336.12
  Q 329.65 334.61 326.00 335.04
  Z"
/>
<path fill="#d0b179" fill-opacity="0.996" d="
  M 72.21 333.75
  L 71.25 333.71
  C 68.48 331.35 73.28 331.60 72.21 333.75
  Z"
/>
<path fill="#c99e5f" d="
  M 56.59 332.48
  C 57.91 333.58 51.59 333.18 55.92 332.31
  A 0.84 0.82 58.5 0 1 56.59 332.48
  Z"
/>
<path fill="#d0b179" fill-opacity="0.996" d="
  M 293.25 333.96
  L 292.25 333.96
  C 292.58 331.83 295.21 331.99 294.73 332.80
  A 0.43 0.42 -70.9 0 1 294.34 333.00
  Q 293.31 332.90 293.25 333.96
  Z"
/>
<path fill="#d0b179" fill-opacity="0.996" d="
  M 310.21 333.75
  L 309.25 333.71
  L 309.03 333.29
  A 0.80 0.80 0.0 0 1 309.74 332.12
  Q 311.08 332.11 310.21 333.75
  Z"
/>
<path fill="#d0b179" fill-opacity="0.996" d="
  M 274.00 333.96
  L 272.79 334.50
  Q 272.50 333.82 271.80 333.66
  C 269.48 333.15 272.04 331.72 274.00 333.96
  Z"
/>
<path fill="#d0b179" fill-opacity="0.996" d="
  M 264.50 335.21
  L 263.79 335.25
  Q 263.40 334.56 262.62 334.37
  A 0.80 0.80 0.0 0 1 262.01 333.48
  C 262.28 331.65 264.48 334.03 264.50 335.21
  Z"
/>
<path fill="#d0b179" fill-opacity="0.996" d="
  M 25.27 333.24
  Q 26.03 335.01 24.50 334.83
  A 1.25 0.13 72.0 0 1 24.01 333.73
  Q 23.80 333.08 24.50 332.87
  A 0.65 0.65 0.0 0 1 25.27 333.24
  Z"
/>
<path fill="#d0b179" fill-opacity="0.996" d="
  M 101.96 335.25
  L 101.00 335.21
  L 101.82 333.55
  A 0.52 0.52 0.0 0 1 102.60 333.37
  Q 103.54 334.12 101.96 335.25
  Z"
/>
<path fill="#d0b179" fill-opacity="0.996" d="
  M 325.25 334.54
  L 326.00 335.04
  Q 325.59 335.90 324.75 336.41
  Q 322.92 337.53 324.43 336.00
  Q 325.30 335.12 325.25 334.54
  Z"
/>
<path fill="#d0b179" fill-opacity="0.996" d="
  M 87.50 334.71
  L 88.00 334.79
  Q 87.06 336.63 85.13 336.38
  Q 84.09 336.25 84.83 335.51
  Q 85.28 335.06 85.87 335.32
  A 0.81 0.79 -57.5 0 0 86.79 335.10
  Q 87.07 334.77 87.50 334.71
  Z"
/>
<path fill="#d0b179" fill-opacity="0.996" d="
  M 278.21 334.75
  C 278.67 336.48 281.41 334.89 280.72 336.19
  A 0.99 0.99 0.0 0 1 279.59 336.70
  Q 278.13 336.32 277.25 335.04
  L 278.21 334.75
  Z"
/>
<path fill="#d0b179" fill-opacity="0.996" d="
  M 40.47 336.01
  L 41.00 335.54
  Q 41.67 335.21 42.15 335.58
  A 0.65 0.64 -54.5 0 1 42.29 336.43
  Q 41.64 337.46 40.47 336.01
  Z"
/>
<path fill="#d0b179" fill-opacity="0.996" d="
  M 236.00 336.79
  L 235.79 337.50
  Q 235.56 337.77 235.20 337.80
  A 0.79 0.79 0.0 0 1 234.55 337.54
  Q 233.17 336.06 236.00 336.79
  Z"
/>
<path fill="#d0b179" fill-opacity="0.996" d="
  M 94.71 338.27
  L 94.81 337.98
  A 1.00 1.00 0.0 0 1 96.46 337.62
  Q 97.64 338.82 95.09 338.82
  A 0.41 0.41 0.0 0 1 94.71 338.27
  Z"
/>
<path fill="#d0b179" fill-opacity="0.996" d="
  M 247.50 337.21
  L 248.21 337.25
  Q 249.37 338.08 248.32 338.61
  A 0.79 0.78 -45.4 0 1 247.62 338.62
  Q 246.80 338.24 247.50 337.21
  Z"
/>
<path fill="#d8ac69" fill-opacity="0.996" d="
  M 48.54 376.04
  A 1.03 0.98 8.5 0 1 48.03 375.38
  Q 46.95 370.72 47.44 365.64
  Q 47.54 364.62 47.29 363.90
  Q 47.22 363.70 47.14 363.51
  A 1.00 1.00 0.0 0 1 48.18 362.13
  L 49.34 362.27
  Q 49.96 362.35 49.54 362.82
  L 49.28 363.11
  A 1.04 1.02 67.1 0 0 49.02 363.77
  C 48.99 366.41 48.37 372.78 49.65 374.93
  C 51.12 377.39 55.24 377.49 57.03 375.43
  C 60.96 370.92 54.12 360.23 63.04 358.42
  Q 63.86 358.25 63.55 358.75
  A 0.39 0.38 -77.1 0 1 63.26 358.94
  C 56.76 359.81 60.61 370.44 58.59 374.65
  Q 56.04 379.96 48.54 376.04
  Z"
/>
<path fill="#d0b179" fill-opacity="0.996" d="
  M 190.97 363.90
  C 188.83 360.93 194.76 361.57 193.05 363.30
  A 1.04 1.03 -22.5 0 0 192.76 363.99
  C 192.70 368.14 191.14 376.55 197.06 376.90
  C 207.34 377.52 196.42 360.20 207.12 358.35
  C 207.83 358.22 207.46 358.75 207.13 358.84
  C 201.57 360.45 202.96 367.88 202.93 372.26
  C 202.88 377.60 196.72 379.34 193.19 376.41
  C 190.37 374.07 190.86 368.00 191.15 364.57
  A 0.96 0.96 0.0 0 0 190.97 363.90
  Z"
/>
<path fill="#cea663" fill-opacity="0.992" d="
  M 66.15 363.94
  Q 65.67 366.16 66.19 368.47
  A 1.01 1.01 0.0 0 0 67.17 369.25
  L 73.42 369.25
  A 1.00 1.00 0.0 0 0 74.42 368.31
  Q 74.58 365.87 74.55 363.52
  Q 74.50 360.43 77.03 359.30
  C 78.30 358.73 76.03 361.88 76.02 362.00
  Q 75.87 364.41 76.05 376.02
  Q 76.06 376.28 76.18 376.51
  Q 77.00 377.93 74.92 377.67
  A 1.01 1.00 -78.1 0 1 74.09 376.39
  Q 74.90 373.68 74.40 370.83
  A 1.00 0.99 85.2 0 0 73.42 370.00
  L 67.21 370.00
  A 1.00 1.00 0.0 0 0 66.22 370.85
  C 65.88 373.12 66.50 376.66 65.68 378.54
  Q 65.32 379.36 64.73 380.04
  Q 62.39 382.73 63.88 379.49
  Q 64.16 378.87 64.39 378.22
  C 65.51 375.07 64.76 367.76 64.78 364.16
  A 1.00 0.98 -66.3 0 0 64.53 363.50
  Q 62.47 361.12 66.37 362.14
  Q 67.47 362.43 66.65 363.22
  L 66.44 363.43
  A 1.04 1.01 75.3 0 0 66.15 363.94
  Z"
/>
<path fill="#d8a658" fill-opacity="0.996" d="
  M 252.22 372.09
  L 252.16 363.98
  A 1.00 0.99 15.3 0 0 251.66 363.12
  C 249.37 361.81 257.09 360.94 253.70 363.26
  A 1.01 1.00 -17.6 0 0 253.27 364.08
  C 253.27 367.34 252.37 374.46 254.35 377.01
  Q 255.75 378.81 257.72 379.91
  Q 261.41 381.97 257.33 380.85
  Q 255.41 380.32 253.74 378.50
  Q 248.58 372.89 243.49 367.21
  Q 241.74 365.25 241.74 367.87
  L 241.75 375.79
  A 0.99 0.97 28.2 0 0 241.92 376.34
  Q 243.24 378.33 240.75 377.47
  A 1.01 0.99 -79.5 0 1 240.08 376.48
  Q 240.29 371.70 240.34 366.84
  Q 240.37 363.78 239.18 362.25
  Q 238.16 360.92 236.60 360.22
  Q 233.59 358.87 236.86 359.25
  Q 238.69 359.45 240.01 361.01
  C 243.33 364.91 246.70 367.88 249.29 371.42
  Q 249.85 372.18 250.54 372.83
  Q 252.24 374.43 252.22 372.09
  Z"
/>
<path fill="#d0b179" fill-opacity="0.996" d="
  M 176.08 363.76
  L 175.90 368.21
  A 1.00 1.00 0.0 0 0 176.90 369.25
  L 183.44 369.25
  A 1.00 1.00 0.0 0 0 184.42 368.05
  Q 183.52 363.60 185.66 359.81
  A 0.80 0.80 0.0 0 1 186.74 359.51
  Q 187.58 359.97 186.46 360.82
  A 1.00 0.98 73.0 0 0 186.07 361.57
  Q 185.77 368.38 185.93 375.19
  Q 185.95 376.03 186.23 376.58
  A 0.64 0.63 77.0 0 1 185.66 377.50
  L 184.95 377.50
  A 1.00 0.99 -83.9 0 1 183.98 376.29
  Q 184.53 373.71 184.19 371.06
  A 1.00 0.99 -3.6 0 0 183.20 370.19
  L 177.08 370.16
  A 1.00 1.00 0.0 0 0 176.08 371.11
  Q 175.91 374.24 176.01 377.21
  Q 176.06 378.80 174.89 379.83
  Q 173.14 381.36 173.86 379.15
  Q 174.02 378.63 174.18 378.11
  C 175.23 374.63 174.50 367.98 174.52 364.15
  A 0.99 0.98 -68.2 0 0 174.22 363.44
  C 171.45 360.74 178.43 361.97 176.61 362.92
  A 1.00 0.99 -13.1 0 0 176.08 363.76
  Z"
/>
<path fill="#d8a658" fill-opacity="0.996" d="
  M 36.10 372.77
  L 40.29 363.89
  Q 41.47 361.39 41.81 364.14
  Q 42.51 369.96 43.47 375.77
  Q 43.87 378.22 45.80 379.79
  Q 49.76 383.01 45.24 380.64
  Q 42.77 379.35 42.00 375.74
  Q 40.92 370.69 41.00 367.18
  A 0.40 0.39 -76.4 0 0 40.78 366.81
  Q 40.35 366.59 40.00 367.23
  Q 37.72 371.40 35.79 375.75
  Q 34.88 377.83 33.96 375.75
  L 30.55 368.00
  Q 29.25 365.05 29.02 368.27
  L 28.46 376.17
  Q 28.45 376.37 28.52 376.57
  Q 29.02 378.01 27.02 377.50
  A 0.64 0.64 0.0 0 1 26.58 376.65
  Q 26.65 376.47 26.69 376.29
  C 27.75 370.57 30.47 361.60 24.47 360.36
  C 24.15 360.29 23.78 360.06 24.14 359.73
  A 0.42 0.41 30.8 0 1 24.51 359.64
  C 29.33 360.74 30.03 363.53 32.40 368.53
  Q 33.39 370.60 34.27 372.73
  Q 35.13 374.81 36.10 372.77
  Z"
/>
<path fill="#cea663" fill-opacity="0.992" d="
  M 99.52 368.33
  Q 98.18 365.25 97.99 368.60
  L 97.51 376.63
  A 1.00 0.99 86.7 0 1 96.70 377.55
  Q 94.54 377.96 95.78 376.47
  Q 95.95 376.27 95.99 376.01
  C 96.77 371.84 99.65 361.38 93.27 360.46
  Q 92.91 360.41 92.82 360.18
  A 0.27 0.27 0.0 0 1 93.05 359.82
  C 98.79 359.35 101.40 368.92 103.13 373.12
  Q 104.04 375.32 104.98 373.13
  L 108.97 363.77
  Q 110.09 361.15 110.50 363.97
  Q 111.24 369.04 112.07 374.22
  Q 112.57 377.30 114.45 379.31
  Q 118.12 383.24 113.63 380.29
  Q 111.39 378.82 110.72 375.55
  C 110.59 374.95 109.73 363.03 107.89 368.53
  Q 106.59 372.41 104.55 375.93
  Q 103.55 377.64 102.77 375.83
  L 99.52 368.33
  Z"
/>
<path fill="#cea663" fill-opacity="0.992" d="
  M 128.24 366.98
  L 124.57 375.58
  Q 123.71 377.60 122.75 375.63
  L 119.29 368.51
  Q 118.07 366.00 117.78 368.78
  L 116.93 376.81
  A 0.80 0.80 0.0 0 1 116.10 377.52
  Q 114.63 377.47 115.82 375.95
  A 1.08 1.04 -25.4 0 0 116.04 375.37
  Q 116.12 372.96 117.01 366.27
  C 117.62 361.69 112.50 360.08 112.51 359.98
  A 0.28 0.23 -0.5 0 1 112.76 359.77
  Q 116.21 359.54 117.56 361.94
  Q 120.52 367.22 122.96 372.76
  Q 123.87 374.84 124.79 372.76
  L 128.89 363.43
  Q 130.00 360.92 130.41 363.63
  Q 131.32 369.48 132.20 375.32
  Q 132.64 378.27 134.81 380.05
  Q 137.82 382.52 134.27 380.91
  Q 131.34 379.58 130.66 375.54
  C 130.44 374.23 129.68 367.51 129.10 366.84
  A 0.52 0.52 0.0 0 0 128.24 366.98
  Z"
/>
<path fill="#d8a658" fill-opacity="0.996" d="
  M 84.30 361.69
  L 83.25 361.52
  Q 81.18 361.16 83.26 360.87
  Q 86.21 360.45 87.77 363.51
  C 90.16 368.19 92.27 381.01 98.35 381.53
  Q 99.05 381.59 98.56 382.09
  Q 98.34 382.31 98.01 382.25
  Q 93.71 381.54 93.27 380.65
  L 89.40 372.76
  A 1.02 0.99 84.1 0 0 88.78 372.24
  Q 82.23 370.28 82.12 376.52
  A 1.00 1.00 0.0 0 1 81.13 377.50
  L 80.60 377.50
  Q 79.08 377.52 80.13 376.42
  Q 80.71 375.82 81.01 375.01
  Q 83.18 369.29 85.59 363.67
  A 1.03 1.01 35.9 0 0 85.41 362.61
  L 84.88 362.01
  A 1.06 1.01 72.7 0 0 84.30 361.69
  Z
  M 84.09 370.40
  A 0.61 0.61 0.0 0 0 84.68 371.21
  L 88.54 371.14
  A 0.61 0.61 0.0 0 0 89.09 370.30
  L 87.06 365.31
  A 0.61 0.61 0.0 0 0 85.93 365.33
  L 84.09 370.40
  Z"
/>
<path fill="#cea663" fill-opacity="0.992" d="
  M 143.52 372.28
  Q 136.82 370.25 136.80 376.85
  A 0.65 0.64 -90.0 0 1 136.17 377.49
  L 135.86 377.50
  A 1.00 1.00 0.0 0 1 134.95 376.05
  Q 137.61 370.70 139.91 365.21
  Q 140.61 363.54 140.08 362.50
  Q 139.89 362.12 139.60 361.86
  Q 137.20 359.63 140.17 361.02
  Q 140.73 361.28 141.28 361.76
  C 145.39 365.41 145.78 378.20 150.86 380.89
  Q 151.16 381.05 151.48 381.19
  Q 154.02 382.33 151.24 382.17
  Q 149.74 382.08 148.65 380.80
  Q 146.13 377.83 144.15 372.87
  A 0.98 0.98 0.0 0 0 143.52 372.28
  Z
  M 138.83 370.55
  A 0.38 0.38 0.0 0 0 139.17 371.07
  L 143.26 371.18
  A 0.38 0.38 0.0 0 0 143.63 370.68
  L 141.74 365.00
  A 0.38 0.38 0.0 0 0 141.02 364.98
  L 138.83 370.55
  Z"
/>
<path fill="#d8a658" fill-opacity="0.996" d="
  M 270.63 372.06
  L 266.15 371.97
  A 1.01 1.00 -73.6 0 0 265.28 372.45
  Q 264.11 374.36 264.01 376.55
  A 1.00 1.00 0.0 0 1 263.14 377.49
  Q 258.93 378.05 262.31 375.96
  A 0.98 0.96 85.5 0 0 262.71 375.48
  L 267.40 363.75
  A 1.04 1.01 -44.2 0 0 267.42 363.07
  C 266.71 360.95 265.68 362.05 264.29 361.49
  Q 262.96 360.95 267.19 360.71
  A 1.02 1.01 -16.7 0 1 268.11 361.20
  C 269.72 363.91 271.17 366.37 272.09 369.57
  C 272.92 372.45 275.24 379.66 278.10 380.99
  Q 278.34 381.10 278.57 381.20
  Q 281.74 382.56 278.32 382.18
  Q 276.74 382.01 275.65 380.81
  Q 273.08 377.95 271.57 372.77
  A 1.00 1.00 0.0 0 0 270.63 372.06
  Z
  M 265.77 370.61
  A 0.33 0.33 0.0 0 0 266.07 371.08
  L 270.67 371.08
  A 0.33 0.33 0.0 0 0 270.97 370.61
  L 268.67 365.33
  A 0.33 0.33 0.0 0 0 268.07 365.33
  L 265.77 370.61
  Z"
/>
<path fill="#d8a658" fill-opacity="0.996" d="
  M 346.32 367.21
  Q 348.00 364.11 349.05 362.57
  Q 349.62 361.74 350.45 361.36
  Q 352.36 360.48 350.92 362.01
  Q 345.61 367.67 346.27 375.77
  Q 346.30 376.10 346.58 376.49
  Q 347.30 377.51 346.05 377.50
  L 345.23 377.50
  A 1.00 1.00 0.0 0 1 344.28 376.18
  Q 344.43 375.74 344.47 375.26
  Q 345.08 367.26 339.45 361.77
  A 0.33 0.32 -33.2 0 0 339.10 361.70
  L 338.82 361.82
  Q 338.48 361.96 338.62 361.66
  Q 339.27 360.25 340.72 361.32
  Q 343.17 363.11 344.88 367.14
  Q 345.53 368.67 346.32 367.21
  Z"
/>
<path fill="#da9e4c" fill-opacity="0.996" d="
  M 229.39 364.40
  L 229.58 364.81
  Q 230.51 366.83 228.79 365.42
  Q 227.38 364.26 229.23 362.93
  Q 230.13 362.29 231.69 362.12
  Q 233.36 361.94 235.08 361.72
  Q 236.45 361.54 235.70 362.70
  L 235.41 363.14
  A 1.03 1.01 61.8 0 0 235.25 363.69
  L 235.25 375.80
  A 1.02 1.00 -66.8 0 0 235.52 376.49
  Q 237.13 378.21 233.34 377.43
  Q 232.61 377.28 233.13 376.74
  L 233.47 376.39
  A 1.00 0.99 -23.2 0 0 233.75 375.70
  L 233.75 363.99
  A 1.00 1.00 0.0 0 0 232.57 363.01
  L 229.86 363.50
  A 0.65 0.64 73.0 0 0 229.39 364.40
  Z"
/>
<path fill="#cea663" fill-opacity="0.992" d="
  M 209.43 368.51
  C 205.70 366.28 209.06 359.91 214.13 362.09
  Q 214.61 362.30 214.76 362.76
  Q 215.34 364.50 213.81 363.50
  Q 212.86 362.88 211.94 362.78
  C 209.71 362.53 208.14 364.98 209.77 366.81
  Q 210.21 367.31 212.01 368.33
  C 215.83 370.51 219.29 376.86 213.24 379.09
  C 210.21 380.20 205.75 378.41 206.19 374.62
  Q 206.28 373.87 206.61 373.24
  Q 207.58 371.32 207.22 373.44
  Q 206.18 379.57 213.35 377.96
  A 1.01 1.00 10.1 0 0 213.96 377.54
  Q 216.29 374.07 213.10 371.38
  Q 210.36 369.07 209.43 368.51
  Z"
/>
<path fill="#d8a658" fill-opacity="0.996" d="
  M 221.50 364.09
  L 221.50 368.29
  A 1.00 1.00 0.0 0 0 222.58 369.29
  L 225.75 369.02
  A 0.99 0.99 0.0 0 1 226.81 369.83
  Q 227.11 371.41 225.93 370.58
  C 225.02 369.93 223.38 369.97 222.34 370.14
  A 1.00 0.99 85.7 0 0 221.50 371.13
  L 221.50 375.55
  A 1.00 1.00 0.0 0 0 222.56 376.55
  L 227.14 376.28
  A 1.02 0.96 -67.3 0 0 227.77 376.00
  Q 231.18 372.74 228.68 377.01
  A 1.00 1.00 0.0 0 1 227.82 377.50
  L 220.24 377.50
  A 1.00 1.00 0.0 0 1 219.25 376.37
  Q 220.10 370.08 219.66 363.75
  A 0.82 0.81 6.3 0 0 219.07 363.03
  Q 218.78 362.95 218.58 362.72
  Q 218.02 362.07 218.88 362.04
  L 224.20 361.90
  A 1.00 1.00 0.0 0 1 225.23 362.85
  L 225.25 363.27
  Q 225.29 364.27 224.56 363.59
  Q 223.25 362.38 221.94 363.27
  A 0.98 0.98 0.0 0 0 221.50 364.09
  Z"
/>
<path fill="#d8a658" fill-opacity="0.996" d="
  M 306.43 363.10
  Q 303.01 362.12 302.74 365.21
  Q 302.64 366.30 302.00 365.41
  Q 301.34 364.51 302.37 362.77
  A 1.01 1.01 0.0 0 1 303.14 362.28
  L 308.78 361.78
  Q 309.65 361.71 309.04 362.34
  L 308.78 362.61
  A 1.02 0.99 67.5 0 0 308.50 363.31
  L 308.50 375.62
  A 1.05 1.00 28.7 0 0 308.69 376.21
  Q 310.26 378.35 307.56 377.48
  A 1.00 0.99 9.8 0 1 306.87 376.51
  L 307.15 364.08
  A 0.99 0.99 0.0 0 0 306.43 363.10
  Z"
/>
<path fill="#d8a658" fill-opacity="0.996" d="
  M 320.18 364.52
  Q 321.13 362.99 319.33 363.00
  L 314.05 363.00
  A 1.06 1.05 -67.9 0 0 313.33 363.31
  Q 311.80 364.88 312.33 362.74
  A 1.00 1.00 0.0 0 1 313.30 361.98
  L 321.83 362.00
  Q 323.66 362.01 322.67 363.55
  L 314.81 375.71
  A 1.00 0.99 -62.6 0 0 315.27 377.18
  Q 319.71 378.98 324.45 380.02
  Q 328.40 380.88 332.06 379.32
  A 0.42 0.41 52.7 0 1 332.47 379.38
  C 334.26 380.76 326.05 381.86 325.23 381.77
  Q 321.38 381.32 313.39 377.52
  A 1.01 1.01 0.0 0 1 312.97 376.08
  L 320.18 364.52
  Z"
/>
<path fill="#cea663" fill-opacity="0.992" d="
  M 150.64 363.09
  Q 149.15 363.34 147.97 364.21
  Q 145.52 366.02 147.53 363.73
  Q 148.44 362.70 150.03 362.36
  Q 157.53 360.76 163.65 364.44
  A 1.01 0.96 -88.6 0 1 164.03 364.86
  C 167.81 372.60 163.84 377.61 156.03 377.50
  Q 154.26 377.47 152.50 377.46
  A 0.99 0.99 0.0 0 1 151.56 376.16
  Q 152.06 374.59 151.98 372.97
  Q 151.83 369.78 151.89 368.98
  Q 152.07 366.47 151.80 363.97
  A 1.01 1.00 -7.6 0 0 150.64 363.09
  Z
  M 154.14 376.44
  C 168.46 378.08 166.34 360.71 154.06 363.06
  A 1.00 0.99 84.8 0 0 153.25 364.04
  L 153.25 375.45
  A 1.00 1.00 0.0 0 0 154.14 376.44
  Z"
/>
<path fill="#da9e4c" fill-opacity="0.996" d="
  M 278.75 377.85
  Q 276.78 377.84 278.24 376.24
  A 1.02 1.02 0.0 0 0 278.50 375.56
  L 278.50 364.20
  A 0.99 0.98 -68.2 0 0 278.20 363.49
  C 275.22 360.58 282.80 361.87 280.69 363.30
  A 1.01 1.00 -17.2 0 0 280.25 364.13
  L 280.25 376.42
  A 1.00 1.00 0.0 0 0 280.83 377.33
  C 285.60 379.55 290.04 381.29 294.74 380.30
  Q 295.41 380.16 295.19 380.64
  A 0.56 0.54 1.1 0 1 294.91 380.90
  Q 289.37 383.04 284.41 380.36
  C 282.33 379.23 280.51 377.85 278.75 377.85
  Z"
/>
<path fill="#d8a658" fill-opacity="0.996" d="
  M 301.81 376.19
  Q 303.43 378.14 306.49 380.08
  Q 310.39 382.56 305.96 381.23
  Q 304.27 380.73 303.03 379.46
  Q 301.77 378.15 295.64 371.16
  A 1.01 1.00 63.6 0 1 296.19 369.52
  Q 299.35 368.84 298.70 365.63
  C 298.20 363.16 296.23 362.51 294.01 363.06
  A 1.00 0.99 83.4 0 0 293.25 364.03
  L 293.25 375.51
  A 1.03 0.99 -66.3 0 0 293.49 376.17
  Q 295.16 378.10 292.06 377.40
  A 0.64 0.63 -70.0 0 1 291.64 376.48
  C 292.64 374.52 292.00 366.53 291.99 363.93
  A 0.64 0.63 -71.1 0 0 291.75 363.43
  L 291.50 363.23
  Q 290.40 362.36 291.78 362.10
  Q 294.29 361.63 296.65 362.18
  Q 299.35 362.81 300.14 365.14
  Q 301.14 368.09 298.07 370.03
  A 1.00 1.00 0.0 0 0 297.85 371.53
  Q 299.87 373.84 301.81 376.19
  Z"
/>
<path fill="#d8ac69" fill-opacity="0.996" d="
  M 326.67 362.95
  Q 325.32 362.22 326.95 362.02
  Q 331.35 361.48 329.12 363.28
  A 1.01 1.00 70.7 0 0 328.75 364.06
  L 328.75 375.84
  A 0.99 0.97 24.6 0 0 329.00 376.49
  Q 330.50 378.22 327.66 377.54
  A 1.00 1.00 0.0 0 1 326.93 376.31
  Q 327.03 375.93 327.02 375.50
  Q 326.85 369.47 327.19 363.89
  A 1.00 0.99 -74.2 0 0 326.67 362.95
  Z"
/>
<path fill="#d8a658" fill-opacity="0.996" d="
  M 344.21 381.07
  C 338.97 381.41 333.20 374.50 330.08 370.14
  A 1.00 1.00 0.0 0 1 330.12 368.93
  L 333.97 364.18
  A 1.02 1.00 -30.9 0 0 334.18 363.37
  Q 333.96 362.14 335.23 362.03
  C 340.93 361.54 336.39 363.04 335.87 363.57
  Q 333.48 366.01 331.61 368.82
  A 1.02 1.02 0.0 0 0 331.69 370.04
  C 334.79 373.57 340.27 380.14 344.32 380.56
  A 0.39 0.34 67.0 0 1 344.55 380.67
  Q 344.94 381.02 344.21 381.07
  Z"
/>
<path fill="#d8a658" fill-opacity="0.996" d="
  M 138.96 410.53
  C 133.08 413.26 131.14 402.19 138.75 402.18
  A 1.00 0.99 0.0 0 0 139.75 401.19
  L 139.76 398.92
  A 1.00 0.99 -23.2 0 1 140.04 398.23
  C 141.83 396.36 140.98 408.25 140.99 408.82
  A 1.00 0.99 -68.5 0 0 141.28 409.50
  Q 143.60 411.85 139.72 410.49
  A 0.98 0.98 0.0 0 0 138.96 410.53
  Z
  M 137.4776 409.9370
  A 3.40 2.41 92.4 0 0 140.0279 406.6409
  A 3.40 2.41 92.4 0 0 137.7624 403.1430
  A 3.40 2.41 92.4 0 0 135.2121 406.4391
  A 3.40 2.41 92.4 0 0 137.4776 409.9370
  Z"
/>
<rect fill="#d8a658" fill-opacity="0.996" x="-0.91" y="-6.43" transform="translate(204.67,404.51) rotate(0.1)" width="1.82" height="12.86" rx="0.58"/>
<circle fill="#d0b179" fill-opacity="0.996" cx="159.89" cy="399.60" r="0.83"/>
<path fill="#da9e4c" fill-opacity="0.996" d="
  M 94.29 406.77
  A 1.00 1.00 0.0 0 0 92.99 407.73
  L 93.00 410.36
  A 0.64 0.63 89.5 0 1 92.38 411.00
  L 92.04 411.01
  A 0.41 0.40 89.3 0 1 91.63 410.60
  L 91.50 400.01
  A 1.00 1.00 0.0 0 1 92.56 399.00
  L 97.16 399.26
  A 1.02 1.00 74.3 0 1 97.93 399.70
  C 99.91 402.58 98.55 408.08 94.29 406.77
  Z
  M 94.15 400.21
  A 1.00 1.00 0.0 0 0 93.00 401.20
  L 93.00 404.50
  A 1.01 1.00 -81.4 0 0 93.70 405.46
  C 97.16 406.53 99.72 401.06 94.15 400.21
  Z"
/>
<path fill="#cea663" fill-opacity="0.992" d="
  M 173.41 404.69
  Q 175.65 407.30 173.97 409.49
  Q 172.92 410.87 170.83 411.02
  Q 169.36 411.12 167.97 410.85
  A 1.02 1.00 -84.7 0 1 167.17 409.87
  L 167.09 399.99
  A 1.00 0.99 0.8 0 1 168.13 398.99
  C 170.15 399.06 176.37 399.47 173.37 403.44
  A 0.99 0.99 0.0 0 0 173.41 404.69
  Z
  M 172.2855 401.4634
  A 1.15 1.15 0.0 0 0 171.1436 400.3054
  L 169.6236 400.2947
  A 1.15 1.15 0.0 0 0 168.4656 401.4367
  L 168.4545 403.0366
  A 1.15 1.15 0.0 0 0 169.5964 404.1946
  L 171.1164 404.2053
  A 1.15 1.15 0.0 0 0 172.2744 403.0633
  L 172.2855 401.4634
  Z
  M 172.9008 406.7140
  A 1.02 1.02 0.0 0 0 171.8510 405.7247
  L 169.4121 405.7971
  A 1.02 1.02 0.0 0 0 168.4228 406.8469
  L 168.4792 408.7460
  A 1.02 1.02 0.0 0 0 169.5290 409.7353
  L 171.9679 409.6629
  A 1.02 1.02 0.0 0 0 172.9572 408.6131
  L 172.9008 406.7140
  Z"
/>
<path fill="#cea663" fill-opacity="0.992" d="
  M 222.62 405.75
  L 218.02 405.75
  A 1.00 1.00 0.0 0 0 217.02 406.82
  L 217.28 410.17
  A 0.81 0.78 -21.3 0 1 216.95 410.88
  C 215.00 412.30 215.76 400.86 215.77 399.98
  A 0.80 0.80 0.0 0 1 216.45 399.19
  L 216.77 399.14
  A 0.42 0.42 0.0 0 1 217.25 399.55
  L 217.25 403.05
  A 1.00 1.00 0.0 0 0 218.24 404.05
  L 222.53 404.11
  A 1.01 0.99 3.8 0 0 223.54 403.24
  Q 223.71 401.88 223.52 400.58
  C 223.41 399.87 223.65 398.82 224.54 399.09
  A 0.65 0.63 8.7 0 1 225.00 399.70
  L 225.00 410.51
  Q 225.00 411.42 224.22 410.95
  L 223.87 410.73
  A 1.00 1.00 0.0 0 1 223.46 409.50
  Q 224.11 407.92 223.56 406.40
  A 1.00 0.99 -10.0 0 0 222.62 405.75
  Z"
/>
<path fill="#cea663" fill-opacity="0.992" d="
  M 234.27 402.96
  C 234.22 403.72 234.25 412.12 232.54 410.80
  A 0.65 0.63 -67.0 0 1 232.30 410.19
  Q 233.02 405.64 233.18 401.07
  C 233.27 398.48 235.13 398.26 235.86 400.76
  Q 236.57 403.20 237.70 405.45
  Q 238.67 407.38 239.52 405.40
  Q 240.58 402.90 241.44 400.40
  C 241.75 399.49 242.46 398.75 243.38 399.37
  A 0.78 0.78 0.0 0 1 243.73 399.96
  L 244.71 410.28
  A 0.63 0.63 0.0 0 1 244.46 410.84
  C 242.37 412.48 243.43 402.19 242.32 402.35
  A 0.34 0.33 -83.8 0 0 242.06 402.56
  L 239.52 409.00
  Q 238.73 410.98 237.71 409.12
  Q 236.11 406.22 235.32 402.99
  Q 235.29 402.85 235.23 402.74
  Q 234.38 401.26 234.27 402.96
  Z"
/>
<path fill="#da9e4c" fill-opacity="0.996" d="
  M 110.34 402.10
  Q 110.46 401.81 110.66 401.58
  A 1.01 1.00 -39.9 0 1 112.29 401.72
  Q 112.79 402.58 114.05 402.33
  A 0.64 0.64 0.0 0 1 114.79 402.77
  L 114.88 403.07
  A 0.33 0.32 81.9 0 1 114.57 403.49
  L 113.26 403.50
  A 1.00 0.99 -88.8 0 0 112.27 404.46
  C 112.21 406.06 111.00 410.46 114.26 409.75
  A 0.42 0.41 -21.2 0 1 114.70 409.94
  C 115.47 411.18 110.49 412.27 110.68 408.27
  Q 110.80 405.56 110.46 403.99
  Q 110.16 402.56 110.34 402.10
  Z"
/>
<path fill="#d8a658" fill-opacity="0.996" d="
  M 106.03 408.76
  C 106.22 407.77 105.71 401.30 107.32 402.53
  A 1.00 0.99 20.1 0 1 107.72 403.38
  L 107.43 408.39
  A 1.03 1.02 26.8 0 0 107.67 409.10
  Q 110.15 412.00 106.45 410.40
  A 1.00 0.98 40.6 0 0 105.55 410.46
  C 99.83 413.81 101.02 405.28 101.03 403.01
  A 0.64 0.63 -9.7 0 1 101.46 402.41
  L 101.78 402.30
  A 0.41 0.41 0.0 0 1 102.32 402.69
  L 102.28 408.62
  A 1.01 1.00 88.9 0 0 103.32 409.63
  L 105.08 409.57
  A 1.01 1.00 4.3 0 0 106.03 408.76
  Z"
/>
<path fill="#da9e4c" fill-opacity="0.996" d="
  M 121.06 402.45
  L 121.25 402.88
  A 0.64 0.63 -14.2 0 1 120.71 403.78
  C 117.45 403.99 117.97 407.35 118.00 410.09
  C 118.01 410.63 117.76 411.26 117.13 410.95
  A 0.64 0.64 0.0 0 1 116.77 410.39
  C 116.74 407.45 116.37 401.88 117.40 402.30
  A 0.84 0.80 -4.1 0 1 117.79 402.62
  Q 118.64 404.00 119.65 402.37
  Q 120.43 401.10 121.06 402.45
  Z"
/>
<path fill="#d8ac69" fill-opacity="0.996" d="
  M 126.57 405.44
  C 127.09 401.11 122.78 405.18 122.62 403.73
  A 0.52 0.51 -23.8 0 1 122.80 403.28
  Q 125.11 401.35 127.54 402.89
  A 1.00 0.98 -74.1 0 1 128.00 403.73
  L 128.00 408.75
  A 0.96 0.95 -63.1 0 0 128.18 409.31
  Q 130.08 412.10 126.96 410.53
  A 1.00 1.00 0.0 0 0 126.11 410.51
  Q 122.35 412.16 122.18 408.39
  A 1.01 1.00 -11.8 0 1 122.83 407.41
  L 125.93 406.25
  A 0.99 0.98 -6.9 0 0 126.57 405.44
  Z
  M 126.7087 407.8833
  A 1.68 1.05 -24.5 0 0 124.7446 407.6245
  A 1.68 1.05 -24.5 0 0 123.6513 409.2767
  A 1.68 1.05 -24.5 0 0 125.6154 409.5355
  A 1.68 1.05 -24.5 0 0 126.7087 407.8833
  Z"
/>
<path fill="#d0b179" fill-opacity="0.996" d="
  M 146.76 403.33
  L 144.39 404.14
  A 0.54 0.54 0.0 0 1 144.07 404.14
  Q 143.41 403.94 144.31 403.12
  Q 146.80 400.87 149.41 403.19
  A 1.01 1.00 20.9 0 1 149.75 403.94
  L 149.75 408.64
  A 1.02 0.98 29.7 0 0 149.91 409.18
  Q 151.89 412.24 148.66 410.42
  A 1.01 0.99 45.6 0 0 147.72 410.40
  L 146.53 411.00
  A 0.99 0.95 35.5 0 1 145.91 411.09
  Q 142.18 410.46 144.11 407.42
  A 1.02 0.97 -75.2 0 1 144.86 406.96
  C 146.21 406.83 150.61 405.67 147.69 403.48
  A 1.05 1.04 53.8 0 0 146.76 403.33
  Z
  M 148.3727 408.1931
  A 1.85 1.03 -14.3 0 0 146.3256 407.6519
  A 1.85 1.03 -14.3 0 0 144.7873 409.1069
  A 1.85 1.03 -14.3 0 0 146.8344 409.6481
  A 1.85 1.03 -14.3 0 0 148.3727 408.1931
  Z"
/>
<path fill="#d8a658" fill-opacity="0.996" d="
  M 155.56 402.97
  L 156.55 402.47
  A 0.82 0.81 57.7 0 1 157.55 402.70
  L 157.72 402.92
  A 0.41 0.41 0.0 0 1 157.54 403.55
  L 155.61 404.30
  A 0.99 0.95 -1.1 0 0 155.03 404.88
  C 154.64 405.93 154.78 411.75 153.45 410.93
  A 1.00 0.99 16.7 0 1 152.98 410.07
  C 152.98 409.97 152.49 399.94 154.28 402.64
  A 1.00 0.99 -30.3 0 0 155.56 402.97
  Z"
/>
<rect fill="#dfbe86" fill-opacity="0.992" x="-0.73" y="-4.29" transform="translate(159.82,406.63) rotate(0.7)" width="1.46" height="8.58" rx="0.62"/>
<path fill="#d8a658" fill-opacity="0.996" d="
  M 182.73 409.83
  Q 183.29 409.98 183.26 410.59
  A 0.51 0.51 0.0 0 1 182.59 411.05
  L 180.76 410.46
  A 0.98 0.98 0.0 0 0 179.97 410.53
  Q 177.03 412.15 175.69 408.61
  A 1.00 0.99 -17.8 0 1 176.37 407.29
  L 180.42 406.24
  A 0.99 0.99 0.0 0 0 181.16 405.43
  C 181.62 402.39 178.24 403.43 176.91 404.18
  A 0.49 0.49 0.0 0 1 176.51 404.22
  Q 175.89 404.02 176.60 403.42
  Q 179.37 401.08 181.89 403.18
  A 1.00 1.00 0.0 0 1 182.25 403.95
  L 182.25 409.22
  A 0.63 0.63 0.0 0 0 182.73 409.83
  Z
  M 181.1192 407.9476
  A 1.91 1.06 -18.7 0 0 178.9702 407.5560
  A 1.91 1.06 -18.7 0 0 177.5008 409.1724
  A 1.91 1.06 -18.7 0 0 179.6498 409.5640
  A 1.91 1.06 -18.7 0 0 181.1192 407.9476
  Z"
/>
<path fill="#d8a658" fill-opacity="0.996" d="
  M 190.97 402.18
  A 1.01 1.00 75.8 0 1 192.12 402.87
  Q 194.69 411.09 187.97 411.07
  A 1.00 1.00 0.0 0 0 186.98 412.21
  Q 187.12 413.16 186.74 413.98
  Q 185.54 416.59 185.52 413.71
  C 185.51 412.01 185.09 403.54 185.73 402.61
  Q 186.14 402.02 186.90 402.62
  A 1.00 1.00 0.0 0 0 187.71 402.81
  L 190.97 402.18
  Z
  M 191.2246 405.4634
  A 1.77 1.77 0.0 0 0 189.4733 403.6750
  L 188.5533 403.6654
  A 1.77 1.77 0.0 0 0 186.7649 405.4167
  L 186.7354 408.2366
  A 1.77 1.77 0.0 0 0 188.4867 410.0250
  L 189.4067 410.0346
  A 1.77 1.77 0.0 0 0 191.1951 408.2833
  L 191.2246 405.4634
  Z"
/>
<path fill="#d8a658" fill-opacity="0.996" d="
  M 197.58 403.41
  L 195.22 404.30
  A 0.42 0.41 -37.3 0 1 194.83 404.25
  Q 194.41 403.93 194.88 403.50
  Q 198.32 400.39 200.53 403.87
  A 1.00 0.99 -59.5 0 1 200.68 404.46
  L 200.46 408.68
  A 1.00 0.97 25.1 0 0 200.75 409.44
  Q 203.19 411.86 199.12 410.49
  A 0.98 0.98 0.0 0 0 198.48 410.49
  L 196.94 411.00
  A 1.02 1.00 42.4 0 1 196.35 411.02
  Q 193.61 410.23 194.57 407.84
  A 0.99 0.98 3.0 0 1 195.23 407.25
  L 198.52 406.33
  A 1.01 1.00 73.5 0 0 199.20 405.07
  L 198.89 404.05
  A 1.00 1.00 0.0 0 0 197.58 403.41
  Z
  M 199.3245 408.1156
  A 1.79 1.04 -16.7 0 0 197.3111 407.6339
  A 1.79 1.04 -16.7 0 0 195.8955 409.1444
  A 1.79 1.04 -16.7 0 0 197.9089 409.6261
  A 1.79 1.04 -16.7 0 0 199.3245 408.1156
  Z"
/>
<path fill="#d8ac69" fill-opacity="0.996" d="
  M 210.19 410.93
  C 209.34 411.64 207.11 408.60 206.21 407.45
  A 0.99 0.98 -53.4 0 1 206.07 406.46
  C 206.20 406.14 210.03 400.07 209.95 402.72
  A 0.83 0.76 67.5 0 1 209.78 403.19
  L 207.68 405.86
  A 1.01 1.00 -45.8 0 0 207.69 407.12
  L 210.26 410.21
  A 0.52 0.51 -39.8 0 1 210.19 410.93
  Z"
/>
<path fill="#d8ac69" fill-opacity="0.996" d="
  M 249.80 403.30
  L 247.97 404.13
  Q 247.25 404.46 247.40 403.68
  C 247.82 401.50 251.85 401.96 252.80 403.88
  Q 252.91 404.11 252.90 404.37
  L 252.71 408.44
  A 1.08 1.07 28.8 0 0 252.90 409.08
  Q 255.11 412.11 251.75 410.48
  A 1.00 1.00 0.0 0 0 250.92 410.46
  Q 246.77 412.23 247.06 408.06
  A 1.00 1.00 0.0 0 1 247.79 407.17
  L 250.76 406.34
  A 1.01 1.01 0.0 0 0 251.47 405.13
  L 251.18 403.97
  A 1.00 0.99 70.7 0 0 249.80 403.30
  Z
  M 251.3952 408.0453
  A 1.67 1.02 -19.4 0 0 249.4812 407.6379
  A 1.67 1.02 -19.4 0 0 248.2448 409.1547
  A 1.67 1.02 -19.4 0 0 250.1588 409.5621
  A 1.67 1.02 -19.4 0 0 251.3952 408.0453
  Z"
/>
<path fill="#d8a658" fill-opacity="0.996" d="
  M 255.61 405.92
  A 1.00 1.00 0.0 0 1 255.29 404.67
  Q 256.84 401.44 259.77 402.36
  C 260.72 402.66 261.05 404.04 259.45 403.67
  Q 256.11 402.90 257.52 405.37
  Q 257.63 405.55 257.80 405.68
  L 260.38 407.55
  A 1.00 1.00 0.0 0 1 260.77 408.59
  Q 259.79 412.75 255.51 410.47
  C 254.92 410.15 255.27 409.55 255.98 409.66
  Q 262.30 410.60 255.61 405.92
  Z"
/>
<path fill="#d8a658" fill-opacity="0.996" d="
  M 265.87 402.68
  Q 266.67 402.11 267.43 402.55
  Q 268.66 403.26 267.32 403.71
  L 265.58 404.30
  A 1.00 0.99 -8.2 0 0 264.90 405.20
  L 264.67 410.29
  A 0.79 0.79 0.0 0 1 264.15 411.00
  C 263.33 411.31 263.12 410.32 263.15 409.68
  Q 263.31 406.56 263.27 403.41
  A 0.81 0.79 6.9 0 1 264.28 402.63
  L 265.03 402.83
  A 1.03 1.00 -54.4 0 0 265.87 402.68
  Z"
/>
<path fill="#da9e4c" fill-opacity="0.996" d="
  M 274.20 408.48
  L 274.28 403.13
  A 0.98 0.94 66.6 0 1 274.52 402.49
  C 276.42 400.27 275.61 408.49 275.59 408.68
  A 1.01 1.00 -72.4 0 0 276.08 409.64
  Q 277.39 410.40 276.21 410.92
  A 1.03 1.01 -34.3 0 1 275.11 410.72
  C 273.75 409.41 271.69 412.24 269.81 410.37
  C 268.85 409.41 268.57 403.93 269.22 402.78
  C 270.10 401.20 270.66 403.05 270.59 403.81
  C 270.38 406.16 269.69 411.58 273.69 409.33
  A 1.00 0.99 -14.2 0 0 274.20 408.48
  Z"
/>
<path fill="#da9e4c" fill-opacity="0.996" d="
  M 280.71 404.78
  C 280.39 406.30 281.08 411.17 279.60 410.95
  A 1.00 1.00 0.0 0 1 278.75 409.96
  L 278.75 403.58
  A 1.00 0.99 -83.2 0 1 279.98 402.61
  Q 280.38 402.70 280.76 402.74
  C 282.31 402.91 283.34 401.43 284.81 402.97
  C 285.73 403.92 286.51 411.38 284.71 411.02
  A 0.81 0.81 0.0 0 1 284.07 410.31
  C 283.87 408.26 285.54 401.95 281.24 404.08
  A 1.03 1.01 82.7 0 0 280.71 404.78
  Z"
/>
<ellipse fill="#c99e5f" cx="0.00" cy="0.00" transform="translate(228.99,410.24) rotate(-10.6)" rx="0.98" ry="0.76"/>
<path fill="#d8a658" fill-opacity="0.996" d="
  M 91.02 436.19
  A 1.01 0.94 -84.2 0 1 90.64 435.69
  Q 88.20 428.44 95.04 428.14
  A 1.00 1.00 0.0 0 0 96.00 427.12
  L 95.95 425.04
  A 0.99 0.98 76.1 0 1 96.50 424.12
  L 96.78 423.98
  A 0.33 0.33 0.0 0 1 97.25 424.28
  L 97.25 434.52
  A 1.03 0.94 29.8 0 0 97.43 435.08
  Q 99.57 438.22 96.05 436.41
  A 0.99 0.99 0.0 0 0 95.07 436.45
  Q 93.12 437.65 91.02 436.19
  Z
  M 93.6818 435.8571
  A 3.30 2.43 92.4 0 0 96.2479 432.6618
  A 3.30 2.43 92.4 0 0 93.9582 429.2629
  A 3.30 2.43 92.4 0 0 91.3921 432.4582
  A 3.30 2.43 92.4 0 0 93.6818 435.8571
  Z"
/>
<path fill="#c99e5f" d="
  M 129.69 428.67
  Q 131.34 427.88 132.68 428.83
  Q 133.81 429.63 134.07 431.50
  Q 134.99 438.06 127.96 436.91
  A 1.00 0.99 4.8 0 1 127.13 435.93
  L 127.06 424.95
  A 1.05 1.00 -28.7 0 1 127.25 424.36
  Q 127.74 423.67 128.28 424.38
  A 0.82 0.81 -55.8 0 1 128.41 425.09
  Q 127.96 426.61 128.29 428.00
  A 0.99 0.99 0.0 0 0 129.69 428.67
  Z
  M 130.1099 436.1559
  A 3.33 2.50 96.9 0 0 132.9919 433.1503
  A 3.33 2.50 96.9 0 0 130.9101 429.5441
  A 3.33 2.50 96.9 0 0 128.0281 432.5497
  A 3.33 2.50 96.9 0 0 130.1099 436.1559
  Z"
/>
<path fill="#cea663" fill-opacity="0.992" d="
  M 198.19 430.84
  L 199.95 428.50
  A 0.51 0.48 14.5 0 1 200.31 428.30
  Q 202.09 428.10 198.69 431.63
  A 1.02 1.01 -43.9 0 0 198.66 432.99
  L 201.30 435.99
  A 0.64 0.64 0.0 0 1 201.00 437.03
  Q 200.28 437.24 199.63 436.33
  Q 198.79 435.16 198.19 434.38
  Q 196.84 432.63 196.76 434.84
  Q 196.68 437.04 195.57 436.90
  A 0.65 0.65 0.0 0 1 195.01 436.26
  C 195.00 434.84 194.25 423.57 196.15 424.05
  A 0.81 0.81 0.0 0 1 196.75 424.83
  L 196.75 430.36
  Q 196.75 432.76 198.19 430.84
  Z"
/>
<path fill="#cea663" fill-opacity="0.992" d="
  M 229.59 429.59
  Q 227.90 429.41 226.60 430.51
  A 1.00 1.00 0.0 0 0 226.25 431.27
  L 226.25 436.50
  A 0.52 0.51 1.1 0 1 225.71 437.01
  L 225.43 437.00
  A 0.41 0.41 0.0 0 1 225.04 436.59
  C 225.04 435.58 224.44 423.34 225.94 424.12
  A 0.65 0.64 13.7 0 1 226.29 424.69
  L 226.25 427.79
  A 1.00 1.00 0.0 0 0 227.53 428.76
  Q 227.83 428.67 228.13 428.55
  C 232.95 426.54 231.66 434.20 232.02 436.40
  A 0.41 0.41 0.0 0 1 231.59 436.88
  L 231.33 436.86
  A 1.01 1.00 -87.6 0 1 230.40 435.84
  L 230.48 430.60
  A 1.01 0.99 -86.9 0 0 229.59 429.59
  Z"
/>
<rect fill="#c99e5f" x="-0.88" y="-6.50" transform="translate(254.88,430.51) rotate(0.1)" width="1.76" height="13.00" rx="0.75"/>
<path fill="#da9e4c" fill-opacity="0.996" d="
  M 276.65 428.60
  Q 278.65 427.73 280.42 429.31
  A 1.00 0.97 -70.0 0 1 280.75 430.05
  L 280.75 436.14
  A 0.81 0.80 -83.9 0 1 279.78 436.93
  L 279.50 436.86
  A 0.64 0.63 6.2 0 1 279.00 436.24
  L 279.00 430.73
  A 1.01 1.01 0.0 0 0 278.38 429.80
  Q 276.93 429.22 275.62 430.27
  A 1.01 1.00 70.7 0 0 275.25 431.05
  L 275.25 436.64
  A 0.33 0.33 0.0 0 1 274.87 436.97
  L 274.54 436.91
  A 0.80 0.80 0.0 0 1 273.88 436.09
  Q 274.12 430.66 273.97 425.20
  C 273.95 424.60 274.33 423.61 275.02 424.20
  A 0.71 0.68 20.8 0 1 275.25 424.69
  L 275.25 427.68
  A 1.00 1.00 0.0 0 0 276.65 428.60
  Z"
/>
<path fill="#c99e5f" d="
  M 162.25 425.39
  Q 162.31 424.73 162.98 424.73
  A 0.80 0.80 0.0 0 1 163.74 425.28
  Q 164.08 426.36 162.97 426.26
  A 0.80 0.79 5.7 0 1 162.25 425.39
  Z"
/>
<ellipse fill="#cea663" fill-opacity="0.992" cx="204.25" cy="425.56" rx="1.01" ry="0.78"/>
<path fill="#d0b179" fill-opacity="0.996" d="
  M 282.97 424.91
  C 287.52 427.03 286.25 436.97 282.79 439.66
  A 0.21 0.21 0.0 0 1 282.51 439.64
  L 282.31 439.44
  A 0.33 0.12 -54.9 0 1 282.39 439.13
  Q 286.90 432.36 282.55 425.38
  Q 281.97 424.45 282.97 424.91
  Z"
/>
<rect fill="#d0b179" fill-opacity="0.996" x="-0.77" y="-5.95" transform="translate(122.98,431.01) rotate(0.3)" width="1.54" height="11.90" rx="0.58"/>
<path fill="#cea663" fill-opacity="0.992" d="
  M 150.94 432.77
  L 151.04 436.56
  A 0.33 0.32 -89.2 0 1 150.70 436.90
  L 150.45 436.89
  A 0.80 0.80 0.0 0 1 149.68 436.09
  L 149.71 425.69
  A 0.65 0.64 -3.0 0 1 150.29 425.05
  C 151.52 424.93 150.86 428.30 151.08 429.44
  A 0.99 0.99 0.0 0 0 152.08 430.25
  L 156.50 430.17
  A 1.00 1.00 0.0 0 0 157.47 429.29
  C 157.55 428.61 156.79 424.31 158.42 425.11
  A 0.80 0.80 0.0 0 1 158.87 425.83
  L 158.87 436.08
  A 0.81 0.81 0.0 0 1 158.08 436.88
  L 157.81 436.89
  A 0.41 0.40 0.6 0 1 157.39 436.47
  L 157.52 432.81
  A 1.00 1.00 0.0 0 0 156.53 431.77
  L 151.95 431.74
  A 1.01 1.00 -0.8 0 0 150.94 432.77
  Z"
/>
<path fill="#cea663" fill-opacity="0.992" d="
  M 173.08 430.61
  L 172.69 436.04
  A 0.99 0.98 -14.3 0 1 172.22 436.82
  C 170.44 437.92 172.16 427.51 172.20 426.68
  C 172.31 424.81 173.88 424.50 174.52 426.23
  Q 175.53 428.96 176.51 431.71
  Q 177.20 433.62 178.00 431.76
  L 180.58 425.80
  A 1.01 1.00 -86.2 0 1 181.23 425.23
  Q 182.62 424.85 182.72 425.99
  Q 183.41 433.96 183.66 436.03
  A 0.81 0.80 81.7 0 1 183.00 436.92
  L 182.65 436.98
  A 0.42 0.41 -6.4 0 1 182.17 436.60
  L 181.80 430.39
  Q 181.60 427.20 180.27 430.10
  L 178.08 434.87
  Q 177.07 437.08 176.24 434.79
  L 174.63 430.39
  Q 173.35 426.87 173.08 430.61
  Z"
/>
<path fill="#cea663" fill-opacity="0.992" d="
  M 239.69 425.94
  Q 240.25 424.93 240.79 425.12
  A 0.33 0.32 -65.0 0 1 240.96 425.60
  Q 236.71 432.47 241.39 439.18
  A 0.21 0.21 0.0 0 1 241.32 439.49
  L 241.04 439.64
  A 0.52 0.51 -31.9 0 1 240.39 439.49
  Q 235.68 433.12 239.69 425.94
  Z"
/>
<path fill="#d8a658" fill-opacity="0.996" d="
  M 250.18 435.84
  C 250.10 433.12 244.10 432.38 243.59 436.10
  A 1.00 1.00 0.0 0 1 242.60 436.96
  L 242.26 436.97
  A 0.33 0.32 -79.0 0 1 241.96 436.52
  L 246.12 425.88
  A 1.00 1.00 0.0 0 1 247.05 425.25
  L 247.58 425.25
  A 0.99 0.98 80.8 0 1 248.53 425.95
  L 251.79 436.32
  A 0.41 0.41 0.0 0 1 251.34 436.85
  L 251.02 436.80
  A 1.00 1.00 0.0 0 1 250.18 435.84
  Z
  M 244.97 432.15
  A 0.30 0.30 0.0 0 0 245.23 432.57
  L 248.98 432.71
  A 0.30 0.30 0.0 0 0 249.28 432.31
  L 247.58 427.38
  A 0.30 0.30 0.0 0 0 247.02 427.36
  L 244.97 432.15
  Z"
/>
<path fill="#cea663" fill-opacity="0.992" d="
  M 102.85 432.50
  C 106.30 431.79 103.80 427.95 101.01 430.06
  C 100.65 430.33 100.32 430.36 100.11 429.96
  A 0.42 0.42 0.0 0 1 100.17 429.48
  Q 102.20 427.36 105.48 428.75
  A 1.00 0.99 13.8 0 1 106.09 429.75
  L 105.72 434.61
  A 1.00 0.99 -71.9 0 0 106.19 435.54
  Q 107.15 436.13 106.46 436.93
  A 0.63 0.63 0.0 0 1 105.52 436.96
  Q 104.23 435.63 102.78 436.82
  A 1.00 0.97 -61.0 0 1 102.06 437.04
  Q 99.22 436.79 99.83 434.09
  A 0.99 0.97 -9.0 0 1 100.32 433.43
  Q 101.53 432.77 102.85 432.50
  Z
  M 104.2801 434.0479
  A 1.74 1.03 -18.5 0 0 102.3032 433.6232
  A 1.74 1.03 -18.5 0 0 100.9799 435.1521
  A 1.74 1.03 -18.5 0 0 102.9568 435.5768
  A 1.74 1.03 -18.5 0 0 104.2801 434.0479
  Z"
/>
<path fill="#cea663" fill-opacity="0.992" d="
  M 113.65 429.68
  C 109.04 428.73 110.76 434.10 110.41 436.49
  A 0.63 0.63 0.0 0 1 110.00 437.00
  C 108.50 437.55 108.93 431.88 109.06 429.41
  A 0.80 0.80 0.0 0 1 110.14 428.70
  L 110.62 428.88
  A 0.96 0.94 42.1 0 0 111.38 428.85
  C 116.96 426.29 116.04 432.87 115.99 435.85
  A 1.00 0.99 -87.3 0 1 114.92 436.83
  L 114.55 436.81
  A 1.06 0.01 88.9 0 1 114.52 435.75
  L 114.45 430.64
  A 1.00 0.99 5.4 0 0 113.65 429.68
  Z"
/>
<path fill="#cea663" fill-opacity="0.992" d="
  M 136.43 428.65
  C 139.17 425.09 135.65 438.53 140.95 435.36
  A 1.04 1.01 77.0 0 0 141.43 434.56
  C 141.53 432.97 141.23 430.73 141.59 429.26
  C 142.18 426.88 143.01 429.25 143.00 429.96
  Q 142.97 432.41 143.03 434.83
  A 1.01 0.97 -64.5 0 0 143.21 435.37
  Q 145.14 438.15 141.70 436.46
  A 1.01 0.98 -45.6 0 0 140.78 436.48
  C 135.14 439.53 136.46 431.70 136.23 429.36
  A 1.03 1.00 -30.1 0 1 136.43 428.65
  Z"
/>
<path fill="#c99e5f" d="
  M 162.08 429.61
  L 161.37 429.36
  Q 159.86 428.80 161.42 428.38
  Q 162.32 428.14 163.24 428.26
  A 1.01 1.01 0.0 0 1 164.11 429.27
  L 163.93 439.12
  A 1.02 0.99 -15.4 0 1 163.44 439.96
  C 158.77 442.74 162.76 437.63 162.76 436.29
  Q 162.76 433.37 162.73 430.54
  A 0.99 0.99 0.0 0 0 162.08 429.61
  Z"
/>
<path fill="#d8ac69" fill-opacity="0.996" d="
  M 190.07 432.02
  C 191.76 429.80 189.01 428.60 187.16 430.01
  A 1.04 0.99 26.3 0 1 186.52 430.21
  C 185.18 430.17 186.33 429.05 186.80 428.79
  Q 189.35 427.37 191.42 429.21
  A 1.02 1.01 -69.1 0 1 191.75 429.96
  L 191.75 434.92
  A 1.00 1.00 0.0 0 0 192.33 435.83
  Q 192.98 436.14 192.63 436.85
  A 0.64 0.63 -54.1 0 1 191.60 437.02
  Q 190.28 435.64 188.83 436.87
  A 1.03 1.02 30.8 0 1 187.99 437.08
  Q 183.83 436.29 186.35 433.36
  A 1.02 0.93 10.8 0 1 186.87 433.04
  L 189.51 432.39
  A 0.96 0.95 11.4 0 0 190.07 432.02
  Z
  M 190.3753 434.2049
  A 1.84 1.05 -14.0 0 0 188.3360 433.6312
  A 1.84 1.05 -14.0 0 0 186.8047 435.0951
  A 1.84 1.05 -14.0 0 0 188.8440 435.6688
  A 1.84 1.05 -14.0 0 0 190.3753 434.2049
  Z"
/>
<rect fill="#da9e4c" fill-opacity="0.996" x="-0.88" y="-4.38" transform="translate(204.36,432.63) rotate(0.1)" width="1.76" height="8.76" rx="0.80"/>
<path fill="#d8a658" fill-opacity="0.996" d="
  M 211.46 433.08
  L 213.09 428.85
  A 1.07 1.05 -5.2 0 1 213.51 428.36
  Q 214.31 427.87 214.03 428.93
  Q 211.97 436.83 209.30 439.97
  Q 208.15 441.32 207.22 440.69
  A 0.80 0.80 0.0 0 1 207.20 439.38
  L 209.36 437.83
  A 1.01 1.01 0.0 0 0 209.71 436.67
  C 209.46 436.02 206.18 427.83 207.72 428.29
  A 0.81 0.80 89.2 0 1 208.26 428.82
  L 209.57 433.02
  Q 210.43 435.76 211.46 433.08
  Z"
/>
<path fill="#d8a658" fill-opacity="0.996" d="
  M 218.54 429.29
  Q 217.79 429.46 217.13 429.87
  C 215.50 430.91 215.75 429.35 216.80 428.78
  Q 219.37 427.38 221.47 429.31
  A 0.99 0.98 -68.2 0 1 221.80 430.09
  L 221.62 434.76
  A 0.98 0.98 0.0 0 0 222.11 435.66
  Q 223.45 436.44 222.07 436.97
  A 1.00 0.99 56.1 0 1 221.02 436.76
  C 219.35 435.17 215.99 439.35 215.45 434.74
  A 1.00 0.98 65.3 0 1 215.75 433.90
  Q 217.09 432.62 219.07 432.50
  A 1.03 1.02 -71.7 0 0 219.78 432.14
  Q 221.08 430.56 219.30 429.42
  A 1.03 1.01 -34.7 0 0 218.54 429.29
  Z
  M 220.1770 433.9361
  A 1.80 1.05 -21.3 0 0 218.1186 433.6117
  A 1.80 1.05 -21.3 0 0 216.8230 435.2439
  A 1.80 1.05 -21.3 0 0 218.8814 435.5683
  A 1.80 1.05 -21.3 0 0 220.1770 433.9361
  Z"
/>
<path fill="#d8a658" fill-opacity="0.996" d="
  M 261.14 428.73
  Q 263.21 427.70 265.05 429.03
  A 1.01 1.00 44.7 0 0 266.22 429.03
  Q 268.71 427.22 270.77 429.67
  A 1.01 1.00 25.5 0 1 271.00 430.31
  L 271.00 436.50
  A 0.51 0.51 0.0 0 1 270.46 437.01
  L 270.19 436.99
  A 1.00 1.00 0.0 0 1 269.25 435.99
  L 269.25 430.85
  A 1.00 1.00 0.0 0 0 268.64 429.93
  C 263.07 427.55 267.47 438.06 264.46 436.93
  A 0.81 0.80 12.1 0 1 263.94 436.14
  L 264.25 430.93
  A 1.01 1.00 -76.6 0 0 263.65 429.95
  Q 261.85 429.17 260.35 430.50
  A 0.98 0.97 69.9 0 0 260.01 431.24
  C 260.00 431.89 260.50 437.62 259.13 436.95
  A 0.63 0.63 0.0 0 1 258.77 436.38
  C 258.76 435.59 257.86 426.98 260.10 428.64
  A 0.99 0.98 -39.9 0 0 261.14 428.73
  Z"
/>
<circle fill="#c99e5f" cx="167.75" cy="436.20" r="0.77"/>
</svg>
