<?xml version="1.0" encoding="UTF-8" standalone="no"?>
<!DOCTYPE svg PUBLIC "-//W3C//DTD SVG 1.1//EN" "http://www.w3.org/Graphics/SVG/1.1/DTD/svg11.dtd">
<svg xmlns="http://www.w3.org/2000/svg" version="1.1" viewBox="0 0 699 357">
<path fill="#cd9754" d="
  M 344.74 72.10
  Q 352.41 75.47 360.50 77.44
  Q 365.80 78.73 370.69 77.15
  C 381.12 73.77 374.15 57.31 363.78 68.55
  A 0.52 0.51 37.5 0 1 363.12 68.63
  Q 362.56 68.25 363.17 67.47
  C 373.19 54.72 385.60 73.56 371.34 79.12
  C 363.54 82.16 349.45 76.23 342.55 72.25
  A 1.00 1.00 0.0 0 0 341.58 72.23
  C 335.22 75.58 325.75 79.15 319.08 76.51
  C 314.34 74.64 312.69 69.88 317.80 66.96
  C 323.33 63.81 334.48 67.48 339.39 70.07
  A 1.01 1.01 0.0 0 0 340.42 70.02
  Q 350.42 63.23 358.93 54.66
  A 1.01 1.01 0.0 0 0 358.61 53.03
  L 349.03 48.95
  A 1.01 1.01 0.0 0 0 348.08 49.04
  C 326.10 63.66 292.75 69.94 278.62 41.14
  C 278.57 41.02 278.17 38.15 278.93 39.77
  C 286.79 56.62 306.04 62.47 323.20 58.69
  Q 335.45 56.00 345.88 49.02
  A 1.00 0.99 42.0 0 0 345.79 47.31
  Q 339.29 43.90 332.85 40.39
  Q 319.84 33.30 308.44 31.37
  C 302.31 30.33 289.97 31.64 289.97 39.73
  C 289.98 46.64 297.65 50.42 303.69 51.04
  Q 318.47 52.53 328.80 42.92
  A 0.51 0.51 0.0 0 1 329.36 42.83
  Q 330.08 43.15 329.35 43.85
  C 320.42 52.24 303.20 56.83 292.78 47.87
  C 288.05 43.79 286.83 37.41 292.06 33.10
  C 305.15 22.30 337.10 39.77 349.17 46.69
  A 1.01 1.00 -49.0 0 0 350.28 46.61
  C 360.24 38.90 374.07 30.15 386.16 28.19
  C 398.65 26.16 412.00 29.15 420.20 39.45
  C 421.10 40.57 419.82 40.84 419.18 40.25
  C 403.32 25.78 385.72 26.84 367.97 36.52
  Q 360.10 40.82 352.53 46.49
  Q 351.12 47.55 352.75 48.22
  L 361.39 51.76
  A 1.01 1.00 32.6 0 0 362.50 51.52
  C 370.86 42.70 388.59 29.94 400.95 36.70
  Q 405.02 38.93 405.62 43.26
  C 407.24 54.92 392.23 58.35 384.01 58.21
  Q 375.15 58.06 363.21 54.56
  A 1.00 0.99 29.5 0 0 362.19 54.84
  Q 354.18 63.52 344.57 70.37
  Q 343.13 71.40 344.74 72.10
  Z
  M 402.56 50.06
  C 406.53 44.74 403.43 39.10 397.76 37.12
  Q 392.27 35.22 386.45 37.48
  Q 374.92 41.96 366.12 51.46
  A 1.01 1.00 30.7 0 0 366.54 53.09
  Q 375.45 56.10 384.65 56.24
  C 391.71 56.35 398.45 55.58 402.56 50.06
  Z
  M 321.27 67.21
  C 317.38 67.41 313.52 72.68 318.88 74.64
  C 321.47 75.58 325.00 75.78 327.83 75.13
  Q 332.47 74.07 336.72 71.93
  Q 338.57 70.99 336.69 70.13
  Q 329.48 66.80 321.27 67.21
  Z"
/>
<path fill="#ca9d61" d="
  M 182.81 183.19
  C 187.89 188.64 202.74 191.39 202.75 179.87
  Q 202.75 148.50 202.75 117.14
  C 202.75 111.29 200.95 107.62 194.74 107.49
  Q 193.06 107.46 193.70 106.58
  A 0.81 0.80 17.9 0 1 194.35 106.25
  Q 217.68 106.25 241.00 106.26
  Q 244.99 106.26 252.02 104.57
  A 1.01 1.00 83.4 0 1 253.25 105.55
  L 253.25 124.28
  A 0.51 0.51 0.0 0 1 252.75 124.79
  C 252.23 124.80 252.00 124.49 252.01 123.97
  C 252.21 115.11 246.86 111.47 238.77 111.52
  Q 230.16 111.57 221.53 111.34
  A 1.00 1.00 0.0 0 0 220.50 112.34
  L 220.51 144.61
  A 1.00 1.00 0.0 0 0 221.47 145.61
  Q 227.69 145.84 233.74 145.77
  C 241.44 145.67 245.91 143.18 246.33 135.06
  Q 246.39 134.01 247.15 134.54
  A 0.80 0.77 -73.8 0 1 247.50 135.20
  L 247.50 161.25
  A 0.67 0.63 -21.7 0 1 247.27 161.74
  C 246.64 162.27 246.27 161.42 246.24 160.88
  Q 245.88 152.22 237.25 150.75
  Q 233.62 150.13 221.44 150.86
  A 1.00 1.00 0.0 0 0 220.50 151.86
  L 220.50 182.89
  A 1.00 0.99 -89.4 0 0 221.47 183.89
  Q 233.59 184.20 237.01 184.01
  C 249.64 183.30 254.70 176.11 259.32 165.46
  Q 259.81 164.34 260.27 165.47
  Q 260.49 166.01 260.27 166.58
  Q 259.91 167.49 259.89 167.59
  Q 257.66 177.93 255.17 188.23
  A 1.01 1.00 7.0 0 1 254.19 188.99
  Q 217.68 189.01 181.26 189.01
  C 157.12 189.01 152.18 174.78 144.02 155.53
  Q 141.96 150.68 136.85 148.70
  Q 135.99 148.37 136.37 147.78
  A 0.51 0.48 -72.4 0 1 136.78 147.55
  C 143.45 147.34 150.15 146.41 153.10 139.83
  C 157.82 129.33 156.28 112.15 141.73 111.50
  Q 138.29 111.34 133.47 111.61
  A 1.00 0.99 88.5 0 0 132.53 112.61
  Q 132.47 146.32 132.51 179.98
  Q 132.52 187.89 140.82 187.85
  C 141.32 187.85 141.87 188.15 141.63 188.69
  A 0.51 0.51 0.0 0 1 141.16 189.00
  L 106.28 189.00
  A 0.80 0.79 72.1 0 1 105.63 188.66
  C 105.25 188.13 106.26 187.82 106.70 187.83
  C 112.89 187.95 114.73 184.03 114.74 178.30
  Q 114.76 148.24 114.75 118.17
  C 114.75 111.56 113.41 107.76 106.26 107.49
  Q 105.22 107.45 105.59 106.63
  A 0.64 0.63 12.2 0 1 106.17 106.26
  Q 125.97 106.24 145.75 106.26
  C 159.31 106.27 173.76 111.50 174.40 127.08
  Q 174.76 135.78 170.47 142.13
  Q 166.09 148.62 157.61 150.68
  Q 155.62 151.16 157.41 152.16
  Q 160.73 153.99 163.37 156.68
  Q 165.20 158.53 168.50 163.81
  Q 176.13 176.02 182.81 183.19
  Z"
/>
<path fill="#ca9d61" d="
  M 364.97 183.96
  Q 380.25 184.35 383.51 183.77
  C 393.28 182.01 399.50 174.81 402.40 165.71
  C 402.77 164.55 403.99 164.50 403.68 165.86
  Q 401.12 177.02 398.62 188.20
  A 0.99 0.99 0.0 0 1 397.65 188.98
  Q 368.39 189.01 339.16 189.00
  C 338.62 189.00 337.07 189.76 337.12 188.52
  A 0.64 0.64 0.0 0 1 337.75 187.91
  Q 346.22 187.72 346.24 179.24
  Q 346.27 148.87 346.24 118.49
  C 346.23 112.18 344.94 107.64 337.91 107.51
  C 337.38 107.50 336.27 107.25 337.04 106.49
  A 0.80 0.78 22.1 0 1 337.60 106.26
  Q 361.30 106.23 385.00 106.26
  Q 387.60 106.26 395.50 104.61
  A 1.01 1.00 -5.9 0 1 396.71 105.59
  L 396.72 124.18
  A 0.64 0.63 75.9 0 1 396.39 124.74
  C 395.69 125.13 395.28 124.41 395.29 123.80
  C 395.52 115.25 390.32 111.57 382.43 111.52
  Q 374.06 111.46 364.99 111.53
  A 1.00 0.99 90.0 0 0 364.00 112.53
  L 364.00 144.72
  A 1.00 1.00 0.0 0 0 364.99 145.72
  Q 370.80 145.75 376.56 145.77
  C 384.50 145.79 389.17 143.57 389.57 135.04
  Q 389.62 134.03 390.38 134.52
  A 0.81 0.81 0.0 0 1 390.75 135.20
  Q 390.71 148.05 390.80 160.90
  C 390.80 161.39 390.59 162.47 389.89 161.81
  A 1.01 1.00 21.2 0 1 389.57 161.10
  C 389.47 152.99 384.36 150.83 376.91 150.76
  Q 370.96 150.71 364.99 150.76
  A 1.00 1.00 0.0 0 0 364.00 151.76
  L 364.00 182.96
  A 1.00 0.99 -89.4 0 0 364.97 183.96
  Z"
/>
<path fill="#ca9d61" d="
  M 275.95 113.19
  C 282.48 105.33 291.98 104.06 301.74 104.97
  Q 310.19 105.75 318.70 105.80
  A 1.00 1.00 0.0 0 1 319.69 106.87
  Q 319.00 117.50 318.32 122.81
  Q 318.21 123.66 317.57 123.26
  A 0.81 0.81 0.0 0 1 317.19 122.65
  C 315.90 108.22 294.25 105.15 286.87 115.66
  C 281.37 123.49 288.09 128.62 294.55 132.82
  Q 305.57 139.99 316.57 147.16
  Q 324.63 152.42 326.00 161.17
  C 330.86 192.34 291.91 195.42 272.67 185.66
  C 266.49 182.53 270.31 168.79 272.62 164.19
  C 272.80 163.85 273.17 163.54 273.51 163.54
  A 0.52 0.51 88.9 0 1 274.03 164.05
  C 274.09 179.53 286.01 187.85 300.80 185.35
  C 314.53 183.04 316.57 168.48 305.05 161.14
  Q 295.65 155.16 286.34 149.04
  Q 277.37 143.16 274.89 139.54
  C 269.75 132.06 269.91 120.45 275.95 113.19
  Z"
/>
<path fill="#ca9d61" d="
  M 493.96 118.18
  C 502.02 99.37 524.49 105.76 539.77 105.80
  A 1.00 0.99 3.1 0 1 540.76 106.90
  Q 539.96 114.71 539.46 122.22
  C 539.34 123.90 538.17 123.48 537.98 122.06
  C 536.07 107.84 513.97 105.10 507.37 116.45
  C 502.85 124.22 509.25 128.75 515.56 132.86
  Q 527.24 140.46 538.91 148.10
  Q 545.67 152.53 546.85 161.18
  Q 549.29 179.07 534.23 186.96
  C 523.63 192.52 500.27 192.33 491.17 183.58
  A 0.99 0.95 18.4 0 1 490.88 183.03
  Q 489.16 172.64 493.80 163.81
  Q 494.14 163.17 494.67 163.56
  A 0.64 0.63 19.5 0 1 494.93 164.09
  C 494.40 191.32 535.69 192.09 533.58 171.35
  Q 533.03 165.94 528.33 162.89
  Q 506.71 148.85 500.31 144.44
  C 492.13 138.81 490.38 126.55 493.96 118.18
  Z"
/>
<path fill="#ca9d61" d="
  M 439.95 111.28
  A 1.00 0.99 88.8 0 0 439.00 112.28
  Q 439.01 145.78 439.07 179.24
  Q 439.08 187.74 447.58 187.87
  Q 448.32 187.88 448.29 188.51
  A 0.51 0.50 -88.3 0 1 447.78 189.00
  Q 430.43 188.96 413.08 189.05
  C 411.44 189.06 411.90 187.86 413.21 187.84
  C 419.79 187.75 421.24 183.44 421.24 177.48
  Q 421.27 147.43 421.24 117.36
  C 421.23 111.62 419.58 107.82 413.45 107.58
  C 411.85 107.51 411.26 106.27 413.15 106.26
  Q 432.45 106.19 451.74 106.32
  C 461.11 106.39 470.97 108.17 476.68 115.75
  C 484.29 125.85 481.82 141.48 471.74 149.04
  Q 459.48 158.23 443.98 150.33
  Q 443.58 150.13 443.37 149.88
  Q 442.25 148.63 443.92 148.55
  C 458.75 147.81 464.19 135.56 461.46 122.52
  C 459.19 111.66 449.28 110.88 439.95 111.28
  Z"
/>
<path fill="#ca9d61" d="
  M 566.95 177.98
  Q 567.05 147.57 566.99 117.15
  C 566.98 111.31 565.17 107.62 558.99 107.42
  Q 557.55 107.37 558.01 106.63
  A 0.80 0.79 15.4 0 1 558.69 106.25
  L 593.30 106.25
  A 0.80 0.79 -15.4 0 1 593.98 106.63
  Q 594.49 107.45 593.02 107.52
  Q 585.05 107.88 584.81 115.82
  Q 584.43 128.41 584.87 178.33
  C 584.92 184.35 586.87 187.75 593.15 187.81
  Q 593.92 187.82 593.99 188.43
  A 0.51 0.51 0.0 0 1 593.48 189.00
  L 558.58 189.00
  A 0.64 0.63 75.9 0 1 558.02 188.66
  Q 557.59 187.88 558.81 187.85
  C 565.34 187.73 566.93 184.06 566.95 177.98
  Z"
/>
<path fill="#ca9d61" d="
  M 216.07 278.18
  C 211.79 276.17 207.02 279.17 205.35 283.43
  Q 203.23 288.85 204.36 294.21
  Q 204.79 296.25 202.93 295.31
  Q 200.24 293.95 199.74 291.11
  C 197.97 281.14 210.72 272.24 219.54 277.03
  C 226.39 280.76 225.94 290.74 223.51 297.31
  Q 218.34 311.29 206.94 321.59
  Q 205.55 322.85 207.37 323.30
  Q 212.73 324.64 218.06 325.29
  Q 220.14 325.55 221.43 325.30
  Q 222.63 325.07 223.71 324.55
  Q 225.74 323.59 224.78 325.62
  Q 222.00 331.49 215.88 330.21
  C 212.59 329.52 206.35 327.19 202.85 325.45
  A 1.01 0.99 -45.6 0 0 201.91 325.47
  Q 196.38 328.60 193.02 327.86
  C 189.91 327.17 188.81 323.10 192.23 321.70
  C 194.86 320.63 199.15 321.57 201.85 322.06
  A 0.98 0.97 -61.2 0 0 202.72 321.80
  Q 213.98 310.83 218.87 295.92
  C 220.55 290.80 222.35 281.11 216.07 278.18
  Z
  M 193.19 325.81
  Q 195.52 326.78 197.73 325.44
  Q 199.46 324.39 197.57 323.66
  Q 195.75 322.95 193.73 323.26
  C 192.24 323.49 191.40 325.07 193.19 325.81
  Z"
/>
<path fill="#ca9d61" d="
  M 272.34 280.72
  L 272.80 281.90
  Q 272.90 282.14 272.86 282.40
  C 270.99 295.94 267.67 312.87 260.80 324.79
  C 258.19 329.31 251.38 332.68 247.04 328.53
  C 243.30 324.94 244.53 308.93 250.75 310.22
  A 1.00 1.00 0.0 0 1 251.47 311.58
  C 249.90 315.39 248.13 322.74 250.65 326.35
  Q 252.42 328.88 255.45 327.26
  C 258.44 325.66 260.44 319.14 261.24 316.25
  Q 266.18 298.52 269.66 280.44
  A 1.00 0.99 5.2 0 0 268.67 279.26
  Q 263.38 279.27 258.20 280.25
  Q 255.32 280.80 257.27 278.61
  Q 257.86 277.95 258.63 277.42
  C 262.64 274.68 275.55 276.11 280.27 277.02
  C 281.79 277.31 280.68 278.45 279.95 278.62
  Q 276.69 279.40 273.29 279.36
  A 1.00 1.00 0.0 0 0 272.34 280.72
  Z"
/>
<path fill="#ca9d61" d="
  M 288.05 319.75
  L 287.75 319.75
  A 0.43 0.12 -62.5 0 0 287.49 320.03
  C 285.42 323.73 280.78 329.09 276.88 325.21
  C 272.06 320.42 276.75 309.17 279.80 304.84
  A 1.01 1.00 -60.1 0 1 281.03 304.50
  L 282.31 305.08
  A 1.00 1.00 0.0 0 1 282.78 306.47
  C 280.15 311.21 277.33 318.20 279.67 323.55
  A 1.00 1.00 0.0 0 0 280.90 324.09
  C 286.21 322.33 290.88 311.68 293.07 306.82
  A 1.00 0.99 -65.8 0 1 294.38 306.32
  L 296.06 307.06
  A 1.00 0.99 24.1 0 1 296.57 308.38
  C 293.96 314.27 292.06 318.49 292.26 322.77
  Q 292.40 325.86 295.23 324.52
  C 301.88 321.38 304.08 317.33 306.47 309.90
  Q 311.89 293.08 322.14 278.62
  C 327.86 270.55 328.38 281.46 327.35 284.64
  Q 322.16 300.71 310.12 312.45
  A 1.09 1.07 -16.4 0 0 309.83 312.97
  C 309.15 316.31 307.75 325.99 313.33 324.12
  C 319.62 322.02 321.63 311.65 324.38 306.61
  C 325.41 304.73 330.32 298.29 331.31 303.15
  A 1.05 1.01 -37.0 0 1 331.20 303.84
  C 329.17 307.47 318.89 324.18 327.63 323.89
  C 332.02 323.74 335.95 318.03 337.43 314.40
  A 0.80 0.78 -86.0 0 1 337.96 313.93
  Q 338.89 313.67 338.41 315.06
  Q 335.82 322.62 328.93 325.50
  C 324.55 327.33 320.15 325.94 320.19 320.51
  A 0.54 0.52 -67.2 0 0 320.05 320.15
  Q 319.64 319.73 319.29 320.29
  C 317.09 323.83 312.47 327.85 308.19 326.07
  Q 305.30 324.87 304.78 320.59
  Q 304.56 318.68 303.36 320.18
  Q 302.42 321.37 300.89 322.87
  C 297.31 326.37 286.51 329.57 288.37 320.14
  A 0.33 0.33 0.0 0 0 288.05 319.75
  Z
  M 323.88 282.44
  Q 316.15 293.49 311.82 306.26
  Q 310.37 310.53 313.20 307.02
  Q 321.28 296.99 325.31 284.69
  Q 325.58 283.89 325.69 283.17
  Q 326.34 278.92 323.88 282.44
  Z"
/>
<path fill="#ca9d61" d="
  M 365.25 325.54
  C 362.68 326.90 352.71 331.28 353.32 324.08
  C 353.68 319.84 362.07 321.37 364.68 322.10
  A 1.01 1.00 30.7 0 0 365.64 321.86
  Q 378.57 309.70 382.93 292.70
  C 384.27 287.49 384.25 277.79 376.52 277.59
  Q 371.87 277.46 369.56 281.32
  Q 366.19 286.95 367.46 294.30
  A 1.00 0.99 3.7 0 1 366.18 295.42
  Q 363.54 294.61 363.01 291.99
  C 359.79 275.87 386.82 267.97 388.21 286.52
  C 388.47 290.04 387.87 294.12 386.55 297.62
  Q 381.34 311.45 370.12 321.62
  Q 368.71 322.90 370.56 323.33
  Q 376.52 324.74 383.02 325.28
  Q 384.79 325.43 386.43 324.67
  Q 388.59 323.68 387.79 325.92
  Q 385.78 331.52 378.68 330.11
  Q 374.11 329.20 366.14 325.52
  A 1.00 1.00 0.0 0 0 365.25 325.54
  Z
  M 357.63 326.14
  Q 359.18 326.16 360.72 325.41
  Q 363.33 324.14 360.49 323.53
  Q 358.92 323.19 357.26 323.21
  C 354.17 323.25 355.10 326.12 357.63 326.14
  Z"
/>
<path fill="#ca9d61" d="
  M 405.2956 330.0137
  A 28.64 17.31 109.7 0 1 398.6531 297.2149
  A 28.64 17.31 109.7 0 1 424.6044 276.0863
  A 28.64 17.31 109.7 0 1 431.2469 308.8851
  A 28.64 17.31 109.7 0 1 405.2956 330.0137
  Z
  M 406.17 326.83
  C 411.01 330.31 416.72 325.73 419.46 321.46
  Q 428.19 307.80 428.75 291.48
  C 428.97 285.08 427.22 275.91 418.57 277.91
  C 405.28 280.98 395.49 319.15 406.17 326.83
  Z"
/>
<path fill="#ca9d61" d="
  M 451.45 323.27
  Q 457.69 325.08 463.76 325.45
  C 464.86 325.52 468.33 324.14 468.67 324.33
  A 0.42 0.42 0.0 0 1 468.87 324.81
  C 465.86 334.78 453.67 328.57 446.96 325.53
  A 1.03 1.03 0.0 0 0 446.06 325.57
  C 442.93 327.28 434.83 330.74 434.06 324.84
  C 433.37 319.58 442.91 321.44 445.47 322.17
  A 1.03 1.03 0.0 0 0 446.44 321.93
  C 455.94 312.85 466.42 295.96 463.79 282.75
  C 462.38 275.69 452.95 276.42 449.97 281.99
  Q 447.02 287.48 448.13 294.15
  Q 448.42 295.95 446.75 295.23
  Q 444.91 294.45 444.05 292.66
  Q 443.23 290.95 443.73 288.22
  C 445.40 279.10 455.44 271.95 464.01 277.42
  C 471.23 282.03 469.32 293.37 466.38 300.04
  Q 460.96 312.34 451.04 321.57
  Q 449.75 322.78 451.45 323.27
  Z
  M 436.94 325.81
  Q 439.43 326.89 441.71 325.35
  Q 443.47 324.16 441.44 323.56
  Q 439.52 323.00 437.51 323.30
  C 436.03 323.53 435.28 325.09 436.94 325.81
  Z"
/>
<path fill="#ca9d61" d="
  M 491.52 302.08
  Q 491.04 301.78 490.54 301.48
  A 1.00 1.00 0.0 0 1 490.50 299.80
  Q 495.99 296.04 498.48 289.74
  C 499.85 286.29 500.54 281.39 497.37 278.77
  Q 494.65 276.53 490.93 277.99
  Q 483.62 280.85 486.68 288.98
  A 1.00 0.99 59.5 0 1 486.40 290.08
  Q 482.63 293.37 481.82 287.87
  C 479.43 271.65 510.44 271.59 504.08 288.60
  Q 501.46 295.63 495.06 299.28
  Q 493.67 300.07 495.14 300.71
  Q 502.22 303.78 502.97 311.49
  C 504.99 332.49 469.48 337.47 474.00 318.04
  Q 474.47 316.01 475.67 314.93
  Q 476.71 314.01 478.05 313.59
  Q 480.20 312.91 479.25 314.96
  Q 478.20 317.25 478.16 319.74
  C 478.05 327.96 486.15 330.89 491.66 325.09
  C 496.62 319.86 498.69 306.52 491.52 302.08
  Z"
/>
<ellipse fill="#ca9d61" cx="0.00" cy="0.00" transform="translate(334.29,292.34) rotate(-26.6)" rx="3.76" ry="2.58"/>
</svg>
